<svg width="2594" height="601" viewBox="0 0 2594 601" fill="none" xmlns="http://www.w3.org/2000/svg">
<path d="M716.879 290.926L688.15 275.277C675.538 213.382 645.407 158.026 603.132 114.349C579.308 89.5905 551.747 68.803 521.149 52.4532V34.2349C521.149 24.6586 502.931 16.0166 473.501 9.9438C445.94 4.1046 408.569 0.601074 367.461 0.601074C352.98 0.601074 338.966 1.06821 325.419 1.76892C260.954 5.73957 213.773 18.8194 213.773 34.0013V52.2196C193.219 63.1973 174.067 76.2772 156.316 91.2255C101.427 137.939 61.9542 202.17 46.7723 275.277L18.0434 290.926C4.96356 297.933 -2.04348 312.648 0.525768 327.129L26.6854 474.044C29.2546 488.992 41.4002 500.203 56.3485 502.072L100.259 507.444C124.083 533.136 154.214 553.223 189.015 567.938C235.729 587.791 290.617 598.302 349.71 599.937C355.549 600.171 361.622 600.171 367.461 600.171C412.54 600.171 455.516 595.266 494.756 585.222C546.141 571.909 590.986 549.486 624.853 517.254C628.824 513.517 632.795 509.546 636.532 505.342L677.873 501.371C693.289 499.97 705.668 488.525 708.471 473.109L734.397 326.896C736.966 312.648 729.959 297.933 716.879 290.926Z" fill="url(#paint0_linear_605_4529)"/>
<path d="M367.463 520.056C289.451 520.056 225.453 503.94 182.477 473.342C140.668 443.679 120.348 400.469 120.348 341.376C120.348 204.973 231.292 94.0277 367.696 94.0277C504.1 94.0277 615.045 204.973 615.045 341.376C615.045 400.469 594.724 443.446 552.916 473.342C509.472 503.94 445.474 520.056 367.463 520.056Z" fill="white"/>
<path d="M367.462 463.067C318.88 463.067 273.801 434.572 252.546 390.661L291.786 371.976C306.033 401.405 334.996 419.857 367.462 419.857C399.928 419.857 429.124 401.639 443.138 371.976L482.377 390.661C461.122 434.572 416.044 463.067 367.462 463.067Z" fill="black"/>
<path d="M1030.94 470.147C1008.47 470.147 987.678 465.787 968.564 457.069C949.785 448.015 934.36 435.44 922.288 419.344L959.51 374.578C978.959 401.404 1002.26 414.817 1029.43 414.817C1065.98 414.817 1084.25 393.189 1084.25 349.931V167.847V113.021H1149.64V346.41C1149.64 387.656 1139.58 418.674 1119.46 439.464C1099.34 459.919 1069.83 470.147 1030.94 470.147Z" fill="black"/>
<path d="M1319.07 193.5C1358.64 193.5 1388.82 203.057 1409.61 222.17C1430.73 240.949 1441.29 269.452 1441.29 307.679V465.117H1381.94V432.422C1374.23 444.159 1363.16 453.212 1348.74 459.584C1334.66 465.62 1317.56 468.638 1297.44 468.638C1277.32 468.638 1259.71 465.284 1244.62 458.578C1229.53 451.536 1217.8 441.979 1209.41 429.907C1201.37 417.5 1197.34 403.584 1197.34 388.159C1197.34 364.015 1206.23 344.733 1224 330.314C1242.11 315.56 1270.44 308.182 1309.01 308.182H1378.42V304.158C1378.42 285.38 1372.72 270.961 1361.32 260.901C1350.25 250.841 1333.65 245.811 1311.52 245.811C1296.43 245.811 1281.51 248.158 1266.76 252.853C1252.34 257.548 1240.1 264.087 1230.04 272.47L1205.39 226.697C1219.47 215.967 1236.41 207.751 1256.19 202.051C1275.98 196.35 1296.94 193.5 1319.07 193.5ZM1310.52 422.865C1326.28 422.865 1340.19 419.344 1352.26 412.302C1364.67 404.925 1373.39 394.53 1378.42 381.117V349.931H1313.53C1277.32 349.931 1259.21 361.835 1259.21 385.644C1259.21 397.045 1263.74 406.099 1272.79 412.805C1281.85 419.512 1294.42 422.865 1310.52 422.865Z" fill="black"/>
<path d="M1604.98 468.638C1583.18 468.638 1561.89 465.787 1541.1 460.087C1520.31 454.386 1503.71 447.177 1491.3 438.458L1515.45 390.674C1527.52 398.721 1541.94 405.26 1558.7 410.29C1575.81 414.985 1592.57 417.332 1609 417.332C1646.56 417.332 1665.34 407.44 1665.34 387.656C1665.34 378.266 1660.48 371.727 1650.75 368.039C1641.36 364.35 1626.11 360.829 1604.98 357.476C1582.85 354.123 1564.74 350.266 1550.66 345.907C1536.91 341.548 1524.84 334.003 1514.44 323.272C1504.38 312.206 1499.35 296.949 1499.35 277.5C1499.35 252.015 1509.91 231.727 1531.04 216.637C1552.5 201.212 1581.34 193.5 1617.55 193.5C1636 193.5 1654.44 195.679 1672.88 200.039C1691.33 204.063 1706.42 209.595 1718.15 216.637L1694.01 264.422C1671.21 251.009 1645.55 244.302 1617.05 244.302C1598.61 244.302 1584.52 247.152 1574.8 252.853C1565.41 258.218 1560.72 265.428 1560.72 274.482C1560.72 284.542 1565.75 291.751 1575.81 296.111C1586.2 300.134 1602.13 303.991 1623.59 307.679C1645.05 311.033 1662.66 314.889 1676.41 319.248C1690.15 323.608 1701.89 330.985 1711.61 341.38C1721.67 351.775 1726.7 366.53 1726.7 385.644C1726.7 410.793 1715.81 430.913 1694.01 446.003C1672.21 461.093 1642.54 468.638 1604.98 468.638Z" fill="black"/>
<path d="M1929.74 193.5C1955.89 193.5 1979.2 199.2 1999.65 210.601C2020.44 222.003 2036.71 238.098 2048.44 258.889C2060.18 279.679 2066.05 303.655 2066.05 330.817C2066.05 357.979 2060.18 382.123 2048.44 403.248C2036.71 424.039 2020.44 440.135 1999.65 451.536C1979.2 462.937 1955.89 468.638 1929.74 468.638C1893.52 468.638 1864.85 456.566 1843.73 432.422V562.698H1780.85V196.518H1840.71V231.727C1851.1 218.985 1863.85 209.428 1878.93 203.057C1894.36 196.685 1911.29 193.5 1929.74 193.5ZM1922.7 414.817C1945.83 414.817 1964.78 407.105 1979.53 391.68C1994.62 376.254 2002.17 355.967 2002.17 330.817C2002.17 305.667 1994.62 285.38 1979.53 269.955C1964.78 254.53 1945.83 246.817 1922.7 246.817C1907.61 246.817 1894.02 250.338 1881.95 257.38C1869.88 264.087 1860.32 273.811 1853.28 286.554C1846.24 299.296 1842.72 314.051 1842.72 330.817C1842.72 347.584 1846.24 362.338 1853.28 375.081C1860.32 387.823 1869.88 397.715 1881.95 404.757C1894.02 411.464 1907.61 414.817 1922.7 414.817Z" fill="black"/>
<path d="M2378.18 332.326C2378.18 336.685 2377.85 342.889 2377.17 350.937H2166.42C2170.11 370.721 2179.67 386.482 2195.09 398.218C2210.85 409.62 2230.3 415.32 2253.44 415.32C2282.95 415.32 2307.26 405.596 2326.37 386.147L2360.07 424.877C2348 439.296 2332.74 450.195 2314.3 457.572C2295.86 464.949 2275.07 468.638 2251.93 468.638C2222.42 468.638 2196.43 462.769 2173.96 451.033C2151.5 439.296 2134.06 423.033 2121.65 402.242C2109.58 381.117 2103.55 357.308 2103.55 330.817C2103.55 304.661 2109.41 281.188 2121.15 260.398C2133.22 239.272 2149.82 222.841 2170.95 211.104C2192.07 199.368 2215.88 193.5 2242.37 193.5C2268.53 193.5 2291.83 199.368 2312.29 211.104C2333.08 222.506 2349.17 238.769 2360.58 259.895C2372.31 280.685 2378.18 304.829 2378.18 332.326ZM2242.37 243.799C2222.25 243.799 2205.15 249.835 2191.07 261.907C2177.32 273.643 2168.93 289.404 2165.92 309.188H2318.32C2315.64 289.739 2307.43 273.979 2293.68 261.907C2279.93 249.835 2262.83 243.799 2242.37 243.799Z" fill="black"/>
<path d="M2498.43 235.751C2516.54 207.583 2548.4 193.5 2594 193.5V253.356C2588.64 252.35 2583.77 251.847 2579.41 251.847C2554.93 251.847 2535.82 259.057 2522.07 273.476C2508.32 287.56 2501.45 308.015 2501.45 334.841V465.117H2438.58V196.518H2498.43V235.751Z" fill="black"/>
<defs>
<linearGradient id="paint0_linear_605_4529" x1="189.206" y1="549.126" x2="590.833" y2="111.887" gradientUnits="userSpaceOnUse">
<stop stop-color="#E74694"/>
<stop offset="0.572917" stop-color="#6C2BD9"/>
<stop offset="1" stop-color="#00F0FF"/>
</linearGradient>
</defs>
</svg>
