<svg id="Layer_1" data-name="Layer 1" xmlns="http://www.w3.org/2000/svg" viewBox="0 0 235 76"><defs><style>.cls-1{fill:#ea7200;}.cls-2{fill:#00345e;}</style></defs><path class="cls-1" d="M75.09,62.72a11.62,11.62,0,0,1-9.45-4.49Q62,53.75,62,46.24V45.19a23.22,23.22,0,0,1,1.62-8.92,14.51,14.51,0,0,1,4.54-6.14,10.23,10.23,0,0,1,6.32-2.22,10.06,10.06,0,0,1,8.66,4.31q3.08,4.32,3.08,12.35V47H66.88a13.2,13.2,0,0,0,2.47,8,7.28,7.28,0,0,0,6,3.05,7.46,7.46,0,0,0,4.38-1.24,11.65,11.65,0,0,0,3.14-3.29l3,2.73A11.58,11.58,0,0,1,75.09,62.72Zm-.61-30.09a6.12,6.12,0,0,0-5,2.52A13.5,13.5,0,0,0,67,42.24h14.3v-.43a12.2,12.2,0,0,0-2-6.78A5.76,5.76,0,0,0,74.48,32.63Z"/><path class="cls-1" d="M90.68,45q0-7.91,3.09-12.51a9.53,9.53,0,0,1,8.28-4.61,9.38,9.38,0,0,1,8,4l.21-3.38h4.49V75h-4.89V59A9.54,9.54,0,0,1,102,62.72,9.4,9.4,0,0,1,93.76,58q-3.08-4.73-3.08-12.54Zm4.88.65q0,5.77,2.07,9.06A6.34,6.34,0,0,0,103.22,58q4.35,0,6.64-4.53V37.06c-1.54-3-3.74-4.43-6.59-4.43a6.37,6.37,0,0,0-5.62,3.3Q95.57,39.23,95.56,45.68Z"/><path class="cls-1" d="M140.21,58.78a9.69,9.69,0,0,1-8.37,3.94,8.22,8.22,0,0,1-7-3.12q-2.39-3.12-2.41-9.23V28.53h4.88V50.21q0,7.63,5.28,7.64,5.58,0,7.44-4.91V28.53H145V62.1h-4.65Z"/><path class="cls-1" d="M152.4,19.63a3.83,3.83,0,0,1,.72-2.36,2.53,2.53,0,0,1,2.15-1,2.58,2.58,0,0,1,2.17,1,3.78,3.78,0,0,1,.74,2.36,3.62,3.62,0,0,1-.74,2.32,2.62,2.62,0,0,1-2.17.93,2.57,2.57,0,0,1-2.15-.93A3.67,3.67,0,0,1,152.4,19.63Zm5.27,42.47h-4.88V28.53h4.88Z"/><path class="cls-1" d="M172.11,20.4v8.13h5.33V33h-5.33V53.81a5.34,5.34,0,0,0,.71,3,2.79,2.79,0,0,0,2.43,1,10.12,10.12,0,0,0,2.32-.38V62.1a12.27,12.27,0,0,1-3.75.62,5.67,5.67,0,0,1-4.93-2.33,11.23,11.23,0,0,1-1.66-6.61V33H162V28.53h5.2V20.4Z"/><path class="cls-1" d="M200.76,62.1a13.78,13.78,0,0,1-.68-3.54A10.22,10.22,0,0,1,192,62.72,9.19,9.19,0,0,1,185,59.91a9.83,9.83,0,0,1-2.71-7.12,10.12,10.12,0,0,1,3.39-8.14q3.39-2.91,9.54-2.91H200V39.11a7.1,7.1,0,0,0-1.53-4.79A5.62,5.62,0,0,0,194,32.53a6.39,6.39,0,0,0-4.38,1.55,4.84,4.84,0,0,0-1.77,3.76H182.9A8.83,8.83,0,0,1,184.42,33a10.85,10.85,0,0,1,4.11-3.71,12.25,12.25,0,0,1,5.72-1.36,10.25,10.25,0,0,1,7.73,2.9,11.41,11.41,0,0,1,2.9,8V54.25a21.86,21.86,0,0,0,1,7.35v.5Zm-8.1-4.38a7.6,7.6,0,0,0,4.36-1.4,8.07,8.07,0,0,0,3-3.62V45.81h-3.83q-9,0-9,6.17a5.68,5.68,0,0,0,1.53,4.22A5.35,5.35,0,0,0,192.66,57.72Z"/><path class="cls-1" d="M229.15,53.19a4.49,4.49,0,0,0-1.49-3.61,13,13,0,0,0-5.19-2.22,22.31,22.31,0,0,1-5.89-2.23A8.93,8.93,0,0,1,213.36,42a8.4,8.4,0,0,1-1-4.28,9.32,9.32,0,0,1,3-7,10.51,10.51,0,0,1,7.59-2.85,10.77,10.77,0,0,1,7.87,2.95,10,10,0,0,1,3,7.54h-4.91a5.54,5.54,0,0,0-1.7-4.07,5.77,5.77,0,0,0-4.28-1.7A6,6,0,0,0,218.71,34a4.57,4.57,0,0,0-1.51,3.57,3.68,3.68,0,0,0,1.4,3.13,15.64,15.64,0,0,0,5.05,2A23.77,23.77,0,0,1,229.58,45a9.13,9.13,0,0,1,3.36,3.21,9,9,0,0,1,1.1,4.58A9.16,9.16,0,0,1,231,60,11.55,11.55,0,0,1,223,62.72,12.53,12.53,0,0,1,217,61.29a10.37,10.37,0,0,1-4.13-4,10.73,10.73,0,0,1-1.5-5.53h4.89a6.31,6.31,0,0,0,2,4.57A6.85,6.85,0,0,0,223,58a7,7,0,0,0,4.45-1.32A4.24,4.24,0,0,0,229.15,53.19Z"/><polygon class="cls-1" points="10.11 60.98 30.36 19.66 50.62 60.98 59.76 60.98 30.36 1 0.96 60.98 10.11 60.98"/><polygon class="cls-2" points="22.56 60.98 30.36 45.07 38.16 60.98 47.31 60.98 30.36 26.41 13.41 60.98 22.56 60.98"/></svg>