<svg id="Layer_1" data-name="Layer 1" xmlns="http://www.w3.org/2000/svg" viewBox="0 0 128 40"><defs><style>.cls-1{fill:#009cff;}.cls-2{fill:#353e44;}</style></defs><path class="cls-1" d="M26.66,3.32,9.48,36.68H34.11l5.14-8.91ZM33.16,35h-21L26.66,6.9,37.38,27.72Z"/><path class="cls-1" d="M39.92,29.07l-4.39,7.61h8.31Zm-.08,3.42L41.15,35H38.37Z"/><path class="cls-2" d="M59.86,23H53.07L51.27,28H49.65L55.7,11.82h1.53l6,16.17H61.65Zm-6.33-1.33H59.4l-2.9-8h-.07Z"/><path class="cls-2" d="M64.91,11.82h1.48V28H64.91Z"/><path class="cls-2" d="M68.47,22.16c0-3.71,2.15-6,5.31-6s5.31,2.31,5.31,6-2.14,6-5.31,6S68.47,25.86,68.47,22.16Zm9.12,0c0-3-1.52-4.7-3.81-4.7S70,19.2,70,22.16s1.51,4.71,3.8,4.71S77.59,25.12,77.59,22.16Z"/><path class="cls-2" d="M81.07,16.33h1.4v2.08h0a3,3,0,0,1,3-2.27,3.57,3.57,0,0,1,.92.13v1.45a3.29,3.29,0,0,0-1.11-.16c-1.66,0-2.72,1.29-2.72,3.17V28H81.07Z"/><path class="cls-2" d="M96.82,24.68c-.34,2-2.24,3.5-4.8,3.5-3.28,0-5.31-2.28-5.31-6s2.06-6.06,5.22-6.06,5,2.28,5,5.75v.63H88.24v.09c0,2.64,1.49,4.27,3.81,4.27a3.16,3.16,0,0,0,3.31-2.2Zm-8.57-3.34h7.2c0-2.29-1.44-3.9-3.55-3.9S88.37,19.05,88.25,21.34Z"/><path class="cls-2" d="M99.07,27.05a1,1,0,1,1,2.09,0,1,1,0,0,1-2.09,0Z"/><path class="cls-2" d="M104.1,12.93a1,1,0,1,1,1,1A1,1,0,0,1,104.1,12.93Zm.24,3.4h1.48V28h-1.48Z"/><path class="cls-2" d="M107.9,22.16c0-3.71,2.15-6,5.31-6s5.31,2.31,5.31,6-2.14,6-5.31,6S107.9,25.86,107.9,22.16Zm9.12,0c0-3-1.52-4.7-3.81-4.7s-3.8,1.74-3.8,4.7,1.51,4.71,3.8,4.71S117,25.12,117,22.16Z"/></svg>