<svg id="Layer_1" data-name="Layer 1" xmlns="http://www.w3.org/2000/svg" viewBox="0 0 128 40"><defs><style>.cls-1{fill:#869ab8;fill-rule:evenodd;}</style></defs><path class="cls-1" d="M73.48,26.69c-4.56,3.37-11.19,5.17-16.92,5.17A30.71,30.71,0,0,1,35.88,24c-.41-.39-.05-.91.47-.61A41.54,41.54,0,0,0,57,28.85a41.05,41.05,0,0,0,15.79-3.24C73.59,25.31,74.23,26.14,73.48,26.69Z"/><path class="cls-1" d="M75.39,24.51c-.58-.75-3.87-.36-5.34-.17-.44.06-.52-.33-.11-.61,2.63-1.85,6.92-1.3,7.41-.69s-.14,4.92-2.6,7c-.38.3-.74.14-.58-.28C74.73,28.35,76,25.28,75.39,24.51Z"/><path class="cls-1" d="M70.14,10.74V8.94a.42.42,0,0,1,.44-.44h8a.46.46,0,0,1,.47.44v1.52c0,.25-.22.58-.61,1.14l-4.15,5.91a9,9,0,0,1,4.56,1,.82.82,0,0,1,.42.69v1.91c0,.28-.28.58-.58.41a9.16,9.16,0,0,0-8.46,0,.43.43,0,0,1-.58-.41V19.28a2.08,2.08,0,0,1,.3-1.21l4.81-6.89H70.61a.46.46,0,0,1-.47-.44ZM40.92,21.88H38.48a.5.5,0,0,1-.44-.41V9a.46.46,0,0,1,.47-.44h2.27a.45.45,0,0,1,.44.41v1.63h.05a3.24,3.24,0,0,1,3.21-2.32,3.2,3.2,0,0,1,3.15,2.32,3.6,3.6,0,0,1,6.2-.94c.77,1,.6,2.57.6,3.93v7.91a.46.46,0,0,1-.47.44h-2.4a.47.47,0,0,1-.44-.44V14.83a16.69,16.69,0,0,0-.06-2.35,1.28,1.28,0,0,0-1.44-1.08,1.62,1.62,0,0,0-1.46,1,7.57,7.57,0,0,0-.22,2.4v6.64a.46.46,0,0,1-.47.44H45a.48.48,0,0,1-.44-.44V14.83c0-1.38.22-3.46-1.49-3.46s-1.69,2-1.69,3.46v6.64a.47.47,0,0,1-.49.41ZM86,8.25c3.62,0,5.58,3.1,5.58,7.05S89.41,22.16,86,22.16s-5.48-3.1-5.48-7S82.44,8.25,86,8.25Zm0,2.57c-1.8,0-1.91,2.46-1.91,4s0,4.79,1.88,4.79,2-2.63,2-4.23A11.87,11.87,0,0,0,87.58,12,1.52,1.52,0,0,0,86,10.82ZM96.24,21.88H93.8a.47.47,0,0,1-.44-.44V8.91a.48.48,0,0,1,.47-.41H96.1a.48.48,0,0,1,.44.36v1.91h.06c.69-1.72,1.63-2.52,3.31-2.52a3.22,3.22,0,0,1,2.85,1.47c.64,1,.64,2.68.64,3.89v7.88a.46.46,0,0,1-.47.39h-2.44a.5.5,0,0,1-.44-.39v-6.8c0-1.38.17-3.37-1.52-3.37a1.61,1.61,0,0,0-1.41,1,5.82,5.82,0,0,0-.39,2.38v6.75a.5.5,0,0,1-.49.44Zm-32.49-6a5,5,0,0,1-.44,2.6,2,2,0,0,1-1.69,1.1c-.94,0-1.49-.72-1.49-1.77,0-2.07,1.85-2.46,3.62-2.46Zm2.46,5.94a.5.5,0,0,1-.58.06,6.28,6.28,0,0,1-1.41-1.63,4.86,4.86,0,0,1-4,1.77,3.47,3.47,0,0,1-3.65-3.79,4.14,4.14,0,0,1,2.6-4,17.48,17.48,0,0,1,4.59-.86v-.3a3,3,0,0,0-.3-1.77,1.63,1.63,0,0,0-1.36-.64,1.84,1.84,0,0,0-2,1.47c-.06.22-.19.44-.42.44l-2.35-.25a.42.42,0,0,1-.35-.5c.55-2.87,3.12-3.73,5.44-3.73a5.44,5.44,0,0,1,3.68,1.22c1.19,1.1,1.08,2.6,1.08,4.2v3.79a3.41,3.41,0,0,0,.91,2.26.44.44,0,0,1,0,.64c-.53.41-1.41,1.19-1.91,1.6ZM31.82,15.91a5,5,0,0,1-.44,2.6,2,2,0,0,1-1.69,1.1c-.94,0-1.49-.72-1.49-1.77,0-2.07,1.85-2.46,3.62-2.46Zm2.43,5.94a.5.5,0,0,1-.58.06,6.28,6.28,0,0,1-1.41-1.63,4.86,4.86,0,0,1-4,1.77,3.47,3.47,0,0,1-3.65-3.79,4.14,4.14,0,0,1,2.6-4,17.48,17.48,0,0,1,4.59-.86v-.3a3,3,0,0,0-.3-1.77,1.63,1.63,0,0,0-1.36-.64,1.84,1.84,0,0,0-2,1.47c-.06.22-.19.44-.41.44l-2.35-.25c-.2-.06-.42-.19-.36-.5C25.6,9,28.17,8.14,30.49,8.14a5.44,5.44,0,0,1,3.68,1.22c1.19,1.1,1.08,2.6,1.08,4.2v3.79a3.41,3.41,0,0,0,.91,2.26.44.44,0,0,1,0,.64c-.53.41-1.41,1.19-1.91,1.6Z"/></svg>