<svg id="Layer_1" data-name="Layer 1" xmlns="http://www.w3.org/2000/svg" viewBox="0 0 264 72"><defs><style>.cls-1{fill:#20303c;fill-rule:evenodd;}</style></defs><g id="Page-1"><g id="Home"><g id="Group-33"><path id="Fill-20" class="cls-1" d="M118.78,46.67a10.5,10.5,0,0,0,2.89-7.75,10.35,10.35,0,0,0-2.86-7.69,9.63,9.63,0,0,0-13.62-.06,10.18,10.18,0,0,0-2.87,7.64,10.66,10.66,0,0,0,2.87,7.77,9.45,9.45,0,0,0,13.59.09Zm-8.17,8.48a14.17,14.17,0,0,1-10.72-4.58,16.37,16.37,0,0,1-4.35-11.74,16,16,0,0,1,4.32-11.62,14.34,14.34,0,0,1,10.75-4.47,12.86,12.86,0,0,1,6.63,1.68,11.89,11.89,0,0,1,4.43,4.42V23.25h6.67V54.64h-6.67V48.77a12.22,12.22,0,0,1-11.06,6.38Zm49.54-8.54a10.7,10.7,0,0,0,2.9-7.8,10.18,10.18,0,0,0-2.87-7.64,9.46,9.46,0,0,0-6.84-2.79,9.36,9.36,0,0,0-6.84,2.85,10.36,10.36,0,0,0-2.87,7.69,10.46,10.46,0,0,0,2.87,7.72,9.52,9.52,0,0,0,13.65,0Zm-5.39-23.87a14.24,14.24,0,0,1,10.72,4.47,16.09,16.09,0,0,1,4.29,11.62,16.44,16.44,0,0,1-4.32,11.74,14.08,14.08,0,0,1-10.69,4.58,12.51,12.51,0,0,1-6.61-1.73,13.08,13.08,0,0,1-4.52-4.65v20.8H137V23.25h6.6v5.59a12.39,12.39,0,0,1,4.5-4.42,12.86,12.86,0,0,1,6.63-1.68Zm21.55,31.9h6.61V23.25h-6.61Zm15.3,0h6.61V23.25h-6.61Zm21.9-31.39v5.47a10.1,10.1,0,0,1,9.56-6v6.72h-1.68a8.14,8.14,0,0,0-5.88,1.94q-2,1.93-2,6.72V54.64h-6.6V23.25ZM249.9,46.84q2.9-2.85,2.9-7.92T250,31a9.26,9.26,0,0,0-6.81-2.82A9,9,0,0,0,236.46,31c-1.82,1.88-2.72,4.52-2.72,7.92s.88,6,2.66,7.92A8.77,8.77,0,0,0,243,49.69a9.45,9.45,0,0,0,6.86-2.85ZM243,55.15A15.4,15.4,0,0,1,227,39a15.53,15.53,0,0,1,4.67-11.74,17.33,17.33,0,0,1,23.23,0,15.49,15.49,0,0,1,4.67,11.71,15.4,15.4,0,0,1-4.78,11.73A16.56,16.56,0,0,1,243,55.15Z"/><g id="Group-2"><polygon id="Fill-18" class="cls-1" points="4.42 36 39.81 71 20.33 36 39.81 1 4.42 36"/><polygon id="Fill-19" class="cls-1" points="39.81 1 59.3 36 39.81 71 39.81 71 75.21 36 39.81 1"/></g></g></g></g></svg>