<svg id="Layer_1" data-name="Layer 1" xmlns="http://www.w3.org/2000/svg" viewBox="0 0 524 64"><path d="M11.61,21.52H52.43A10.88,10.88,0,0,0,63.32,10.64V.5H52.43v8a2.18,2.18,0,0,1-2.17,2.18H13.78a2.18,2.18,0,0,1-2.17-2.18V.5H.72V10.64A10.89,10.89,0,0,0,11.61,21.52Z"/><polygon points="34.3 52.62 29.75 52.62 17.49 31.26 0.34 31.26 6.68 42.14 11.19 42.14 23.44 63.5 40.6 63.5 52.85 42.14 57.36 42.14 63.7 31.26 46.55 31.26 34.3 52.62"/><path d="M144.54,34.64a12.76,12.76,0,0,0-3.83-2.71,13.34,13.34,0,0,0-4.85-1.23V30a10.17,10.17,0,0,0,3.77-1.32,11.65,11.65,0,0,0,3-2.53,11.49,11.49,0,0,0,2-3.42,11.17,11.17,0,0,0,.73-4,13,13,0,0,0-1.12-5.52,11.39,11.39,0,0,0-3.22-4.14,15.06,15.06,0,0,0-5.15-2.62A23.91,23.91,0,0,0,129,5.57H105.92V58.43h23.75a25.34,25.34,0,0,0,7.6-1.06,16.92,16.92,0,0,0,5.77-3,13,13,0,0,0,3.64-4.76A15,15,0,0,0,148,43.3a12.59,12.59,0,0,0-.9-4.78A11.9,11.9,0,0,0,144.54,34.64ZM117,14h9.23a9.44,9.44,0,0,1,6.16,1.78,6.05,6.05,0,0,1,2.16,5,5.82,5.82,0,0,1-2.36,5c-1.58,1.16-3.87,1.73-6.87,1.73H117Zm17.16,34Q131.64,50,126.84,50H117V35h9.6q4.91,0,7.49,1.87a6.38,6.38,0,0,1,2.58,5.53A6.74,6.74,0,0,1,134.15,48Z"/><path d="M200.88,35.13a14.48,14.48,0,0,0,3-3.46,16,16,0,0,0,1.86-4.29,18.08,18.08,0,0,0,.64-4.85,18.29,18.29,0,0,0-1.3-7.09,14.59,14.59,0,0,0-3.71-5.33,16.43,16.43,0,0,0-5.9-3.37,24.55,24.55,0,0,0-7.84-1.17H165.45V58.43h11.07V39.27h9l9.85,19.16H208L196.82,37.55A15,15,0,0,0,200.88,35.13Zm-8.13-6.48a9.3,9.3,0,0,1-6.52,2.12h-9.71V14.51h9.6a11.48,11.48,0,0,1,3.72.56,8,8,0,0,1,2.82,1.63,7,7,0,0,1,1.77,2.59,8.75,8.75,0,0,1,.63,3.39A7.72,7.72,0,0,1,192.75,28.65Z"/><path d="M239.64,5.57,221.28,58.43h11.1l4.07-12.6H255l4,12.6h12L252.64,5.57Zm-.81,31.72,6.63-20.73h.66l6.56,20.73Z"/><polygon points="308.91 45.98 308.25 45.98 296.24 5.57 283.74 5.57 301.62 58.43 315 58.43 332.62 5.57 320.71 5.57 308.91 45.98"/><path d="M363.72,5.57,345.36,58.43h11.1l4.07-12.6h18.58l4,12.6h12L376.72,5.57Zm-.81,31.72,6.63-20.73h.66l6.56,20.73Z"/><path d="M450.7,12.36a20.46,20.46,0,0,0-7.78-5.09,29.66,29.66,0,0,0-10.51-1.74H411.59v52.9h20.82A29.35,29.35,0,0,0,443,56.66a20.52,20.52,0,0,0,7.78-5.19,22.48,22.48,0,0,0,4.82-8.41,36.46,36.46,0,0,0,1.65-11.44,34,34,0,0,0-1.67-11A22.22,22.22,0,0,0,450.7,12.36ZM442,44.6Q438,49,430.65,49h-8V15h8a17.38,17.38,0,0,1,6.43,1.12,12.61,12.61,0,0,1,4.8,3.28,14.77,14.77,0,0,1,3,5.29,22.43,22.43,0,0,1,1,7.13Q445.92,40.23,442,44.6Z"/><path d="M521.89,20.42a24.73,24.73,0,0,0-5.08-8.74,22.34,22.34,0,0,0-8-5.53,29.75,29.75,0,0,0-21.08,0,22.23,22.23,0,0,0-8,5.54,24.84,24.84,0,0,0-5.11,8.75A35.15,35.15,0,0,0,472.81,32a35.27,35.27,0,0,0,1.78,11.6,24.57,24.57,0,0,0,5.07,8.74,22.33,22.33,0,0,0,8,5.53,29.85,29.85,0,0,0,21.17,0,22.33,22.33,0,0,0,8-5.53,24.38,24.38,0,0,0,5-8.74A35.55,35.55,0,0,0,523.66,32,35.43,35.43,0,0,0,521.89,20.42Zm-10.5,19a17,17,0,0,1-2.84,5.69,12.8,12.8,0,0,1-4.45,3.65,13.1,13.1,0,0,1-5.83,1.28,13.28,13.28,0,0,1-5.88-1.28,12.62,12.62,0,0,1-4.45-3.65,17.13,17.13,0,0,1-2.82-5.69,26.3,26.3,0,0,1-1-7.48,26,26,0,0,1,1-7.49,16.86,16.86,0,0,1,2.86-5.7,12.7,12.7,0,0,1,4.45-3.61,14.09,14.09,0,0,1,11.65,0,12.79,12.79,0,0,1,4.45,3.61,16.84,16.84,0,0,1,2.84,5.7,26.38,26.38,0,0,1,1,7.49A26.3,26.3,0,0,1,511.39,39.46Z"/></svg>