<svg xmlns="http://www.w3.org/2000/svg" xmlns:xlink="http://www.w3.org/1999/xlink" width="1080" zoomAndPan="magnify" viewBox="0 0 810 809.999993" height="1080" preserveAspectRatio="xMidYMid meet" version="1.0"><defs><clipPath id="f76d5cb1c7"><path d="M 0 374.679688 L 810 374.679688 L 810 810 L 0 810 Z M 0 374.679688 " clip-rule="nonzero"/></clipPath><clipPath id="708e92262a"><path d="M 332 85.109375 L 489 85.109375 L 489 238 L 332 238 Z M 332 85.109375 " clip-rule="nonzero"/></clipPath><clipPath id="0b002d6bb2"><path d="M 97.128906 268 L 382 268 L 382 588 L 97.128906 588 Z M 97.128906 268 " clip-rule="nonzero"/></clipPath><clipPath id="ca4f0b2811"><path d="M 405 272 L 728.628906 272 L 728.628906 729 L 405 729 Z M 405 272 " clip-rule="nonzero"/></clipPath></defs><rect x="-81" width="972" fill="#ffffff" y="-80.999999" height="971.999992" fill-opacity="1"/><rect x="-81" width="972" fill="#02329a" y="-80.999999" height="971.999992" fill-opacity="1"/><g clip-path="url(#f76d5cb1c7)"><path fill="#5ae0de" d="M 0 374.679688 L 809.421875 374.679688 L 809.421875 810 L 0 810 Z M 0 374.679688 " fill-opacity="1" fill-rule="nonzero"/></g><path stroke-linecap="butt" transform="matrix(0.75, 0, 0, 0.75, 97.127336, 85.114257)" fill="none" stroke-linejoin="miter" d="M 169.684394 385.727886 L 166.720852 388.852886 C 166.371893 389.207053 166.38231 389.561219 166.746893 389.920594 C 167.371893 390.524761 168.179185 390.868511 169.179185 390.946636 " stroke="#704090" stroke-width="2" stroke-opacity="1" stroke-miterlimit="4"/><path stroke-linecap="butt" transform="matrix(0.75, 0, 0, 0.75, 97.127336, 85.114257)" fill="none" stroke-linejoin="miter" d="M 309.064609 604.076855 C 297.15315 582.368521 283.137524 562.253936 267.017732 543.727894 " stroke="#704090" stroke-width="2" stroke-opacity="1" stroke-miterlimit="4"/><path stroke-linecap="butt" transform="matrix(0.75, 0, 0, 0.75, 97.127336, 85.114257)" fill="none" stroke-linejoin="miter" d="M 267.017732 543.727894 C 244.668772 516.233101 220.726063 490.186224 195.184395 465.582056 C 184.663561 455.446639 175.319811 448.014347 163.611477 440.920597 C 152.111476 433.97268 144.012517 428.707055 139.309392 425.128929 C 122.392725 412.227887 112.486474 393.337261 123.3146 372.602885 C 125.788558 367.884135 128.778142 363.769551 132.288558 360.253926 C 145.460434 347.071634 158.621893 333.967466 171.767727 320.946632 C 171.892727 320.816424 171.929185 320.670591 171.877102 320.498716 C 171.830227 320.326841 171.715644 320.222674 171.53856 320.186216 L 49.866679 294.493506 C 49.325013 294.378923 49.101054 294.592464 49.200013 295.134131 L 71.095847 418.222679 C 71.184389 418.722679 71.418764 418.800804 71.793764 418.451846 C 80.658347 410.358095 86.653139 400.321636 100.804182 401.269553 C 115.585433 402.243512 125.663558 418.826846 119.215641 432.446638 C 116.413558 438.332055 109.736474 443.75393 104.62189 448.868514 " stroke="#1f8979" stroke-width="2" stroke-opacity="1" stroke-miterlimit="4"/><path stroke-linecap="butt" transform="matrix(0.75, 0, 0, 0.75, 97.127336, 85.114257)" fill="none" stroke-linejoin="miter" d="M 104.62189 448.868514 L 80.403139 472.832057 " stroke="#704090" stroke-width="2" stroke-opacity="1" stroke-miterlimit="4"/><path stroke-linecap="butt" transform="matrix(0.75, 0, 0, 0.75, 97.127336, 85.114257)" fill="none" stroke-linejoin="miter" d="M 267.017732 543.727894 C 266.793773 544.029977 266.502107 544.003935 266.137523 543.649769 C 249.819814 527.483101 232.83023 513.087267 215.158354 500.457058 C 181.694811 476.529974 144.845851 459.332056 104.62189 448.868514 " stroke="#8d976f" stroke-width="2" stroke-opacity="1" stroke-miterlimit="4"/><path stroke-linecap="butt" transform="matrix(0.75, 0, 0, 0.75, 97.127336, 85.114257)" fill="none" stroke-linejoin="miter" d="M 484.757326 197.321626 C 482.325034 195.045584 480.762534 193.222668 480.069826 191.863293 C 478.246909 188.274751 476.554201 184.957042 474.996909 181.915375 " stroke="#704090" stroke-width="2" stroke-opacity="1" stroke-miterlimit="4"/><path stroke-linecap="butt" transform="matrix(0.75, 0, 0, 0.75, 97.127336, 85.114257)" fill="none" stroke-linejoin="miter" d="M 474.996909 181.915375 L 419.668781 71.738287 C 419.335448 71.087245 419.002114 71.082037 418.663573 71.722662 L 360.252112 182.061209 " stroke="#1f8979" stroke-width="2" stroke-opacity="1" stroke-miterlimit="4"/><path stroke-linecap="butt" transform="matrix(0.75, 0, 0, 0.75, 97.127336, 85.114257)" fill="none" stroke-linejoin="miter" d="M 360.252112 182.061209 C 357.236486 187.311209 355.085445 192.436209 351.304194 197.321626 " stroke="#704090" stroke-width="2" stroke-opacity="1" stroke-miterlimit="4"/><path stroke-linecap="butt" transform="matrix(0.75, 0, 0, 0.75, 97.127336, 85.114257)" fill="none" stroke-linejoin="miter" d="M 474.996909 181.915375 L 440.772949 182.019542 " stroke="#8d976f" stroke-width="2" stroke-opacity="1" stroke-miterlimit="4"/><path stroke-linecap="butt" transform="matrix(0.75, 0, 0, 0.75, 97.127336, 85.114257)" fill="none" stroke-linejoin="miter" d="M 440.772949 182.019542 L 396.007322 182.035167 " stroke="#1f8979" stroke-width="2" stroke-opacity="1" stroke-miterlimit="4"/><path stroke-linecap="butt" transform="matrix(0.75, 0, 0, 0.75, 97.127336, 85.114257)" fill="none" stroke-linejoin="miter" d="M 396.007322 182.035167 L 360.252112 182.061209 " stroke="#8d976f" stroke-width="2" stroke-opacity="1" stroke-miterlimit="4"/><path stroke-linecap="butt" transform="matrix(0.75, 0, 0, 0.75, 97.127336, 85.114257)" fill="none" stroke-linejoin="miter" d="M 440.616699 197.31121 L 440.772949 182.019542 " stroke="#704090" stroke-width="2" stroke-opacity="1" stroke-miterlimit="4"/><path stroke-linecap="butt" transform="matrix(0.75, 0, 0, 0.75, 97.127336, 85.114257)" fill="none" stroke-linejoin="miter" d="M 396.007322 182.035167 L 396.16878 197.337251 " stroke="#704090" stroke-width="2" stroke-opacity="1" stroke-miterlimit="4"/><path stroke-linecap="butt" transform="matrix(0.75, 0, 0, 0.75, 97.127336, 85.114257)" fill="none" stroke-linejoin="miter" d="M 772.095882 484.472682 C 763.121923 479.733099 756.043798 471.097682 748.861506 464.113306 " stroke="#704090" stroke-width="2" stroke-opacity="1" stroke-miterlimit="4"/><path stroke-linecap="butt" transform="matrix(0.75, 0, 0, 0.75, 97.127336, 85.114257)" fill="none" stroke-linejoin="miter" d="M 748.861506 464.113306 C 742.116714 457.347681 735.366714 450.634139 728.606297 443.967472 C 710.715671 426.290388 730.06463 397.582053 752.866715 407.368512 C 759.075048 410.024762 765.272965 417.675804 770.60109 422.832054 C 771.090674 423.300804 771.392757 423.207054 771.507341 422.535179 L 793.377133 299.675798 C 793.392758 299.57684 793.382342 299.48309 793.351092 299.38934 C 793.319842 299.29559 793.267758 299.212256 793.20005 299.144548 C 793.127133 299.07684 793.0438 299.029965 792.95005 299.003923 C 792.8563 298.977881 792.76255 298.972673 792.6688 298.993506 L 672.439627 324.378924 C 672.325044 324.394549 672.257336 324.467466 672.231294 324.582049 C 672.210461 324.701841 672.241711 324.806008 672.330252 324.899758 C 687.205253 339.753925 702.054212 354.602884 716.871921 369.451843 C 726.18963 378.785177 728.340672 391.884136 721.960463 402.816428 C 720.226088 405.790387 715.950046 410.024762 709.142754 415.514346 C 654.481293 459.644556 605.528166 509.446642 562.28858 564.920603 C 555.835455 573.196645 549.819829 581.779979 544.236496 590.675813 C 515.601078 636.264357 493.37191 684.795609 477.543784 736.274778 C 476.700034 738.998737 476.147951 741.410195 475.892742 743.509154 " stroke="#1f8979" stroke-width="2" stroke-opacity="1" stroke-miterlimit="4"/><path stroke-linecap="butt" transform="matrix(0.75, 0, 0, 0.75, 97.127336, 85.114257)" fill="none" stroke-linejoin="miter" d="M 475.892742 743.509154 C 474.663576 746.436237 473.413576 750.337279 472.153159 755.207071 C 468.173992 770.592488 465.007325 784.363322 462.658367 796.514365 " stroke="#704090" stroke-width="2" stroke-opacity="1" stroke-miterlimit="4"/><path stroke-linecap="butt" transform="matrix(0.75, 0, 0, 0.75, 97.127336, 85.114257)" fill="none" stroke-linejoin="miter" d="M 748.861506 464.113306 C 678.939628 498.7331 615.736499 547.295602 565.85108 607.02998 C 530.762537 649.061232 501.580244 695.149776 475.892742 743.509154 " stroke="#8d976f" stroke-width="2" stroke-opacity="1" stroke-miterlimit="4"/><g clip-path="url(#708e92262a)"><path fill="#f9f6f1" d="M 410.6875 85.113281 L 413.308594 85.113281 C 421.449219 86.1875 424.804688 90.203125 428.582031 97.710938 C 447.640625 135.644531 466.691406 173.574219 485.738281 211.507812 C 487.902344 215.792969 488.832031 219.199219 487.710938 223.945312 C 484.816406 236.210938 470.738281 240.535156 460.695312 233.105469 C 458.871094 231.398438 457.699219 230.03125 457.179688 229.011719 C 455.8125 226.320312 454.542969 223.832031 453.375 221.550781 L 411.878906 138.917969 C 411.628906 138.429688 411.378906 138.425781 411.125 138.90625 L 367.316406 221.660156 C 365.054688 225.597656 363.441406 229.441406 360.605469 233.105469 C 347.699219 244.941406 328.222656 233.355469 332.640625 216.285156 C 332.960938 215.035156 333.972656 212.816406 335.671875 209.625 C 355.648438 172.132812 375.585938 134.617188 395.496094 97.082031 C 399.308594 89.890625 402.804688 86.054688 410.6875 85.113281 Z M 410.6875 85.113281 " fill-opacity="1" fill-rule="nonzero"/></g><path fill="#02329a" d="M 453.375 221.550781 L 427.707031 221.628906 L 394.132812 221.640625 L 367.316406 221.660156 L 411.125 138.90625 C 411.378906 138.425781 411.628906 138.429688 411.878906 138.917969 Z M 453.375 221.550781 " fill-opacity="1" fill-rule="nonzero"/><path fill="#02329a" d="M 453.375 221.550781 C 454.542969 223.832031 455.8125 226.320312 457.179688 229.011719 C 457.699219 230.03125 458.871094 231.398438 460.695312 233.105469 L 427.589844 233.097656 L 427.707031 221.628906 Z M 453.375 221.550781 " fill-opacity="1" fill-rule="nonzero"/><path fill="#02329a" d="M 394.132812 221.640625 L 394.253906 233.117188 L 360.605469 233.105469 C 363.441406 229.441406 365.054688 225.597656 367.316406 221.660156 Z M 394.132812 221.640625 " fill-opacity="1" fill-rule="nonzero"/><path fill="#f9f6f1" d="M 427.707031 221.628906 L 427.589844 233.097656 C 427.574219 311.664062 427.574219 390.226562 427.589844 468.789062 C 427.589844 488.015625 402.433594 493.894531 395.222656 476.328125 C 394.582031 474.773438 394.261719 472.601562 394.261719 469.808594 C 394.261719 390.933594 394.261719 312.039062 394.253906 233.117188 L 394.132812 221.640625 Z M 427.707031 221.628906 " fill-opacity="1" fill-rule="nonzero"/><g clip-path="url(#0b002d6bb2)"><path fill="#f9f6f1" d="M 224.390625 374.410156 L 222.167969 376.753906 C 221.90625 377.019531 221.914062 377.285156 222.1875 377.554688 C 222.65625 378.007812 223.261719 378.265625 224.011719 378.324219 C 223.871094 378.605469 224.007812 378.875 224.421875 379.136719 C 240.164062 388.960938 252.179688 396.378906 264.414062 408.085938 C 286.472656 429.167969 307.144531 451.535156 326.429688 475.1875 C 338.261719 489.699219 348.824219 505.082031 358.125 521.332031 C 366.382812 535.761719 373.695312 550.0625 380.0625 564.230469 C 385.640625 576.644531 374.886719 589.292969 361.980469 587.480469 C 354.839844 586.480469 351.335938 581.710938 348.21875 574.953125 C 342.832031 563.238281 336.957031 551.773438 330.597656 540.554688 C 330.234375 539.921875 329.679688 539.128906 328.925781 538.171875 C 319.992188 521.890625 309.480469 506.804688 297.390625 492.910156 C 280.628906 472.289062 262.671875 452.753906 243.515625 434.300781 C 235.625 426.699219 228.617188 421.125 219.835938 415.804688 C 211.210938 410.59375 205.136719 406.644531 201.609375 403.960938 C 188.921875 394.285156 181.492188 380.117188 189.613281 364.566406 C 191.46875 361.027344 193.710938 357.941406 196.34375 355.304688 C 206.222656 345.417969 216.09375 335.589844 225.953125 325.824219 C 226.046875 325.726562 226.074219 325.617188 226.035156 325.488281 C 226 325.359375 225.914062 325.28125 225.78125 325.253906 L 134.527344 305.984375 C 134.121094 305.898438 133.953125 306.058594 134.027344 306.464844 L 150.449219 398.78125 C 150.515625 399.15625 150.691406 399.214844 150.972656 398.953125 C 157.621094 392.882812 162.117188 385.355469 172.730469 386.066406 C 183.816406 386.796875 191.375 399.234375 186.539062 409.449219 C 184.4375 413.863281 179.429688 417.929688 175.59375 421.765625 L 157.429688 439.738281 C 157.136719 439.820312 156.816406 440.078125 156.46875 440.519531 C 151.972656 446.226562 142.089844 447.628906 135.601562 445.355469 C 127.910156 442.660156 123.257812 436.730469 121.640625 427.570312 C 113.628906 382.140625 105.488281 336.71875 97.417969 291.285156 C 97.175781 289.957031 97.230469 288.191406 97.578125 285.988281 C 99.058594 276.554688 106.601562 269.636719 116.054688 268.835938 C 118.902344 268.59375 121.355469 268.773438 123.414062 269.375 C 127.4375 270.546875 131.605469 271.179688 135.710938 272.039062 C 174.632812 280.230469 213.535156 288.503906 252.441406 296.773438 C 256.992188 297.742188 260.292969 298.882812 262.34375 300.199219 C 268.160156 303.933594 271.664062 310.453125 271.644531 317.363281 C 271.625 324.640625 267.289062 330.667969 262.210938 336.066406 C 249.890625 349.152344 237.28125 361.933594 224.390625 374.410156 Z M 224.390625 374.410156 " fill-opacity="1" fill-rule="nonzero"/></g><g clip-path="url(#ca4f0b2811)"><path fill="#f9f6f1" d="M 676.199219 448.46875 C 669.46875 444.914062 664.160156 438.4375 658.773438 433.199219 C 653.714844 428.125 648.652344 423.089844 643.582031 418.089844 C 630.164062 404.832031 644.675781 383.300781 661.777344 390.640625 C 666.433594 392.632812 671.082031 398.371094 675.078125 402.238281 C 675.445312 402.589844 675.671875 402.519531 675.757812 402.015625 L 692.160156 309.871094 C 692.171875 309.796875 692.164062 309.726562 692.140625 309.65625 C 692.117188 309.585938 692.078125 309.523438 692.027344 309.472656 C 691.972656 309.421875 691.910156 309.386719 691.839844 309.367188 C 691.769531 309.347656 691.699219 309.34375 691.628906 309.359375 L 601.457031 328.398438 C 601.371094 328.410156 601.320312 328.464844 601.300781 328.550781 C 601.285156 328.640625 601.308594 328.71875 601.375 328.789062 C 612.53125 339.929688 623.667969 351.066406 634.78125 362.203125 C 641.769531 369.203125 643.382812 379.027344 638.597656 387.226562 C 637.296875 389.457031 634.089844 392.632812 628.984375 396.75 C 587.988281 429.847656 551.273438 467.199219 518.84375 508.804688 C 514.003906 515.011719 509.492188 521.449219 505.304688 528.121094 C 483.828125 562.3125 467.15625 598.710938 455.285156 637.320312 C 454.652344 639.363281 454.238281 641.171875 454.046875 642.746094 C 453.125 644.941406 452.1875 647.867188 451.242188 651.519531 C 448.257812 663.058594 445.882812 673.386719 444.121094 682.5 C 443.972656 683.9375 443.722656 685.351562 443.359375 686.746094 C 442.914062 688.449219 442.621094 689.855469 442.488281 690.960938 C 441.917969 695.777344 440.925781 700.636719 440.144531 705.433594 C 439.746094 707.933594 439.402344 710.449219 439.113281 712.972656 C 438.753906 716.175781 438.117188 718.605469 437.203125 720.261719 C 434.511719 725.101562 430.175781 728.011719 424.195312 728.992188 L 421.320312 728.992188 C 415.207031 728.238281 410.691406 725.316406 407.78125 720.222656 C 406.742188 718.410156 406.480469 716.078125 405.648438 713.972656 C 404.867188 711.96875 406.390625 708.386719 406.550781 706.304688 C 407.210938 697.75 409.035156 690.019531 410.226562 682.171875 C 410.894531 677.792969 412.167969 673.246094 412.578125 668.660156 C 412.613281 668.289062 412.796875 667.886719 413.128906 667.460938 C 413.335938 667.191406 413.460938 666.890625 413.507812 666.558594 C 414.820312 657.074219 417.976562 647.683594 419.617188 640.382812 C 419.8125 639.515625 420.066406 638.835938 420.378906 638.351562 C 420.558594 638.070312 420.664062 637.769531 420.699219 637.449219 C 420.933594 635.472656 421.363281 633.558594 421.992188 631.699219 C 422.890625 629.015625 423.769531 626.324219 424.625 623.621094 C 436.839844 584.960938 453.578125 548.378906 474.832031 513.871094 C 481.28125 503.40625 487.980469 493.671875 495.890625 483.730469 C 527.046875 444.523438 562.019531 408.808594 600.804688 376.59375 C 600.976562 376.453125 601.066406 376.273438 601.078125 376.058594 C 601.089844 375.839844 601.019531 375.652344 600.867188 375.5 C 588.195312 362.835938 575.503906 350.136719 562.792969 337.398438 C 557.535156 332.132812 553.972656 326.945312 554.410156 319.945312 C 554.871094 312.730469 557.945312 307.316406 563.625 303.703125 C 565.875 302.273438 569.464844 301.035156 574.398438 299.988281 C 617.5 290.875 660.601562 281.773438 703.707031 272.679688 C 715.183594 270.257812 726.527344 277.105469 728.488281 288.902344 C 728.910156 291.445312 728.640625 295.417969 727.679688 300.820312 C 720.007812 343.988281 712.308594 387.148438 704.6875 430.324219 C 704.421875 431.867188 704.085938 433.394531 703.6875 434.902344 C 701.171875 444.484375 692.371094 450.253906 682.6875 449.882812 C 681.710938 449.847656 679.550781 449.378906 676.199219 448.46875 Z M 676.199219 448.46875 " fill-opacity="1" fill-rule="nonzero"/></g><path fill="#02329a" d="M 297.390625 492.910156 C 297.222656 493.136719 297.003906 493.117188 296.730469 492.851562 C 284.492188 480.726562 271.75 469.929688 258.496094 460.457031 C 233.398438 442.511719 205.761719 429.613281 175.59375 421.765625 C 179.429688 417.929688 184.4375 413.863281 186.539062 409.449219 C 191.375 399.234375 183.816406 386.796875 172.730469 386.066406 C 162.117188 385.355469 157.621094 392.882812 150.972656 398.953125 C 150.691406 399.214844 150.515625 399.15625 150.449219 398.78125 L 134.027344 306.464844 C 133.953125 306.058594 134.121094 305.898438 134.527344 305.984375 L 225.78125 325.253906 C 225.914062 325.28125 226 325.359375 226.035156 325.488281 C 226.074219 325.617188 226.046875 325.726562 225.953125 325.824219 C 216.09375 335.589844 206.222656 345.417969 196.34375 355.304688 C 193.710938 357.941406 191.46875 361.027344 189.613281 364.566406 C 181.492188 380.117188 188.921875 394.285156 201.609375 403.960938 C 205.136719 406.644531 211.210938 410.59375 219.835938 415.804688 C 228.617188 421.125 235.625 426.699219 243.515625 434.300781 C 262.671875 452.753906 280.628906 472.289062 297.390625 492.910156 Z M 297.390625 492.910156 " fill-opacity="1" fill-rule="nonzero"/><path fill="#02329a" d="M 658.773438 433.199219 C 606.332031 459.164062 558.929688 495.585938 521.515625 540.386719 C 495.203125 571.910156 473.3125 606.476562 454.046875 642.746094 C 454.238281 641.171875 454.652344 639.363281 455.285156 637.320312 C 467.15625 598.710938 483.828125 562.3125 505.304688 528.121094 C 509.492188 521.449219 514.003906 515.011719 518.84375 508.804688 C 551.273438 467.199219 587.988281 429.847656 628.984375 396.75 C 634.089844 392.632812 637.296875 389.457031 638.597656 387.226562 C 643.382812 379.027344 641.769531 369.203125 634.78125 362.203125 C 623.667969 351.066406 612.53125 339.929688 601.375 328.789062 C 601.308594 328.71875 601.285156 328.640625 601.300781 328.550781 C 601.320312 328.464844 601.371094 328.410156 601.457031 328.398438 L 691.628906 309.359375 C 691.699219 309.34375 691.769531 309.347656 691.839844 309.367188 C 691.910156 309.386719 691.972656 309.421875 692.027344 309.472656 C 692.078125 309.523438 692.117188 309.585938 692.140625 309.65625 C 692.164062 309.726562 692.171875 309.796875 692.160156 309.871094 L 675.757812 402.015625 C 675.671875 402.519531 675.445312 402.589844 675.078125 402.238281 C 671.082031 398.371094 666.433594 392.632812 661.777344 390.640625 C 644.675781 383.300781 630.164062 404.832031 643.582031 418.089844 C 648.652344 423.089844 653.714844 428.125 658.773438 433.199219 Z M 658.773438 433.199219 " fill-opacity="1" fill-rule="nonzero"/><path fill="#02329a" d="M 224.390625 374.410156 L 224.011719 378.324219 C 223.261719 378.265625 222.65625 378.007812 222.1875 377.554688 C 221.914062 377.285156 221.90625 377.019531 222.167969 376.753906 Z M 224.390625 374.410156 " fill-opacity="1" fill-rule="nonzero"/><path fill="#02329a" d="M 175.59375 421.765625 C 205.761719 429.613281 233.398438 442.511719 258.496094 460.457031 C 271.75 469.929688 284.492188 480.726562 296.730469 492.851562 C 297.003906 493.117188 297.222656 493.136719 297.390625 492.910156 C 309.480469 506.804688 319.992188 521.890625 328.925781 538.171875 C 289.628906 492.210938 240.152344 457.183594 180.75 443.683594 C 175.84375 442.570312 168.070312 441.253906 157.429688 439.738281 Z M 175.59375 421.765625 " fill-opacity="1" fill-rule="nonzero"/><path fill="#02329a" d="M 658.773438 433.199219 C 664.160156 438.4375 669.46875 444.914062 676.199219 448.46875 C 615.585938 476.308594 561.953125 516.164062 519.144531 567.433594 C 490.105469 602.230469 465.960938 641.195312 445.441406 681 C 445.082031 681.691406 444.640625 682.191406 444.121094 682.5 C 445.882812 673.386719 448.257812 663.058594 451.242188 651.519531 C 452.1875 647.867188 453.125 644.941406 454.046875 642.746094 C 473.3125 606.476562 495.203125 571.910156 521.515625 540.386719 C 558.929688 495.585938 606.332031 459.164062 658.773438 433.199219 Z M 658.773438 433.199219 " fill-opacity="1" fill-rule="nonzero"/></svg>