<svg id="Layer_1" data-name="Layer 1" xmlns="http://www.w3.org/2000/svg" xmlns:xlink="http://www.w3.org/1999/xlink" viewBox="0 0 128 40"><defs><style>.cls-1{fill:#fff;fill-rule:evenodd;}.cls-2{fill:#ea8b30;}.cls-3{mask:url(#mask);}.cls-4{fill:#f57c23;}.cls-5{fill:#fffffe;}.cls-6{fill:#01a5de;}</style><mask id="mask" x="10.49" y="12.67" width="12.95" height="12.86" maskUnits="userSpaceOnUse"><g id="mask-4"><polygon id="path-3" class="cls-1" points="10.51 12.67 23.44 12.67 23.44 25.53 10.51 25.53 10.51 12.67"/></g></mask></defs><path id="Fill-1" class="cls-2" d="M22.92,9.65a5,5,0,1,0,5-4.95,5,5,0,0,0-5,5"/><g class="cls-3"><path id="Fill-5" class="cls-2" d="M10.49,19.1A6.48,6.48,0,1,0,17,12.67a6.45,6.45,0,0,0-6.47,6.43"/></g><path id="Fill-11" class="cls-2" d="M19.38,30.93a4.41,4.41,0,1,0,4.4-4.37,4.39,4.39,0,0,0-4.4,4.37"/><path id="Fill-15" class="cls-4" d="M22.81,16.36l-2.12-2.5c.89.71,3.41-.29,2.64-2.26l2.5,2.55c-1.45-1-3.81.89-3,2.21"/><path id="Fill-16" class="cls-4" d="M23.35,26.59l-2.77,1.35c.79-.78.12-3.23-1.8-2.67l3-1.85c-1.25,1.21,0,3.33,1.6,3.17"/><path id="Stroke-17" class="cls-5" d="M21.41,19.1a4.53,4.53,0,1,0-4.53,4.5A4.52,4.52,0,0,0,21.41,19.1Zm.65,0A5.18,5.18,0,1,1,16.88,14,5.16,5.16,0,0,1,22.06,19.1Zm8.86-9.45a3.07,3.07,0,1,0-3.06,3A3,3,0,0,0,30.92,9.65Zm.65,0A3.72,3.72,0,1,1,27.86,6,3.7,3.7,0,0,1,31.57,9.65ZM26.16,31a2.44,2.44,0,1,0-2.43,2.41A2.42,2.42,0,0,0,26.16,31Zm.65,0a3.09,3.09,0,1,1-3.08-3.06A3.07,3.07,0,0,1,26.81,31Z"/><path id="Fill-19" class="cls-6" d="M43.93,25.23c-.49,3.37-3.69,4.66-7.46,4.66-5.51,0-8-3.83-8-8,0-3.64,2.2-8,8.66-8,3.65,0,6.45,1.82,6.64,4.43H41.25c-.39-2-2.2-2.69-4.34-2.69-3.52,0-6.14,2-6.14,6.31s2.62,6.31,6.14,6.31c2.12,0,4.16-.93,4.55-2.92h2.47"/><path id="Fill-20" class="cls-6" d="M56.94,23.77,53.1,16.06l-3.86,7.71Zm.86,1.73H48.34l-2,4H43.88L51.8,14.2h2.6l7.92,15.29H59.78Z"/><polyline id="Fill-21" class="cls-6" points="76.4 14.2 78.62 14.2 78.62 29.49 75.59 29.49 66.16 16.44 66.12 16.44 66.12 29.49 63.9 29.49 63.9 14.2 66.93 14.2 76.36 27.24 76.4 27.24 76.4 14.2"/><path id="Fill-22" class="cls-6" d="M83,27.75h4.18c5.08,0,6.43-2.92,6.43-5.91,0-4-1.8-5.91-7-5.91H83ZM80.73,14.2h6C93.58,14.2,95.9,17,95.9,22c0,4.7-2.88,7.46-8.85,7.46H80.73Z"/><path id="Fill-23" class="cls-6" d="M99.83,27.75H104c5.08,0,6.42-2.92,6.42-5.91,0-4-1.79-5.91-7-5.91H99.83ZM97.61,14.2h6c6.85,0,9.18,2.83,9.18,7.83,0,4.7-2.88,7.46-8.86,7.46H97.61Z"/><polygon id="Fill-24" class="cls-6" points="115.01 29.49 117.23 29.49 117.23 18.42 115.01 18.42 115.01 29.49"/><path id="Fill-25" class="cls-4" d="M117.51,15.66A1.57,1.57,0,1,1,116,14.11a1.56,1.56,0,0,1,1.56,1.55"/></svg>