<svg id="Layer_1" data-name="Layer 1" xmlns="http://www.w3.org/2000/svg" viewBox="0 0 284 72"><defs><style>.cls-1{fill:#27b0d3;}.cls-2{fill:#94d4ea;}.cls-3{fill:#d4eef7;}</style></defs><path class="cls-1" d="M35.64,71a35,35,0,1,1,35-35A35,35,0,0,1,35.64,71Zm0-61.84A26.84,26.84,0,1,0,62.48,36,26.87,26.87,0,0,0,35.64,9.16Z"/><path class="cls-2" d="M35.64,56.21A20.21,20.21,0,1,1,55.85,36,20.24,20.24,0,0,1,35.64,56.21Zm0-32.26A12.05,12.05,0,1,0,47.69,36,12.06,12.06,0,0,0,35.64,24Z"/><path class="cls-3" d="M59.58,10.53,54,16.47a26.73,26.73,0,0,1,0,39.06l5.58,5.94a34.84,34.84,0,0,0,0-50.94Z"/><path class="cls-1" d="M92.78,31.45a10.83,10.83,0,0,1,5.44,1.33l.43.25,1.18-2.75-.3-.2A12.69,12.69,0,0,0,93,28.52c-7.51,0-12.75,5.43-12.75,13.2,0,7.44,4.9,12.63,11.91,12.63a16.09,16.09,0,0,0,7.18-1.6l.33-.17-.92-2.68-.44.2a13.23,13.23,0,0,1-5.79,1.34c-5.39,0-9-4-9-9.9C83.52,36.52,86.38,31.45,92.78,31.45Z"/><path class="cls-1" d="M113.53,28.52c-6.68,0-11.17,5.39-11.17,13.4,0,7.44,4.65,12.43,11.57,12.43a16.43,16.43,0,0,0,7.75-1.58l.32-.17-.88-2.69-.45.22a13.53,13.53,0,0,1-6.45,1.31c-5.37,0-8.51-3.56-8.64-9.78h17.55l.06-.36a7.71,7.71,0,0,0,.09-1.54C123.28,38.61,123,28.52,113.53,28.52ZM105.76,38.9c.57-3.59,2.82-7.54,7.46-7.54a6.23,6.23,0,0,1,4.61,1.74,8.91,8.91,0,0,1,2.1,5.8Z"/><rect class="cls-1" x="128.48" y="17.62" width="3.24" height="36.21"/><path class="cls-1" d="M148.22,28.52c-6.68,0-11.17,5.39-11.17,13.4,0,7.44,4.65,12.43,11.57,12.43a16.43,16.43,0,0,0,7.75-1.58l.32-.17-.88-2.69-.45.22a13.5,13.5,0,0,1-6.45,1.31c-5.37,0-8.51-3.56-8.64-9.78h17.55l.06-.36a7.71,7.71,0,0,0,.09-1.54C158,38.61,157.69,28.52,148.22,28.52ZM140.45,38.9c.57-3.59,2.82-7.54,7.46-7.54a6.2,6.2,0,0,1,4.61,1.74,8.86,8.86,0,0,1,2.1,5.8Z"/><path class="cls-1" d="M174.1,28.52a9.69,9.69,0,0,0-7.94,4L166,29.07h-3.08l0,.46c.12,1.8.2,3.46.2,5.69V53.83h3.23V38.61a7.37,7.37,0,0,1,.31-2,7.22,7.22,0,0,1,6.75-5.19c5.38,0,6.18,4.93,6.18,7.86V53.83h3.24V39.07C182.88,29,175.57,28.52,174.1,28.52Z"/><path class="cls-1" d="M193.9,22,190.66,23v6h-4v2.79h4V46.53c0,2.84.5,4.74,1.56,6a5.52,5.52,0,0,0,4.46,1.85,9,9,0,0,0,3.46-.6l.32-.13L200,50.93l-.5.17a8,8,0,0,1-2.57.35c-1.32,0-3.07-.46-3.07-4.5V31.86h6.81V29.07H193.9Z"/><rect class="cls-1" x="205.12" y="29.07" width="3.24" height="24.76"/><path class="cls-1" d="M206.75,20.17a2.44,2.44,0,0,0-2.36,2.5,2.36,2.36,0,1,0,4.71,0A2.38,2.38,0,0,0,206.75,20.17Z"/><path class="cls-1" d="M231.25,47.72V38.4c0-6.46-3-9.88-8.64-9.88a13.17,13.17,0,0,0-7.25,2.14l-.3.21,1.1,2.54.44-.31a10,10,0,0,1,5.75-1.7h.06a5.38,5.38,0,0,1,4,1.38c1.11,1.1,1.65,2.81,1.65,5.22v.2c-5.78,0-9.93,1.21-12.33,3.58a7.58,7.58,0,0,0-2.24,5.59c0,3.38,2.33,7,7.46,7a9.63,9.63,0,0,0,7.4-3.37l.29,2.82h3.07l-.07-.5A37,37,0,0,1,231.25,47.72Zm-3.23-2a3.94,3.94,0,0,1-.23,1.28,6.78,6.78,0,0,1-6.65,4.5c-2.09,0-4.32-1.19-4.32-4.54a4.67,4.67,0,0,1,1.41-3.54c1.65-1.6,4.71-2.41,9.11-2.41H228Z"/><rect class="cls-1" x="238.12" y="17.62" width="3.24" height="36.21"/><path class="cls-1" d="M249.26,49a2.52,2.52,0,0,0-2.48,2.69,2.71,2.71,0,0,0,.73,1.94,2.38,2.38,0,0,0,1.71.72,2.52,2.52,0,0,0,2.48-2.65A2.47,2.47,0,0,0,249.26,49Z"/><path class="cls-1" d="M272.52,47.72V38.4c0-6.46-3-9.88-8.65-9.88a13.17,13.17,0,0,0-7.25,2.14l-.3.21,1.1,2.54.44-.31a10,10,0,0,1,5.75-1.7h.06a5.38,5.38,0,0,1,4,1.38c1.11,1.1,1.65,2.81,1.65,5.22v.2c-5.78,0-9.93,1.21-12.33,3.58a7.58,7.58,0,0,0-2.24,5.59c0,3.38,2.33,7,7.47,7A9.63,9.63,0,0,0,269.57,51l.29,2.82h3.07l-.07-.5A37.18,37.18,0,0,1,272.52,47.72Zm-3.24-2a4.2,4.2,0,0,1-.22,1.28,6.8,6.8,0,0,1-6.66,4.5c-2.09,0-4.32-1.19-4.32-4.54a4.67,4.67,0,0,1,1.41-3.54c1.65-1.6,4.71-2.41,9.11-2.41h.68Z"/><rect class="cls-1" x="279.38" y="29.07" width="3.24" height="24.76"/><path class="cls-1" d="M281,20.17a2.44,2.44,0,0,0-2.36,2.5,2.36,2.36,0,1,0,4.7,0A2.37,2.37,0,0,0,281,20.17Z"/></svg>