<svg id="Layer_1" data-name="Layer 1" xmlns="http://www.w3.org/2000/svg" viewBox="0 0 422 64"><defs><style>.cls-1{fill:#291c45;}.cls-2{fill:#10c2ed;}</style></defs><g id="integrations-table"><g id="Artboard"><g id="Chattermill_01.-Primary-Logo-Lockup-_3_" data-name="Chattermill_01.-Primary-Logo-Lockup-(3)"><path id="Path" class="cls-1" d="M120.65,51.28c-9.08,0-15.49-7.5-15.49-17s6.41-17,15.49-17A14.47,14.47,0,0,1,133.2,24l5.23-5.31A22.27,22.27,0,0,0,120.66,10c-13.22,0-23.11,10.84-23.11,24.26s9.89,24.27,23.11,24.27,23.11-10.84,23.11-24.27h-7.63C136.14,44.06,129.74,51.28,120.65,51.28Z"/><path id="Path-2" data-name="Path" class="cls-1" d="M165.32,23.61a11.93,11.93,0,0,0-9.55,4.3V9.57l-7.35.82V58.1h7.35V39.27c0-5,3-8.58,7.74-8.58,5.08,0,7.28,3.27,7.28,8.58V58.08h7.35V37.65C178.14,28.59,173.26,23.61,165.32,23.61Z"/><path id="Shape" class="cls-1" d="M209.13,27.57c-1.4-1.85-5.14-4-9.55-4-9.55,0-16.76,7.22-16.76,17.45S190,58.51,199.58,58.51c4.47,0,8.15-2.12,9.55-4v3.57h7.5V24h-7.5Zm-9.28,23.71a10.23,10.23,0,0,1,0-20.45c5.41,0,9.55,4.64,9.55,10.23S205.26,51.28,199.85,51.28Z"/><polygon id="Path-3" data-name="Path" class="cls-1" points="260.04 8.12 252.69 8.94 252.69 24.02 245.95 24.02 245.95 24.02 236.21 24.02 236.21 11.03 228.86 11.84 228.86 24.02 222.12 24.02 222.12 31.11 228.86 31.11 228.86 58.1 236.21 58.1 236.21 31.11 246.23 31.11 246.23 31.11 252.69 31.11 252.69 58.1 260.04 58.1 260.04 31.11 270.05 31.11 270.05 24.02 260.04 24.02 260.04 8.12"/><path id="Shape-2" data-name="Shape" class="cls-1" d="M288.42,23.61a17.45,17.45,0,0,0,.2,34.9c7.55,0,14-4.16,16.3-10.36h-8.75c-1.4,2.18-4.14,3.27-7.55,3.27a9.55,9.55,0,0,1-9.41-7.77h26a15,15,0,0,0,.2-2.59,17.43,17.43,0,0,0-4.91-12.34A16.77,16.77,0,0,0,288.42,23.61ZM279.54,37a9.36,9.36,0,0,1,17.76,0Z"/><path id="Path-4" data-name="Path" class="cls-1" d="M317.88,27.57V24h-7.35V58.1h7.35V39.27c0-5.05,3.27-8.46,7.95-8.46h.66v-7.2C321.83,23.61,319.48,25.38,317.88,27.57Z"/><path id="Path-5" data-name="Path" class="cls-1" d="M367.15,23.61c-4.81,0-7.55,2-10.09,4.71a9.52,9.52,0,0,0-8.74-4.71,10.72,10.72,0,0,0-8.69,4.3V24h-7.35V58.1h7.35V37.65c0-4.43,2.54-6.95,5.95-6.95,3.87,0,5.94,2.52,5.94,7V58.1h7.35V37.65c0-4.43,2.53-6.95,5.94-6.95,3.94,0,5.94,2.52,5.94,7V58.1h7.35V35.75C378.1,27.36,374,23.61,367.15,23.61Z"/><rect id="Rectangle" class="cls-1" x="384.99" y="24.02" width="7.35" height="34.08"/><path id="Path-6" data-name="Path" class="cls-1" d="M388.66,10A5,5,0,0,0,384,13.09a5.19,5.19,0,0,0,1.05,5.58,4.93,4.93,0,0,0,5.45,1.13,5.18,5.18,0,0,0,1.67-8.32,4.88,4.88,0,0,0-3.51-1.5Z"/><polygon id="Path-7" data-name="Path" class="cls-1" points="399.55 58.1 406.89 58.1 406.89 9.57 399.55 10.39 399.55 58.1"/><polygon id="Path-8" data-name="Path" class="cls-1" points="414.04 10.39 414.04 58.1 421.39 58.1 421.39 9.57 414.04 10.39"/><path id="Shape-3" data-name="Shape" class="cls-2" d="M7.66,36.32A33.11,33.11,0,0,1,15,18.74l10.2,10.4a1.72,1.72,0,0,1,.26,2.08A15.25,15.25,0,0,0,23.89,35a1.78,1.78,0,0,1-1.72,1.36Zm-1.8,0H2.41a1.83,1.83,0,0,1-1.34-.61,1.85,1.85,0,0,1-.44-1.43A38.87,38.87,0,0,1,8.5,15a1.78,1.78,0,0,1,1.3-.69,1.8,1.8,0,0,1,1.37.53l2.46,2.51a33.35,33.35,0,0,0-7.77,19ZM18.52,15.06A30,30,0,0,1,35.8,7.62V22.47a1.8,1.8,0,0,1-1.32,1.74,14.55,14.55,0,0,0-3.67,1.53,1.65,1.65,0,0,1-2-.24Zm-1.33-1.35-2.45-2.49a1.86,1.86,0,0,1-.52-1.4A1.83,1.83,0,0,1,14.9,8.5a37.36,37.36,0,0,1,18.9-8A1.78,1.78,0,0,1,35.2,1a1.85,1.85,0,0,1,.6,1.36V5.85a32.08,32.08,0,0,0-18.61,7.86Zm42.28,0A32.08,32.08,0,0,0,40.88,5.86V2.34A1.85,1.85,0,0,1,41.48,1a1.76,1.76,0,0,1,1.4-.45,37.39,37.39,0,0,1,18.89,8,1.86,1.86,0,0,1,.16,2.73Zm-1.33,1.35L47.91,25.5a1.67,1.67,0,0,1-2,.27,14.4,14.4,0,0,0-3.67-1.53,1.8,1.8,0,0,1-1.32-1.74V7.62a29.85,29.85,0,0,1,17.26,7.44Zm-44,44.87A33.12,33.12,0,0,1,7.5,41.49H22.17a1.77,1.77,0,0,1,1.71,1.35,15.17,15.17,0,0,0,1.5,3.74,1.77,1.77,0,0,1-.26,2.1Zm-.61.6L11.11,63a1.76,1.76,0,0,1-2.68-.16A38.79,38.79,0,0,1,.63,43.52a1.85,1.85,0,0,1,.44-1.43,1.78,1.78,0,0,1,1.34-.61H5.85a33.51,33.51,0,0,0,7.64,19.05Zm48.2-41.79A33.06,33.06,0,0,1,69,36.32H54.52A1.77,1.77,0,0,1,52.81,35a15.65,15.65,0,0,0-1.53-3.74,1.71,1.71,0,0,1,.25-2.08Zm1.37-1.4,2.46-2.5a1.73,1.73,0,0,1,1.37-.53,1.76,1.76,0,0,1,1.3.69A38.78,38.78,0,0,1,76,34.27a1.85,1.85,0,0,1-.44,1.43,1.78,1.78,0,0,1-1.34.61H70.81a33.49,33.49,0,0,0-7.75-19Zm6.1,24.13a33.19,33.19,0,0,1-6.59,18.44l-11-11.22a1.78,1.78,0,0,1-.26-2.11,15.57,15.57,0,0,0,1.5-3.74,1.77,1.77,0,0,1,1.71-1.36Zm1.66,0h3.44a1.78,1.78,0,0,1,1.34.61A1.85,1.85,0,0,1,76,43.51a38.82,38.82,0,0,1-7.82,19.28,1.77,1.77,0,0,1-2.67.16l-2.39-2.44a33.41,33.41,0,0,0,7.66-19Z"/></g></g></g></svg>