<svg id="Layer_1" data-name="Layer 1" xmlns="http://www.w3.org/2000/svg" viewBox="0 0 500 64"><defs><style>.cls-1{fill:#e57b32;}</style></defs><path d="M12.94,53.13a17.54,17.54,0,0,1-5.19-13A17.93,17.93,0,0,1,12.92,27a17.15,17.15,0,0,1,12.85-5.22,32.13,32.13,0,0,1,15.08,4.1l1.57.83V20.57l-.62-.28A38,38,0,0,0,26,16.53,23.78,23.78,0,0,0,9.08,23.27,22.32,22.32,0,0,0,2,40.09a22.31,22.31,0,0,0,7,16.71A24.14,24.14,0,0,0,26.3,63.5a34.12,34.12,0,0,0,16-4.22l.57-.3V53.06l-1.57.83C29.45,60.18,19.3,59.39,12.94,53.13Z"/><polygon points="128.16 62.94 133.67 62.94 133.67 41.47 150.92 41.47 150.92 36.52 133.67 36.52 133.67 22.04 152.79 22.04 152.79 17.09 128.16 17.09 128.16 62.94"/><polygon points="170.33 62.94 175.84 62.94 175.84 41.47 193.08 41.47 193.08 36.52 175.84 36.52 175.84 22.04 194.96 22.04 194.96 17.09 170.33 17.09 170.33 62.94"/><polygon points="218.14 42.38 238.07 42.38 238.07 37.4 218.14 37.4 218.14 22.04 238.6 22.04 238.6 17.09 212.63 17.09 212.63 62.94 239.1 62.94 239.1 57.99 218.14 57.99 218.14 42.38"/><polygon points="263.65 42.38 283.59 42.38 283.59 37.4 263.65 37.4 263.65 22.04 284.12 22.04 284.12 17.09 258.14 17.09 258.14 62.94 284.62 62.94 284.62 57.99 263.65 57.99 263.65 42.38"/><polygon points="356.53 36.78 340.33 17.09 335.38 17.09 335.38 62.94 340.89 62.94 340.89 26.09 356.52 45.22 372.09 26.09 372.09 62.94 377.63 62.94 377.63 17.09 372.64 17.09 356.53 36.78"/><path d="M431.87,42.19c0,5.16-1.3,9.17-3.86,11.93a14.17,14.17,0,0,1-19.94,0c-2.56-2.72-3.86-6.59-3.86-11.5V17.09h-5.54V42.78c0,6.35,1.82,11.45,5.4,15.14A20.15,20.15,0,0,0,432,57.85c3.59-3.73,5.4-9.07,5.4-15.85V17.09h-5.51Z"/><path d="M483.27,40.94v4.94h9.23V56a25.12,25.12,0,0,1-10.92,2.29c-5.91,0-10.64-1.74-14-5.17a17.85,17.85,0,0,1-5.14-13,17.76,17.76,0,0,1,18.24-18.24,30.16,30.16,0,0,1,15,4.27l1.59.9V20.63l-.62-.28a37.32,37.32,0,0,0-15.43-3.82,24.52,24.52,0,0,0-17.53,6.66,22.21,22.21,0,0,0-7,16.71,22.34,22.34,0,0,0,7.14,16.86,24.87,24.87,0,0,0,17.71,6.74,36.92,36.92,0,0,0,16-3.8l.6-.29V40.94Z"/><path class="cls-1" d="M100.89,23.35a24,24,0,0,0-6.27-4.41,34.1,34.1,0,0,1-10.11-7.08l-.75-.79-.7.74a34.28,34.28,0,0,1-10.17,7.11,23.78,23.78,0,0,0-6.3,4.43,23.44,23.44,0,0,0-7,17.51,22.34,22.34,0,0,0,7,15.81A23.75,23.75,0,0,0,83.71,63.5a23.94,23.94,0,0,0,17.19-6.82,22.36,22.36,0,0,0,7-15.77A23.4,23.4,0,0,0,100.89,23.35ZM83.76,16.53h0ZM96.87,53a17.83,17.83,0,0,1-13,5.27A18.1,18.1,0,0,1,70.71,53,17.29,17.29,0,0,1,65.34,40a17.31,17.31,0,0,1,5.37-13,18.06,18.06,0,0,1,13.13-5.28,17.83,17.83,0,0,1,13,5.27,17.42,17.42,0,0,1,5.3,13A17.39,17.39,0,0,1,96.87,53Z"/><path class="cls-1" d="M83.77,7.23A3.37,3.37,0,1,0,80.4,3.87,3.35,3.35,0,0,0,83.77,7.23Z"/></svg>