<svg id="Layer_1" data-name="Layer 1" xmlns="http://www.w3.org/2000/svg" viewBox="0 0 128 40"><defs><style>.cls-1{fill:#869ab8;}</style></defs><path class="cls-1" d="M128,22.61a5.54,5.54,0,0,0-5.86-5.86,5.91,5.91,0,0,0-2.35.4,6,6,0,0,0-2,1.31,5.87,5.87,0,0,0-1.68,4.35,5.92,5.92,0,0,0,.39,2.36A5.88,5.88,0,0,0,122.14,29a7,7,0,0,0,3.51-.89,4.78,4.78,0,0,0,2.25-2.93h-2.45a3.32,3.32,0,0,1-3.18,1.6,3.45,3.45,0,0,1-3.56-3.13H128c0-.43,0-.71,0-1Zm-9.32-1.16a3.16,3.16,0,0,1,1.21-1.89,3.65,3.65,0,0,1,5.56,1.89h-6.77Z"/><path class="cls-1" d="M9.33,24.34a3.52,3.52,0,0,1-6.7-1.54,3.51,3.51,0,0,1,2.82-3.4,3.53,3.53,0,0,1,3.92,2h2.72A6.13,6.13,0,1,0,1.55,27a6.13,6.13,0,0,0,10.54-2.62H9.33Z"/><path class="cls-1" d="M21.8,17.27a5.43,5.43,0,0,0-2.45-.52,4.55,4.55,0,0,0-2.47.76v-.35h-2.5V28.54H16.9V23.09a9.15,9.15,0,0,1,.15-2.22v-.05a2.17,2.17,0,0,1,.36-.67,2,2,0,0,1,.58-.47,2.53,2.53,0,0,1,2.73,0Z"/><path class="cls-1" d="M31.32,17.16v5.45a9.07,9.07,0,0,1-.15,2.21v.06A1.93,1.93,0,0,1,30.24,26a2.53,2.53,0,0,1-2.73,0,1.91,1.91,0,0,1-.92-1.13v-.06a8.61,8.61,0,0,1-.16-2.21V17.16H23.92v6.2a7.61,7.61,0,0,0,.42,3,3.88,3.88,0,0,0,2.05,2,5.62,5.62,0,0,0,2.45.51,4.6,4.6,0,0,0,2.47-.75v.37H33.8V17.16Z"/><path class="cls-1" d="M39.42,28.54V23.08a8.72,8.72,0,0,1,.17-2.22v-.05a1.9,1.9,0,0,1,.93-1.13,2.51,2.51,0,0,1,2.72,0,1.9,1.9,0,0,1,.93,1.13v.05a8.7,8.7,0,0,1,.14,2.22v5.46h2.5V22.33a7.43,7.43,0,0,0-.41-3,3.84,3.84,0,0,0-2-2,5.49,5.49,0,0,0-2.45-.52,4.52,4.52,0,0,0-2.47.76V17.2H36.92V28.54Z"/><path class="cls-1" d="M58.42,24.34a3.52,3.52,0,0,1-6,.68,3.52,3.52,0,1,1,6-3.58h2.72A6.13,6.13,0,1,0,50.64,27a6.13,6.13,0,0,0,10.54-2.62H58.42Z"/><path class="cls-1" d="M66,28.54V23.08a8.64,8.64,0,0,1,.16-2.21v-.06a1.91,1.91,0,0,1,.35-.66,1.81,1.81,0,0,1,.59-.47,2.51,2.51,0,0,1,2.72,0,1.9,1.9,0,0,1,.93,1.13v.05a9.69,9.69,0,0,1,.16,2.22v5.45h2.5v-6.2a7.57,7.57,0,0,0-.43-3,3.84,3.84,0,0,0-2-2.05,5.43,5.43,0,0,0-2.45-.52,4.63,4.63,0,0,0-2.47.76V11H63.49V28.54Z"/><path class="cls-1" d="M82.41,16.75H82a6,6,0,0,0-3,1.05V11H76.48V28.54H79v-.65a6.14,6.14,0,0,0,7.93-.74,6.14,6.14,0,0,0,1.64-5.32,6.11,6.11,0,0,0-6.14-5.08Zm3.52,6.57v.1a3,3,0,0,1-.1.43,2.45,2.45,0,0,1-.17.45v.05a3.52,3.52,0,0,1-2.46,1.93l-.33,0h-.08a2.41,2.41,0,0,1-.38,0,3.87,3.87,0,0,1-.48,0h-.1a3.59,3.59,0,0,1-.9-.27h-.07a3.34,3.34,0,0,1-1.41-1.28,3.58,3.58,0,0,1-.51-1.89,3.41,3.41,0,0,1,.33-1.44,3.47,3.47,0,0,1,1.15-1.37,3.59,3.59,0,0,1,1.67-.63h.36a3.57,3.57,0,0,1,2.43,1,3.51,3.51,0,0,1,1.05,2.41,3.68,3.68,0,0,1,0,.47Z"/><path class="cls-1" d="M114.1,20.56v0c0-1.86-1.42-3.74-4.6-3.78s-4.55,1.87-4.59,3.7v.13c.06,1.07.68,2.44,3,3l2.11.48c.55.12,1.47.43,1.55,1.13,0,1-1.23,1.46-2.12,1.46s-2.12-.57-2.12-1.47v-.06h-2.47v0c0,1.85,1.42,3.74,4.6,3.77s4.6-1.91,4.6-3.77v0c-.06-1.08-.64-2.46-3.06-3l-2.11-.48c-.46-.1-1.55-.41-1.55-1.1,0-1.08,1.1-1.46,2.12-1.46s2.12.56,2.12,1.47v.06h2.47Z"/><path class="cls-1" d="M90.56,22.85a6.08,6.08,0,0,0,.9,3.13,6,6,0,0,0,2.37,2.23,6.09,6.09,0,0,0,6.27-.32v.65h2.5V17.17h-2.49v.68a6,6,0,0,0-3-1.06h-.45a6.13,6.13,0,0,0-6.11,6.06Zm2.58,0a3.58,3.58,0,0,1,1-2.49,3.53,3.53,0,0,1,2.48-1H97a3.53,3.53,0,0,1,2.82,2,3.42,3.42,0,0,1,.34,1.44,3.67,3.67,0,0,1-.3,1.46,3.48,3.48,0,0,1-.22.43,3.17,3.17,0,0,1-.62.74,3.46,3.46,0,0,1-.79.54h-.07a3.4,3.4,0,0,1-.89.27h-.11a3.87,3.87,0,0,1-.48,0,2.41,2.41,0,0,1-.38,0h0l-.33,0a3.53,3.53,0,0,1-1.42-.68,3.6,3.6,0,0,1-1-1.24v-.05c-.06-.15-.12-.29-.17-.44a3.67,3.67,0,0,1-.09-.43v-.11c0-.13-.09-.26-.13-.39Z"/></svg>