<svg id="Layer_1" data-name="Layer 1" xmlns="http://www.w3.org/2000/svg" viewBox="0 0 128 40"><defs><style>.cls-1{fill:#1b305b;}</style></defs><path class="cls-1" d="M24.27,7.58H17.5a12.42,12.42,0,1,0,0,24.84h6.78a12.42,12.42,0,1,0,0-24.84Zm7.93,17.3a4.34,4.34,0,0,1-4.37,4.31H13.93a4.34,4.34,0,0,1-4.37-4.31V15.12a4.34,4.34,0,0,1,4.37-4.31h13.9a4.34,4.34,0,0,1,4.37,4.31Z"/><path class="cls-1" d="M5.91,12.65a1.2,1.2,0,0,0-.44.13L1.29,14.9A2.61,2.61,0,0,0,0,17V22.8a2.66,2.66,0,0,0,1.29,2.14l4.19,2.17a1.31,1.31,0,0,0,.29.11,13.47,13.47,0,0,1,.14-14.57Z"/><path class="cls-1" d="M40.49,14.9l-4.17-2.12a1.15,1.15,0,0,0-.44-.13A13.47,13.47,0,0,1,36,27.22a1.31,1.31,0,0,0,.29-.11l4.19-2.17a2.66,2.66,0,0,0,1.29-2.14V17A2.61,2.61,0,0,0,40.49,14.9Z"/><path class="cls-1" d="M29,16.3a2.53,2.53,0,0,0-4.82,0h0a.87.87,0,0,0-.05.28.72.72,0,0,0,.72.73.73.73,0,0,0,.71-.56h0a1.08,1.08,0,0,1,2.06,0h0a.72.72,0,0,0,1.43-.16A.58.58,0,0,0,29,16.3Z"/><path class="cls-1" d="M16.48,16.75h0a.72.72,0,1,0,1.37-.45h0a2.53,2.53,0,0,0-4.83,0h0a.87.87,0,0,0,0,.28.72.72,0,0,0,.72.73.73.73,0,0,0,.71-.56h0a1.09,1.09,0,0,1,1-.76A1.12,1.12,0,0,1,16.48,16.75Z"/><path class="cls-1" d="M21.1,26.34c3,0,5.54-1.29,6.09-4.18H15C15.56,25.05,18.08,26.34,21.1,26.34Z"/><path class="cls-1" d="M110,13.25a5.89,5.89,0,0,0-4.13,1.22,4.16,4.16,0,0,0-1.3,3.18v6a4.18,4.18,0,0,0,1.3,3.19,7.6,7.6,0,0,0,8.26,0,4.15,4.15,0,0,0,1.3-3.19v-6a4.12,4.12,0,0,0-1.3-3.18A5.89,5.89,0,0,0,110,13.25Zm2.71,10.19a2.05,2.05,0,0,1-.63,1.63,3.1,3.1,0,0,1-2.08.55,3.19,3.19,0,0,1-2.09-.55,2.07,2.07,0,0,1-.63-1.63V17.81a2,2,0,0,1,.63-1.62,4.23,4.23,0,0,1,4.17,0,2,2,0,0,1,.63,1.62Z"/><polygon class="cls-1" points="117.28 13.46 117.28 15.85 121.28 15.85 121.28 27.8 124 27.8 124 15.85 128 15.85 128 13.46 117.28 13.46"/><path class="cls-1" d="M100.38,20.32a2.64,2.64,0,0,0,1.22-.9A2.36,2.36,0,0,0,102,18V16.52c0-2-1.28-3.06-3.81-3.06H92.54V27.79h6a4.3,4.3,0,0,0,2.91-.87,3.05,3.05,0,0,0,1-2.42V23a2.77,2.77,0,0,0-.55-1.75A2.66,2.66,0,0,0,100.38,20.32ZM95.24,15.7h2.6c1,0,1.43.39,1.43,1.17v1.26c0,.89-.49,1.33-1.45,1.33H95.24V15.7Zm4.52,8.46a1.3,1.3,0,0,1-.4,1.09,2.18,2.18,0,0,1-1.34.31H95.25V21.63h3a1.58,1.58,0,0,1,1.16.36,1.43,1.43,0,0,1,.35,1.08Z"/><polygon class="cls-1" points="70.07 27.8 72.77 27.8 72.77 22.05 78.45 22.05 78.45 19.66 72.77 19.66 72.77 15.85 78.92 15.85 78.92 13.46 70.07 13.46 70.07 27.8"/><rect class="cls-1" x="64.02" y="13.46" width="2.71" height="14.33"/><path class="cls-1" d="M56.27,13.46H50.93V27.8h5.34a5.17,5.17,0,0,0,3.61-1.08A3.66,3.66,0,0,0,61,23.94V17.32a3.66,3.66,0,0,0-1.13-2.78A5.09,5.09,0,0,0,56.27,13.46Zm2,9.84a2.2,2.2,0,0,1-.51,1.6,2.55,2.55,0,0,1-1.82.51H53.64V15.85H56a2.55,2.55,0,0,1,1.82.51,2.22,2.22,0,0,1,.51,1.6Z"/><polygon class="cls-1" points="81.3 27.8 84.01 27.8 84.01 22.05 89.69 22.05 89.69 19.66 84.01 19.66 84.01 15.85 90.16 15.85 90.16 13.46 81.3 13.46 81.3 27.8"/></svg>