<svg id="Layer_1" data-name="Layer 1" xmlns="http://www.w3.org/2000/svg" viewBox="0 0 342 62"><defs><style>.cls-1{fill:#0e0e0e;}.cls-2{fill:#909191;}</style></defs><path class="cls-1" d="M42.1,1H.93V61H42.1a30,30,0,0,0,0-60Zm0,48.1H12.83V12.9H42.1a18.1,18.1,0,1,1,0,36.2Z"/><path class="cls-1" d="M141.87,37a18,18,0,1,0,0-35.95H91.1V61H103V37h14.52l27.93,24h18.23L135.74,37ZM103,12.9h38.88a6.08,6.08,0,1,1,0,12.15H103Z"/><path class="cls-1" d="M209.75,1,173.13,61h13.93l8.45-13.85h37L240.31,61H254L220.2,1Zm-7,34.26,12-19.65,11.06,19.65Z"/><polygon class="cls-1" points="281.02 1 264.19 1 292.66 29.45 261.08 61 277.91 61 309.49 29.45 281.02 1"/><polygon class="cls-1" points="314.3 34.26 305.88 42.66 324.24 61 341.07 61 314.3 34.26"/><polygon class="cls-2" points="337.97 1 321.14 1 305.89 16.24 314.3 24.65 337.97 1"/></svg>