<svg id="Layer_1" data-name="Layer 1" xmlns="http://www.w3.org/2000/svg" viewBox="0 0 462 68"><defs><style>.cls-1{fill:#7f8080;}.cls-2{fill:#6f2a77;fill-rule:evenodd;}</style></defs><path class="cls-1" d="M218.25,22.63a15,15,0,0,0-4.93-3.37A16.21,16.21,0,0,0,206.77,18a16.7,16.7,0,0,0-6.62,1.26A14.65,14.65,0,0,0,192,27.64a16.64,16.64,0,0,0-1.09,6,15.67,15.67,0,0,0,1.12,5.9,14.72,14.72,0,0,0,3.18,4.93,14.91,14.91,0,0,0,5,3.35,16.67,16.67,0,0,0,6.53,1.23,16.45,16.45,0,0,0,8.68-2.21,13.36,13.36,0,0,0,5.29-5.64l-6.58-1.83a6,6,0,0,1-2.78,3A8.93,8.93,0,0,1,207,43.48a8.18,8.18,0,0,1-2.86-.52,7.55,7.55,0,0,1-2.46-1.49,7.73,7.73,0,0,1-1.78-2.35A9.13,9.13,0,0,1,199,36h23.2a5.72,5.72,0,0,0,.14-1.15c0-.46,0-.94,0-1.43a16.32,16.32,0,0,0-1.06-5.84A14.59,14.59,0,0,0,218.25,22.63ZM198.92,31a8.36,8.36,0,0,1,.77-3,8,8,0,0,1,1.69-2.35,7.93,7.93,0,0,1,10.63,0A8,8,0,0,1,214.5,31Z"/><path class="cls-1" d="M406,44.71a7.35,7.35,0,0,1-2.92.54,4,4,0,0,1-2.46-.77,3.15,3.15,0,0,1-1.15-2.43V21.77h6.87V18.68h-6.87V8.6h-3.89V18.68h-4.13v3.09h4.13V43.13a5.84,5.84,0,0,0,.51,2.52,5.35,5.35,0,0,0,1.38,1.81,5.73,5.73,0,0,0,2,1.06,8.72,8.72,0,0,0,2.41.34,11.33,11.33,0,0,0,2.29-.23,16.07,16.07,0,0,0,1.95-.52c.57-.19,1.07-.38,1.51-.57s.78-.34,1-.46l-1-3.15A10.66,10.66,0,0,1,406,44.71Z"/><path class="cls-1" d="M179.16,23.78a12.79,12.79,0,0,0-4.29-4.21A11.84,11.84,0,0,0,168.68,18a12.93,12.93,0,0,0-10,4.52,15.81,15.81,0,0,0-2.87,4.92,17.66,17.66,0,0,0-1,6.07,17.34,17.34,0,0,0,1,5.84,15.06,15.06,0,0,0,2.75,4.84,12.87,12.87,0,0,0,4.26,3.3,12.45,12.45,0,0,0,5.47,1.2A12.33,12.33,0,0,0,174,47.28a10.15,10.15,0,0,0,4.18-4v3.78a9.17,9.17,0,0,1-.72,3.78,7.17,7.17,0,0,1-1.95,2.64A8.1,8.1,0,0,1,172.66,55a12,12,0,0,1-3.41.48,13.2,13.2,0,0,1-5.58-1.2A11.81,11.81,0,0,1,159.35,51L155.16,55a16.73,16.73,0,0,0,5.76,4.61,18.9,18.9,0,0,0,8.33,1.64,21.67,21.67,0,0,0,6.65-1,15.92,15.92,0,0,0,5.27-2.8A12.74,12.74,0,0,0,184.63,53a13.93,13.93,0,0,0,1.23-6V18.51h-6.7Zm-1,13.74A7.2,7.2,0,0,1,177,39.47a8.84,8.84,0,0,1-1.69,1.6,8,8,0,0,1-2.09,1.09,7.11,7.11,0,0,1-2.4.4A8,8,0,0,1,164.93,40a8.67,8.67,0,0,1-1.75-2.8,9.34,9.34,0,0,1-.63-3.44,10.71,10.71,0,0,1,.55-3.43,9.18,9.18,0,0,1,1.57-2.95,7.85,7.85,0,0,1,2.49-2.06,6.8,6.8,0,0,1,3.24-.78A7.61,7.61,0,0,1,175,26.13a9.44,9.44,0,0,1,3.21,4.23Z"/><path class="cls-1" d="M461,18.51h-1a8.37,8.37,0,0,0-5.44,2.09,15.64,15.64,0,0,0-4.07,5.24V18.68h-3.66V48.52h3.89V30a11,11,0,0,1,4.12-5.67,12.25,12.25,0,0,1,6.88-2.17V18.57A3.84,3.84,0,0,0,461,18.51Z"/><path class="cls-1" d="M436.88,22.75a14.23,14.23,0,0,0-10.65-4.58,14.39,14.39,0,0,0-6,1.23,15,15,0,0,0-7.84,8.19,15.59,15.59,0,0,0-1.12,5.92,16,16,0,0,0,1.12,6,15.51,15.51,0,0,0,3.12,4.95,14.46,14.46,0,0,0,10.76,4.61,15.41,15.41,0,0,0,4.13-.55A14.08,14.08,0,0,0,434.07,47,13.5,13.5,0,0,0,437,44.65a10,10,0,0,0,1.95-3l-3.38-.91a7.47,7.47,0,0,1-1.46,2.2A9.07,9.07,0,0,1,432,44.62a11.64,11.64,0,0,1-2.63,1.09,10.66,10.66,0,0,1-2.92.4,10.29,10.29,0,0,1-4.1-.83A10.58,10.58,0,0,1,418.93,43a12.27,12.27,0,0,1-2.41-3.52A12.68,12.68,0,0,1,415.4,35h25.49a2.33,2.33,0,0,0,.08-.63c0-.3,0-.61,0-.91a15.78,15.78,0,0,0-1.08-5.84A15.58,15.58,0,0,0,436.88,22.75ZM415.29,32a13,13,0,0,1,1.06-4.35,10.84,10.84,0,0,1,2.35-3.43A10.59,10.59,0,0,1,422.1,22a11,11,0,0,1,8.25,0,10.52,10.52,0,0,1,3.41,2.24A12,12,0,0,1,437.28,32Z"/><path class="cls-1" d="M352.46,43.48V18.68h-3.89V37.46a12.86,12.86,0,0,1-1.81,3.38,13.13,13.13,0,0,1-2.52,2.58,10.57,10.57,0,0,1-3.06,1.66,10.34,10.34,0,0,1-3.38.57q-6.93,0-6.93-10.13V18.68H327V36.2q0,6.42,2.4,9.65a8.29,8.29,0,0,0,7.1,3.24,14.27,14.27,0,0,0,12.6-7.33v4.12a2.55,2.55,0,0,0,.95,2,3.39,3.39,0,0,0,2.26.8,13.33,13.33,0,0,0,1.6-.17V45.08C352.94,45.08,352.46,44.55,352.46,43.48Z"/><path class="cls-1" d="M384.42,21.66a7.16,7.16,0,0,0-2.72-2.58,8.77,8.77,0,0,0-4.21-.91,14.62,14.62,0,0,0-3.87.51,15,15,0,0,0-3.52,1.49,14.76,14.76,0,0,0-3,2.32,13.91,13.91,0,0,0-2.27,3V18.68h-3.55V48.52h3.9V30.25a11.94,11.94,0,0,1,1.69-3.41,12.68,12.68,0,0,1,2.6-2.72,12,12,0,0,1,3.21-1.77,9.9,9.9,0,0,1,3.44-.63,5.32,5.32,0,0,1,4.81,2.4c1,1.61,1.54,4.18,1.54,7.73V48.52h3.9V31.05a28.89,28.89,0,0,0-.46-5.32A11.9,11.9,0,0,0,384.42,21.66Z"/><polygon class="cls-1" points="289.35 18.57 281.16 18.57 269.13 32.08 269.13 6.71 261.46 6.71 261.46 48.52 269.13 48.52 269.13 39.58 273.26 35.52 281.96 48.52 290.15 48.52 278.13 31.28 289.35 18.57"/><path class="cls-1" d="M252.61,22.63a15,15,0,0,0-4.92-3.37A16.3,16.3,0,0,0,241.13,18a16.7,16.7,0,0,0-6.62,1.26,15,15,0,0,0-5,3.4,14.86,14.86,0,0,0-3.15,5,16.85,16.85,0,0,0-1.09,6,15.87,15.87,0,0,0,1.12,5.9,14.73,14.73,0,0,0,8.16,8.28,16.7,16.7,0,0,0,6.53,1.23,16.45,16.45,0,0,0,8.68-2.21,13.44,13.44,0,0,0,5.3-5.64l-6.59-1.83a5.9,5.9,0,0,1-2.78,3,8.89,8.89,0,0,1-4.32,1.12,8.19,8.19,0,0,1-2.87-.52,7.69,7.69,0,0,1-4.23-3.84A8.7,8.7,0,0,1,233.4,36h23.19a5.08,5.08,0,0,0,.14-1.15c0-.46,0-.94,0-1.43a16.32,16.32,0,0,0-1.06-5.84A14.29,14.29,0,0,0,252.61,22.63ZM233.28,31a8.36,8.36,0,0,1,.78-3,7.78,7.78,0,0,1,1.68-2.35,7.93,7.93,0,0,1,10.63,0A8,8,0,0,1,248.86,31Z"/><path class="cls-1" d="M317,21.75a7.73,7.73,0,0,0-2.92-2.64,9.33,9.33,0,0,0-4.38-.94A12.69,12.69,0,0,0,303,20.11a14,14,0,0,0-5,5.33V6.71h-3.9V48.52H298V30.25a11.46,11.46,0,0,1,1.57-3.38,12.52,12.52,0,0,1,2.49-2.69,12.11,12.11,0,0,1,3.07-1.8,8.7,8.7,0,0,1,3.29-.66,5.86,5.86,0,0,1,5.13,2.52q1.74,2.52,1.74,7.61V48.52h3.9V31.05a24.36,24.36,0,0,0-.52-5.24A11.64,11.64,0,0,0,317,21.75Z"/><g id="Group"><path id="Fill-2" class="cls-2" d="M117.2,35.59a18.5,18.5,0,0,0-37,.14,18.5,18.5,0,0,0,37-.14M31.71,17.54C21.57,17.46,13.08,25.66,13,35.59s8.51,18.3,18.54,18.26A18.68,18.68,0,0,0,50.05,35.91c.2-9.88-8.2-18.29-18.34-18.37M60,21a31.74,31.74,0,0,1,2.69,22.67C58.91,58.32,45.3,67.68,29,66.77,15.1,66,2.57,54.32,1,40.05-.4,27.75.7,15.36.4,3c0-1.54,2-2,2-2h11.2s2.24.58,2.13,2.21c-.11,1.81,0,3.64,0,5.88C20,7.2,23.81,5.62,28,5.11A31.16,31.16,0,0,1,46.62,8.38a4.23,4.23,0,0,0,4.44-.06,31.08,31.08,0,0,1,28.87,0,4.63,4.63,0,0,0,4.74-.14c21.69-10.64,46.62,5.21,45.73,29a30.61,30.61,0,0,1-20,27.46c-12.9,4.62-24.72,2.42-34.38-7.5-9.17-9.42-10.94-20.7-6.41-33,1.43-3.88,1.42-4.06-2.76-4.32-2.32-.15-4.64-.17-6.93,1.11"/><path id="Fill-3" class="cls-2" d="M22.43,26.27c-3.37,3.32-5.89,8.9-2.36,14C21.9,30.07,28.46,25.75,38.5,25.36c-3.64-4-11.56-3.53-16.07.91"/><path id="Fill-4" class="cls-2" d="M89.79,26.27c-3.37,3.32-5.89,8.9-2.36,14,1.84-10.16,8.4-14.48,18.43-14.87-3.64-4-11.55-3.53-16.07.91"/></g></svg>