<svg xmlns="http://www.w3.org/2000/svg" viewBox="0 0 400 147.51"><defs><style>.cls-1{fill:#052b6c;}.cls-2{fill:#3b85f9;}</style></defs><g id="Layer_2" data-name="Layer 2"><g id="Layer_1-2" data-name="Layer 1"><g id="Ap5S1M"><path class="cls-1" d="M400,29.21c-2.22,2.56-2.78,5.86-3.89,8.88q-14.19,38.58-28.25,77.2c-1.61,4.4-1.64,4.5-6.28,4.41-3.63-.07-8,1.49-10.66-.72-2.33-2-2.82-6.17-4-9.42Q332,69.15,317.21,28.72c0-.12.06-.3.25-1.12,6.05,0,12.28-.08,18.51,0,2.24,0,2.15,2.33,2.66,3.76C343.48,45,348.22,58.67,353,72.3c1.7,4.85,3.44,9.68,5.38,15.15,3.19-7.15,5.2-14,7.61-20.8,4.14-11.57,8.14-23.2,12.22-34.79,1.52-4.32,1.54-4.23,6.36-4.33,5.14-.11,10.3.44,15.43-.32Z"/><path class="cls-2" d="M64.87,55.28c-7.47,3.27-14.19,7.88-21.24,11.89C29.05,75.45,14.54,83.86,0,92.22v-18C7.33,69.08,15.3,65,23,60.5,35.9,53,48.88,45.62,61.76,38.08c1.91-1.11,3.35-1.4,5.3,0,3.88,2.71,8.57,4.17,12,7.58,0,1.21-1.09,1.47-1.88,2C73.18,50.31,68.67,52.22,64.87,55.28Z"/><path class="cls-2" d="M0,36.22C13.8,29,27.09,20.86,40.61,13.11Q51,7.19,61.25,1.13c2.17-1.3,4-1.69,6.28,0,3.69,2.72,8.21,4.19,11.62,7.38-.35,2-2.29,2.09-3.58,3-3.49,2.34-7.55,3.77-10.67,6.7-7.93,3.46-15,8.4-22.55,12.62-12,6.75-23.88,13.76-35.79,20.7-2,1.2-4.09,2.24-6.56,1.75Z"/><path class="cls-2" d="M65.11,92.83c-3.76.54-6.58,3.08-9.71,4.84q-18,10.1-35.68,20.67c-2.47,1.47-4.37,1.28-6.77,0C8.62,116,4.62,113,0,111.23v-1c5-1.38,9.1-4.59,13.52-7.08Q36.92,89.94,60,76.21c3.34-2,5.83-2,9,.24,3.47,2.5,7.34,4.45,11,6.63-3.15,1.76-6.5,3.23-9.36,5.37C68.8,89.84,66,90.19,65.11,92.83Z"/><path class="cls-1" d="M291.56,57.39c-4.78-7.45-11.17-11-18.75-12.72-5-1.15-10.4-1.41-14.81,0a26.71,26.71,0,0,0-14.09,10.46c-6.78,10.18-7,25.79-.26,36,9.22,13.94,31.19,16,44,4,1.56-1.46,2.89-3.18,4.63-5.11,2.94,4.94,5.5,9.39,8.21,13.74,1.16,1.86-.15,2.73-1.13,3.8a38.82,38.82,0,0,1-20.86,12c-17.56,3.79-33.56.84-46.6-12.22-9.74-9.77-13.27-22.2-12.67-35.66.8-17.74,8.27-32.09,24.58-40,18-8.79,35.83-7.35,52.26,4.73,4.81,3.54,4.69,3.72,2,8.82C296.05,49,294,52.82,291.56,57.39Z"/><path class="cls-1" d="M176.06,119V114.7q0-41,0-81.93c0-5.88-.7-5.18,5.42-5.21,3.67,0,7.33.05,11,0,1.85-.05,2.85.47,2.65,2.51-.09,1,.05,2,.05,3q0,41.21,0,82.42c0,4.72.13,4.12-3.9,4.08-4.67,0-9.33,0-14-.06A5.66,5.66,0,0,1,176.06,119Z"/><path class="cls-2" d="M95.8,129.85l-29.22,17a3.88,3.88,0,0,1-4.23,0c-9.76-5.66-19.52-11.31-29.58-17.12,3-3.13,6.76-4.34,10-6.33,6.21-3.86,12.64-7.38,19-11.08,1.66-1,3.11-1.42,5-.26,9.42,5.64,18.93,11.12,28.39,16.67C95.37,128.92,95.47,129.31,95.8,129.85Z"/><path class="cls-1" d="M64.9,18.15c3.12-2.93,7.18-4.36,10.67-6.7,1.29-.87,3.23-1,3.58-3,2.14.08,3.64,1.54,5.34,2.51,13.52,7.76,27,15.64,40.56,23.3,2.82,1.59,4.06,3.3,3.79,6.65-.36,4.45-.09,8.95-.09,13.57-.61,0-1.14.09-1.49-.11Q96.07,36.31,64.9,18.15Z"/><path class="cls-1" d="M64.87,55.28c3.8-3.06,8.31-5,12.34-7.66.79-.53,1.83-.79,1.88-2,4.24,1.16,7.7,3.85,11.43,6,11.7,6.62,23.24,13.52,34.93,20.15,2.47,1.4,3.53,3,3.37,5.86-.25,4.63-.07,9.28-.07,13.87-.49.14-.88.39-1.06.28Q96.26,73.55,64.87,55.28Z"/><path class="cls-1" d="M65.11,92.83c.89-2.64,3.69-3,5.56-4.38,2.86-2.14,6.21-3.61,9.36-5.37C86.57,86,92.47,90,98.66,93.49c9.81,5.55,19.52,11.28,29.77,17.22-4.88,3.62-10.05,6.05-14.93,9-1.53.92-2.49-.4-3.55-1q-16.61-9.52-33.18-19.15C72.89,97.27,69,95.06,65.11,92.83Z"/></g></g></g></svg>