<svg id="Layer_1" data-name="Layer 1" xmlns="http://www.w3.org/2000/svg" xmlns:xlink="http://www.w3.org/1999/xlink" viewBox="0 0 128 40"><defs><style>.cls-1{fill:none;}.cls-2{fill:#266296;}.cls-3{clip-path:url(#clip-path);}.cls-4{clip-path:url(#clip-path-2);}.cls-5{clip-path:url(#clip-path-3);}.cls-6{clip-path:url(#clip-path-4);}.cls-7{clip-path:url(#clip-path-5);}.cls-8{clip-path:url(#clip-path-6);}</style><clipPath id="clip-path"><path class="cls-1" d="M97.29,15.69v6.44a4.92,4.92,0,0,1-1.74,4,5.57,5.57,0,0,1-3,1h-.32a5.55,5.55,0,0,1-1.78-.36,4.22,4.22,0,0,1-2.31-1.94l0-.05a6.38,6.38,0,0,1-.64-3.42V15.73H85.78v6.4a10.78,10.78,0,0,0,.16,1.57,5.69,5.69,0,0,0,1.51,3,6.34,6.34,0,0,0,5.12,2.11h.23a5.16,5.16,0,0,0,1.64-.29,6.94,6.94,0,0,0,2.1-1.08,6.19,6.19,0,0,0,2.34-5.14v-6.6Z"/></clipPath><clipPath id="clip-path-2"><path class="cls-1" d="M103.79,26.29a4.17,4.17,0,0,1-2.44-3.89v-.3a4.36,4.36,0,0,1,1.34-3.16,5.39,5.39,0,0,1,3.38-1.28h.24a5.42,5.42,0,0,1,3,1,4.36,4.36,0,0,1,1.78,3.59,4.93,4.93,0,0,1-1,3,5,5,0,0,1-3.78,1.66h-.24a5.58,5.58,0,0,1-2.28-.55m.49-10a6.42,6.42,0,0,0-3.83,2.83,7.07,7.07,0,0,0-.82,3.08,7.38,7.38,0,0,0,.38,2.12,5.75,5.75,0,0,0,2.32,3,7.1,7.1,0,0,0,4,1.11h.36a6.18,6.18,0,0,0,1.48-.24,6.92,6.92,0,0,0,2.92-1.69v1.93h1.6V22.21A6.18,6.18,0,0,0,109.9,17a7.53,7.53,0,0,0-3.91-1,11.1,11.1,0,0,0-1.71.23"/></clipPath><clipPath id="clip-path-3"><path class="cls-1" d="M40.46,11.2V28.43H42.1V22.55a5.36,5.36,0,0,1,1.08-3.62l.37-.4A5.52,5.52,0,0,1,47,17.28a7.14,7.14,0,0,1,1.8.28,4.53,4.53,0,0,1,3.14,4.57v6.3h1.64V22.28a6.13,6.13,0,0,0-.5-2.87A6,6,0,0,0,51.17,17l0,0a7.26,7.26,0,0,0-3.8-1.28h-.16a6.76,6.76,0,0,0-2.84.53,6.11,6.11,0,0,0-2.23,1.49V11.2Z"/></clipPath><clipPath id="clip-path-4"><path class="cls-1" d="M66.07,19.25a5.89,5.89,0,0,1,1.73-1.2,8.56,8.56,0,0,1,2.09-.39,6.52,6.52,0,0,1,2,.39A4.38,4.38,0,0,1,74,19.6a3.78,3.78,0,0,1,.68,1.59h-9.5a4.27,4.27,0,0,1,.94-1.94m3.63-3.18a13.68,13.68,0,0,0-2.28.43,6.34,6.34,0,0,0-3.3,2.59,7.19,7.19,0,0,0-.81,3.16A6.83,6.83,0,0,0,64,25.19a6.65,6.65,0,0,0,1.83,2.07l0,0a7.07,7.07,0,0,0,3.73,1.14h.62a8.79,8.79,0,0,0,2.1-.35h0a7,7,0,0,0,2.84-2l-1.45-.91a4.87,4.87,0,0,1-4,1.68,5.91,5.91,0,0,1-1.59-.28,5.25,5.25,0,0,1-2.08-1.31,4.45,4.45,0,0,1-1-2.53H76.41v-.61a6.08,6.08,0,0,0-1.09-3.49l-.63-.74,0,0a7.23,7.23,0,0,0-4.91-1.8Z"/></clipPath><clipPath id="clip-path-5"><path class="cls-1" d="M63,16.07l-.05,0h0l.05,0c-4.62,0-4.59,4-4.59,4v8.33H60V20.9a3.47,3.47,0,0,1,.43-2,2.77,2.77,0,0,1,2.47-1.28h.4V16.07Z"/></clipPath><clipPath id="clip-path-6"><path class="cls-1" d="M12.26,20.12a11.51,11.51,0,0,0,5.82,10l.6-.86A10.49,10.49,0,1,1,31,27.71h0l0,0a10.59,10.59,0,0,1-2.78,1.89,8.79,8.79,0,0,1-1.24.53c-1,.23-.82-1-.82-1a5.31,5.31,0,0,1,.25-.73l2.51-7.33.45-1.3A2.34,2.34,0,0,0,27.88,17c-2.07-.8-3,2-3,2s.38-.72.79-.86.68.32.36,1.22l-.37,1.07h0l-1.86,5.41h0l-1,2.78a2.36,2.36,0,0,0,1,2.57,3.15,3.15,0,0,0,1.36.25h.08a8.55,8.55,0,0,0,3.62-1A11.54,11.54,0,1,0,12.26,20.12"/></clipPath></defs><rect class="cls-2" x="114.24" y="11.2" width="1.5" height="17.23"/><g class="cls-3"><rect class="cls-2" x="83.9" y="13.82" width="16.85" height="16.85"/></g><g class="cls-4"><rect class="cls-2" x="97.76" y="14.19" width="16.85" height="16.1"/></g><polygon class="cls-2" points="78.29 11.2 78.29 28.43 79.86 28.43 79.86 17.18 85.03 17.18 85.03 15.57 79.86 15.57 79.86 11.2 78.29 11.2"/><g class="cls-5"><rect class="cls-2" x="38.59" y="9.33" width="16.85" height="20.97"/></g><rect class="cls-2" x="55.82" y="11.57" width="1.5" height="3"/><rect class="cls-2" x="55.82" y="16.07" width="1.5" height="12.36"/><g class="cls-6"><rect class="cls-2" x="61.43" y="14.19" width="16.85" height="16.1"/></g><g class="cls-7"><rect class="cls-2" x="56.56" y="14.19" width="8.61" height="16.1"/></g><g class="cls-8"><rect class="cls-2" x="10.39" y="6.7" width="26.84" height="26.59"/></g></svg>