<svg width="164" height="43" viewBox="0 0 164 43" fill="none" xmlns="http://www.w3.org/2000/svg">
<path d="M67.7404 22V30.2H63.7304V22.59C63.7304 20.93 62.6904 20.16 61.4004 20.16C59.9304 20.16 58.9104 21.01 58.9104 22.91V30.2H54.9004V11.5H58.9104V18.1C59.6304 17.11 60.9604 16.47 62.7304 16.47C65.4504 16.47 67.7404 18.4 67.7404 22Z" fill="#212121"/>
<path d="M82.9204 16.85L78.3504 29.81C76.8504 34.06 74.4804 35.74 70.7404 35.56V31.82C72.6104 31.82 73.4904 31.23 74.0804 29.6L68.7704 16.85H73.1804L76.1404 25.03L78.6504 16.85H82.9204Z" fill="#212121"/>
<path d="M98.7604 23.53C98.7604 27.51 95.8804 30.58 92.3804 30.58C90.5904 30.58 89.2804 29.97 88.4004 28.95V35.55H84.3904V16.85H88.4004V18.11C89.2804 17.1 90.5904 16.48 92.3804 16.48C95.8704 16.47 98.7604 19.55 98.7604 23.53ZM94.7504 23.53C94.7504 21.53 93.4104 20.27 91.5704 20.27C89.7304 20.27 88.3904 21.53 88.3904 23.53C88.3904 25.53 89.7304 26.79 91.5704 26.79C93.4204 26.79 94.7504 25.53 94.7504 23.53Z" fill="#212121"/>
<path d="M107.81 27C108.91 27 109.84 26.57 110.38 25.99L113.58 27.83C112.27 29.65 110.29 30.58 107.75 30.58C103.18 30.58 100.35 27.51 100.35 23.53C100.35 19.55 103.23 16.48 107.46 16.48C111.36 16.48 114.25 19.5 114.25 23.53C114.25 24.09 114.2 24.63 114.09 25.13H104.61C105.12 26.52 106.35 27 107.81 27ZM110.27 22.14C109.84 20.59 108.64 20.03 107.44 20.03C105.92 20.03 104.9 20.78 104.53 22.14H110.27Z" fill="#212121"/>
<path d="M124.54 16.58V21.12C122.88 20.85 120.53 21.52 120.53 24.16V30.2H116.52V16.85H120.53V19.23C121.06 17.43 122.85 16.58 124.54 16.58Z" fill="#212121"/>
<path d="M127.5 16.85H128.84V31.73C128.84 34.56 127.29 36.11 124.4 35.84V34.56C126.51 34.78 127.5 33.87 127.5 31.73V16.85ZM129.24 12.55C129.24 13.14 128.76 13.62 128.17 13.62C127.58 13.62 127.1 13.14 127.1 12.55C127.1 11.99 127.58 11.51 128.17 11.51C128.76 11.51 129.24 11.98 129.24 12.55Z" fill="#212121"/>
<path d="M132.04 23.53C132.04 19.58 135.16 16.56 139.07 16.56C142.94 16.56 146.07 19.58 146.07 23.53C146.07 27.48 142.95 30.5 139.07 30.5C135.17 30.5 132.04 27.48 132.04 23.53ZM144.71 23.53C144.71 20.35 142.25 17.84 139.07 17.84C135.89 17.84 133.4 20.35 133.4 23.53C133.4 26.71 135.89 29.22 139.07 29.22C142.25 29.22 144.71 26.71 144.71 23.53Z" fill="#212121"/>
<path d="M163.27 23.53C163.27 27.48 160.17 30.5 156.35 30.5C153.76 30.5 151.7 29.16 150.6 27.11V30.21H149.26V11.51H150.6V19.95C151.7 17.9 153.75 16.56 156.35 16.56C160.17 16.55 163.27 19.57 163.27 23.53ZM161.94 23.53C161.94 20.35 159.45 17.84 156.27 17.84C153.09 17.84 150.6 20.35 150.6 23.53C150.6 26.71 153.09 29.22 156.27 29.22C159.45 29.22 161.94 26.71 161.94 23.53Z" fill="#212121"/>
<path d="M21.05 42.1C6.65 42.1 0 35.46 0 21.05C0 6.65 6.64 0 21.05 0C35.45 0 42.1 6.64 42.1 21.05C42.1 35.45 35.46 42.1 21.05 42.1Z" fill="#212121"/>
<path d="M25.88 22.02V30.12H21.92V22.61C21.92 20.97 20.89 20.21 19.62 20.21C18.17 20.21 17.17 21.06 17.17 22.93V30.13H13.21V11.65H17.17V18.17C17.88 17.19 19.2 16.56 20.94 16.56C23.61 16.56 25.88 18.46 25.88 22.02Z" fill="white"/>
<path d="M28.34 27.98C28.34 26.61 29.47 25.47 30.85 25.47C32.22 25.47 33.36 26.6 33.36 27.98C33.36 29.36 32.23 30.49 30.85 30.49C29.47 30.49 28.34 29.35 28.34 27.98Z" fill="white"/>
</svg>
