<svg id="Layer_1" data-name="Layer 1" xmlns="http://www.w3.org/2000/svg" viewBox="0 0 236 64"><defs><style>.cls-1{fill:#969696;}.cls-2{fill:#88bf40;}</style></defs><path class="cls-1" d="M225.5,36.77a11.18,11.18,0,0,0,2.34-.54h0A11.26,11.26,0,1,0,213.5,21.89h0a11.18,11.18,0,0,0-.54,2.34,35.65,35.65,0,0,0-.66,3.92c-.23,2.42,0,4.61-3.41,8s-5.6,3.18-8,3.41a35.65,35.65,0,0,0-3.92.66,11.18,11.18,0,0,0-2.34.54h0A11.26,11.26,0,1,0,209,55.12h0a11.18,11.18,0,0,0,.54-2.34,35.65,35.65,0,0,0,.66-3.92c.23-2.42,0-4.61,3.41-8s5.6-3.18,8-3.41A35.65,35.65,0,0,0,225.5,36.77Z"/><circle class="cls-2" cx="197.52" cy="24.8" r="11.05"/><circle class="cls-2" cx="224.93" cy="52.21" r="11.05"/><path d="M3.73,11.82a2.52,2.52,0,0,0-2.52,2.52V46.82a2.52,2.52,0,1,0,5,0V14.34A2.52,2.52,0,0,0,3.73,11.82Z"/><circle class="cls-2" cx="3.73" cy="4.21" r="3.71"/><path d="M35.6,1.69H16.05a2.52,2.52,0,0,0-2.52,2.52V46.82a2.52,2.52,0,0,0,2.52,2.53H35.6a18.12,18.12,0,0,0,18.1-18.1V19.79A18.12,18.12,0,0,0,35.6,1.69ZM48.66,31.25a13.07,13.07,0,0,1-13.06,13h-17V6.73h17A13.08,13.08,0,0,1,48.66,19.79Z"/><path d="M81.94,14.59H69.39a9.86,9.86,0,0,0-9.85,9.86v15a9.86,9.86,0,0,0,9.85,9.86H89.27a2.53,2.53,0,0,0,0-5.05H69.39a4.81,4.81,0,0,1-4.81-4.81v-5H89.27A2.52,2.52,0,0,0,91.79,32V24.45A9.86,9.86,0,0,0,81.94,14.59Zm4.81,14.86H64.58v-5a4.82,4.82,0,0,1,4.81-4.82H81.94a4.81,4.81,0,0,1,4.81,4.82Z"/><path d="M120.78,14.59H100.65a2.52,2.52,0,0,0,0,5h20.13a4.82,4.82,0,0,1,4.81,4.82v5H108.08a9.95,9.95,0,0,0,0,19.9h20a2.52,2.52,0,0,0,2.52-2.53V24.45A9.86,9.86,0,0,0,120.78,14.59Zm4.81,29.71H108.08a4.91,4.91,0,1,1,0-9.81h17.51Z"/><path d="M139.24,1.69a2.52,2.52,0,0,0-2.52,2.52V46.82a2.52,2.52,0,1,0,5,0V4.21A2.51,2.51,0,0,0,139.24,1.69Z"/><path d="M168.07,29.23H159.4a5,5,0,0,1,0-10h16.21a2.52,2.52,0,0,0,0-5H159.4a10.06,10.06,0,0,0,0,20.12h8.67a5,5,0,1,1,0,10H151.86a2.53,2.53,0,0,0,0,5.05h16.21a10.06,10.06,0,1,0,0-20.12Z"/><path d="M23.06,63.36l-2.79-7.78H22l2,5.76,1.91-5.76h1.66l-2.78,7.78Z"/><path d="M30.45,63.36V55.58H32v7.78Z"/><path d="M35.7,63.36V55.58H39a5.61,5.61,0,0,1,1.81.21,1.78,1.78,0,0,1,.91.74,2.23,2.23,0,0,1,.34,1.23,2.1,2.1,0,0,1-.51,1.45,2.51,2.51,0,0,1-1.54.72,3.34,3.34,0,0,1,.84.65,9,9,0,0,1,.89,1.26l1,1.52H40.82l-1.13-1.69a11.82,11.82,0,0,0-.83-1.15,1.3,1.3,0,0,0-.48-.32,2.49,2.49,0,0,0-.79-.09h-.32v3.25Zm1.57-4.49h1.17a5.58,5.58,0,0,0,1.41-.1.78.78,0,0,0,.44-.33,1,1,0,0,0,.16-.58.89.89,0,0,0-.8-.94c-.13,0-.51,0-1.15,0H37.27Z"/><path d="M47.48,63.36V56.89H45.17V55.58h6.19v1.31H49.05v6.47Z"/><path d="M54.54,55.58h1.57v4.21a8.42,8.42,0,0,0,.06,1.3,1.2,1.2,0,0,0,.48.77,1.68,1.68,0,0,0,1,.29,1.58,1.58,0,0,0,1-.27,1.07,1.07,0,0,0,.41-.67,8.34,8.34,0,0,0,.07-1.33v-4.3h1.57v4.09a11.2,11.2,0,0,1-.12,2,2.32,2.32,0,0,1-.47,1,2.41,2.41,0,0,1-.92.64,3.94,3.94,0,0,1-1.5.23A4.39,4.39,0,0,1,56,63.24a2.45,2.45,0,0,1-.91-.67,2.18,2.18,0,0,1-.44-.87,9.61,9.61,0,0,1-.15-2Z"/><path d="M71.6,63.36H69.89l-.68-1.77H66.09l-.64,1.77H63.78l3-7.78h1.66Zm-2.9-3.08-1.07-2.89-1,2.89Z"/><path d="M74.65,63.36V55.64h1.57v6.41h3.91v1.31Z"/><path d="M88.42,55.58h2.87a6.18,6.18,0,0,1,1.49.14,2.74,2.74,0,0,1,1.17.72,3.59,3.59,0,0,1,.74,1.26A5.74,5.74,0,0,1,95,59.54a5.1,5.1,0,0,1-.24,1.66,3.39,3.39,0,0,1-.84,1.38,2.83,2.83,0,0,1-1.1.62,4.77,4.77,0,0,1-1.39.16h-3ZM90,56.89v5.16h1.18a4.4,4.4,0,0,0,1-.07,1.58,1.58,0,0,0,.63-.33,1.55,1.55,0,0,0,.41-.75,4.94,4.94,0,0,0,.16-1.43,4.48,4.48,0,0,0-.16-1.38,1.76,1.76,0,0,0-.44-.76A1.48,1.48,0,0,0,92,57a6.92,6.92,0,0,0-1.29-.08Z"/><path d="M105.48,63.36h-1.71l-.68-1.77H100l-.64,1.77H97.66l3-7.78h1.66Zm-2.9-3.08-1.07-2.89-1.05,2.89Z"/><path d="M109.43,63.36V56.89h-2.31V55.58h6.19v1.31H111v6.47Z"/><path d="M122.71,63.36H121l-.68-1.77h-3.11l-.64,1.77H114.9l3-7.78h1.66Zm-2.89-3.08-1.08-2.89-1,2.89Z"/><path d="M130.52,63.36V55.58h3.31a5.65,5.65,0,0,1,1.81.21,1.78,1.78,0,0,1,.91.74,2.32,2.32,0,0,1,.34,1.23,2.11,2.11,0,0,1-.52,1.45,2.48,2.48,0,0,1-1.54.72,3.34,3.34,0,0,1,.84.65,9.77,9.77,0,0,1,.9,1.26l1,1.52h-1.88l-1.14-1.69a10.26,10.26,0,0,0-.83-1.15,1.27,1.27,0,0,0-.47-.32,2.54,2.54,0,0,0-.79-.09h-.32v3.25Zm1.57-4.49h1.16a5.63,5.63,0,0,0,1.42-.1.85.85,0,0,0,.44-.33,1,1,0,0,0,.16-.58.89.89,0,0,0-.81-.94c-.12,0-.51,0-1.14,0h-1.23Z"/><path d="M140.22,59.52a4.9,4.9,0,0,1,.36-2,3.87,3.87,0,0,1,.72-1.07,3.17,3.17,0,0,1,1-.7,4.41,4.41,0,0,1,1.68-.31,3.65,3.65,0,0,1,2.75,1.07,4.75,4.75,0,0,1,0,5.92A3.62,3.62,0,0,1,144,63.49a3.67,3.67,0,0,1-2.76-1.05A4,4,0,0,1,140.22,59.52Zm1.62-.06a3,3,0,0,0,.61,2,2,2,0,0,0,1.56.68,2,2,0,0,0,1.54-.68,3,3,0,0,0,.6-2,2.85,2.85,0,0,0-.59-2,2,2,0,0,0-1.55-.66,2,2,0,0,0-1.57.66A2.94,2.94,0,0,0,141.84,59.46Z"/><path d="M150.86,59.52a4.9,4.9,0,0,1,.36-2,3.48,3.48,0,0,1,.72-1.07,3.07,3.07,0,0,1,1-.7,4.32,4.32,0,0,1,1.67-.31,3.68,3.68,0,0,1,2.76,1.07,4.79,4.79,0,0,1,0,5.92,3.64,3.64,0,0,1-2.74,1.06,3.71,3.71,0,0,1-2.77-1.05A4,4,0,0,1,150.86,59.52Zm1.62-.06a2.91,2.91,0,0,0,.61,2,2,2,0,0,0,1.55.68,1.94,1.94,0,0,0,1.54-.68,3.67,3.67,0,0,0,0-4,2,2,0,0,0-1.56-.66,2,2,0,0,0-1.57.66A3,3,0,0,0,152.48,59.46Z"/><path d="M161.79,63.36V55.58h2.36l1.41,5.31L167,55.58h2.36v7.78h-1.46V57.23l-1.54,6.13h-1.52l-1.54-6.13v6.13Z"/><path d="M172.65,60.83l1.53-.15a1.87,1.87,0,0,0,.56,1.13,1.69,1.69,0,0,0,1.14.36,1.74,1.74,0,0,0,1.14-.32.94.94,0,0,0,.39-.75.71.71,0,0,0-.16-.47,1.36,1.36,0,0,0-.57-.34c-.18-.06-.6-.17-1.26-.34a4.21,4.21,0,0,1-1.77-.77,2,2,0,0,1-.72-1.56,2,2,0,0,1,.34-1.12,2.13,2.13,0,0,1,1-.79,3.88,3.88,0,0,1,1.53-.27,3.28,3.28,0,0,1,2.21.65,2.28,2.28,0,0,1,.78,1.71l-1.57.07a1.34,1.34,0,0,0-.44-.86,1.54,1.54,0,0,0-1-.27,1.8,1.8,0,0,0-1.08.29.58.58,0,0,0-.25.48.59.59,0,0,0,.24.47,4.07,4.07,0,0,0,1.44.52,7.76,7.76,0,0,1,1.7.56,2.27,2.27,0,0,1,.86.79,2.47,2.47,0,0,1-.06,2.5,2.25,2.25,0,0,1-1.05.87,4.45,4.45,0,0,1-1.7.28,3.37,3.37,0,0,1-2.26-.68A3,3,0,0,1,172.65,60.83Z"/></svg>