<svg id="Layer_1" data-name="Layer 1" xmlns="http://www.w3.org/2000/svg" viewBox="0 0 415 62"><defs><style>.cls-1{fill:#11a7c0;}</style></defs><path d="M.25,60V2H7.92V60Z"/><path d="M21.38,60V2h7.88L59.73,47.54V2h7.36V60H59.22L28.74,14.42V60Z"/><path d="M94.76,60V8.84H75.64V2h46V8.84H102.44V60Z"/><path d="M129.67,60V2h42V8.84H137.34V26.61h32.1v6.8h-32.1V53.16H173V60Z"/><path d="M183.25,60V2h7.68V53.16h28.58V60Z"/><path d="M228.33,60V2H236V53.16h28.58V60Z"/><path d="M275,60V2h7.68V60Z"/><path d="M323.4,37.25V30.44l24.58,0V51.94a43.52,43.52,0,0,1-11.68,6.78A34.58,34.58,0,0,1,324,61a33,33,0,0,1-15.53-3.66,24.21,24.21,0,0,1-10.55-10.59,33.38,33.38,0,0,1-3.56-15.47,36,36,0,0,1,3.54-15.82A23.6,23.6,0,0,1,308,4.56,32,32,0,0,1,323.36,1a30.35,30.35,0,0,1,11.38,2,18.8,18.8,0,0,1,8,5.68,25.24,25.24,0,0,1,4.4,9.5l-6.93,1.9a21.47,21.47,0,0,0-3.24-7,13.43,13.43,0,0,0-5.55-4.06,20.39,20.39,0,0,0-8-1.52,23.47,23.47,0,0,0-9.1,1.6,17.05,17.05,0,0,0-6.2,4.22,20,20,0,0,0-3.66,5.74,30.28,30.28,0,0,0-2.21,11.67,28.33,28.33,0,0,0,2.67,13,17.07,17.07,0,0,0,7.77,7.76,24.09,24.09,0,0,0,10.85,2.53,25.72,25.72,0,0,0,9.73-1.92,25.22,25.22,0,0,0,7.21-4.09V37.25Z"/><path class="cls-1" d="M382.91,54.06C372,52.62,363.49,42.84,363.49,31S372,9.38,382.91,7.94V1.47C368.19,2.9,356.63,15.59,356.63,31s11.56,28.1,26.28,29.53Z"/><path class="cls-1" d="M388.47,1.47V7.94C399.4,9.38,407.89,19.16,407.89,31s-8.49,21.62-19.42,23.06v6.47C403.2,59.1,414.75,46.41,414.75,31S403.2,2.9,388.47,1.47Z"/></svg>