<svg id="Layer_1" data-name="Layer 1" xmlns="http://www.w3.org/2000/svg" viewBox="0 0 508 72"><defs><style>.cls-1{fill:#01cfc5;}.cls-2{fill:#ca32ff;}.cls-3{fill:#007eff;}.cls-4{fill:#bef3f1;}.cls-5{fill:#000101;}</style></defs><circle class="cls-1" cx="42.82" cy="40.08" r="29.59"/><circle class="cls-2" cx="65.28" cy="57.71" r="13.29"/><circle class="cls-3" cx="20.87" cy="21.73" r="20.73"/><path class="cls-4" d="M13.23,40.08c0,.31,0,.61,0,.92A20.7,20.7,0,0,0,38.49,10.84,29.57,29.57,0,0,0,13.23,40.08Z"/><path class="cls-4" d="M71.78,46.19A13.23,13.23,0,0,0,55.59,66.75,29.63,29.63,0,0,0,71.78,46.19Z"/><path class="cls-5" d="M112.23,7.84h6.11V47.69h21.72v5.12H112.23Z"/><path class="cls-5" d="M172.32,33.56V52.81h-5.57v-5a11.49,11.49,0,0,1-4.48,4.44,13.84,13.84,0,0,1-6.55,1.43,11.47,11.47,0,0,1-8.22-2.91A10.18,10.18,0,0,1,144.43,43q0-5.64,3.78-8.56t11.1-2.92h7.44v-.87c0-2.69-.71-4.64-2.05-5.86S161.2,23,158.25,23a21.18,21.18,0,0,0-5.72.81,25,25,0,0,0-5.63,2.38V20.61a38.78,38.78,0,0,1,5.89-1.76,26.8,26.8,0,0,1,5.46-.59,18.51,18.51,0,0,1,7.16,1.24,11.19,11.19,0,0,1,4.8,3.7,9.32,9.32,0,0,1,1.63,3.72A33.91,33.91,0,0,1,172.32,33.56Zm-10.75,2.29h-1.84c-3.23,0-5.67.57-7.3,1.7A5.78,5.78,0,0,0,150,42.63a6.07,6.07,0,0,0,1.84,4.72A7.21,7.21,0,0,0,156.9,49a8.83,8.83,0,0,0,7.2-3.18c1.74-2.11,2.63-5,2.65-8.78V35.85Z"/><path class="cls-5" d="M206.75,31.9V52.81h-5.57V31.9c0-3-.54-5.26-1.6-6.68a5.81,5.81,0,0,0-5-2.14,7.06,7.06,0,0,0-6,2.76c-1.39,1.83-2.09,4.47-2.09,7.9V52.81H181V19.07h5.54v5.06a10.46,10.46,0,0,1,4-4.38,11.66,11.66,0,0,1,6-1.49c3.43,0,6,1.13,7.69,3.39S206.75,27.33,206.75,31.9Z"/><path class="cls-5" d="M235.6,23.38V5.94h5.54V52.81H235.6V48.56a9.54,9.54,0,0,1-3.69,3.81,10.56,10.56,0,0,1-5.31,1.31A11.33,11.33,0,0,1,217,48.94q-3.5-4.75-3.5-13.09T217,22.94a11.38,11.38,0,0,1,9.61-4.68A10.75,10.75,0,0,1,232,19.57,9.18,9.18,0,0,1,235.6,23.38ZM219.31,36q0,6.45,2.05,9.73a6.67,6.67,0,0,0,6,3.28,6.78,6.78,0,0,0,6.1-3.31q2.09-3.31,2.09-9.7c0-4.28-.7-7.51-2.09-9.71a6.79,6.79,0,0,0-6.1-3.3,6.67,6.67,0,0,0-6,3.28Q219.31,29.53,219.31,36Z"/><path class="cls-5" d="M254,19.19h14.18V48.5h11v4.31H251.6V48.5h11v-25H254Z"/><path class="cls-5" d="M310.75,31.9V52.81h-5.57V31.9q0-4.54-1.6-6.68a5.81,5.81,0,0,0-5-2.14,7.05,7.05,0,0,0-6,2.76c-1.4,1.83-2.1,4.47-2.1,7.9V52.81H285V19.07h5.54v5.06a10.48,10.48,0,0,1,4-4.38,11.62,11.62,0,0,1,6-1.49c3.44,0,6,1.13,7.7,3.39S310.75,27.33,310.75,31.9Z"/><path class="cls-5" d="M345.15,50.64q0,7.59-3.58,11.5T331,66.06a28.84,28.84,0,0,1-4.79-.42,34.77,34.77,0,0,1-5-1.24V58.92a34.24,34.24,0,0,0,5.36,2,16.87,16.87,0,0,0,4.43.66q4.49,0,6.53-2.44t2.05-7.74v-4A9.42,9.42,0,0,1,336,51.66a10.55,10.55,0,0,1-5.58,1.39A11.17,11.17,0,0,1,321,48.32q-3.53-4.73-3.53-12.65T321,23a11.17,11.17,0,0,1,9.42-4.73,10.89,10.89,0,0,1,5.52,1.3,9.49,9.49,0,0,1,3.67,4V19.19h5.54Zm-5.54-15q0-6.24-2-9.47A6.57,6.57,0,0,0,331.66,23a7,7,0,0,0-6.21,3.24q-2.13,3.23-2.13,9.47c0,4.16.71,7.32,2.15,9.5a7,7,0,0,0,6.25,3.27,6.52,6.52,0,0,0,5.86-3.28C338.93,43,339.61,39.8,339.61,35.67Z"/><path class="cls-5" d="M426.05,18.26q7,0,10.73,4.55T440.5,36q0,8.64-3.7,13.18t-10.75,4.53q-7,0-10.73-4.53T411.62,36q0-8.61,3.7-13.16T426.05,18.26Zm0,4.7a7.17,7.17,0,0,0-6.39,3.28c-1.44,2.19-2.17,5.43-2.17,9.73s.73,7.51,2.17,9.71a7.86,7.86,0,0,0,12.8,0c1.45-2.2,2.17-5.43,2.17-9.71s-.72-7.54-2.17-9.73A7.17,7.17,0,0,0,426.05,23Z"/><path class="cls-5" d="M453.52,23.38a9.23,9.23,0,0,1,3.66-3.79,10.65,10.65,0,0,1,5.4-1.33,11.3,11.3,0,0,1,9.58,4.68q3.49,4.69,3.49,12.91t-3.51,13.09a11.3,11.3,0,0,1-9.62,4.74,10.56,10.56,0,0,1-5.31-1.31,9.54,9.54,0,0,1-3.69-3.81v4.25H448V5.94h5.55ZM469.81,36q0-6.45-2.05-9.73A6.67,6.67,0,0,0,461.71,23a6.79,6.79,0,0,0-6.12,3.3c-1.38,2.2-2.07,5.43-2.07,9.71s.69,7.49,2.07,9.7A6.78,6.78,0,0,0,461.71,49a6.67,6.67,0,0,0,6.05-3.28Q469.82,42.41,469.81,36Z"/><path class="cls-5" d="M506.14,20.25v5.42a21.41,21.41,0,0,0-4.79-2.08,17.75,17.75,0,0,0-4.91-.69,10.4,10.4,0,0,0-5.62,1.22A4.15,4.15,0,0,0,489,27.84a4.07,4.07,0,0,0,1.38,3.37c.93.74,3.23,1.47,6.9,2.17l2.23.42a10.9,10.9,0,0,1,6.25,3.13,8.77,8.77,0,0,1,2.12,6.12,9.39,9.39,0,0,1-3.55,7.81q-3.56,2.82-9.88,2.82a27.07,27.07,0,0,1-5.24-.53,48.05,48.05,0,0,1-5.93-1.58V45.85a31.86,31.86,0,0,0,5.93,2.39,19.47,19.47,0,0,0,5.36.8,9.44,9.44,0,0,0,5.69-1.49,4.87,4.87,0,0,0,2-4.17q0-3.85-7.38-5.33l-.24-.06-2.08-.42q-4.79-.95-7-3.15a8.19,8.19,0,0,1-2.2-6,9,9,0,0,1,3.28-7.48q3.28-2.64,9.37-2.64a26.09,26.09,0,0,1,10.12,2Z"/><circle class="cls-5" cx="362.03" cy="46.72" r="6.64"/><path class="cls-5" d="M395.53,7.84v30.3c0,4.07-.56,6.86-1.7,8.36s-3.13,2.24-6,2.24a15.64,15.64,0,0,1-6.05-1.22,20.2,20.2,0,0,1-5.66-3.66V51a33,33,0,0,0,6,2.05,25.56,25.56,0,0,0,5.75.66q7.44,0,10.62-3.52t3.18-12V7.84Z"/><circle class="cls-5" cx="265.36" cy="9.59" r="4.17"/></svg>