<svg id="Layer_1" data-name="Layer 1" xmlns="http://www.w3.org/2000/svg" viewBox="0 0 128 40"><defs><style>.cls-1,.cls-2{fill:#869ab8;}.cls-2{fill-rule:evenodd;}</style></defs><path class="cls-1" d="M17.52,28.32H27.73V25H21.22V12.17h-3.7Zm15.38,0V17.2H29.21V28.32ZM31.05,15.68A1.93,1.93,0,1,0,29,13.76a1.91,1.91,0,0,0,2,1.92Zm3.57,12.64h3.69V22.11a2.75,2.75,0,0,1,.12-.91,2,2,0,0,1,1.9-1.35c1.34,0,1.87,1,1.87,2.52v5.95h3.7V21.94c0-3.42-1.83-5-4.26-5a3.66,3.66,0,0,0-3.35,1.87h0V17.2H34.62c.05,1,0,11.12,0,11.12ZM51.11,12.17H47.42V28.32h3.69V24.71L52,23.55l2.9,4.77h4.54l-4.86-6.91,4.26-4.69H54.42s-3,4.2-3.31,4.7Z"/><path class="cls-1" d="M69.36,23.68a9.06,9.06,0,0,0,.12-1.46c0-2.87-1.46-5.79-5.3-5.79-4.11,0-6,3.25-6,6.2,0,3.64,2.31,5.92,6.35,5.92a11.64,11.64,0,0,0,4.3-.73l-.48-2.44a10.12,10.12,0,0,1-3.29.49c-1.72,0-3.23-.71-3.35-2.22l7.66,0Zm-7.69-2.5A2.42,2.42,0,0,1,64,18.83a2.12,2.12,0,0,1,2.07,2.35Zm16.93-9v5.59h0a3.68,3.68,0,0,0-3.13-1.3c-2.85,0-5.35,2.27-5.33,6.16,0,3.61,2.26,6,5.08,6a4.19,4.19,0,0,0,3.72-1.95H79l.14,1.68h3.28c0-.78-.09-2.13-.09-3.46V12.17Zm0,11a4,4,0,0,1-.07.8,2.19,2.19,0,0,1-2.17,1.74c-1.53,0-2.52-1.24-2.52-3.18s.85-3.3,2.55-3.3A2.18,2.18,0,0,1,78.55,21a2.94,2.94,0,0,1,0,.66v1.52Z"/><path class="cls-2" d="M87.82,7.69A1.79,1.79,0,0,0,86,9.45v21.1a1.79,1.79,0,0,0,1.81,1.76h20.85a1.79,1.79,0,0,0,1.81-1.76V9.45a1.79,1.79,0,0,0-1.81-1.76Zm5.61,9.49V28.3h-3.7V17.18Zm.24-3.44a1.92,1.92,0,0,1-2.09,1.92h0a1.93,1.93,0,1,1,2.11-1.92Zm5.5,14.56h-3.7c0-.07,0-10.08,0-11.12h3.7v1.57a3.68,3.68,0,0,1,3.33-1.83c2.43,0,4.26,1.59,4.26,5V28.3h-3.7V22.35c0-1.49-.54-2.51-1.87-2.51a2,2,0,0,0-1.9,1.35,2.49,2.49,0,0,0-.12.9Zm-3.7,0Z"/></svg>