<svg id="Layer_1" data-name="Layer 1" xmlns="http://www.w3.org/2000/svg" viewBox="0 0 520 64"><defs><style>.cls-1{fill:#3c3f53;}</style></defs><polygon class="cls-1" points="14.23 2.99 1.12 2.99 1.12 62.85 38.52 62.85 38.52 50.67 14.23 50.67 14.23 2.99"/><rect class="cls-1" x="46.01" y="2.99" width="12.47" height="59.85"/><path class="cls-1" d="M122.06,52a18.51,18.51,0,0,0,8.93-8.3A23.61,23.61,0,0,0,133.12,38a26.64,26.64,0,0,0,.71-6.21,30.14,30.14,0,0,0-2.46-12.29,29.27,29.27,0,0,0-6.72-9.6,30.75,30.75,0,0,0-10-6.29,33.46,33.46,0,0,0-12.35-2.27A34.07,34.07,0,0,0,89.92,3.59a30.34,30.34,0,0,0-10,6.25,29.27,29.27,0,0,0-6.72,9.65,30.28,30.28,0,0,0-2.47,12.33,32.27,32.27,0,0,0,2.42,12.84,27.92,27.92,0,0,0,6.68,9.56,28.61,28.61,0,0,0,10.14,6,38.68,38.68,0,0,0,12.82,2.06h35.81V52.21H122.06Zm-3.17-13a18.19,18.19,0,0,1-9.6,9.73,17.9,17.9,0,0,1-14,0,18.32,18.32,0,0,1-11-17,18.26,18.26,0,0,1,11-16.94,17.9,17.9,0,0,1,14,0A18.65,18.65,0,0,1,118.89,39Z"/><path class="cls-1" d="M182.61,38.36a13.92,13.92,0,0,1-.88,5,12.06,12.06,0,0,1-2.46,4A11.33,11.33,0,0,1,175.51,50a11.84,11.84,0,0,1-4.77.95,12.13,12.13,0,0,1-4.8-.95,11.1,11.1,0,0,1-3.8-2.64,12.08,12.08,0,0,1-2.47-4,14.13,14.13,0,0,1-.87-5V3h-13V38.86a27.75,27.75,0,0,0,1.59,9.56A21,21,0,0,0,152.07,56a21.58,21.58,0,0,0,7.81,5,33.07,33.07,0,0,0,21.64,0,21.58,21.58,0,0,0,7.81-5,20.85,20.85,0,0,0,4.72-7.58,27.75,27.75,0,0,0,1.59-9.56V3h-13Z"/><rect class="cls-1" x="208.11" y="20.45" width="14.96" height="42.4"/><path class="cls-1" d="M215.59.5a7.23,7.23,0,0,0-5.29,2.19A7.22,7.22,0,0,0,208.11,8a7.2,7.2,0,0,0,2.19,5.29,7.48,7.48,0,0,0,10.58,0A7.2,7.2,0,0,0,223.07,8a7.22,7.22,0,0,0-2.19-5.29A7.2,7.2,0,0,0,215.59.5Z"/><path class="cls-1" d="M277.84,9.84A31.1,31.1,0,0,0,266.63,4.7a56.23,56.23,0,0,0-13.56-1.59H233.43V62.28h21.41a41.29,41.29,0,0,0,12.67-1.93,32.49,32.49,0,0,0,10.66-5.64,27.24,27.24,0,0,0,7.35-9.19,28.15,28.15,0,0,0,2.72-12.66,30.8,30.8,0,0,0-2.81-13.79A25.13,25.13,0,0,0,277.84,9.84ZM273,40.67a14.59,14.59,0,0,1-4.49,5.6,18,18,0,0,1-6.76,3,36.3,36.3,0,0,1-8.43.92h-6.81V15.14h7.73a28.94,28.94,0,0,1,7.85,1.05,19.25,19.25,0,0,1,6.5,3.13A15.13,15.13,0,0,1,273,24.63a16.46,16.46,0,0,1,1.64,7.56A19.79,19.79,0,0,1,273,40.67Z"/><rect class="cls-1" x="297.89" y="2.99" width="12.47" height="59.85"/><polygon class="cls-1" points="320.34 14.66 337.43 14.66 337.43 62.85 350.63 62.85 350.63 14.66 367.72 14.66 367.72 2.99 320.34 2.99 320.34 14.66"/><polygon class="cls-1" points="401.39 25.4 388.88 2.99 372.71 2.99 394.88 37.32 394.88 62.85 407.89 62.85 407.89 37.32 430.07 2.99 414.64 2.99 401.39 25.4"/><path class="cls-1" d="M515.64,27.78,502.84,4.51a2.29,2.29,0,0,0-1.58-1.17,2.22,2.22,0,0,0-1.94.45L480.26,19.68a23.23,23.23,0,0,0-8.16,19.7,25.14,25.14,0,0,0,10,18.68,24.46,24.46,0,0,0,9.43,4.34,23.82,23.82,0,0,0,10.15.16,21.34,21.34,0,0,0,15.29-13A25.06,25.06,0,0,0,515.64,27.78Zm-.93,20.85h0A18.89,18.89,0,0,1,501.2,60.12a21.36,21.36,0,0,1-9.07-.15,21.78,21.78,0,0,1-8.5-3.92,22.61,22.61,0,0,1-9-16.84,20.76,20.76,0,0,1,7.27-17.61L500.73,5.86,513.46,29A22.61,22.61,0,0,1,514.71,48.63Z"/><path class="cls-1" d="M507.28,43.93c-.7,2.29-1.86,5.1-4.78,6.32a10.09,10.09,0,0,1,1,2.77c3.44-1.57,4.92-5.15,5.83-8.09l.79-2.58L508,41.47Z"/><path class="cls-1" d="M452.28,60.87a16.22,16.22,0,0,1-7.55-4c-4.78-4.27-7.59-11.2-7.72-19a1.25,1.25,0,0,0-1.25-1.23h0a1.25,1.25,0,0,0-1.23,1.27c.14,8.5,3.26,16.09,8.54,20.82a18.92,18.92,0,0,0,8.67,4.56l.28,0a1.25,1.25,0,0,0,.28-2.47Z"/><path class="cls-1" d="M465,61.05a16.4,16.4,0,0,1-7.22-4c-4.51-4.17-7.05-10.7-7-17.92.06-7.52,2.89-14.46,7.76-19a1.25,1.25,0,1,0-1.71-1.81c-5.36,5-8.48,12.63-8.55,20.82-.09,7.93,2.75,15.14,7.76,19.77a19,19,0,0,0,8.28,4.61,1.25,1.25,0,1,0,.65-2.41Z"/><path class="cls-1" d="M478.31,60.36A16.52,16.52,0,0,1,471,56.6c-4.66-4-7.44-10.41-7.62-17.61-.21-7.49,2.36-14.49,7.06-19.21L487,3a1.24,1.24,0,1,0-1.77-1.75L468.62,18c-5.18,5.2-8,12.87-7.78,21,.2,7.9,3.29,15,8.46,19.42a19,19,0,0,0,8.45,4.31,1.27,1.27,0,0,0,.28,0,1.25,1.25,0,0,0,1.21-1A1.23,1.23,0,0,0,478.31,60.36Z"/></svg>