<svg id="Layer_1" data-name="Layer 1" xmlns="http://www.w3.org/2000/svg" viewBox="0 0 388 64"><defs><style>.cls-1{fill:#27aae1;}.cls-2{fill:#1866a4;}.cls-3{fill:#ed1261;}.cls-4{fill:#9f234d;}.cls-5{fill:#231f20;}</style></defs><path class="cls-1" d="M65.07,32.38l-21-21a10.59,10.59,0,0,0-.1,15l.1.1L65.07,47Z"/><path class="cls-2" d="M65.07,46.92,51.63,60.36a10.73,10.73,0,0,1-15.17,0l28.61-28Z"/><path class="cls-3" d="M3.28,36.44V11.22A10.7,10.7,0,0,1,14,.5h0l-.41,46.26Z"/><path class="cls-4" d="M13.55,46.76h19A10.7,10.7,0,0,0,43.3,36.08v0l-40,.4Z"/><path class="cls-5" d="M92,54.48V10.76h8.45V55.17H122.3v7.25H100a7.94,7.94,0,0,1-8-7.9Z"/><path class="cls-5" d="M129.81,13A4.61,4.61,0,0,1,131,9.56a4.81,4.81,0,0,1,3.49-1.1,4.7,4.7,0,0,1,3.41,1.2,4.58,4.58,0,0,1,1.22,3.43,4.47,4.47,0,0,1-1.22,3.33,4.56,4.56,0,0,1-3.41,1.22A4.76,4.76,0,0,1,131,16.42,4.53,4.53,0,0,1,129.81,13Zm8.81,49.43h-8.3V23.35h8.3Z"/><path class="cls-5" d="M159.4,62.42,144.55,23.35h8.75l8,22.7a46.18,46.18,0,0,1,2.47,9.26H164a62.81,62.81,0,0,1,2.45-9.26l8-22.7h8.84L168.37,62.42Z"/><path class="cls-5" d="M206.29,63.13a18.92,18.92,0,0,1-14.22-5.32,20.21,20.21,0,0,1-5.16-14.65,22.29,22.29,0,0,1,4.78-15.06,16.48,16.48,0,0,1,13.07-5.42A16.25,16.25,0,0,1,217,27.37a18,18,0,0,1,4.48,12.89v4.49h-26a12.9,12.9,0,0,0,3.09,8.75,10.73,10.73,0,0,0,8.12,3,31,31,0,0,0,6.44-.65,35,35,0,0,0,6.42-2.18v6.75a25.73,25.73,0,0,1-6.1,2A36.76,36.76,0,0,1,206.29,63.13Zm-1.53-34.2a8.4,8.4,0,0,0-6.35,2.5,11.9,11.9,0,0,0-2.85,7.31h17.75A10.9,10.9,0,0,0,211,31.41,8,8,0,0,0,204.76,28.93Z"/><path class="cls-5" d="M273.79,36.1q0,12.8-7.09,19.55t-20.47,6.77h-6.52a8,8,0,0,1-7.92-7.94V10.76h16q12.35,0,19.19,6.64T273.79,36.1Zm-8.9.28q0-18.54-17.34-18.56h-7.31V55.31h6Q264.91,55.31,264.89,36.38Z"/><path class="cls-5" d="M308.45,62.42,306.72,57h-.28a16.27,16.27,0,0,1-5.69,4.86,17.76,17.76,0,0,1-7.35,1.3,12.45,12.45,0,0,1-9-3.11,11.66,11.66,0,0,1-3.23-8.81,10.3,10.3,0,0,1,4.49-9.12c3-2,7.53-3.17,13.66-3.35l6.74-.21v-2a7.83,7.83,0,0,0-1.74-5.6,7.12,7.12,0,0,0-5.42-1.85,19.08,19.08,0,0,0-5.77.87,50.8,50.8,0,0,0-5.3,2L285.16,26a28.75,28.75,0,0,1,7-2.54,32.33,32.33,0,0,1,7.13-.86,17,17,0,0,1,11.27,3.25c2.52,2.18,3.8,5.57,3.8,10.16v26.4Zm-12.37-5.65a10.25,10.25,0,0,0,7.27-2.54,9.12,9.12,0,0,0,2.74-7.08v-3.4l-5,.23a17.24,17.24,0,0,0-8.53,2,6.09,6.09,0,0,0-2.68,5.36,5.22,5.22,0,0,0,1.56,4.06A6.65,6.65,0,0,0,296.08,56.77Z"/><path class="cls-5" d="M340.54,56.41a20.34,20.34,0,0,0,6.09-1v6.26a17.45,17.45,0,0,1-3.54,1,25.11,25.11,0,0,1-4.5.41c-7.88,0-11.8-4.06-11.8-12.45V29.62h-5.34V22.68h5.72a8,8,0,0,1,7.86-8h.12v8.7h11.13v6.27H335.15V50.54A5.9,5.9,0,0,0,336.66,55,5.44,5.44,0,0,0,340.54,56.41Z"/><path class="cls-5" d="M378.87,62.42,377.21,57h-.28a16.07,16.07,0,0,1-5.69,4.86,17.79,17.79,0,0,1-7.35,1.3,12.52,12.52,0,0,1-9-3.11,11.7,11.7,0,0,1-3.23-8.81,10.34,10.34,0,0,1,4.49-9.12c3-2,7.56-3.17,13.67-3.35l6.76-.21v-2a8,8,0,0,0-1.75-5.6,7.11,7.11,0,0,0-5.42-1.85,18.87,18.87,0,0,0-5.77.87,50.8,50.8,0,0,0-5.3,2L355.66,26a28.56,28.56,0,0,1,7-2.54,32.1,32.1,0,0,1,7.05-.81,16.87,16.87,0,0,1,11.25,3.24q3.79,3.27,3.79,10.16v26.4Zm-12.36-5.65a10.15,10.15,0,0,0,7.23-2.54,9.19,9.19,0,0,0,2.74-7.08v-3.4l-5,.23a17.27,17.27,0,0,0-8.53,2,6,6,0,0,0-2.66,5.36,5.19,5.19,0,0,0,1.55,4.06A6.69,6.69,0,0,0,366.51,56.77Z"/></svg>