<?xml version="1.0" encoding="UTF-8"?><svg id="b" xmlns="http://www.w3.org/2000/svg" width="1000" height="294.88" viewBox="0 0 1000 294.88"><g id="c"><path d="m356.63,52.16h-38.23v193.71h112.1v-36.57h-73.88V52.16Z" fill="#6900ff"/><path d="m531.51,182.24c0,24.05-13.01,34.3-30.43,34.3-16.08,0-27.37-9.69-27.37-28.53v-80.5h-35.71v84.92c0,36.82,22.95,57.31,52.28,57.31,18.53,0,32.95-6.93,41.23-19.39v15.52h35.71V107.51h-35.71v74.74Z" fill="#6900ff"/><path d="m622.82,146.76c0-7.49,7.18-11.35,16.08-11.35,10.25,0,17.98,5.28,22.15,14.11l30.43-16.63c-10.8-19.08-30.19-29.33-52.58-29.33-28.53,0-52.59,15.77-52.59,43.99,0,48.72,71.42,37.61,71.42,57.86,0,8.04-7.73,11.9-19.08,11.9-13.8,0-23.25-6.63-27.12-17.98l-30.99,17.43c9.94,21.29,30.43,32.95,58.11,32.95,29.64,0,55.59-14.42,55.59-44.3-.06-50.87-71.42-38.17-71.42-58.66Z" fill="#6900ff"/><path d="m785.23,103.64c-18.53,0-32.95,6.93-41.23,19.39V52.16h-35.71v193.71h35.71v-74.74c0-24.05,13.01-34.3,30.43-34.3,16.08,0,27.37,9.69,27.37,28.53v80.5h35.71v-84.98c.06-36.82-22.95-57.25-52.28-57.25Z" fill="#6900ff"/><path d="m964.29,107.5v16.32c-9.94-12.46-24.91-20.19-45.1-20.19-36.81,0-67.25,31.85-67.25,73.08s30.43,73.08,67.25,73.08c20.19,0,35.16-7.73,45.1-20.19v16.32h35.71V107.5h-35.71Zm-38.47,108.18c-21.84,0-38.16-15.77-38.16-39.02s16.32-39.02,38.16-39.02,38.47,15.77,38.47,39.02-16.32,39.02-38.47,39.02Z" fill="#6900ff"/><path d="m211.3,71.56c0,5.62-.74,10.75-2.1,15.4,57.87,34.01,28.08,144.65,19.36,172.84-.24.78-1.58.48-1.55-.33.28-9.36-1.17-22.48-7.59-35.12.19,1.66.29,3.35.29,5.06,0,24.05-19.49,43.55-43.54,43.55s-43.54-19.5-43.54-43.55c0-4.46.67-8.77,1.92-12.82-.35-.09-.71-.18-1.1-.28-2.52-.62-5.17-1.11-6.94-1.11s-4.3.48-6.7,1.08c-.44.11-.86.22-1.25.33,1.24,4.05,1.91,8.35,1.91,12.8,0,24.05-19.49,43.55-43.54,43.55-22.23,0-40.57-16.67-43.21-38.2-4.49,17.88-4.59,37.27-3.82,59.39.02.69-.87.99-1.21.39C9.32,260.92-8.52,191.25,4.38,139.88c11.55-45.97,43.9-68.12,64.22-75.71C72.3,28.12,102.75,0,139.76,0c39.51,0,71.54,32.04,71.54,71.56ZM58.29,190.05c5.65-2.68,11.97-4.18,18.64-4.18,15.6,0,29.29,8.21,36.98,20.55.83-.25,1.95-.57,3.22-.89,2.55-.64,6.19-1.41,9.38-1.41s6.92.78,9.55,1.42c1.22.3,2.31.6,3.15.84,7.69-12.32,21.37-20.52,36.96-20.52,1.7,0,3.37.1,5.02.29-14.99-17.75-20.83-42.52-22.94-58.1-50.05,21.67-81,41.5-99.95,62Zm147.97,39.36c0,16.64-13.48,30.12-30.1,30.12s-30.1-13.48-30.1-30.12,13.48-30.12,30.1-30.12,30.1,13.48,30.1,30.12Zm-99.23,0c0,16.64-13.48,30.12-30.1,30.12s-30.1-13.48-30.1-30.12,13.48-30.12,30.1-30.12,30.1,13.48,30.1,30.12Z" fill="#6900ff" fill-rule="evenodd"/></g></svg>