<svg id="Layer_1" data-name="Layer 1" xmlns="http://www.w3.org/2000/svg" viewBox="0 0 302 70"><defs><style>.cls-1{fill:#69b7e2;}.cls-1,.cls-2{fill-rule:evenodd;}.cls-2,.cls-3{fill:#2998d5;}</style></defs><path class="cls-1" d="M28.89,2.13a7.53,7.53,0,0,0-2.34,10.28L51,52.2a7.28,7.28,0,0,0,10.12,2.38A7.54,7.54,0,0,0,63.46,44.3L39,4.51A7.29,7.29,0,0,0,28.89,2.13Z"/><path class="cls-1" d="M77.85,2.13a7.53,7.53,0,0,0-2.34,10.28L100,52.2a7.28,7.28,0,0,0,10.12,2.38,7.54,7.54,0,0,0,2.35-10.28L88,4.51A7.29,7.29,0,0,0,77.85,2.13Z"/><path class="cls-2" d="M36.63,2.13A7.54,7.54,0,0,1,39,12.41L14.53,52.2A7.28,7.28,0,0,1,4.41,54.58,7.53,7.53,0,0,1,2.07,44.3L26.51,4.51A7.29,7.29,0,0,1,36.63,2.13Z"/><path class="cls-2" d="M85.59,2.13a7.54,7.54,0,0,1,2.35,10.28L63.49,52.2a7.28,7.28,0,0,1-10.12,2.38A7.53,7.53,0,0,1,51,44.3L75.47,4.51A7.29,7.29,0,0,1,85.59,2.13Z"/><path class="cls-2" d="M134.55,2.13a7.53,7.53,0,0,1,2.34,10.28L112.45,52.2a7.28,7.28,0,0,1-10.12,2.38A7.53,7.53,0,0,1,100,44.3L124.43,4.51A7.29,7.29,0,0,1,134.55,2.13Z"/><path class="cls-3" d="M159.68,54.55h-10L167.88,2.89h11.55l18.21,51.66h-10l-4.29-12.74H163.94Zm6.78-20.25h14.38l-7-20.81h-.4Z"/><path class="cls-3" d="M204,54.55V15.81h8.72v6.58h.46a10.41,10.41,0,0,1,4-5.19,11.56,11.56,0,0,1,6.68-1.9,11.3,11.3,0,0,1,6.64,1.9,10,10,0,0,1,3.83,5.19h.4a10.59,10.59,0,0,1,4.34-5.14,13.32,13.32,0,0,1,7.29-1.95,11.85,11.85,0,0,1,8.73,3.38q3.38,3.39,3.38,9.86v26h-9.16V30c0-2.41-.64-4.16-1.92-5.27A6.81,6.81,0,0,0,242.75,23a6.65,6.65,0,0,0-5.17,2.06,7.66,7.66,0,0,0-1.84,5.33V54.55h-9v-25A6.42,6.42,0,0,0,225,24.79,6.32,6.32,0,0,0,220.28,23a6.66,6.66,0,0,0-5,2.22A8.05,8.05,0,0,0,213.17,31V54.55Z"/><path class="cls-3" d="M272.07,69a18.66,18.66,0,0,1-3.46-.3,12,12,0,0,1-2.5-.68l2.12-7.09a9.31,9.31,0,0,0,5,.28c1.35-.37,2.46-1.63,3.33-3.76l.78-2.09L263.31,15.81H273l8.93,29.25h.4l8.95-29.25,9.77,0L285.48,59.24a15.75,15.75,0,0,1-4.86,7.16A13.2,13.2,0,0,1,272.07,69Z"/></svg>