<svg id="Layer_1" data-name="Layer 1" xmlns="http://www.w3.org/2000/svg" viewBox="0 0 405 72"><defs><style>.cls-1{fill:#0691cf;fill-rule:evenodd;}</style></defs><path class="cls-1" d="M32.44,14.28V49.52A5.3,5.3,0,0,1,27,54.61a5.3,5.3,0,0,1-5.46-5.09V14.28A5.3,5.3,0,0,1,27,9.19,5.3,5.3,0,0,1,32.44,14.28Zm-21,11.33V38.19A5.3,5.3,0,0,1,6,43.28,5.3,5.3,0,0,1,.55,38.19V25.61A5.3,5.3,0,0,1,6,20.52,5.3,5.3,0,0,1,11.47,25.61ZM6,49.24a5.3,5.3,0,0,1,5.46,5.09v2.39A5.31,5.31,0,0,1,6,61.82a5.3,5.3,0,0,1-5.46-5.1V54.33A5.3,5.3,0,0,1,6,49.24ZM43.37,65.57V6.1a5.47,5.47,0,0,1,10.92.31V65.9a5.47,5.47,0,0,1-10.92,0Z"/><path class="cls-1" d="M171.67,50a19.49,19.49,0,0,0,14,5.38q9.65,0,15-8.4l-5.61-2.86A10.91,10.91,0,0,1,191.19,48a10.49,10.49,0,0,1-5.5,1.51,12.37,12.37,0,0,1-9.25-3.81A13.41,13.41,0,0,1,172.8,36a13.45,13.45,0,0,1,3.64-9.69,12.37,12.37,0,0,1,9.25-3.81A10.36,10.36,0,0,1,191.13,24a10.85,10.85,0,0,1,4,3.92l5.61-2.85a16.75,16.75,0,0,0-15-8.4,19.37,19.37,0,0,0-14,5.43A18.4,18.4,0,0,0,166.07,36,18.59,18.59,0,0,0,171.67,50Zm-52.18,4.7h6.56V17.31h-6.56Zm-29,0H84V17.31H100.4q5.67,0,8.92,3.36A11.45,11.45,0,0,1,112.63,29a11.57,11.57,0,0,1-3.31,8.34q-3.25,3.36-8.92,3.36H90.53Zm9-19.7a6.6,6.6,0,0,0,4.6-1.63A5.52,5.52,0,0,0,105.9,29a5.52,5.52,0,0,0-1.8-4.31,6.55,6.55,0,0,0-4.6-1.63h-9V35Zm51.38,19.7h-6.56V23.08H133V17.31h29.22v5.77H150.88Zm89.08,0H233.4V38.37H213.94V54.66h-6.56V17.31h6.56V32.6H233.4V17.31H240Zm10.67,0h12.79q8.58,0,13.85-5.26A18,18,0,0,0,282.59,36a18.14,18.14,0,0,0-5.32-13.38q-5.28-5.32-13.85-5.32H250.63Zm12.78-4.14q6.63,0,10.49-4.15A14.58,14.58,0,0,0,277.77,36,14.78,14.78,0,0,0,274,25.6q-3.82-4.16-10.55-4.15h-8.13V50.52Zm49.53,4.14h5.5l-10.1-15.23A10.27,10.27,0,0,0,318,28.57a10.73,10.73,0,0,0-3.25-8.18,11.82,11.82,0,0,0-8.46-3.08h-15V54.66H296V39.82h7.46Zm-7.17-18.93a7.41,7.41,0,0,0,5.38-2,6.89,6.89,0,0,0,2.07-5.16,6.69,6.69,0,0,0-2.07-5.09,7.37,7.37,0,0,0-5.38-2H296V35.73Zm21.05,18.93h4.65V17.31h-4.65Zm31.75,0H352.8l-15-37.35h5.32l12.62,32.26,12.62-32.26h5.33Zm21.38,0h24.5V50.52H384.6V37.64h19.46V33.49H384.6v-12h19.85V17.31H380Z"/></svg>