<svg id="Layer_1" data-name="Layer 1" xmlns="http://www.w3.org/2000/svg" viewBox="0 0 420 64"><defs><style>.cls-1{fill:#656565;}.cls-2{fill:#4c72b6;}</style></defs><g id="g24"><path id="path26" class="cls-1" d="M95.38,24.53V49H87.8V16.37H95V19c3.07-2.72,7.06-3.48,11.12-3.48v7a28.78,28.78,0,0,0-10.77,2"/></g><g id="g28"><path id="path30" class="cls-1" d="M131,30.67c0-6.25-2.14-8.57-7.11-8.57s-7.12,2.32-7.12,8.57v4c0,6.25,2.14,8.62,7.12,8.62S131,40.91,131,34.66Zm-7.11,19.15c-9.5,0-14.71-4.86-14.71-15.16v-4c0-10.24,5.21-15.11,14.71-15.11s14.69,4.87,14.69,15.11v4c0,10.3-5.2,15.16-14.69,15.16"/></g><g id="g32"><path id="path34" class="cls-1" d="M158.17,49.82c-9.37,0-13.71-5.32-13.71-15.1V30.61c0-9.95,4.34-15,13.71-15a36.9,36.9,0,0,1,10.07,1.22v5.79c-4.11-.35-6.94-.52-8.74-.52-4.74,0-7.4,1.5-7.4,8.56v4.11c0,7,2.66,8.62,7.4,8.62,1.8,0,4.63-.17,8.74-.52v5.79a39.71,39.71,0,0,1-10.07,1.21"/></g><g id="g36"><path id="path38" class="cls-1" d="M193.88,49,182.36,33.5V49h-7.58V4h7.58V30.9l11.58-14.53h8.73L190.06,32l13,17Z"/></g><g id="g40"><path id="path42" class="cls-1" d="M218.65,49.82c-9.38,0-13.72-5.32-13.72-15.1V30.61c0-9.95,4.34-15,13.72-15a37,37,0,0,1,10.07,1.22v5.79c-4.11-.35-6.95-.52-8.74-.52-4.75,0-7.41,1.5-7.41,8.56v4.11c0,7,2.66,8.62,7.41,8.62,1.79,0,4.63-.17,8.74-.52v5.79a39.78,39.78,0,0,1-10.07,1.21"/></g><g id="g44"><path id="path46" class="cls-1" d="M254.93,30.67c0-6.25-2.14-8.57-7.11-8.57s-7.12,2.32-7.12,8.57v4c0,6.25,2.14,8.62,7.12,8.62s7.11-2.37,7.11-8.62Zm-7.11,19.15c-9.49,0-14.7-4.86-14.7-15.16v-4c0-10.24,5.21-15.11,14.7-15.11s14.7,4.87,14.7,15.11v4c0,10.3-5.21,15.16-14.7,15.16"/></g><g id="g48"><path id="path50" class="cls-1" d="M290.41,49V28.29c0-4.68-.81-6.3-4.57-6.3-2.2,0-5.1.81-8.57,2.2V49h-7.58V16.37H277V19c3.53-2,7.06-3.42,10.71-3.42,9.2,0,10.42,5.33,10.42,12.73V49Z"/></g><g id="g52"><path id="path54" class="cls-1" d="M317.38,49.82c-6.43,0-9-2.54-9-9.37V22.51L302.33,22V16.37h6.08V8.1h7.64v8.27H324v6.14h-7.93V40.33c0,3,.23,3.59,3,3.59,1.67,0,4-.11,4.92-.23V48.9a27.88,27.88,0,0,1-6.6.92"/></g><g id="g56"><path id="path58" class="cls-1" d="M349.56,29.57c0-3.76-.76-7.87-7.06-7.87-6.14,0-7.07,4.16-7.07,7.87v.52h14.13Zm-14.18,5.5v.58c0,4.74.69,7.81,8.68,7.81,3.41,0,7.46-.35,11.75-.75v5.73a53,53,0,0,1-12.1,1.38c-11.75,0-15.92-4.51-15.92-16v-2c0-10.94,5-16.27,14.71-16.27,10.87,0,14.7,7.06,14.7,17v2.55Z"/></g><g id="g60"><path id="path62" class="cls-1" d="M385,49V28.29c0-4.68-.81-6.3-4.57-6.3-2.2,0-5.09.81-8.56,2.2V49h-7.59V16.37h7.3V19c3.53-2,7.06-3.42,10.7-3.42,9.2,0,10.42,5.33,10.42,12.73V49Z"/></g><g id="g64"><path id="path66" class="cls-1" d="M411.94,49.82c-6.42,0-9-2.54-9-9.37V22.51L396.89,22V16.37H403V8.1h7.64v8.27h7.93v6.14h-7.93V40.33c0,3,.23,3.59,3,3.59,1.68,0,4-.11,4.92-.23V48.9a27.79,27.79,0,0,1-6.6.92"/></g><path id="path68" class="cls-2" d="M50.22,35.32H19V28.77H50.22Z"/><g id="g70"><path id="path72" class="cls-2" d="M50.22,22.22H19v-3a3.57,3.57,0,0,1,3.57-3.58H46.65a3.57,3.57,0,0,1,3.57,3.58Z"/></g><g id="g74"><path id="path76" class="cls-2" d="M50.22,41.9H19v3a3.58,3.58,0,0,0,3.57,3.58H46.65a3.58,3.58,0,0,0,3.57-3.58Z"/></g><g id="g78"><path id="path80" class="cls-2" d="M41.92,56.45c-7.54,0,0,0,0,0H27.66s7.53,0,0,0C9.71,56.45,9.76,45.77,9.76,32s0-24.48,17.9-24.48H41.92C59.87,7.56,59.81,18.31,59.81,32s.06,24.41-17.89,24.41M43.18,1H26.45c-16.69,0-25,10.16-25,31s8.3,31,25,31H43.18c16.69,0,25-10.09,25-31s-8.3-31-25-31"/></g></svg>