<svg id="Layer_1" data-name="Layer 1" xmlns="http://www.w3.org/2000/svg" viewBox="0 0 478 64"><defs><style>.cls-1{fill:#4483ec;}</style></defs><path class="cls-1" d="M19,23.48a36.45,36.45,0,0,1-6.26-2.75A8.16,8.16,0,0,1,9.87,18,7.65,7.65,0,0,1,9,14.16a5.88,5.88,0,0,1,2.34-4.95,10.47,10.47,0,0,1,6.49-1.79A27.88,27.88,0,0,1,28.67,9.76L30.3,5.21A30.52,30.52,0,0,0,18,2.75q-6.42,0-10.33,3.07A10,10,0,0,0,3.72,14.1a11.79,11.79,0,0,0,2.69,8c1.8,2.05,4.78,3.82,9,5.32a43.68,43.68,0,0,1,6.69,2.86,8.85,8.85,0,0,1,3.14,2.75,7.15,7.15,0,0,1,.93,3.83,6.51,6.51,0,0,1-2.64,5.52q-2.64,2-7.88,2a31.88,31.88,0,0,1-6.46-.68,32.45,32.45,0,0,1-6-1.85v5.05Q7.45,49,15.44,49q7.38,0,11.69-3.32a11,11,0,0,0,4.31-9.26,10.63,10.63,0,0,0-2.67-7.51Q26.12,26,19,23.48Z"/><path class="cls-1" d="M52.54,14.1a23.25,23.25,0,0,0-5.95.77A23.93,23.93,0,0,0,41.13,17l1.56,3.91a22.18,22.18,0,0,1,9.54-2.59q3.75,0,5.46,1.89c1.14,1.26,1.71,3.22,1.71,5.86v2.09l-5.72.19q-16.33.5-16.34,10.7a9.44,9.44,0,0,0,2.85,7.36Q43,49,48.05,49a15.31,15.31,0,0,0,6.26-1.12,14.31,14.31,0,0,0,5-4.29h.24l1,4.8h3.78v-23q0-5.91-2.91-8.59T52.54,14.1Zm6.73,20.73a9.64,9.64,0,0,1-2.72,7.32,10.37,10.37,0,0,1-7.49,2.62,7,7,0,0,1-4.69-1.45,5.25,5.25,0,0,1-1.68-4.21,5.71,5.71,0,0,1,2.7-5.22q2.69-1.68,8.78-1.89l5.1-.22Z"/><rect class="cls-1" x="74.9" y="0.5" width="5.11" height="47.87"/><path class="cls-1" d="M103.76,14A13.34,13.34,0,0,0,93,18.83q-4,4.8-4,13t4.32,12.65Q97.6,49,105.08,49a28.63,28.63,0,0,0,5.83-.51A26.92,26.92,0,0,0,116,46.8V42.24a27.14,27.14,0,0,1-10.77,2.28q-5.16,0-8-3.08t-3-9h23.23V29.2q0-6.82-3.7-11A12.69,12.69,0,0,0,103.76,14ZM94.37,28.28A12.19,12.19,0,0,1,97.22,21a8.32,8.32,0,0,1,6.47-2.65,7.6,7.6,0,0,1,6.16,2.57q2.15,2.57,2.15,7.4Z"/><path class="cls-1" d="M137.72,29.2a51.11,51.11,0,0,1-5.91-2.49,6.9,6.9,0,0,1-2.23-1.82,3.8,3.8,0,0,1-.69-2.3,3.51,3.51,0,0,1,1.84-3.14,10.58,10.58,0,0,1,5.48-1.14,24.54,24.54,0,0,1,9.2,2.09l1.81-4.15A26.81,26.81,0,0,0,136.58,14c-3.9,0-7,.79-9.2,2.38A7.58,7.58,0,0,0,124,22.93a7.67,7.67,0,0,0,1,4,9.06,9.06,0,0,0,3,3,36.13,36.13,0,0,0,6.69,3.06,27,27,0,0,1,6.66,3.31,4.39,4.39,0,0,1-.45,7.26,12.15,12.15,0,0,1-6.15,1.28,21.92,21.92,0,0,1-5.37-.71,25.31,25.31,0,0,1-5.21-1.94v4.74Q127.87,49,134.58,49c4.22,0,7.51-.85,9.84-2.55a8.44,8.44,0,0,0,3.51-7.26,7.74,7.74,0,0,0-2.11-5.57Q143.72,31.38,137.72,29.2Z"/><rect class="cls-1" x="156.48" y="3.39" width="9.54" height="44.97"/><path class="cls-1" d="M196.13,13.33a14.77,14.77,0,0,0-6.26,1.27,10,10,0,0,0-4.32,3.77H185L183.77,14H176.6v34.4H186V32.18c0-4.06.59-7,1.76-8.72s3.06-2.63,5.69-2.63a4.81,4.81,0,0,1,4.21,1.86A9.71,9.71,0,0,1,199,28.28V48.37h9.39V25.94q0-6.12-3.11-9.37T196.13,13.33Z"/><path class="cls-1" d="M229.53,40.55a3.65,3.65,0,0,1-1.13-2.95V21H238V14H228.4V6.65h-6l-2.7,7.26-5.17,3.14v4H219V37.6q0,5.68,2.57,8.54t8.2,2.84a21,21,0,0,0,8.61-1.57v-7a20.33,20.33,0,0,1-5.91,1.08A4.37,4.37,0,0,1,229.53,40.55Z"/><path class="cls-1" d="M259.53,13.33q-7.62,0-11.95,4.72t-4.32,13.37q0,8.38,4.68,13t13,4.58a33.24,33.24,0,0,0,6.83-.6A22.13,22.13,0,0,0,273,46.55V39.29a29.53,29.53,0,0,1-5.79,2.06,25.75,25.75,0,0,1-5.87.65,8.34,8.34,0,0,1-6.22-2.25,9,9,0,0,1-2.36-6.24H275V29q0-7.32-4.07-11.47T259.53,13.33ZM253,27.26a8.83,8.83,0,0,1,1.94-5.37A6,6,0,0,1,259.59,20a6.15,6.15,0,0,1,4.74,1.89,7.85,7.85,0,0,1,1.82,5.37Z"/><rect class="cls-1" x="282.57" y="0.5" width="9.38" height="47.87"/><rect class="cls-1" x="301.8" y="0.5" width="9.38" height="47.87"/><rect class="cls-1" x="321.03" y="13.97" width="9.38" height="34.39"/><path class="cls-1" d="M325.73.5q-5.1,0-5.1,4.58t5.1,4.62a5.37,5.37,0,0,0,3.83-1.22,4.47,4.47,0,0,0,1.28-3.4Q330.84.5,325.73.5Z"/><path class="cls-1" d="M355.65,13.59a25.76,25.76,0,0,0-3.43-.26q-6.8,0-10.46,3.07t-3.66,8.71a11.46,11.46,0,0,0,1.58,6.09A9.28,9.28,0,0,0,344,35a13.29,13.29,0,0,0-3.29,2.57,5,5,0,0,0-.06,6.25,6.33,6.33,0,0,0,2.52,2,11,11,0,0,0-5.69,3A7.34,7.34,0,0,0,335.51,54a8,8,0,0,0,3.8,7q3.81,2.5,11,2.51,9.42,0,14.44-3.32a10.57,10.57,0,0,0,5-9.35q0-4.71-3-7.14c-2-1.62-4.85-2.43-8.62-2.43h-5.85c-3.44,0-5.17-.68-5.17-2a3.14,3.14,0,0,1,1.45-2.46l1.38.15,1.7.09q6.85,0,10.72-3.09a10.43,10.43,0,0,0,3.86-8.63,9.39,9.39,0,0,0-1.48-5.16l5.38-1.39V14h-12C357.82,13.89,357,13.76,355.65,13.59ZM349.7,48.8h4.86a14,14,0,0,1,5.23.73,2.7,2.7,0,0,1,1.69,2.68c0,1.6-1,2.86-2.86,3.78a18.39,18.39,0,0,1-7.91,1.39,10.22,10.22,0,0,1-5.21-1.11,3.4,3.4,0,0,1-1.86-3A3.76,3.76,0,0,1,345.37,50,7.37,7.37,0,0,1,349.7,48.8Zm6.39-19.14a4.53,4.53,0,0,1-3.87,1.63,4.63,4.63,0,0,1-3.89-1.63,7,7,0,0,1-1.28-4.43q0-6.21,5.17-6.21t5.1,6.21A7.17,7.17,0,0,1,356.09,29.66Z"/><path class="cls-1" d="M390,13.33q-7.62,0-11.95,4.72t-4.32,13.37q0,8.38,4.68,13t13,4.58a33.17,33.17,0,0,0,6.83-.6,22.13,22.13,0,0,0,5.26-1.83V39.29a29.68,29.68,0,0,1-5.78,2.06,25.91,25.91,0,0,1-5.88.65,8.3,8.3,0,0,1-6.21-2.25,9,9,0,0,1-2.37-6.24h22.18V29q0-7.32-4.06-11.47T390,13.33Zm-6.55,13.93a8.83,8.83,0,0,1,1.94-5.37A6,6,0,0,1,390.09,20a6.13,6.13,0,0,1,4.73,1.89,7.85,7.85,0,0,1,1.82,5.37Z"/><path class="cls-1" d="M432.6,13.33a14.71,14.71,0,0,0-6.26,1.27A9.92,9.92,0,0,0,422,18.37h-.53L420.23,14h-7.16v34.4h9.38V32.18c0-4.06.58-7,1.75-8.72s3.07-2.63,5.69-2.63a4.83,4.83,0,0,1,4.22,1.86,9.71,9.71,0,0,1,1.32,5.59V48.37h9.38V25.94q0-6.12-3.11-9.37T432.6,13.33Z"/><path class="cls-1" d="M469,41.51a4.42,4.42,0,0,1-3-1,3.65,3.65,0,0,1-1.12-2.95V21h9.63V14h-9.63V6.65h-6l-2.71,7.26L451,17.05v4h4.5V37.6q0,5.68,2.56,8.54t8.2,2.84a21,21,0,0,0,8.62-1.57v-7A20.33,20.33,0,0,1,469,41.51Z"/></svg>