<svg id="Layer_1" data-name="Layer 1" xmlns="http://www.w3.org/2000/svg" viewBox="0 0 198 72"><defs><style>.cls-1{fill:#3f88ef;}.cls-2{fill:#231f20;}</style></defs><path class="cls-1" d="M31,23V7.37a1.11,1.11,0,0,0-1.91-.77L.5,36.16s0,0,0,.06a1.28,1.28,0,0,0-.14.21l0,.11a1,1,0,0,0-.06.23s0,.08,0,.12a.09.09,0,0,0,0,0,1.09,1.09,0,0,0,0,.25v.05a1.37,1.37,0,0,0,.16.32,0,0,0,0,0,0,0s0,0,0,0a1,1,0,0,0,.35.29s0,0,0,0h0l16.92,8.16L.5,63.86a1.11,1.11,0,0,0,.8,1.88,1.21,1.21,0,0,0,.49-.11L30.34,51.68h0a1,1,0,0,0,.35-.3l0,0,0,0a1.17,1.17,0,0,0,.15-.32h0a1.06,1.06,0,0,0,0-.31v0a.36.36,0,0,0,0-.1.93.93,0,0,0-.05-.24l-.05-.11L30.7,50a.21.21,0,0,0,0-.06L13.81,32.06,30.34,24A1.1,1.1,0,0,0,31,23ZM20.1,44.75h0L3.85,36.93l7.87-3.84,13.19,14Zm-.25,2.35,7.46,3.59L6.52,60.84Zm8.89-24.8L6.48,33.16l22.26-23Z"/><rect class="cls-2" x="43.06" y="1" width="0.83" height="70"/><path class="cls-2" d="M67.22,31.68a2.4,2.4,0,0,0-.91-2A10.86,10.86,0,0,0,63,28.27a15.92,15.92,0,0,1-3.78-1.6,5,5,0,0,1-2.68-4.4,4.79,4.79,0,0,1,1.93-3.91,7.88,7.88,0,0,1,5-1.54,8.55,8.55,0,0,1,3.66.76,6,6,0,0,1,2.52,2.15,5.53,5.53,0,0,1,.92,3.1h-3.4a3.09,3.09,0,0,0-1-2.41,4,4,0,0,0-2.76-.87,4.23,4.23,0,0,0-2.6.71,2.41,2.41,0,0,0-.92,2,2.14,2.14,0,0,0,1,1.8,11.57,11.57,0,0,0,3.29,1.41A15.09,15.09,0,0,1,68,27a5.87,5.87,0,0,1,2,2,5.24,5.24,0,0,1,.65,2.64,4.69,4.69,0,0,1-1.88,3.91A8.16,8.16,0,0,1,63.64,37a9.54,9.54,0,0,1-3.92-.79A6.59,6.59,0,0,1,56.94,34a5.45,5.45,0,0,1-1-3.24h3.41a3.16,3.16,0,0,0,1.11,2.59,4.85,4.85,0,0,0,3.17.92,4.22,4.22,0,0,0,2.68-.72A2.33,2.33,0,0,0,67.22,31.68Z"/><path class="cls-2" d="M77,29.45v7.29H73.63V17.09h7.51a7.56,7.56,0,0,1,5.23,1.72,5.77,5.77,0,0,1,1.94,4.54,5.62,5.62,0,0,1-1.9,4.5,8,8,0,0,1-5.31,1.6Zm0-2.75h4.1a4,4,0,0,0,2.78-.86,3.13,3.13,0,0,0,1-2.47,3.45,3.45,0,0,0-1-2.55,3.73,3.73,0,0,0-2.67-1H77Z"/><path class="cls-2" d="M99.88,32.17H92.27l-1.59,4.57H87.13l7.42-19.65h3.07l7.43,19.65h-3.56Zm-6.65-2.76h5.69l-2.84-8.15Z"/><path class="cls-2" d="M114.5,29.18h-3.81v7.56h-3.41V17.09h6.91a8,8,0,0,1,5.24,1.53A5.38,5.38,0,0,1,121.28,23a5.5,5.5,0,0,1-1,3.3,6,6,0,0,1-2.65,2l4.41,8.18v.18h-3.65Zm-3.81-2.75h3.51a3.91,3.91,0,0,0,2.7-.87,3,3,0,0,0,1-2.38,3.22,3.22,0,0,0-.9-2.44,3.76,3.76,0,0,0-2.68-.89h-3.6Z"/><path class="cls-2" d="M130.16,28.25l-2.22,2.36v6.13h-3.42V17.09h3.42v9.22L129.82,24l5.75-6.88h4.13l-7.3,8.71,7.72,10.94h-4.05Z"/><path class="cls-2" d="M145.35,34h8.92v2.73H141.94V17.09h3.41Z"/><path class="cls-2" d="M160.49,36.74h-3.4V17.09h3.4Z"/><path class="cls-2" d="M180.27,36.74h-3.41L168.1,22.8V36.74h-3.41V17.09h3.41l8.79,14v-14h3.38Z"/><path class="cls-2" d="M195.79,28h-8.07v6h9.43v2.73H184.31V17.09h12.75v2.76h-9.34v5.42h8.07Z"/><path class="cls-2" d="M66.12,52.25v1.89a9,9,0,0,1-4.37,1,6.76,6.76,0,0,1-3.42-.81,6.09,6.09,0,0,1-2.22-2.23,6,6,0,0,1-.82-3.08,5.85,5.85,0,0,1,1.88-4.41,6.38,6.38,0,0,1,4.61-1.8,10.88,10.88,0,0,1,4.22,1V45.7a8.27,8.27,0,0,0-4.13-1.21,4.8,4.8,0,0,0-3.43,1.3,4.34,4.34,0,0,0-1.37,3.27,4.29,4.29,0,0,0,1.35,3.26,4.77,4.77,0,0,0,3.43,1.27A7.8,7.8,0,0,0,66.12,52.25Z"/><path class="cls-2" d="M85.22,42.94h1.21L91.82,55H90.06l-1.6-3.57H83.33L81.82,55H80.05Zm2.53,7-1.94-4.36L84,49.94Z"/><path class="cls-2" d="M105.74,55V43h3.82a3.9,3.9,0,0,1,2.74.93,3.19,3.19,0,0,1,1,2.5,3.35,3.35,0,0,1-.53,1.86,3,3,0,0,1-1.43,1.17,7.21,7.21,0,0,1-2.62.37h-1.28V55Zm3.52-10.52h-1.79v3.77h1.89a2.4,2.4,0,0,0,1.62-.5,1.77,1.77,0,0,0,.57-1.41C111.55,45.14,110.78,44.52,109.26,44.52Z"/><path class="cls-2" d="M127.54,43h1.72V55h-1.72Z"/><path class="cls-2" d="M143.61,43h10v1.53h-4.19V55h-1.73V44.52h-4.12Z"/><path class="cls-2" d="M170.05,42.94h1.21l5.4,12.1h-1.77l-1.6-3.57h-5.13L166.66,55h-1.77Zm2.53,7-1.94-4.36-1.8,4.36Z"/><path class="cls-2" d="M190.67,43h1.72V53.47h5.42V55h-7.14Z"/></svg>