<svg id="Layer_1" data-name="Layer 1" xmlns="http://www.w3.org/2000/svg" xmlns:xlink="http://www.w3.org/1999/xlink" viewBox="0 0 386 72"><defs><style>.cls-1{fill:#fff;}.cls-1,.cls-3{fill-rule:evenodd;}.cls-2{mask:url(#mask);}.cls-3,.cls-4{fill:#122bd5;}</style><mask id="mask" x="0.61" y="1" width="67.25" height="67.85" maskUnits="userSpaceOnUse"><g id="mask-2"><path id="path-1" class="cls-1" d="M65.18,1c1.63,0,2.56,0,2.56,0s.66,17.25-3.25,33.89c-.49,2.07-1,4.13-1.67,6.14-2.66,8.4-6.72,16-12.92,20.44A36.51,36.51,0,0,1,39,66.77a41.35,41.35,0,0,1-6.23,1.35A57.78,57.78,0,0,1,9.9,66.27l.23-.48c.72-1.43,1.79-3.49,3.2-5.9C14,58.67,14.8,57.37,15.66,56s1.8-2.78,2.76-4.26,2-2.94,3.15-4.43l.08-.11c1.11-1.43,2.18-2.93,3.38-4.33l.62-.75c.44-.54.89-1.08,1.34-1.61s1.12-1.3,1.7-1.92l1.86-2.06,1.91-1.92.46-.47,1.39-1.4,1.86-1.68c1.21-1.1,2.36-2.16,3.49-3l3.07-2.44,2.48-1.73,2.18-1.51s-.88.4-2.4,1.12l-2.77,1.29-3.49,1.91c-1.3.67-2.62,1.53-4,2.42L32.5,30.48l-2.2,1.57L28,33.67l-.62.48-1.64,1.29c-1.55,1.17-3,2.45-4.53,3.74s-2.91,2.64-4.35,4l0,0c-1.4,1.33-2.73,2.69-4,4s-2.53,2.64-3.64,3.93S7,53.58,6,54.73c-1.32,1.58-2.44,3-3.36,4.2A62.41,62.41,0,0,1,.61,47.6V38.16c.12-1.32.31-2.66.55-4A38.17,38.17,0,0,1,7.43,18.93C19,2.55,53.05,1,64.18,1Z"/></g></mask></defs><g class="cls-2"><polygon id="Fill-3" class="cls-3" points="0.61 1 67.86 1 67.86 68.85 0.61 68.85 0.61 1"/></g><rect class="cls-4" x="188.46" y="24.59" width="2.79" height="31.33"/><path class="cls-4" d="M179.84,23.81a7.47,7.47,0,0,0-4.91,1.82,15.17,15.17,0,0,0-3.71,4.77H171l-.26-5.81h-2.41V55.92h2.79V34.58a15,15,0,0,1,4-6.24,7,7,0,0,1,4.28-1.79,8.4,8.4,0,0,1,1.46.1,5.69,5.69,0,0,1,1.33.42l.64-2.61a5.25,5.25,0,0,0-1.46-.52A8.52,8.52,0,0,0,179.84,23.81Z"/><path class="cls-4" d="M189.92,11.86a2.42,2.42,0,0,0-2.53,2.61,2.56,2.56,0,0,0,4.34,1.83,2.45,2.45,0,0,0,.73-1.83,2.49,2.49,0,0,0-.73-1.92A2.54,2.54,0,0,0,189.92,11.86Z"/><path class="cls-4" d="M147.05,23.81a11.35,11.35,0,0,0-5.48,1.43,30.81,30.81,0,0,0-4.86,3.27h-.19l-.25-3.92h-2.41v45.5h2.79V52.85a23.66,23.66,0,0,0,4.69,2.84,10.91,10.91,0,0,0,4.44,1,12,12,0,0,0,5.11-1.15,12.72,12.72,0,0,0,4.31-3.33,16.06,16.06,0,0,0,3-5.32,21.72,21.72,0,0,0,1.08-7.11q0-7.3-3-11.65T147.05,23.81Zm8.41,21.83a14.75,14.75,0,0,1-2.19,4.54,10,10,0,0,1-3.36,2.94,9,9,0,0,1-4.25,1,11.26,11.26,0,0,1-4.06-.91,19,19,0,0,1-4.95-3.14V31.51a29.18,29.18,0,0,1,5.23-3.82,9.88,9.88,0,0,1,4.73-1.34,9.16,9.16,0,0,1,4.44,1,8.19,8.19,0,0,1,3,2.81,13.11,13.11,0,0,1,1.68,4.28,25.06,25.06,0,0,1,.54,5.35A20.57,20.57,0,0,1,155.46,45.64Z"/><path class="cls-4" d="M123,37.78a13,13,0,0,0-2.79-2.29,30.63,30.63,0,0,0-3.3-1.76l-6.34-2.87c-.76-.35-1.56-.75-2.41-1.21A12.79,12.79,0,0,1,105.76,28,7.81,7.81,0,0,1,104,25.77a6.67,6.67,0,0,1-.7-3.2,7,7,0,0,1,2.5-5.62,10.15,10.15,0,0,1,6.7-2.09,12.77,12.77,0,0,1,5.64,1.21,14.14,14.14,0,0,1,4.31,3.23l1.72-2a17.1,17.1,0,0,0-4.89-3.62,14.53,14.53,0,0,0-6.78-1.54,14.17,14.17,0,0,0-4.82.79,11.83,11.83,0,0,0-3.84,2.18,10.19,10.19,0,0,0-2.54,3.33,9.87,9.87,0,0,0-.92,4.28,9.52,9.52,0,0,0,.83,4.14,11,11,0,0,0,2.06,3A12.55,12.55,0,0,0,106,32c1,.56,1.94,1,2.83,1.43l6.34,2.94c1,.48,2,1,2.92,1.47a10.47,10.47,0,0,1,2.41,1.76A7.87,7.87,0,0,1,122.09,42a8.34,8.34,0,0,1,.61,3.4,7.75,7.75,0,0,1-2.83,6.23A11.33,11.33,0,0,1,112.3,54a15.27,15.27,0,0,1-6.85-1.56A16.93,16.93,0,0,1,100,48.15l-1.84,2.09a19.49,19.49,0,0,0,6,4.67,17.48,17.48,0,0,0,8.08,1.8,16.31,16.31,0,0,0,5.52-.89A12.8,12.8,0,0,0,122,53.41a10.48,10.48,0,0,0,2.69-3.66,11,11,0,0,0,1-4.6,11.42,11.42,0,0,0-.72-4.27A10.26,10.26,0,0,0,123,37.78Z"/><path class="cls-4" d="M258.64,55c-1.63-1.16-4.15-1.73-7.58-1.73h-6.53c-2.28,0-3.83-.41-4.63-1.21a4,4,0,0,1-1.21-2.91,4.51,4.51,0,0,1,.73-2.61,10,10,0,0,1,1.75-1.89,8.72,8.72,0,0,0,2.44,1,11.18,11.18,0,0,0,2.63.32,10.68,10.68,0,0,0,4.16-.81,10.18,10.18,0,0,0,3.36-2.29A10.7,10.7,0,0,0,256,39.34a11.66,11.66,0,0,0,.82-4.44,10.57,10.57,0,0,0-.95-4.53A10,10,0,0,0,253.47,27h7.11V24.59H250.24a8.39,8.39,0,0,0-1.71-.55,10,10,0,0,0-2.29-.23,10.85,10.85,0,0,0-4.18.81,10.35,10.35,0,0,0-5.71,5.78,11.66,11.66,0,0,0-.83,4.44,10.65,10.65,0,0,0,1.18,5.09,12.49,12.49,0,0,0,2.63,3.52v.27a10.34,10.34,0,0,0-2.16,2.18A5.64,5.64,0,0,0,236,49.46a5.75,5.75,0,0,0,.76,3.07,6,6,0,0,0,1.9,2v.26a12.82,12.82,0,0,0-3.29,3.52,7.6,7.6,0,0,0-1.21,4,7.35,7.35,0,0,0,3.36,6.33Q240.91,71,246.69,71a18.89,18.89,0,0,0,6-.88,14.79,14.79,0,0,0,4.53-2.35,10.57,10.57,0,0,0,2.89-3.4,8.31,8.31,0,0,0,1-3.94Q261.08,56.71,258.64,55ZM239,38.43a9.92,9.92,0,0,1-.64-3.59,9.78,9.78,0,0,1,.64-3.62,8,8,0,0,1,1.71-2.71,7.67,7.67,0,0,1,2.51-1.73,7.49,7.49,0,0,1,3.07-.62,7.63,7.63,0,0,1,3,.62,7.33,7.33,0,0,1,2.5,1.73,8.24,8.24,0,0,1,1.68,2.74,10.39,10.39,0,0,1,0,7.18,8.82,8.82,0,0,1-1.71,2.81A7.27,7.27,0,0,1,249.25,43a7.62,7.62,0,0,1-6,0,7.68,7.68,0,0,1-2.54-1.79A8.55,8.55,0,0,1,239,38.43Zm18.49,25.23a8.41,8.41,0,0,1-2.25,2.51A11.88,11.88,0,0,1,251.63,68a14.71,14.71,0,0,1-4.63.69c-3.25,0-5.76-.61-7.51-1.83a5.55,5.55,0,0,1-2.63-4.76,6.85,6.85,0,0,1,.95-3.4,10.31,10.31,0,0,1,3-3.2,13.8,13.8,0,0,0,2.25.43c.7.06,1.22.1,1.56.1h6.53a10.42,10.42,0,0,1,5.23,1.07,3.94,3.94,0,0,1,1.81,3.69A6,6,0,0,1,257.44,63.66Z"/><path class="cls-4" d="M216.31,23.81a10.14,10.14,0,0,0-5.65,1.6,27.7,27.7,0,0,0-4.82,4h-.19l-.25-4.83H203V55.92h2.79V32.29a30.28,30.28,0,0,1,5-4.4,8.77,8.77,0,0,1,5-1.47c2.49,0,4.28.79,5.35,2.38s1.62,4.06,1.62,7.41V55.92h2.79V35.82q0-6.13-2.22-9.08T216.31,23.81Z"/><path class="cls-4" d="M297.78,31.71A13.44,13.44,0,0,0,300,23.57a14.34,14.34,0,0,0-1.18-6.18,10.25,10.25,0,0,0-3.24-4,13.5,13.5,0,0,0-4.86-2.19,25.76,25.76,0,0,0-6-.67h-14v44h7.37V37.29h6.29l9,17.21h8.27l-9.92-18.35A12.45,12.45,0,0,0,297.78,31.71ZM284,31.11h-5.85V16.78H284a11.9,11.9,0,0,1,6.54,1.48q2.24,1.48,2.23,5.31a7,7,0,0,1-2.23,5.65Q288.28,31.11,284,31.11Z"/><path class="cls-4" d="M331.18,25.26a13.86,13.86,0,0,0-4.73-3.4,14.07,14.07,0,0,0-5.63-1.18,13.78,13.78,0,0,0-5.59,1.18,14.29,14.29,0,0,0-4.74,3.4,16.15,16.15,0,0,0-3.27,5.44A20.71,20.71,0,0,0,306,38a20.71,20.71,0,0,0,1.21,7.33,16.29,16.29,0,0,0,3.27,5.45,14,14,0,0,0,10.33,4.5,14.38,14.38,0,0,0,5.63-1.14,13.62,13.62,0,0,0,4.73-3.36,16.8,16.8,0,0,0,3.27-5.45A20.26,20.26,0,0,0,335.69,38a20.26,20.26,0,0,0-1.24-7.33A16.65,16.65,0,0,0,331.18,25.26Zm-5,20.74a6.15,6.15,0,0,1-5.4,3,6.08,6.08,0,0,1-5.37-3,14.51,14.51,0,0,1-1.94-8,14.61,14.61,0,0,1,1.94-8,6.06,6.06,0,0,1,5.37-3,6.13,6.13,0,0,1,5.4,3,14.35,14.35,0,0,1,2,8A14.25,14.25,0,0,1,326.22,46Z"/><path class="cls-4" d="M385.39,36.35a23.35,23.35,0,0,0-.82-6.32,14.5,14.5,0,0,0-2.45-5,10.93,10.93,0,0,0-4-3.22,12.88,12.88,0,0,0-5.6-1.15,12.67,12.67,0,0,0-5.34,1.21,14.18,14.18,0,0,0-4.6,3.43,16.69,16.69,0,0,0-3.21,5.45A20.47,20.47,0,0,0,358.13,38a21.18,21.18,0,0,0,1.17,7.3,15.78,15.78,0,0,0,3.28,5.41,14.16,14.16,0,0,0,4.89,3.39,15.31,15.31,0,0,0,6,1.18,16.44,16.44,0,0,0,5.72-1,22.09,22.09,0,0,0,5-2.55l-2.48-4.84a16.79,16.79,0,0,1-3.47,1.78,11,11,0,0,1-3.78.64,8.54,8.54,0,0,1-6.26-2.42A11.21,11.21,0,0,1,365.25,40h19.83A16.68,16.68,0,0,0,385.39,36.35Zm-20.21-1.28a10.44,10.44,0,0,1,2.61-6.28,6.63,6.63,0,0,1,4.89-2.12,5.47,5.47,0,0,1,4.8,2.22A10.62,10.62,0,0,1,379,35.07Z"/><path class="cls-4" d="M352.31,49h-.47a1.43,1.43,0,0,1-1.08-.57,3,3,0,0,1-.51-2V7h-7.31V46a12.52,12.52,0,0,0,1.59,6.79q1.59,2.49,5.53,2.49a9.31,9.31,0,0,0,3.87-.67L353,48.86A2.52,2.52,0,0,1,352.31,49Z"/></svg>