<?xml version="1.0" encoding="UTF-8"?>
<svg id="b" data-name="Layer 2" xmlns="http://www.w3.org/2000/svg" width="620" height="176.02" viewBox="0 0 620 176.02">
  <g id="c" data-name="Layer 1">
    <g id="d" data-name="YplUYr">
      <g>
        <path d="m40.78,175.99c-21.23.06-39.23-16.62-40.68-37.69-1.52-22.22,13.7-41.36,35.34-44.27,4.62-.62,9.3-.79,13.95-1.14,8.45-.63,16.25-3.1,23.58-7.47,12.54-7.48,17.23-19.3,18.99-32.9.68-5.29,1.33-10.58,1.93-15.87C96.31,15.28,114.49-.51,136.14.01c20.86.5,38.33,17.31,39.78,38.28,1.48,21.42-13.76,40.57-34.96,43.64-7.9,1.15-16.07,1-23.77,2.89-17.25,4.22-29.02,14.51-32.14,32.82-1.17,6.89-2.09,13.83-2.85,20.78-2.38,21.84-19.59,37.51-41.43,37.57Z" stroke-width="0"/>
        <path d="m447.84,121.2h-80.87c-.2,7.03,1.71,12.6,5.55,17.65,8.46,11.12,32.55,11.36,38.95-2.99.52-1.16,1.96-2.68,3-2.7,10.76-.2,21.52-.12,32.86-.12-2.18,12-7.48,21.54-16.53,28.28-21.42,15.93-44.99,16.82-68.54,6.22-21.51-9.68-31.21-28.23-32.14-51.29-.95-23.62,6.91-43.24,28-55.86,21.98-13.15,53.55-10.78,71.63,5.34,11.86,10.57,16.81,24.5,18.03,39.93.39,4.93.06,9.93.06,15.54Zm-35.28-20.46c.47-13.01-8.45-21.39-22.02-21.26-13.5.13-23.24,9.22-22.52,21.26h44.54Z" stroke-width="0"/>
        <path d="m351.77,8.4v33.44h-45.62v127.84h-37.91V42.25h-45.9V8.4h129.43Z" stroke-width="0"/>
        <path d="m515.51,82.14h-55.06v-27.81h101.45c0,8.4.19,16.65-.16,24.89-.07,1.64-2.06,3.31-3.38,4.77-16.64,18.41-33.32,36.78-49.98,55.18-1.09,1.2-2.06,2.5-3.9,4.74h59.25v27.8h-105.67c0-8.17-.18-16.28.14-24.37.07-1.68,1.77-3.47,3.06-4.9,16.85-18.66,33.77-37.26,50.66-55.88.98-1.08,1.85-2.27,3.59-4.41Z" stroke-width="0"/>
        <path d="m134.71,176.02c-22.83-.03-40.81-18.46-40.7-41.72.1-22.16,18.65-40.3,41.19-40.29,22.41.01,40.86,18.68,40.82,41.28-.04,22.49-18.58,40.76-41.31,40.73Z" stroke-width="0"/>
        <path d="m40.37,82.01C18.09,81.91-.04,63.48,0,40.97.05,18.1,18.55-.16,41.53,0c22.11.15,40.51,18.84,40.47,41.12-.03,22.81-18.54,40.98-41.63,40.88Z" stroke-width="0"/>
        <path d="m580.19,171.7V54.42h37.54v117.28h-37.54Z" stroke-width="0"/>
        <path d="m578.03,20.95c.08-11.64,9.57-21.08,21.02-20.91,11.61.17,21,9.63,20.95,21.1-.06,11.49-9.6,20.9-21.14,20.86-11.67-.05-20.91-9.39-20.83-21.05Z" stroke-width="0"/>
      </g>
    </g>
  </g>
</svg>