<svg id="Layer_1" data-name="Layer 1" xmlns="http://www.w3.org/2000/svg" viewBox="0 0 396 72"><defs><style>.cls-1{fill:#5bb5b9;}.cls-2{fill:#231f20;}</style></defs><path class="cls-1" d="M46.22,67.81a1.34,1.34,0,0,1-1-.43L8.35,27.73a1.33,1.33,0,0,1,0-1.82L28.13,4.62a1.35,1.35,0,0,1,1-.43,1.39,1.39,0,0,1,1,.5L47.26,26a1.33,1.33,0,1,1-2.08,1.67L29,7.57,11.16,26.81l36,38.75a1.34,1.34,0,0,1-1,2.25Z"/><path class="cls-1" d="M46.22,67.81a1.34,1.34,0,0,1-1.29-1L27.83,5.89a1.33,1.33,0,0,1,.22-1.17,1.35,1.35,0,0,1,1.06-.53H63.33a1.35,1.35,0,0,1,1.06.53,1.33,1.33,0,0,1,.22,1.17L47.51,66.83A1.35,1.35,0,0,1,46.22,67.81ZM30.88,6.87,46.22,61.52,61.56,6.87Z"/><path class="cls-1" d="M46.22,67.81a1.34,1.34,0,0,1-1-2.25l36-38.75L63.4,7.57,47.26,27.65A1.33,1.33,0,1,1,45.18,26L62.28,4.69a1.39,1.39,0,0,1,1-.5,1.36,1.36,0,0,1,1,.43L84.09,25.91a1.35,1.35,0,0,1,0,1.82L47.2,67.38A1.34,1.34,0,0,1,46.22,67.81Z"/><rect class="cls-1" x="9.33" y="25.48" width="73.78" height="2.67"/><circle class="cls-2" cx="46.22" cy="66.47" r="4.53"/><circle class="cls-2" cx="9.33" cy="26.82" r="4.53"/><circle class="cls-2" cx="29.11" cy="5.53" r="4.53"/><circle class="cls-2" cx="83.11" cy="26.82" r="4.53"/><circle class="cls-2" cx="63.33" cy="5.53" r="4.53"/><circle class="cls-2" cx="46.22" cy="26.82" r="4.53"/><path class="cls-2" d="M139.09,45.11a4.9,4.9,0,0,1-4.9,4.9h-11.4a4.91,4.91,0,0,1-4.9-4.9V26.24h-2.68V45.11a7.59,7.59,0,0,0,7.58,7.57h11.4a7.59,7.59,0,0,0,7.58-7.57V26.24h-2.68Z"/><path class="cls-2" d="M171.81,37.45H158a3.12,3.12,0,0,1-3.12-3.12V30.7A3.12,3.12,0,0,1,158,27.58h18.24V24.9H158a5.8,5.8,0,0,0-5.79,5.8v3.63a5.8,5.8,0,0,0,5.79,5.8h13.79a3.12,3.12,0,0,1,3.12,3.12v3.64A3.12,3.12,0,0,1,171.81,50H153.56v2.67h18.25a5.8,5.8,0,0,0,5.79-5.79V43.25A5.8,5.8,0,0,0,171.81,37.45Z"/><path class="cls-1" d="M385.4,37.45H371.62a3.12,3.12,0,0,1-3.12-3.12V30.7a3.12,3.12,0,0,1,3.12-3.12h18.24V24.9H371.62a5.8,5.8,0,0,0-5.8,5.8v3.63a5.8,5.8,0,0,0,5.8,5.8H385.4a3.12,3.12,0,0,1,3.12,3.12v3.64A3.12,3.12,0,0,1,385.4,50H367.16v2.67H385.4a5.8,5.8,0,0,0,5.8-5.79V43.25A5.8,5.8,0,0,0,385.4,37.45Z"/><polygon class="cls-2" points="187.35 52.68 211.93 52.68 211.93 50.01 190.02 50.01 190.02 40.42 204.75 40.42 204.75 37.74 190.02 37.74 190.02 28.15 211.93 28.15 211.93 25.48 187.35 25.48 187.35 52.68"/><polygon class="cls-1" points="293.44 52.68 318.03 52.68 318.03 50.01 296.12 50.01 296.12 40.42 310.84 40.42 310.84 37.74 296.12 37.74 296.12 28.15 318.03 28.15 318.03 25.48 293.44 25.48 293.44 52.68"/><path class="cls-2" d="M241.66,43.1a5.79,5.79,0,0,0,5.79-5.79v-6a5.79,5.79,0,0,0-5.79-5.79H221v27.2h2.67V43.1h12.41l8.36,9.58H248L239.6,43.1Zm-18-15h18a3.12,3.12,0,0,1,3.12,3.12v6a3.12,3.12,0,0,1-3.12,3.12h-18Z"/><path class="cls-1" d="M280.75,50h-15.9a4.91,4.91,0,0,1-4.91-4.9V33.05a4.91,4.91,0,0,1,4.91-4.9h16.08V25.48H264.85a7.59,7.59,0,0,0-7.58,7.57V45.11a7.59,7.59,0,0,0,7.58,7.57h18.58V37.57h-2.68Z"/><polygon class="cls-1" points="340.93 36.2 328.96 25.48 326.59 25.48 326.59 51.34 329.27 51.34 329.27 29.34 340.93 39.8 352.59 29.34 352.59 51.34 355.27 51.34 355.27 25.48 352.89 25.48 340.93 36.2"/></svg>