<?xml version="1.0" encoding="UTF-8"?><svg id="b" xmlns="http://www.w3.org/2000/svg" width="256.33" height="36.83" viewBox="0 0 256.33 36.83"><g id="c"><path d="m211.99,13.39v14.91c0,.58-.45,1.05-1.03,1.06h-2.15c-.58,0-1.04-.48-1.03-1.06V8.11c0-.58.46-1.06,1.03-1.06h2.15c.26,0,.51.1.7.28l7.81,7.34,7.78-7.33c.19-.18.44-.29.7-.29h2.15c.49,0,1.06.4,1.02,1.09v20.14c0,.58-.45,1.05-1.03,1.06h-2.15c-.58,0-1.04-.48-1.03-1.06v-14.89l-6.74,6.41c-.43.42-1.02.34-1.37.04l-.02-.02-6.8-6.43h0Zm-128.97,8.84c0,2.45-.41,4.06-1.69,5.37h0c-1.27,1.3-2.89,1.76-5.24,1.76h-7.86c-2.34,0-3.97-.45-5.24-1.76-1.26-1.3-1.68-2.91-1.68-5.36v-14.06c0-.58.46-1.06,1.03-1.06h2.15c.57,0,1.03.47,1.03,1.06v13.67c0,.87.05,1.5.15,1.97.1.46.24.7.39.86.15.15.39.3.84.4.46.1,1.08.15,1.92.15h6.69c.85,0,1.46-.05,1.92-.15.45-.1.69-.25.84-.4.15-.15.29-.4.39-.86.1-.47.15-1.1.15-1.97v-13.66c0-.58.46-1.06,1.03-1.06h2.15c.54,0,.98.42,1.03.95v.05s0,14.11,0,14.11h0Zm20.38-1.33h0s0,0,0,0c.26.24.45.55.45,1.84s-.23,1.73-.53,1.97c-.36.3-1.1.51-2.71.51h-12.06c-.58,0-1.04.48-1.03,1.06v2.02c0,.58.46,1.06,1.03,1.06h12.65c2.31,0,3.9-.46,5.19-1.75,1.21-1.21,1.66-2.75,1.66-4.86s-.46-3.59-1.65-4.81c-1.27-1.33-2.84-1.76-5.21-1.76h-7.13c-1.61,0-2.35-.21-2.72-.5-.29-.24-.52-.69-.52-1.94s.23-1.73.53-1.97c.36-.3,1.1-.51,2.71-.51h12.08c.58,0,1.04-.48,1.03-1.06v-2.02c0-.58-.46-1.05-1.03-1.06h-12.67c-2.3,0-3.9.45-5.19,1.75-1.21,1.2-1.66,2.75-1.66,4.86s.47,3.64,1.67,4.83h0c1.3,1.28,2.89,1.75,5.19,1.75h7.13c1.87,0,2.38.22,2.78.6h0Zm73.6,4.32v-7.99c0-.58.46-1.06,1.03-1.06h1.97c.59,0,.97.47,1.03.94v.06s0,11.14,0,11.14c0,.58-.46,1.05-1.03,1.06h-13.5c-2.35,0-3.96-.45-5.24-1.76h0c-1.26-1.3-1.68-2.92-1.68-5.37v-8.03c0-2.43.41-4.03,1.69-5.34h0c1.27-1.3,2.89-1.76,5.24-1.76h11.54c.57,0,1.03.48,1.03,1.06v2.02c0,.58-.46,1.05-1.03,1.06h-10.96c-.85,0-1.46.05-1.92.15-.45.1-.69.25-.84.4-.15.15-.29.4-.39.86-.1.47-.15,1.1-.15,1.97v7.21c0,.87.05,1.5.15,1.97.1.46.24.7.39.86s.39.3.84.4c.46.1,1.08.15,1.92.15h9.9Zm74.66-4.32h0s0,0,0,0c.26.24.45.55.45,1.84s-.23,1.73-.53,1.97c-.36.3-1.1.51-2.71.51h-12.06c-.58,0-1.04.48-1.03,1.06v2.02c0,.58.46,1.06,1.03,1.06h12.65c2.31,0,3.9-.46,5.19-1.75,1.21-1.21,1.66-2.75,1.66-4.86s-.46-3.59-1.65-4.82c-1.26-1.32-2.83-1.76-5.21-1.76h-7.13c-1.62,0-2.35-.21-2.72-.5-.29-.24-.52-.69-.52-1.94s.23-1.73.53-1.97c.36-.3,1.1-.51,2.71-.51h12.08c.58,0,1.04-.48,1.03-1.06v-2.02c0-.58-.46-1.05-1.03-1.06h-12.67c-2.3,0-3.9.45-5.19,1.75-1.21,1.2-1.66,2.75-1.66,4.86s.47,3.64,1.67,4.83h0c1.3,1.28,2.89,1.75,5.19,1.75h7.13c1.87,0,2.38.22,2.78.6h0Zm-135.94,4.32h14.7c.24,0,.52.09.73.31.19.2.3.47.3.75v2.02c0,.58-.46,1.05-1.03,1.06h-17.88c-.57,0-1.04-.48-1.03-1.06V8.17c0-.58.46-1.06,1.03-1.06h17.88c.57,0,1.03.47,1.03,1.06v2.02c0,.58-.46,1.05-1.03,1.06h-14.7v4.92h9.77c.57,0,1.03.47,1.03,1.06v1.99c0,.58-.45,1.05-1.03,1.06h-9.77v4.95h0Zm88,0h-14.7v-4.95h9.77c.58,0,1.04-.48,1.03-1.06v-1.99c0-.58-.45-1.05-1.03-1.06h-9.77v-4.92h14.7c.58,0,1.04-.48,1.03-1.06v-2.02c0-.58-.46-1.05-1.03-1.06h-17.88c-.58,0-1.04.48-1.03,1.06v20.12c0,.58.46,1.06,1.03,1.06h17.88c.57,0,1.04-.48,1.03-1.06v-2.02c0-.28-.11-.55-.3-.75-.19-.2-.46-.31-.73-.31h0Zm-52.16-3.08l4.78,5.47.02.03c.1.14.17.3.2.46.04.25,0,.5-.13.71-.18.32-.52.52-.89.52h-2.97c-.28,0-.54-.11-.74-.31l-.03-.03-5.51-6.7h-7.56v6c0,.58-.46,1.05-1.03,1.06h-2.17c-.58,0-1.04-.48-1.03-1.06V8.11c0-.59.47-1.06,1.03-1.06h13.86c2.37,0,3.99.45,5.28,1.76h0c1.27,1.31,1.7,2.92,1.7,5.38v.97c0,2.45-.42,4.07-1.7,5.38-.85.87-1.85,1.36-3.11,1.59h0Zm.59-7.36v-.18c0-1.82-.22-2.51-.54-2.84-.15-.16-.4-.3-.85-.4-.46-.1-1.09-.15-1.94-.15h-10.05v6.97h10.05c.85,0,1.48-.05,1.94-.15.45-.1.7-.25.85-.4.32-.33.54-1.02.54-2.83h0Z" fill="#151417" fill-rule="evenodd"/><path d="m51.3,10.55L40.97,0H10.26L0,10.55l25.65,26.28,25.65-26.28Zm-13.48-5.37l-3.48-.02h-3.46l-5.12,5.25,8.58,8.79,8.58-8.79-5.1-5.23h0Z" fill="#2ac9bc" fill-rule="evenodd"/></g></svg>