<svg id="Layer_1" data-name="Layer 1" xmlns="http://www.w3.org/2000/svg" viewBox="0 0 302 66"><defs><style>.cls-1{fill:#21aaeb;}.cls-2{fill:#46c1f1;}</style></defs><path class="cls-1" d="M272.63,26c.77.32.94.66.62,1.45-.57,1.36-1.05,2.76-1.49,4.18-.24.76-.56.89-1.3.61a14.31,14.31,0,0,0-6-.81,5.89,5.89,0,0,0-5.92,5.34,15.54,15.54,0,0,0,0,5c.4,2.61,2,4.06,4.69,4.52a21.59,21.59,0,0,0,7.85-.31c.81-.17,1,0,1.14.8.2,1.5.48,3,.81,4.47.16.69.06.95-.68,1.14a29.16,29.16,0,0,1-13.65.07c-5.27-1.22-8.21-4.7-8.81-10.15a20.17,20.17,0,0,1,.38-8,13.24,13.24,0,0,1,12.24-9.63c.83-.05,1.67,0,2.51,0v0A17.35,17.35,0,0,1,272.63,26Zm10.56-11.17c.9,0,1,.32,1,1.1,0,6,0,12,0,18v1.52c1.25-1.66,2.28-3,3.33-4.42l3.73-5c.23-.31.43-.66.92-.66h8.61l-5.19,6.53c-1.4,1.75-2.78,3.51-4.18,5.24-.45.54-.56.92,0,1.52,1.48,1.57,2.87,3.21,4.31,4.81a13.42,13.42,0,0,0,6,3.56v1.2l0,0a13.05,13.05,0,0,0-.73,3.8c-.11.89-.37,1.27-1.39,1.21-4.56-.25-8.24-2-10.89-5.78-1.34-1.93-2.85-3.73-4.5-5.87v1.55c0,2.84,0,5.67,0,8.51,0,.76-.2,1.06-1,1-2.16,0-4.32,0-6.46,0-.71,0-1-.16-1-.93q0-18,0-35.94c0-.76.22-1,1-.94C278.89,14.83,281.05,14.85,283.19,14.79ZM145.11,25.26c3.8.91,5.59,3.32,5.7,7.26,0,1.36,0,2.72,0,4.08v2h0c0,2,.07,3.92,0,5.88-.06,1.22.4,1.85,1.57,1.87.76,0,.92.33.87,1-.11,1.55-.17,3.11-.23,4.67,0,.4-.09.69-.58.71-2.56.08-5.13.11-7.49-1.1a2.19,2.19,0,0,1-1-.83c-.49-1-1-.63-1.62-.18a12.32,12.32,0,0,1-11,1.78,7,7,0,0,1-5.29-6.75c-.24-4,1.14-6.54,4.38-8a17.29,17.29,0,0,1,6.69-1.3c1.56-.06,3.11,0,4.67,0,.63,0,.81-.2.84-.82.09-2.53-.69-3.47-3.23-3.85-3.07-.43-6,.23-9,.87-.82.18-1.14.07-1.32-.76-.34-1.48-.76-2.93-1.2-4.39-.16-.53,0-.79.5-1A28.55,28.55,0,0,1,145.11,25.26Zm94.14-.15c4,.81,6,3.23,6.14,7.36.05,2,0,3.92,0,5.87h0v0c0,2,.07,4.07,0,6.1-.06,1.27.44,1.9,1.66,1.94.8,0,.88.32.82,1-.14,1.46-.15,2.94-.19,4.42,0,.62-.24,1-.91,1a18.2,18.2,0,0,1-6.27-.69,3.27,3.27,0,0,1-2-1.41c-.46-.87-.85-.52-1.36-.16a12.27,12.27,0,0,1-11,1.9,7.07,7.07,0,0,1-5.43-6.78c-.27-3.93,1.25-6.59,4.53-8a18.79,18.79,0,0,1,7.27-1.25c1.28,0,2.56,0,3.84,0,.76,0,.92-.25.92-1,0-2.55-.6-3.34-3.17-3.7-3.06-.44-6,.23-9,.86-.8.18-1.14.1-1.33-.76-.31-1.43-.76-2.84-1.16-4.26-.17-.58-.14-.89.55-1.14A29.52,29.52,0,0,1,239.25,25.11Zm-142-7.93a1.14,1.14,0,0,1,1.31,1q3.95,13.11,7.94,26.21c.14.5.31,1,.56,1.75.82-2.22,1.55-4.18,2.26-6.17q3.9-10.8,7.76-21.61c.3-.83.66-1.2,1.6-1.14,2.12.08,4.24.07,6.35,0,1,0,1.19.18.81,1.16-3.09,7.78-6.13,15.57-9.18,23.38-1.27,3.22-2.55,6.45-3.78,9.69a1.53,1.53,0,0,1-1.71,1.22c-2.87-.08-5.75-.07-8.63,0A1.39,1.39,0,0,1,101,51.49Q95.35,35,89.65,18.44a9.25,9.25,0,0,0-.43-1v-.24C91.88,17.22,94.58,17.22,97.26,17.18ZM176,24.79c3.88.74,5.66,2.85,6,6.79.3,3.11.16,6.22.19,9.33,0,3.51,0,7,0,10.54,0,.86-.19,1.21-1.12,1.18-2.08-.07-4.16-.06-6.23,0-.83,0-1.09-.23-1.08-1.07,0-5,0-10.06,0-15.09a12.35,12.35,0,0,0-.2-2.5,2.33,2.33,0,0,0-2.46-2.14,14.55,14.55,0,0,0-6,.87A1.5,1.5,0,0,0,164,34.4c.06,5.66,0,11.33.05,17,0,.91-.2,1.26-1.18,1.23-2.08-.06-4.16,0-6.23,0-.74,0-1.05-.13-1.05-1q.06-12.75,0-25.51c0-.76.25-.95,1-.94,2.07,0,4.15.07,6.23,0,1,0,1.37.27,1.25,1.27a2.07,2.07,0,0,0,.13,1.32l0,0c.91-.52,1.79-1.05,2.66-1.54A13.34,13.34,0,0,1,176,24.79Zm40.39-7.64c.66,0,.91.15.91.86q0,16.83,0,33.67c0,.79-.32.91-1,.9-2.2,0-4.4,0-6.6,0-.88,0-1.06-.32-1.05-1.14,0-4.11,0-8.22,0-12.34,0-.88-.21-1.14-1.15-1.14q-6.45.07-12.94,0c-.86,0-1.08.27-1.07,1.09,0,4.08,0,8.15,0,12.22,0,1.1-.33,1.34-1.36,1.3-2-.08-4-.09-6,0-1.14.06-1.31-.38-1.3-1.38.05-5.47,0-10.94,0-16.41l.05.06c0-5.51,0-11,0-16.54,0-.91.25-1.14,1.14-1.14,2.15.07,4.31.06,6.46,0,.79,0,1,.23,1,1,0,4,0,8.07-.05,12.11,0,1.09.33,1.31,1.35,1.29,4.18-.05,8.4,0,12.59,0,.93,0,1.23-.21,1.22-1.18-.06-4,0-8.06-.05-12.1,0-.91.25-1.14,1.14-1.14C212,17.22,214.18,17.19,216.37,17.15ZM142.09,41.39c-2,.12-4.07-.24-6,.46a2.41,2.41,0,0,0-1.82,2.72,2.37,2.37,0,0,0,2.39,1.93,12,12,0,0,0,3.91-.38c2.08-.48,2.08-.48,2.08-2.56V42C142.61,41.67,142.52,41.36,142.09,41.39Zm91.79,0a9.73,9.73,0,0,0-3,.33h0a2.57,2.57,0,0,0-2,2.74c.13,1.14,1.11,1.9,2.59,2a17,17,0,0,0,4.38-.5c1.06-.19,1.5-.58,1.45-1.77C237.13,41.37,237.21,41.37,233.88,41.42Z"/><path class="cls-1" d="M6.11,16.92,16.64,37.55c.38-1.3.72-2.34,1-3.38Q22.4,18.09,27.12,2c.24-.83.58-1,1.4-1,4.56,0,9.15,0,13.72,0h1.08c-.82,2.78-1.6,5.47-2.39,8.14Q32.88,36.45,24.85,63.74c-.29,1-.67,1.27-1.68,1.25-3.85-.07-7.7,0-11.56,0a1.18,1.18,0,0,1-1.28-.82Q5.41,53.19.44,42.24A1.74,1.74,0,0,1,.29,41C2.23,33.08,4.13,25.15,6.11,16.92Z"/><path class="cls-2" d="M78.6,1.13c-.72,2.47-1.43,4.93-2.16,7.41Q68.25,36.23,60.09,63.92a1.18,1.18,0,0,1-1.39,1c-4.72,0-9.44,0-14.15,0-.18,0-.36,0-.65,0l2-6.95c1.54-5.24,3.07-10.48,4.64-15.7.27-.89.12-1.12-.81-1.11-4.06,0-8.14,0-12.2,0-1.43,0-1.44,0-1.06-1.42,1.14-4.27,2.3-8.53,3.42-12.8a1.14,1.14,0,0,1,1.32-1c4.32.07,8.63.06,13,.15.95,0,1.29-.33,1.52-1.18,2.23-7.7,4.51-15.37,6.76-23,.14-.47.26-.82.91-.82,5,0,10,0,14.92,0A1.4,1.4,0,0,1,78.6,1.13Z"/></svg>