<svg id="Layer_1" data-name="Layer 1" xmlns="http://www.w3.org/2000/svg" viewBox="0 0 542 72"><defs><style>.cls-1{fill:#2281b2;}.cls-2{fill:#accee1;}</style></defs><path class="cls-1" d="M194.18,17.45,200.1,33c1.45,3.76,2.68,7.52,3.61,10.26,1-2.74,2.32-6,3.87-9.75L213.86,18H214l6.28,15.51c1.55,3.77,2.89,7,3.87,9.75.93-2.74,2.16-6.5,3.61-10.26l5.92-15.51H239L224.12,55.17H224L216,35c-.72-1.8-1.55-3.81-2.11-5.57-.62,1.76-1.45,3.82-2.12,5.57l-8,20.15h-.1L188.82,17.45Z"/><path class="cls-1" d="M272.1,54.55V37.86H253.7V54.55h-4.95V17.45h4.95V33.68h18.4V17.45h4.95v37.1Z"/><path class="cls-1" d="M307.15,16.83a18.84,18.84,0,0,1,19,19.17,19,19,0,1,1-38,0A18.85,18.85,0,0,1,307.15,16.83Zm0,33.76c8,0,14-6.19,14-14.59s-5.92-14.59-14-14.59-14,6.19-14,14.59S299.11,50.59,307.15,50.59Z"/><path class="cls-1" d="M342.24,35l14.44-17.52h9.38L352.91,33l13.35,21.59H357.4l-9.85-16.49-5.31,6V54.55h-7.93V17.45h7.93Z"/><path class="cls-1" d="M404.81,55.12,384.45,35.59,382,33.47V54.55h-7.78V16.88h.31l20.3,19.53,2.38,2.11V17.45h7.83V55.12Z"/><path class="cls-1" d="M434.29,16.72A19,19,0,0,1,453.72,36a19.43,19.43,0,0,1-38.86,0A19,19,0,0,1,434.29,16.72Zm0,31.29c6.7,0,11.44-5.36,11.44-12S441,24,434.29,24s-11.44,5.41-11.44,12S427.59,48,434.29,48Z"/><path class="cls-1" d="M466.81,17.45l5.05,12.62c1.24,3.09,2.32,6,3.09,8.4.57-1.34,1.71-4.22,2.68-6.49l2.07-4.69L484,17.7h.31c3.15,7.06,7.06,15.52,9,20.77,1.34-3.29,6-15.36,8.2-21h8.86L493.66,55.12h-.36L486,38.52c-.66-1.44-1.33-3-1.9-4.43-.57,1.45-1.24,3-1.86,4.43L475,55.12h-.36L458,17.45Z"/><path class="cls-1" d="M516.7,53.16V45.53A24.23,24.23,0,0,0,526,48.21a13.44,13.44,0,0,0,3.3-.2c2.83-.41,4.48-1.5,4.48-3.3,0-2.47-2.21-3.76-7.32-5.62C520,36.72,516.18,34,516.18,27.55c0-6.6,5.47-10.83,13.46-10.83a25.52,25.52,0,0,1,9.69,1.86V25.9a19,19,0,0,0-9.08-2.27c-3.81,0-6.28,1.49-6.28,3.87,0,2.16,2,3.65,7.06,5.56,6.49,2.53,10.51,5.26,10.51,11.5,0,6.7-5,10.72-13.81,10.72A28.84,28.84,0,0,1,516.7,53.16Z"/><path class="cls-2" d="M156.29,29.11C154,12.36,145.19,5.63,138.21,2.94c-13.94-5.37-32.32,1.15-43.28,10.37A190,190,0,0,0,78.69,28.48,188.49,188.49,0,0,0,62.45,13.31C51.49,4.09,33.11-2.43,19.18,2.94c-7,2.69-15.8,9.42-18.09,26.17-1.95,14.25.6,25.18,7.59,32.48S25.85,71,34.47,71c1.94,0,3.81-.1,5.56-.26,13-1.18,30.4-16.07,38.66-23.85,8.26,7.78,25.62,22.67,38.67,23.85,1.74.16,3.61.26,5.55.26,8.62,0,18.68-2,25.8-9.41S158.24,43.36,156.29,29.11ZM38.89,58.21c-5.51.5-15.58.48-21.12-5.31-4.2-4.4-5.61-11.82-4.21-22.08,1.17-8.57,4.58-14,10.14-16.14a18.65,18.65,0,0,1,6.65-1.12c8.17,0,17.77,4.14,24,9.38A173.68,173.68,0,0,1,70.09,37.71C60.75,46.51,46.76,57.49,38.89,58.21ZM139.61,52.9c-5.53,5.79-15.6,5.81-21.12,5.31-7.87-.72-21.85-11.7-31.2-20.5A173.68,173.68,0,0,1,103,22.94c8-6.77,21.71-11.7,30.65-8.26,5.56,2.14,9,7.57,10.14,16.14C145.23,41.08,143.81,48.5,139.61,52.9Z"/><path class="cls-1" d="M156.29,29.11A48.91,48.91,0,0,0,155,22.7l-11.84,4.49a34,34,0,0,1,.68,3.63c1.41,10.26,0,17.68-4.21,22.08-5.53,5.79-15.6,5.81-21.11,5.31-7.88-.72-21.86-11.7-31.21-20.5l-8.6-9.23-8.6,9.23c-9.34,8.8-23.33,19.78-31.2,20.5-5.51.5-15.58.48-21.12-5.31-4.2-4.4-5.61-11.82-4.21-22.08a36.65,36.65,0,0,1,.68-3.63L2.41,22.7a47.28,47.28,0,0,0-1.32,6.41c-1.95,14.25.6,25.18,7.59,32.48S25.85,71,34.47,71c1.94,0,3.81-.1,5.56-.26,13-1.18,30.4-16.07,38.66-23.85h0c8.26,7.78,25.62,22.67,38.67,23.85,1.74.16,3.61.26,5.55.26,8.62,0,18.68-2,25.8-9.41S158.24,43.36,156.29,29.11Z"/></svg>