<svg id="Layer_1" data-name="Layer 1" xmlns="http://www.w3.org/2000/svg" xmlns:xlink="http://www.w3.org/1999/xlink" viewBox="0 0 128 128"><defs><style>.cls-1{fill:url(#linear-gradient);}.cls-2{opacity:0.9;}.cls-3{fill:#fff;}.cls-4{opacity:0.5;}</style><linearGradient id="linear-gradient" x1="14.75" y1="14.75" x2="117.18" y2="117.18" gradientUnits="userSpaceOnUse"><stop offset="0" stop-color="#9b8dff"/><stop offset="0.25" stop-color="#7d79fd"/><stop offset="0.55" stop-color="#5f65fb"/><stop offset="0.81" stop-color="#4d58f9"/><stop offset="1" stop-color="#4654f9"/></linearGradient></defs><rect class="cls-1" width="128" height="128" rx="32"/><g class="cls-2"><path class="cls-3" d="M44.8,81.6a4.75,4.75,0,0,1-3.39-1.41l-12.8-12.8a4.78,4.78,0,0,1,0-6.78l12.8-12.8a4.79,4.79,0,0,1,6.78,6.78L38.79,64l9.4,9.41A4.8,4.8,0,0,1,44.8,81.6Z"/></g><g class="cls-2"><path class="cls-3" d="M83.2,81.6a4.8,4.8,0,0,1-3.39-8.19L89.21,64l-9.4-9.41a4.79,4.79,0,0,1,6.78-6.78l12.8,12.8a4.78,4.78,0,0,1,0,6.78l-12.8,12.8A4.75,4.75,0,0,1,83.2,81.6Z"/></g><g class="cls-4"><path class="cls-3" d="M57.6,91.2A5.05,5.05,0,0,1,56.28,91,4.81,4.81,0,0,1,53,85.08l12.8-44.8A4.8,4.8,0,1,1,75,42.92l-12.8,44.8A4.81,4.81,0,0,1,57.6,91.2Z"/></g></svg>