<svg id="Layer_1" data-name="Layer 1" xmlns="http://www.w3.org/2000/svg" xmlns:xlink="http://www.w3.org/1999/xlink" viewBox="0 0 128 128"><defs><style>.cls-1{fill:url(#linear-gradient);}.cls-2{fill:#fff;opacity:0.9;}</style><linearGradient id="linear-gradient" x1="14.75" y1="14.75" x2="117.18" y2="117.18" gradientUnits="userSpaceOnUse"><stop offset="0" stop-color="#8cc63f"/><stop offset="0.22" stop-color="#60bc45"/><stop offset="0.46" stop-color="#37b34a"/><stop offset="0.68" stop-color="#19ac4e"/><stop offset="0.87" stop-color="#07a750"/><stop offset="1" stop-color="#00a651"/></linearGradient></defs><rect class="cls-1" width="128" height="128" rx="32"/><path class="cls-2" d="M93.85,49.53l-8.34-9.12A3.21,3.21,0,0,0,81,40.22l-23.93,22a1.6,1.6,0,0,1-2.22,0L47.5,54.82a3.2,3.2,0,0,0-4.53,0l-8.72,8.74a3.21,3.21,0,0,0,0,4.52l20,20.08a1.61,1.61,0,0,0,2.22,0L93.65,54.05A3.21,3.21,0,0,0,93.85,49.53Z"/></svg>