<?xml version="1.0" encoding="utf-8"?>
<!-- Generator: Adobe Illustrator 26.5.0, SVG Export Plug-In . SVG Version: 6.00 Build 0)  -->
<svg version="1.1" id="Layer_1" xmlns="http://www.w3.org/2000/svg" xmlns:xlink="http://www.w3.org/1999/xlink" x="0px" y="0px"
	 viewBox="0 0 48 48" style="enable-background:new 0 0 48 48;" xml:space="preserve">
<style type="text/css">
	.st0{fill:url(#SVGID_1_);}
	.st1{opacity:0.9;fill:#FFFFFF;enable-background:new    ;}
	.st2{opacity:0.5;fill:#FFFFFF;enable-background:new    ;}
</style>
<g id="Layer_1_00000014615966136306345700000001807625912848166300_">
	
		<linearGradient id="SVGID_1_" gradientUnits="userSpaceOnUse" x1="8.61" y1="-754.7202" x2="40.62" y2="-786.7303" gradientTransform="matrix(1 0 0 -1 0 -746.1102)">
		<stop  offset="0" style="stop-color:#7F99FF"/>
		<stop  offset="0.25" style="stop-color:#618EFF"/>
		<stop  offset="0.55" style="stop-color:#4382FF"/>
		<stop  offset="0.81" style="stop-color:#317BFF"/>
		<stop  offset="1" style="stop-color:#2A79FF"/>
	</linearGradient>
	<path class="st0" d="M14,4h20c5.5,0,10,4.5,10,10v20c0,5.5-4.5,10-10,10H14C8.5,44,4,39.5,4,34V14C4,8.5,8.5,4,14,4z"/>
</g>
<g>
	<path class="st1" d="M19.9,32.7h8.2c0.4,0,0.6-0.5,0.6-1.2v-3.6c0-2.6-1-4.7-2.4-4.7h-4.7c-1.3,0-2.4,2.1-2.4,4.7v3.6
		C19.3,32.1,19.6,32.7,19.9,32.7z"/>
	<circle class="st1" cx="24" cy="17.9" r="2.6"/>
	<path class="st2" d="M18,31.6c0,0.5,0.1,0.9,0.2,1.1H14c-0.3,0-0.5-0.5-0.5-0.9v-2.8c0-2.2,0.9-3.8,1.9-3.8h3.1
		C18.3,26,18.1,27,18.1,28L18,31.6L18,31.6z"/>
	<circle class="st2" cx="17.4" cy="20.6" r="2.1"/>
	<path class="st2" d="M34.4,28.8v2.8c0,0.5-0.2,0.9-0.5,0.9h-4.2c0.2-0.4,0.2-0.7,0.2-1.1v-3.6c0-1.1-0.2-2.1-0.5-2.9h3
		C33.6,25,34.4,26.6,34.4,28.8z"/>
	<circle class="st2" cx="30.6" cy="20.6" r="2.1"/>
</g>
</svg>
