<?xml version="1.0" encoding="UTF-8"?><svg id="a" xmlns="http://www.w3.org/2000/svg" width="128" height="128" xmlns:xlink="http://www.w3.org/1999/xlink" viewBox="0 0 128 128"><defs><linearGradient id="b" x1="14.75" y1="14.75" x2="117.1806" y2="117.1806" gradientUnits="userSpaceOnUse"><stop offset="0" stop-color="#a26aff"/><stop offset=".0606" stop-color="#9f60ff"/><stop offset=".3512" stop-color="#9636ff"/><stop offset=".6147" stop-color="#9018ff"/><stop offset=".8398" stop-color="#8c06ff"/><stop offset="1" stop-color="#8b00ff"/></linearGradient></defs><rect width="128" height="128" rx="32" ry="32" fill="url(#b)"/><path d="M54.1539,54.1538c0-5.438,4.4084-9.8461,9.8461-9.8461s9.8461,4.4081,9.8461,9.8461-4.4084,9.8462-9.8461,9.8462-9.8461-4.4084-9.8461-9.8462Zm4.9231,19.6923c-4.3726,0-8.0793,2.85-9.3639,6.7941-.4948,1.5193,.7966,3.052,2.3946,3.052h23.7848c1.598,0,2.8894-1.5327,2.3946-3.052-1.2846-3.9441-4.9913-6.7941-9.3639-6.7941h-9.8461Z" fill="#fff"/><path d="M32,54.1538v-13.1282c0-4.9776,4.0481-9.0256,9.0256-9.0256h13.1282c1.3589,0,2.4615,1.1025,2.4615,2.4615s-1.1025,2.4615-2.4615,2.4615h-13.1282c-2.2628,0-4.1025,1.8398-4.1025,4.1026v13.1282c0,1.359-1.1026,2.4615-2.4615,2.4615s-2.4615-1.1025-2.4615-2.4615Zm54.9744-22.1538h-13.1282c-1.3589,0-2.4615,1.1025-2.4615,2.4615s1.1025,2.4615,2.4615,2.4615h13.1282c2.2628,0,4.1025,1.8398,4.1025,4.1026v13.1282c0,1.359,1.1026,2.4615,2.4615,2.4615s2.4615-1.1025,2.4615-2.4615v-13.1282c0-4.9776-4.0481-9.0256-9.0256-9.0256Zm-32.8205,59.0769h-13.1282c-2.2628,0-4.1025-1.8397-4.1025-4.1025v-13.1282c0-1.3589-1.1026-2.4615-2.4615-2.4615s-2.4615,1.1026-2.4615,2.4615v13.1282c0,4.9775,4.0481,9.0256,9.0256,9.0256h13.1282c1.3589,0,2.4615-1.1026,2.4615-2.4615s-1.1025-2.4615-2.4615-2.4615Zm39.3846-19.6923c-1.3589,0-2.4615,1.1026-2.4615,2.4615v13.1282c0,2.2628-1.8397,4.1025-4.1025,4.1025h-13.1282c-1.3589,0-2.4615,1.1025-2.4615,2.4615s1.1025,2.4615,2.4615,2.4615h13.1282c4.9775,0,9.0256-4.0481,9.0256-9.0256v-13.1282c0-1.3589-1.1025-2.4615-2.4615-2.4615Z" fill="#fff" opacity=".5"/></svg>