<?xml version="1.0" encoding="utf-8"?>
<!-- Generator: Adobe Illustrator 26.1.0, SVG Export Plug-In . SVG Version: 6.00 Build 0)  -->
<svg version="1.1" id="Layer_1" xmlns="http://www.w3.org/2000/svg" xmlns:xlink="http://www.w3.org/1999/xlink" x="0px" y="0px"
	 viewBox="0 0 949.7 245.3" style="enable-background:new 0 0 949.7 245.3;" xml:space="preserve">
<style type="text/css">
	.st0{fill:#ED1C24;}
</style>
<path class="st0" d="M880.8,147V85.5h-20.6V65.4h20.6V29.4h22v35.9h28.7v20.1h-28.7v59.9c0,13.2,5.5,19.2,15.8,19.2
	c4.1,0,6.9-0.5,10.1-1.9l7.7,18.9c-5,2.2-10.3,3.1-17.7,3.1C894,184.6,880.8,171,880.8,147z M738.8,124c0-33.3,23-62.5,57.5-62.5
	c35,0,57.5,24.7,57.5,62.5c0,1.7-0.2,4.1-0.2,4.1h-92.7c1.2,24.9,19.2,38.3,37.4,38.3c12.9,0,25.9-5.3,32.1-20.1l19.6,8.1
	c-6.9,16.8-24.2,32.1-51.2,32.1C762.8,186.5,738.8,159.5,738.8,124L738.8,124z M795.8,81.6c-16.3,0-29.2,11-33.5,28.3h68
	C829.6,99.6,821,81.6,795.8,81.6L795.8,81.6z M630.8,166.4h-1v16.3h-21.1V11.2h22v54.1l-1,16.3h1c6.7-10.8,21.3-20.1,40-20.1
	c29.7,0,55.8,26.6,55.8,62.5s-26.1,62.5-55.8,62.5C652.1,186.5,637.5,177.2,630.8,166.4L630.8,166.4z M704.6,124
	c0-26.3-17.7-42.4-37.4-42.4s-37.4,15.6-37.4,42.4s17.7,42.4,37.4,42.4C686.9,166.4,704.6,150.4,704.6,124z M481.9,147.2
	c0-26.6,23.9-40.9,51.5-40.9c15.8,0,27.3,4.5,31.8,7.2v-3.4c0-17.7-14.1-28.5-30.7-28.5c-12.2,0-23.9,6-28,17L486.4,90
	c4.1-10.8,18.2-28.5,47.7-28.5c28.7,0,52.2,17.2,52.2,50.3v70.9h-21.1v-16.3h-1c-6.5,9.8-18.4,20.1-38.6,20.1
	C501.8,186.5,481.9,171.7,481.9,147.2L481.9,147.2z M565.2,132.2c0,0-9.3-7.7-28-7.7c-23.2,0-32.3,12.5-32.3,23.2
	c0,12.5,12.9,18.7,24.4,18.7C546.8,166.4,565.2,151.3,565.2,132.2z M382,65.4l-1,16.3h1c6.2-10.8,21.1-20.1,37.1-20.1
	c29.9,0,44.8,20.4,44.8,49.3v71.8h-22v-68.5c0-24.4-12.2-32.6-29-32.6c-19.2,0-30.9,18.2-30.9,36.2v64.9h-22V11.2h22L382,65.4z
	 M247.7,166.4h-1l1,16.3v51.7h-22V65.4h21.1v16.3h1c6.7-10.8,21.3-20.1,40-20.1c29.7,0,55.8,26.6,55.8,62.5s-26.1,62.5-55.8,62.5
	C269,186.5,254.4,177.2,247.7,166.4z M321.5,124c0-26.3-17.7-42.4-37.4-42.4c-19.6,0-37.4,15.6-37.4,42.4s17.7,42.4,37.4,42.4
	C303.8,166.4,321.5,150.4,321.5,124z M180.2,182.7h22V11.2h-22V182.7z M78,11.2L13.3,182.7h24.4l16.8-46.5h72.1l16.5,46.5h24.4
	L102.9,11.2H78z M89.9,38.3h1l28,77.3h-57L89.9,38.3z"/>
</svg>
