<?xml version="1.0" encoding="utf-8"?>
<!-- Generator: Adobe Illustrator 26.1.0, SVG Export Plug-In . SVG Version: 6.00 Build 0)  -->
<svg version="1.1" id="Layer_1" xmlns="http://www.w3.org/2000/svg" xmlns:xlink="http://www.w3.org/1999/xlink" x="0px" y="0px"
	 viewBox="0 0 938.2 142.9" style="enable-background:new 0 0 938.2 142.9;" xml:space="preserve">
<style type="text/css">
	.st0{fill:#CC092F;}
	.st1{fill:#FFFFFF;}
</style>
<path d="M921.6,42.9c-4.1,0-7.4-3.3-7.4-7.4s3.4-7.4,7.4-7.4c4.1,0,7.4,3.4,7.4,7.4S925.7,42.9,921.6,42.9 M921.6,26.3
	c-5.1,0-9.3,4.2-9.3,9.3s4.2,9.3,9.3,9.3c5.1,0,9.3-4.2,9.3-9.3S926.7,26.3,921.6,26.3"/>
<path id="a" d="M376.1,97.9c-14.9,0-27-12.1-27-27c0-14.9,12.1-27,27-27c14.9,0,27,12.1,27,27C403.2,85.8,391.1,97.9,376.1,97.9
	 M376.1,26.4c-24.5,0-44.4,19.9-44.4,44.4c0,24.5,19.9,44.4,44.4,44.4c24.5,0,44.4-19.9,44.4-44.4C420.6,46.3,400.7,26.4,376.1,26.4
	"/>
<path d="M686.8,83.9c-4.6,8.3-13.5,13.9-23.6,13.9c-14.9,0-27-12.1-27-27c0-14.9,12.1-27,27-27c10.1,0,18.9,5.5,23.5,13.7L699.3,45
	c-8.1-11.2-21.2-18.6-36.1-18.6c-24.5,0-44.4,19.9-44.4,44.4c0,24.5,19.9,44.4,44.4,44.4c15,0,28.2-7.4,36.3-18.8L686.8,83.9z"/>
<g transform="translate(98.7182)">
	<path id="a_00000129195365582295960910000007064476970559454856_" d="M756.7,97.9c-14.9,0-27-12.1-27-27c0-14.9,12.1-27,27-27
		c14.9,0,27,12.1,27,27C783.7,85.8,771.6,97.9,756.7,97.9 M756.7,26.4c-24.5,0-44.4,19.9-44.4,44.4c0,24.5,19.9,44.4,44.4,44.4
		c24.5,0,44.4-19.9,44.4-44.4C801.2,46.3,781.3,26.4,756.7,26.4"/>
</g>
<g>
	<path d="M924.7,35.1l-2,0l0-2.4h2c0.7,0,1.3,0.4,1.3,1.2C926,34.6,925.4,35.1,924.7,35.1 M927.9,33.9c0-1.6-1.2-2.8-3-2.8l-4.1,0.1
		l0.1,8.7h1.9l0-3.1h1.3l1.8,3.1l2.1,0l-2-3.3C926.9,36.3,927.9,35.4,927.9,33.9 M209,97.2h-23.1V43.9h22.5c6.1,0,9.9,3.9,9.9,9.2
		s-3.8,9.1-9.9,9.1h-25.7v15.4H209c7.1,0,10.9,4.5,10.9,9.9C219.8,93.5,215.8,97.2,209,97.2 M222,69.3c8-1.6,14.5-8.7,14.5-19.3
		c0-11.2-8.2-21.5-24.3-21.5h-44.4v84.3h45.7c16,0,24.5-10.1,24.5-22.7C238.2,79.4,231,70.7,222,69.3 M290.7,67h-19.4v15.8H285
		l16.6,30h20.6l-19-32.1c9.1-2.1,18.5-10.1,18.5-25 M321.6,55.6c0-15.7-10.7-27.2-28.3-27.2h-39.4v84.3h17.9V44.3h18.8
		c7.2,0,12.6,4.3,12.6,11.4S297.9,67,290.7,67 M458.1,82.7l13.1-36.3l13.1,36.3H458.1z M460,28.5l-32.6,84.3h20.5l5.3-14.3h36.1
		l5.2,14.3H515l-32.5-84.3H460z M563.7,97h-15.3V44.3h15.3c17.3,0,26.4,11.5,26.4,26.4C590.1,85,580.4,97,563.7,97 M563.7,28.5
		h-33.2v84.3h33.2c26.4,0,44.7-16.7,44.7-42.1S590.1,28.5,563.7,28.5 M880.3,28.4l-22.1,35.7l-22.1-35.7h-19.8v84.3h17.9V57.7
		L853.5,87c2.2,3.4,7.1,3.4,9.3,0l19.3-29.4v55.1h17.9V28.4L880.3,28.4z"/>
	<ellipse class="st0" cx="72.8" cy="71.4" rx="62.6" ry="62.6"/>
</g>
<path class="st1" d="M125.6,88.4c-7.2-2.9-13.7-1.9-20.3,2.1c0,0-2.4,1.5-3.1,1.9c-3.1,1.9-5.9,3.7-8.7,3.7c-2.6,0-5.3-0.7-6.4-5.8
	c-1.7-8-5.9-27.6-7.7-37.4c-1.1-5.7-1.7-8.8-2.3-10.9c-1.1-3.7-3.1-5.7-5.9-6c0,0-0.4-0.1-0.8-0.1c-0.4,0-0.8,0.1-0.8,0.1
	c-2.8,0.3-4.7,2.3-5.8,6c-0.6,2.1-1.2,5.2-2.3,10.9c-1.8,9.7-6,29.4-7.7,37.4c-1.1,5.1-3.7,5.8-6.4,5.8c-2.8,0-5.7-1.8-8.7-3.7
	c-0.7-0.5-3.1-1.9-3.1-1.9c-6.6-4-13.1-4.9-20.3-2.1c-1.5,0.6-3.1,1.3-4.5,2c1,3.1,2.2,6.2,3.7,9c1.6-0.8,3.2-1.6,4.9-2.1
	c2.4-0.7,5-0.8,7.4,0.1c2.4,0.8,4.5,2.2,6.6,3.5c3.9,2.5,8.4,5.3,14.1,5.3c8.4,0,14.3-5,16.2-13.8c1.5-6.8,4.7-22,6.8-32.5
	c0,0,5.3,25.7,6.8,32.5c1.9,8.8,7.8,13.8,16.2,13.8c5.7,0,10.2-2.8,14.1-5.3c2.1-1.3,4.2-2.7,6.6-3.5c2.4-0.8,4.9-0.8,7.4-0.1
	c1.7,0.5,3.4,1.3,4.9,2.1c1.4-2.9,2.7-5.9,3.7-9C128.6,89.7,127.1,89,125.6,88.4"/>
</svg>
