<?xml version="1.0" encoding="utf-8"?>
<!-- Generator: Adobe Illustrator 26.1.0, SVG Export Plug-In . SVG Version: 6.00 Build 0)  -->
<svg version="1.1" id="Layer_1" xmlns="http://www.w3.org/2000/svg" xmlns:xlink="http://www.w3.org/1999/xlink" x="0px" y="0px"
	 viewBox="0 0 439.5 560.1" style="enable-background:new 0 0 439.5 560.1;" xml:space="preserve">
<style type="text/css">
	.st0{fill:#E82127;}
</style>
<g>
	<path class="st0" d="M365.9,514.2v32.4h10.4v-21.6h37.8v21.6h10.4v-32.4L365.9,514.2 M375.1,503.8h40c5.6-1.1,9.7-6,10.8-10.7
		h-61.7C365.4,497.8,369.6,502.7,375.1,503.8 M334.4,546.7c5.2-2.2,8.1-6.1,9.1-10.6h-46.6l0-43.1l-10.5,0v53.6L334.4,546.7
		 M208.7,503.6h36.9c5.6-1.6,10.2-5.9,11.4-10.6h-58.7v31.7h48v11.1l-37.7,0c-5.9,1.6-10.9,5.6-13.4,10.8l3.1-0.1h58.3v-32.5h-48
		L208.7,503.6 M117.6,503.7h40c5.6-1.1,9.7-6,10.9-10.7h-61.7C107.9,497.7,112,502.6,117.6,503.7 M117.6,524.9h40
		c5.6-1.1,9.7-6,10.9-10.7h-61.7C107.9,518.9,112,523.8,117.6,524.9 M117.6,546.7h40c5.6-1.1,9.7-6,10.9-10.7h-61.7
		C107.9,540.7,112,545.6,117.6,546.7 M13.6,493.1c1.2,4.7,5.3,9.5,10.8,10.7h16.8l0.9,0.3v42.5h10.5v-42.5l1-0.3h16.8
		c5.6-1.5,9.6-6,10.8-10.7V493H13.6V493.1"/>
	<g>
		<path class="st0" d="M219.8,387l52.5-295.2c50,0,65.8,5.5,68.1,27.9c0,0,33.6-12.5,50.5-37.9c-66.1-30.6-132.4-32-132.4-32
			l-38.7,47.2l0.1,0L181,49.7c0,0-66.4,1.4-132.4,32c16.9,25.4,50.5,37.9,50.5,37.9c2.3-22.4,18.1-27.9,67.8-27.9L219.8,387"/>
		<path class="st0" d="M219.7,36.1c53.4-0.4,114.5,8.3,177.1,35.5c8.4-15.1,10.5-21.7,10.5-21.7C339,22.9,274.9,13.6,219.7,13.4
			C164.6,13.6,100.5,22.9,32.1,50c0,0,3.1,8.2,10.5,21.7C105.2,44.4,166.3,35.7,219.7,36.1L219.7,36.1"/>
	</g>
</g>
</svg>
