<?xml version="1.0" encoding="utf-8"?>
<!-- Generator: Adobe Illustrator 26.1.0, SVG Export Plug-In . SVG Version: 6.00 Build 0)  -->
<svg version="1.1" id="layer" xmlns="http://www.w3.org/2000/svg" xmlns:xlink="http://www.w3.org/1999/xlink" x="0px" y="0px"
	 viewBox="0 0 652 132" style="enable-background:new 0 0 652 132;" xml:space="preserve">
<style type="text/css">
	.st0{fill:#A3A7AA;}
	.st1{fill:#6FD44D;}
	.st2{fill:#003970;}
</style>
<g>
	<path class="st0" d="M76.5,122.1c6,0,10.6-4.9,10.6-10.6V21.1c0-6-4.6-10.6-10.6-10.6s-10.6,4.9-10.6,10.6v90.4
		C65.9,117.1,70.5,122.1,76.5,122.1 M116,104.4c6,0,10.6-4.9,10.6-10.6V38.4c0-6-4.9-10.6-10.6-10.6c-6,0-10.6,4.9-10.6,10.6v55.4
		C105.8,99.5,110.4,104.4,116,104.4 M36.6,104.4c6,0,10.6-4.9,10.6-10.6V38.4c0-6-4.9-10.6-10.6-10.6S26,32.7,26,38.4v55.4
		C26.4,99.5,31.3,104.4,36.6,104.4"/>
	<path class="st1" d="M76.5,122.4c3.9,0,7.1-2.5,8.8-5.6l39.9-74.1c1.4-2.5,1.8-5.3,0.7-8.1c-0.7-2.8-2.5-4.9-5.3-6.4
		c-1.8-1.1-3.5-1.4-5.3-1.4c-3.9,0-7.1,2.5-8.8,5.6L67,106.5c-2.8,5.3-0.7,11.6,4.2,14.5C72.9,122.1,74.7,122.8,76.5,122.4"/>
	<path class="st2" d="M36.9,105.1c3.9,0,7.1-2.5,8.8-5.6l40.2-74.1c1.4-2.5,1.8-5.3,0.7-8.1c-0.7-2.8-2.5-4.9-5.3-6.4
		c-1.8-1.1-3.5-1.4-5.3-1.4c-3.9,0-7.1,2.5-8.8,5.6L27.3,89.2c-2.8,5.3-0.7,11.6,4.2,14.5C33.1,104.8,35.2,105.1,36.9,105.1
		 M448.1,37h-19.8v73.1c0,1.4-1.1,2.5-2.5,2.5h-16.2c-1.4,0-2.5-1.1-2.5-2.5V37H387c-1.4,0-2.5-1.1-2.5-2.5V21.8
		c0-1.4,1.1-2.5,2.5-2.5h60.7c1.4,0,2.5,1.1,2.5,2.5v12.7C450.6,36.3,449.2,37,448.1,37 M354.9,49.4c0,7.1-1.8,11.6-14.5,11.6h-10.9
		V36.6h12c10.9,0,13.8,5.6,13.8,10.9C354.9,47.6,354.9,49.4,354.9,49.4z M378.6,109.7l-18.7-35.3c8.8-3.5,15.9-11.6,15.9-25.1V48
		c0-22.2-15.9-28.2-27.5-28.2h-37.4c-1.4,0-2.5,1.1-2.5,2.5v88.2c0,1.4,1.1,2.5,2.5,2.5h16.2c1.4,0,2.5-1.1,2.5-2.5V78.7h10.2
		l16.6,31.8c0.7,1.4,1.1,2.5,2.5,2.5h18.7c1.4,0,1.8-0.7,1.8-1.4C378.9,110.8,378.6,110.4,378.6,109.7L378.6,109.7z M291.4,36.3
		c1.4,0,2.5-1.1,2.5-2.5V22.2c0-1.8-0.7-2.1-2.5-2.5h-27.9H260h-20.1c-1.4,0-2.5,1.1-2.5,2.5v88.2c0,1.4,1.1,2.5,2.5,2.5H260h6h25.4
		c1.8-0.4,2.5-1.1,2.5-2.5V98.8c0-1.4-1.1-2.5-2.5-2.5H261c-1.4,0-2.5-1.1-2.5-2.5v-6v-6.7V74h31.8c1.4,0,2.5-1.1,2.5-2.5v-12
		c0-1.4-1.1-2.5-2.5-2.5h-31.8v-5.3V38.6c0-1.4,1.1-2.5,2.5-2.5C261.1,36.3,291.4,36.3,291.4,36.3z M515.2,36.3
		c1.4,0,2.5-1.1,2.5-2.5V22.2c0-1.8-0.7-2.1-2.5-2.5h-27.9h-3.5h-20.1c-1.4,0-2.5,1.1-2.5,2.5v88.2c0,1.4,1.1,2.5,2.5,2.5h19.8h6
		h25.4c1.8-0.4,2.5-1.1,2.5-2.5V98.8c0-1.4-1.1-2.5-2.5-2.5h-30c-1.4,0-2.5-1.1-2.5-2.5v-6v-6.7V74h31.8c1.4,0,2.5-1.1,2.5-2.5v-12
		c0-1.4-1.1-2.5-2.5-2.5h-31.8v-5.3V38.6c0-1.4,1.1-2.5,2.5-2.5C484.8,36.3,515.2,36.3,515.2,36.3z M228.2,21.5
		c0-1.4-0.7-2.1-2.1-2.1h-17.3c-1.1,0-2.1,1.1-2.5,2.1l-15.5,72.4c-0.4,1.4-0.7,1.8-1.8,1.8s-1.4-0.4-1.8-1.8l-14.5-72
		c-0.4-1.4-1.1-2.1-2.5-2.1h-17.1c-1.1,0-2.1,0.7-2.1,2.1c0,0.4,0,0.4,0,0.7c0,0,20.1,84.4,20.1,85.1c0.4,1.4,1.8,5.6,7.4,5.6h8.1
		h6.7l0,0h7.8c5.6,0,7.1-3.9,7.4-5.6l0,0c3.9-15.9,20.1-85.1,20.1-85.1C228.2,21.8,228.2,21.8,228.2,21.5 M605.5,112.6h-19.4
		c-1.8,0-2.5-0.4-3.2-1.8L567,84.3l-14.5,25.8c-0.7,1.4-1.8,2.5-3.2,2.5h-18.4c-1.4,0-1.8-0.7-1.8-1.8c0-0.4,0-0.7,0.4-0.7
		l25.8-45.2l-26.1-42.7c0-0.4-0.4-0.4-0.4-0.7c0-0.7,0.7-1.8,1.8-1.8h19.8c1.4,0,2.5,1.4,3.2,2.5l15.2,25.1l13.8-25.1
		c0.7-1.1,1.8-2.5,3.2-2.5h18.4c1.1,0,1.8,0.7,1.8,1.8c0,0.4,0,0.4-0.4,0.7L580.5,66l26.5,43.8c0.4,0.4,0.4,0.7,0.4,1.4
		C606.9,112.2,606.6,112.6,605.5,112.6 M618.6,24h-2.5v2.8h2.5c1.1,0,2.1-0.7,2.1-1.4C620.4,24.7,619.6,24,618.6,24 M619.3,27.8
		l2.5,3.2h-1.4l-2.5-3.2h-2.1V31h-1.1v-8.1h3.5c1.8,0,3.2,1.1,3.2,2.5C621.4,26.8,620.7,27.5,619.3,27.8 M617.9,19.7
		c-4.2,0-7.4,3.5-7.4,7.4c0,4.2,3.2,7.4,7.4,7.4c4.2,0,7.4-3.5,7.4-7.4S622.1,19.7,617.9,19.7 M617.9,35.3c-4.6,0-8.1-3.5-8.1-8.1
		s3.5-8.1,8.1-8.1c4.6,0,8.1,3.5,8.1,8.1C626,31.7,622.5,35.3,617.9,35.3"/>
</g>
</svg>
