<?xml version="1.0" encoding="utf-8"?>
<!-- Generator: Adobe Illustrator 19.0.0, SVG Export Plug-In . SVG Version: 6.00 Build 0)  -->
<svg version="1.1" id="layer" xmlns="http://www.w3.org/2000/svg" xmlns:xlink="http://www.w3.org/1999/xlink" x="0px" y="0px"
	 viewBox="-153 -46 652 652" style="enable-background:new -153 -46 652 652;" xml:space="preserve">
<style type="text/css">
	.st0{fill:#A3A7AA;}
	.st1{fill:#6FD44D;}
	.st2{fill:#003970;}
</style>
<path class="st0" d="M-80.5,331.1c6,0,10.6-4.9,10.6-10.6v-90.4c0-6-4.6-10.6-10.6-10.6c-6,0-10.6,4.9-10.6,10.6v90.4
	C-91.1,326.1-86.5,331.1-80.5,331.1 M-41,313.4c6,0,10.6-4.9,10.6-10.6v-55.4c0-6-4.9-10.6-10.6-10.6c-6,0-10.6,4.9-10.6,10.6v55.4
	C-51.2,308.5-46.6,313.4-41,313.4 M-120.4,313.4c6,0,10.6-4.9,10.6-10.6v-55.4c0-6-4.9-10.6-10.6-10.6s-10.6,4.9-10.6,10.6v55.4
	C-130.6,308.5-125.7,313.4-120.4,313.4"/>
<path class="st1" d="M-80.5,331.4c3.9,0,7.1-2.5,8.8-5.6l39.9-74.1c1.4-2.5,1.8-5.3,0.7-8.1c-0.7-2.8-2.5-4.9-5.3-6.4
	c-1.8-1.1-3.5-1.4-5.3-1.4c-3.9,0-7.1,2.5-8.8,5.6l-39.5,74.1c-2.8,5.3-0.7,11.6,4.2,14.5C-84.1,331.1-82.3,331.8-80.5,331.4"/>
<path class="st2" d="M-120.1,314.1c3.9,0,7.1-2.5,8.8-5.6l40.2-74.1c1.4-2.5,1.8-5.3,0.7-8.1c-0.7-2.8-2.5-4.9-5.3-6.4
	c-1.8-1.1-3.5-1.4-5.3-1.4c-3.9,0-7.1,2.5-8.8,5.6l-39.9,74.1c-2.8,5.3-0.7,11.6,4.2,14.5C-123.9,313.8-121.8,314.1-120.1,314.1
	 M291.1,246h-19.8v73.1c0,1.4-1.1,2.5-2.5,2.5h-16.2c-1.4,0-2.5-1.1-2.5-2.5V246h-20.1c-1.4,0-2.5-1.1-2.5-2.5v-12.7
	c0-1.4,1.1-2.5,2.5-2.5h60.7c1.4,0,2.5,1.1,2.5,2.5v12.7C293.6,245.3,292.2,246,291.1,246 M197.9,258.4c0,7.1-1.8,11.6-14.5,11.6
	h-10.9v-24.4h12c10.9,0,13.8,5.6,13.8,10.9C197.9,256.6,197.9,258.4,197.9,258.4z M221.6,318.7l-18.7-35.3
	c8.8-3.5,15.9-11.6,15.9-25.1V257c0-22.2-15.9-28.2-27.5-28.2h-37.4c-1.4,0-2.5,1.1-2.5,2.5v88.2c0,1.4,1.1,2.5,2.5,2.5h16.2
	c1.4,0,2.5-1.1,2.5-2.5v-31.8h10.2l16.6,31.8c0.7,1.4,1.1,2.5,2.5,2.5h18.7c1.4,0,1.8-0.7,1.8-1.4
	C221.9,319.8,221.6,319.4,221.6,318.7L221.6,318.7z M134.4,245.3c1.4,0,2.5-1.1,2.5-2.5v-11.6c0-1.8-0.7-2.1-2.5-2.5h-27.9H103H82.9
	c-1.4,0-2.5,1.1-2.5,2.5v88.2c0,1.4,1.1,2.5,2.5,2.5H103h6h25.4c1.8-0.4,2.5-1.1,2.5-2.5v-11.6c0-1.4-1.1-2.5-2.5-2.5h-30.4
	c-1.4,0-2.5-1.1-2.5-2.5v-6v-6.7v-7.1h31.8c1.4,0,2.5-1.1,2.5-2.5v-12c0-1.4-1.1-2.5-2.5-2.5h-31.8v-5.3v-13.1
	c0-1.4,1.1-2.5,2.5-2.5C104.1,245.3,134.4,245.3,134.4,245.3z M358.2,245.3c1.4,0,2.5-1.1,2.5-2.5v-11.6c0-1.8-0.7-2.1-2.5-2.5
	h-27.9h-3.5h-20.1c-1.4,0-2.5,1.1-2.5,2.5v88.2c0,1.4,1.1,2.5,2.5,2.5h19.8h6h25.4c1.8-0.4,2.5-1.1,2.5-2.5v-11.6
	c0-1.4-1.1-2.5-2.5-2.5h-30c-1.4,0-2.5-1.1-2.5-2.5v-6v-6.7v-7.1h31.8c1.4,0,2.5-1.1,2.5-2.5v-12c0-1.4-1.1-2.5-2.5-2.5h-31.8v-5.3
	v-13.1c0-1.4,1.1-2.5,2.5-2.5C327.8,245.3,358.2,245.3,358.2,245.3z M71.2,230.5c0-1.4-0.7-2.1-2.1-2.1H51.8c-1.1,0-2.1,1.1-2.5,2.1
	l-15.5,72.4c-0.4,1.4-0.7,1.8-1.8,1.8c-1.1,0-1.4-0.4-1.8-1.8l-14.5-72c-0.4-1.4-1.1-2.1-2.5-2.1H-3.9c-1.1,0-2.1,0.7-2.1,2.1
	c0,0.4,0,0.4,0,0.7c0,0,20.1,84.4,20.1,85.1c0.4,1.4,1.8,5.6,7.4,5.6h8.1h6.7l0,0h7.8c5.6,0,7.1-3.9,7.4-5.6l0,0
	c3.9-15.9,20.1-85.1,20.1-85.1C71.2,230.8,71.2,230.8,71.2,230.5 M448.5,321.6h-19.4c-1.8,0-2.5-0.4-3.2-1.8l-15.9-26.5l-14.5,25.8
	c-0.7,1.4-1.8,2.5-3.2,2.5h-18.4c-1.4,0-1.8-0.7-1.8-1.8c0-0.4,0-0.7,0.4-0.7l25.8-45.2l-26.1-42.7c0-0.4-0.4-0.4-0.4-0.7
	c0-0.7,0.7-1.8,1.8-1.8h19.8c1.4,0,2.5,1.4,3.2,2.5l15.2,25.1l13.8-25.1c0.7-1.1,1.8-2.5,3.2-2.5h18.4c1.1,0,1.8,0.7,1.8,1.8
	c0,0.4,0,0.4-0.4,0.7L423.5,275l26.5,43.8c0.4,0.4,0.4,0.7,0.4,1.4C449.9,321.2,449.6,321.6,448.5,321.6 M461.6,233h-2.5v2.8h2.5
	c1.1,0,2.1-0.7,2.1-1.4C463.4,233.7,462.6,233,461.6,233 M462.3,236.8l2.5,3.2h-1.4l-2.5-3.2h-2.1v3.2h-1.1v-8.1h3.5
	c1.8,0,3.2,1.1,3.2,2.5C464.4,235.8,463.7,236.5,462.3,236.8 M460.9,228.7c-4.2,0-7.4,3.5-7.4,7.4c0,4.2,3.2,7.4,7.4,7.4
	c4.2,0,7.4-3.5,7.4-7.4S465.1,228.7,460.9,228.7 M460.9,244.3c-4.6,0-8.1-3.5-8.1-8.1c0-4.6,3.5-8.1,8.1-8.1c4.6,0,8.1,3.5,8.1,8.1
	C469,240.7,465.5,244.3,460.9,244.3"/>
</svg>
