<?xml version="1.0" encoding="utf-8"?>
<!-- Generator: Adobe Illustrator 26.1.0, SVG Export Plug-In . SVG Version: 6.00 Build 0)  -->
<svg version="1.1" id="Layer_1" xmlns="http://www.w3.org/2000/svg" xmlns:xlink="http://www.w3.org/1999/xlink" x="0px" y="0px"
	 viewBox="0 0 512 512" style="enable-background:new 0 0 512 512;" xml:space="preserve">
<style type="text/css">
	.st0{fill:url(#SVGID_1_);}
	.st1{fill:url(#SVGID_00000121973074514923559990000015994370017382900139_);}
	.st2{fill:url(#SVGID_00000020385009445684384590000003682494433081901185_);}
	.st3{fill:url(#SVGID_00000054262944120348365420000012691935289966064525_);}
	.st4{fill:url(#SVGID_00000023278582473327360060000005197039341924279743_);}
	.st5{fill:url(#SVGID_00000133530079505229222850000011814814296407940771_);}
	.st6{fill:url(#SVGID_00000088843932524228346670000005323345561092083621_);}
	.st7{fill:url(#SVGID_00000145028290511640475490000007067645090810691517_);}
	.st8{fill:#FFFFFF;}
</style>
<g>
	
		<linearGradient id="SVGID_1_" gradientUnits="userSpaceOnUse" x1="-2008.1097" y1="645.3901" x2="-1964.8082" y2="645.3901" gradientTransform="matrix(8.0002 0 0 -8.0002 16107.498 5427.1943)">
		<stop  offset="0" style="stop-color:#06A1FF"/>
		<stop  offset="1" style="stop-color:#015ED2"/>
	</linearGradient>
	<path class="st0" d="M385.8,424.4l-50.7-92c-6-10.9-19.7-14.8-30.6-8.8l0,0l-39.3,21.7c-1.8,0.9-3.8,1.2-5.7,0.7s-3.6-1.9-4.5-3.6
		l-79.7-144.5c-2-3.7-0.7-8.2,2.9-10.2l39.4-21.7c10.9-6,14.8-19.7,8.8-30.6l-50.7-92c-2.9-5.3-7.7-9.1-13.5-10.8s-11.8-1-17.1,1.9
		l-52.5,29c-47.1,26-64.2,85.4-38.3,132.5L192,445.7c17.7,32.2,51.2,50.5,85.6,50.5c15.9,0,32.1-3.9,46.9-12.1l52.5-28.9
		c5.3-2.9,9.1-7.7,10.8-13.5C389.4,435.8,388.7,429.7,385.8,424.4L385.8,424.4z"/>
	
		<linearGradient id="SVGID_00000047745685605058704630000000854786804084922044_" gradientUnits="userSpaceOnUse" x1="-2004.3635" y1="661.2352" x2="-1998.6091" y2="661.2352" gradientTransform="matrix(8.0002 0 0 -8.0002 16107.498 5427.1943)">
		<stop  offset="0" style="stop-color:#C8E5F7"/>
		<stop  offset="1" style="stop-color:#7FC8F2"/>
	</linearGradient>
	<path style="fill:url(#SVGID_00000047745685605058704630000000854786804084922044_);" d="M87.1,185.4c-2.6,0-5.3-1.4-6.6-3.8
		c-18-32.6-6.1-73.7,26.5-91.7c3.7-2,8.2-0.7,10.2,2.9c2,3.7,0.7,8.2-2.9,10.2c-25.3,14-34.6,46-20.6,71.4c2,3.7,0.7,8.2-3,10.2
		C89.6,185.1,88.3,185.4,87.1,185.4z"/>
	
		<linearGradient id="SVGID_00000027578353385519864440000004942675281284695732_" gradientUnits="userSpaceOnUse" x1="-1981.4432" y1="663.2211" x2="-1954.66" y2="663.2211" gradientTransform="matrix(8.0002 0 0 -8.0002 16107.498 5427.1943)">
		<stop  offset="0" style="stop-color:#FFB850"/>
		<stop  offset="1" style="stop-color:#FF8901"/>
	</linearGradient>
	<path style="fill:url(#SVGID_00000027578353385519864440000004942675281284695732_);" d="M451.6,62.2C435.9,39,412,23.1,384.3,17.8
		s-55.7,0.5-79,16.2c-40.3,27.3-56.6,77.7-40,123.1l-9.4,30.5c-0.7,2.2-0.3,4.5,0.9,6.4c1.3,1.9,3.4,3.1,5.6,3.3l31.8,2.5
		c19.9,17.8,44.8,26.9,70.1,26.9c20.4,0,41.1-6,59.2-18.3c23.3-15.8,39.1-39.7,44.4-67.3C473.2,113.5,467.5,85.5,451.6,62.2
		L451.6,62.2z"/>
	
		<linearGradient id="SVGID_00000129171555426622707190000006877283774169553598_" gradientUnits="userSpaceOnUse" x1="-1974.3503" y1="663.2764" x2="-1968.7255" y2="663.2764" gradientTransform="matrix(8.0002 0 0 -8.0002 16107.498 5427.1943)">
		<stop  offset="0" style="stop-color:#EFE7DD"/>
		<stop  offset="1" style="stop-color:#DFCEBE"/>
	</linearGradient>
	<path style="fill:url(#SVGID_00000129171555426622707190000006877283774169553598_);" d="M349.8,158.4h-30c-3,0-5.8-1.8-6.9-4.6
		s-0.6-6,1.6-8.2l19.4-19.4c5.3-5.3,8.4-12.8,8.4-20.4c0-4.1-3.4-7.5-7.5-7.5s-7.5,3.4-7.5,7.5v7.5c0,4.1-3.4,7.5-7.5,7.5
		s-7.5-3.4-7.5-7.5v-7.5c0-12.4,10.1-22.5,22.5-22.5s22.5,10.1,22.5,22.5c0,11.5-4.7,22.8-12.8,31l-6.6,6.6h11.9
		c4.1,0,7.5,3.4,7.5,7.5S353.9,158.4,349.8,158.4L349.8,158.4z"/>
	
		<linearGradient id="SVGID_00000060018812246780977400000012818664380369580206_" gradientUnits="userSpaceOnUse" x1="-1966.8506" y1="663.2702" x2="-1961.2257" y2="663.2702" gradientTransform="matrix(8.0002 0 0 -8.0002 16107.498 5427.1943)">
		<stop  offset="0" style="stop-color:#EFE7DD"/>
		<stop  offset="1" style="stop-color:#DFCEBE"/>
	</linearGradient>
	<path style="fill:url(#SVGID_00000060018812246780977400000012818664380369580206_);" d="M409.8,83.4c-4.1,0-7.5,3.4-7.5,7.5v22.5
		h-15V90.9c0-4.1-3.4-7.5-7.5-7.5s-7.5,3.4-7.5,7.5v30c0,4.1,3.4,7.5,7.5,7.5h22.5v22.5c0,4.1,3.4,7.5,7.5,7.5s7.5-3.4,7.5-7.5v-60
		C417.3,86.8,413.9,83.4,409.8,83.4z"/>
</g>
<g>
	
		<linearGradient id="SVGID_00000166634387872921497140000004504624645483036839_" gradientUnits="userSpaceOnUse" x1="-2008.1125" y1="645.3955" x2="-1964.811" y2="645.3955" gradientTransform="matrix(8.0002 0 0 -8.0002 16107.498 5427.1943)">
		<stop  offset="0" style="stop-color:#06A1FF"/>
		<stop  offset="1" style="stop-color:#015ED2"/>
	</linearGradient>
	<path style="fill:url(#SVGID_00000166634387872921497140000004504624645483036839_);" d="M385.8,424.4l-50.7-92
		c-6-10.9-19.7-14.8-30.6-8.8l0,0l-39.3,21.7c-1.8,0.9-3.8,1.2-5.7,0.7s-3.6-1.9-4.5-3.6l-79.7-144.5c-2-3.7-0.7-8.2,2.9-10.2
		l39.4-21.7c10.9-6,14.8-19.7,8.8-30.6l-50.7-92c-2.9-5.3-7.7-9.1-13.5-10.8c-5.8-1.7-11.8-1-17.1,1.9l-52.5,29
		c-47.1,26-64.2,85.4-38.3,132.5L192,445.7c17.7,32.2,51.2,50.5,85.6,50.5c15.9,0,32.1-3.9,46.9-12.1l52.5-28.9
		c5.3-2.9,9.1-7.7,10.8-13.5C389.4,435.8,388.7,429.7,385.8,424.4L385.8,424.4z"/>
	
		<linearGradient id="SVGID_00000050620665445533507890000011155669233316976285_" gradientUnits="userSpaceOnUse" x1="-2004.3662" y1="661.2405" x2="-1998.6119" y2="661.2405" gradientTransform="matrix(8.0002 0 0 -8.0002 16107.498 5427.1943)">
		<stop  offset="0" style="stop-color:#C8E5F7"/>
		<stop  offset="1" style="stop-color:#7FC8F2"/>
	</linearGradient>
	<path style="fill:url(#SVGID_00000050620665445533507890000011155669233316976285_);" d="M87.1,185.4c-2.6,0-5.3-1.4-6.6-3.8
		c-18-32.6-6.1-73.7,26.5-91.7c3.7-2,8.2-0.7,10.2,2.9c2,3.7,0.7,8.2-2.9,10.2c-25.3,14-34.6,46-20.6,71.4c2,3.7,0.7,8.2-3,10.2
		C89.6,185.1,88.3,185.4,87.1,185.4z"/>
	
		<linearGradient id="SVGID_00000157280937127101428430000010315090768953392061_" gradientUnits="userSpaceOnUse" x1="-1981.446" y1="663.2264" x2="-1954.6628" y2="663.2264" gradientTransform="matrix(8.0002 0 0 -8.0002 16107.498 5427.1943)">
		<stop  offset="0" style="stop-color:#FFB850"/>
		<stop  offset="1" style="stop-color:#FF8901"/>
	</linearGradient>
	<path style="fill:url(#SVGID_00000157280937127101428430000010315090768953392061_);" d="M451.6,62.2C435.9,39,412,23.1,384.3,17.8
		s-55.7,0.5-79,16.2c-40.3,27.3-56.6,77.7-40,123.1l-9.4,30.5c-0.7,2.2-0.3,4.5,0.9,6.4c1.3,1.9,3.4,3.1,5.6,3.3l31.8,2.5
		c19.9,17.8,44.8,26.9,70.1,26.9c20.4,0,41.1-6,59.2-18.3c23.3-15.8,39.1-39.7,44.4-67.3C473.2,113.5,467.5,85.5,451.6,62.2
		L451.6,62.2z"/>
	<path class="st8" d="M349.8,158.4h-30c-3,0-5.8-1.8-6.9-4.6s-0.6-6,1.6-8.2l19.4-19.4c5.3-5.3,8.4-12.8,8.4-20.4
		c0-4.1-3.4-7.5-7.5-7.5s-7.5,3.4-7.5,7.5v7.5c0,4.1-3.4,7.5-7.5,7.5s-7.5-3.4-7.5-7.5v-7.5c0-12.4,10.1-22.5,22.5-22.5
		s22.5,10.1,22.5,22.5c0,11.5-4.7,22.8-12.8,31l-6.6,6.6h11.9c4.1,0,7.5,3.4,7.5,7.5S353.9,158.4,349.8,158.4L349.8,158.4z"/>
	<path class="st8" d="M409.8,83.4c-4.1,0-7.5,3.4-7.5,7.5v22.5h-15V90.9c0-4.1-3.4-7.5-7.5-7.5s-7.5,3.4-7.5,7.5v30
		c0,4.1,3.4,7.5,7.5,7.5h22.5v22.5c0,4.1,3.4,7.5,7.5,7.5s7.5-3.4,7.5-7.5v-60C417.3,86.8,413.9,83.4,409.8,83.4z"/>
</g>
</svg>
