<svg id="_25_Server" height="512" viewBox="0 0 64 64" width="512" xmlns="http://www.w3.org/2000/svg" xmlns:xlink="http://www.w3.org/1999/xlink" data-name="25 Server"><linearGradient id="linear-gradient" gradientUnits="userSpaceOnUse" x1="1" x2="63" y1="13" y2="13"><stop offset="0" stop-color="#a0d5f4"/><stop offset="1" stop-color="#00acea"/></linearGradient><linearGradient id="linear-gradient-2" gradientUnits="userSpaceOnUse" x1="6" x2="8" y1="13" y2="13"><stop offset="0" stop-color="#06a1ff"/><stop offset="1" stop-color="#015ed2"/></linearGradient><linearGradient id="linear-gradient-3" x1="10" x2="12" xlink:href="#linear-gradient-2"/><linearGradient id="linear-gradient-4" x1="14" x2="16" xlink:href="#linear-gradient-2"/><linearGradient id="linear-gradient-5" x1="0" x2="64" xlink:href="#linear-gradient-2"/><linearGradient id="linear-gradient-6" x1="0" x2="64" xlink:href="#linear-gradient-2" y1="29" y2="29"/><linearGradient id="linear-gradient-7" gradientUnits="userSpaceOnUse" x1="17" x2="47" y1="39" y2="39"><stop offset="0" stop-color="#c8e5f7"/><stop offset="1" stop-color="#7fc8f2"/></linearGradient><linearGradient id="linear-gradient-8" x1="16" x2="48" xlink:href="#linear-gradient-2" y1="39" y2="39"/><linearGradient id="linear-gradient-9" gradientUnits="userSpaceOnUse" x1="24" x2="40" y1="39" y2="39"><stop offset="0" stop-color="#016ff5"/><stop offset="1" stop-color="#0045a0"/></linearGradient><linearGradient id="linear-gradient-10" x1="22" x2="42" xlink:href="#linear-gradient-2" y1="33" y2="33"/><linearGradient id="linear-gradient-11" x1="26" x2="29" xlink:href="#linear-gradient-7" y1="33" y2="33"/><linearGradient id="linear-gradient-12" x1="30" x2="38" xlink:href="#linear-gradient-7" y1="33" y2="33"/><linearGradient id="linear-gradient-13" x1="22" x2="42" xlink:href="#linear-gradient-2" y1="45" y2="45"/><linearGradient id="linear-gradient-14" x1="26" x2="29" xlink:href="#linear-gradient-7" y1="45" y2="45"/><linearGradient id="linear-gradient-15" x1="30" x2="38" xlink:href="#linear-gradient-7" y1="45" y2="45"/><linearGradient id="linear-gradient-16" x1="50" x2="57" xlink:href="#linear-gradient-2" y1="32.5" y2="32.5"/><linearGradient id="linear-gradient-17" x1="7" x2="14" xlink:href="#linear-gradient-2" y1="32.5" y2="32.5"/><path d="m61 9h-58c-1.105 0-2 .895-2 2v36c0 1.105.895 2 2 2h14v-24c0-1.105.895-2 2-2h26c1.105 0 2 .895 2 2v24h14c1.105 0 2-.895 2-2v-36c0-1.105-.895-2-2-2z" fill="#fff"/><path d="m3 9h58c1.104 0 2 .896 2 2v6h-62v-6c0-1.104.896-2 2-2z" fill="url(#linear-gradient)"/><circle cx="7" cy="13" fill="url(#linear-gradient-2)" r="1"/><circle cx="11" cy="13" fill="url(#linear-gradient-3)" r="1"/><circle cx="15" cy="13" fill="url(#linear-gradient-4)" r="1"/><path d="m63 18h-62c-.552 0-1-.448-1-1v-6c0-1.654 1.346-3 3-3h58c1.654 0 3 1.346 3 3v6c0 .552-.448 1-1 1zm-61-2h60v-5c0-.551-.449-1-1-1h-58c-.551 0-1 .449-1 1z" fill="url(#linear-gradient-5)"/><path d="m61 50h-14c-.552 0-1-.447-1-1v-24c0-.551-.449-1-1-1h-26c-.551 0-1 .449-1 1v24c0 .553-.448 1-1 1h-14c-1.654 0-3-1.346-3-3v-36c0-1.654 1.346-3 3-3h58c1.654 0 3 1.346 3 3v36c0 1.654-1.346 3-3 3zm-13-2h13c.551 0 1-.448 1-1v-36c0-.551-.449-1-1-1h-58c-.551 0-1 .449-1 1v36c0 .552.449 1 1 1h13v-23c0-1.654 1.346-3 3-3h26c1.654 0 3 1.346 3 3z" fill="url(#linear-gradient-6)"/><rect fill="url(#linear-gradient-7)" height="32" rx="2" width="30" x="17" y="23"/><path d="m45 56h-26c-1.654 0-3-1.346-3-3v-28c0-1.654 1.346-3 3-3h26c1.654 0 3 1.346 3 3v28c0 1.654-1.346 3-3 3zm-26-32c-.551 0-1 .449-1 1v28c0 .552.449 1 1 1h26c.551 0 1-.448 1-1v-28c0-.551-.449-1-1-1z" fill="url(#linear-gradient-8)"/><rect fill="url(#linear-gradient-9)" height="6" rx="1" width="16" x="24" y="36"/><path d="m41.414 28.586c-.378-.378-.88-.586-1.414-.586h-16c-.534 0-1.036.208-1.414.586s-.586.88-.586 1.414v6c0 .534.208 1.036.586 1.414s.88.586 1.414.586h16c.534 0 1.036-.208 1.414-.586s.586-.88.586-1.414v-6c0-.534-.208-1.036-.586-1.414z" fill="url(#linear-gradient-10)"/><path d="m28 34h-1c-.552 0-1-.447-1-1s.448-1 1-1h1c.552 0 1 .448 1 1s-.448 1-1 1z" fill="url(#linear-gradient-11)"/><path d="m37 34h-6c-.552 0-1-.447-1-1s.448-1 1-1h6c.552 0 1 .448 1 1s-.448 1-1 1z" fill="url(#linear-gradient-12)"/><path d="m41.414 40.586c-.378-.378-.88-.586-1.414-.586h-16c-.534 0-1.036.208-1.414.586s-.586.88-.586 1.414v6c0 .534.208 1.036.586 1.414s.88.586 1.414.586h16c.534 0 1.036-.208 1.414-.586s.586-.88.586-1.414v-6c0-.534-.208-1.036-.586-1.414z" fill="url(#linear-gradient-13)"/><path d="m28 46h-1c-.552 0-1-.447-1-1s.448-1 1-1h1c.552 0 1 .447 1 1s-.448 1-1 1z" fill="url(#linear-gradient-14)"/><path d="m37 46h-6c-.552 0-1-.447-1-1s.448-1 1-1h6c.552 0 1 .447 1 1s-.448 1-1 1z" fill="url(#linear-gradient-15)"/><path d="m56 36h-5c-.552 0-1-.447-1-1s.448-1 1-1h4v-4c0-.552.448-1 1-1s1 .448 1 1v5c0 .553-.448 1-1 1z" fill="url(#linear-gradient-16)"/><path d="m13 36h-5c-.552 0-1-.447-1-1v-5c0-.552.448-1 1-1s1 .448 1 1v4h4c.552 0 1 .447 1 1s-.448 1-1 1z" fill="url(#linear-gradient-17)"/></svg>