<?xml version="1.0" encoding="utf-8"?>
<!-- Generator: Adobe Illustrator 26.1.0, SVG Export Plug-In . SVG Version: 6.00 Build 0)  -->
<svg version="1.1" id="Layer_1" xmlns="http://www.w3.org/2000/svg" xmlns:xlink="http://www.w3.org/1999/xlink" x="0px" y="0px"
	 viewBox="0 0 512 512" style="enable-background:new 0 0 512 512;" xml:space="preserve">
<style type="text/css">
	.st0{fill:url(#SVGID_1_);}
	.st1{fill:url(#SVGID_00000125599462821768710870000008210312804997396883_);}
	.st2{fill:url(#SVGID_00000092428100131868708230000012573631166850854061_);}
	.st3{fill:url(#SVGID_00000158020668402034893570000012958611462220795021_);}
	.st4{fill:url(#SVGID_00000140708959322863001310000010743071926845982851_);}
	.st5{fill:url(#SVGID_00000075866828249926564610000007094353527790286264_);}
	.st6{fill:#FFFFFF;}
	.st7{fill:url(#SVGID_00000127043259672267801310000011205612773939127691_);}
	.st8{fill:url(#SVGID_00000034797041431340247590000017394001387493089717_);}
	.st9{fill:url(#SVGID_00000164484538264974567220000006045087127238586762_);}
</style>
<linearGradient id="SVGID_1_" gradientUnits="userSpaceOnUse" x1="-1360.1857" y1="73.3194" x2="-1343.1731" y2="73.3194" gradientTransform="matrix(10.6667 0 0 10.6667 14828.6924 -526.0257)">
	<stop  offset="0" style="stop-color:#FFB850"/>
	<stop  offset="1" style="stop-color:#FF8901"/>
</linearGradient>
<path class="st0" d="M461.7,245.3h-131c-5.9,0-10.7,4.8-10.7,10.7s4.8,10.7,10.7,10.7h131c5.9,10.2,18.9,13.7,29.1,7.8
	c10.2-5.9,13.7-18.9,7.8-29.1c-5.9-10.2-18.9-13.7-29.1-7.8C466.2,239.4,463.5,242.1,461.7,245.3z"/>
<linearGradient id="SVGID_00000022521694540113159990000005398594349192975750_" gradientUnits="userSpaceOnUse" x1="-1363.1915" y1="68.3241" x2="-1347.1763" y2="68.3241" gradientTransform="matrix(10.6667 0 0 10.6667 14828.6924 -526.0257)">
	<stop  offset="0" style="stop-color:#FFB850"/>
	<stop  offset="1" style="stop-color:#FF8901"/>
</linearGradient>
<path style="fill:url(#SVGID_00000022521694540113159990000005398594349192975750_);" d="M419,170.7h-67c-2.8,0-5.6,1.1-7.6,3.1
	l-53.3,53.3c-4.2,4.1-4.2,10.9-0.1,15.1c2,2,4.8,3.2,7.6,3.2c2.8,0,5.6-1.1,7.6-3.1l50.1-50.2H419c5.9,10.2,18.9,13.7,29.1,7.8
	s13.7-18.9,7.8-29.1s-18.9-13.7-29.1-7.8C423.6,164.7,420.9,167.4,419,170.7z"/>
<linearGradient id="SVGID_00000073701405620300749630000007943219284391599757_" gradientUnits="userSpaceOnUse" x1="-1366.1821" y1="59.318" x2="-1346.1647" y2="59.318" gradientTransform="matrix(10.6667 0 0 10.6667 14828.6924 -526.0257)">
	<stop  offset="0" style="stop-color:#FFB850"/>
	<stop  offset="1" style="stop-color:#FF8901"/>
</linearGradient>
<path style="fill:url(#SVGID_00000073701405620300749630000007943219284391599757_);" d="M448,42.7c-11.8,0-21.3,9.6-21.3,21.4
	c0,1.8,0.2,3.6,0.7,5.4L401,96h-70.3c-5.5,0-2.2-1.4-70.8,55.8c-4.5,3.8-5.2,10.5-1.4,15c2,2.5,5.1,3.9,8.2,3.9
	c5.3,0,2,1.5,67.8-53.3h70.8c2.8,0,5.6-1.1,7.6-3.1l29.7-29.7c11.4,3.1,23.1-3.6,26.2-15s-3.6-23.1-15-26.2
	C451.9,42.9,449.9,42.7,448,42.7L448,42.7z"/>
<linearGradient id="SVGID_00000078734876372235143280000014629970004884651402_" gradientUnits="userSpaceOnUse" x1="-1366.1821" y1="87.309" x2="-1346.1786" y2="87.309" gradientTransform="matrix(10.6667 0 0 10.6667 14828.6924 -526.0257)">
	<stop  offset="0" style="stop-color:#FFB850"/>
	<stop  offset="1" style="stop-color:#FF8901"/>
</linearGradient>
<path style="fill:url(#SVGID_00000078734876372235143280000014629970004884651402_);" d="M442.6,427.4l-29.7-29.7
	c-2-2-4.7-3.1-7.6-3.1h-70.8l-61-50.9c-4.5-3.8-11.3-3.1-15,1.4c-3.8,4.5-3.1,11.3,1.4,15l64,53.3c4.2,3.4,1.7,2.5,77.1,2.5
	l26.5,26.6c-3,11.4,3.8,23.1,15.1,26.1c11.4,3,23.1-3.8,26.1-15.1c3-11.4-3.8-23.1-15.1-26.1C449.9,426.5,446.1,426.5,442.6,427.4
	L442.6,427.4z"/>
<linearGradient id="SVGID_00000132799860500193328900000015214929490671995786_" gradientUnits="userSpaceOnUse" x1="-1363.1809" y1="78.3123" x2="-1347.1669" y2="78.3123" gradientTransform="matrix(10.6667 0 0 10.6667 14828.6924 -526.0257)">
	<stop  offset="0" style="stop-color:#FFB850"/>
	<stop  offset="1" style="stop-color:#FF8901"/>
</linearGradient>
<path style="fill:url(#SVGID_00000132799860500193328900000015214929490671995786_);" d="M419,320h-62.6l-50.1-50.2
	c-4.2-4.2-11-4.2-15.1,0c-4.2,4.2-4.2,11,0,15.1l53.3,53.3c2,2,4.7,3.1,7.6,3.1h67c5.9,10.2,18.9,13.7,29.1,7.8
	c10.2-5.9,13.7-18.9,7.8-29.1c-5.9-10.2-18.9-13.7-29.1-7.8C423.6,314.1,420.9,316.8,419,320z"/>
<linearGradient id="SVGID_00000152969304223642538080000009946605553410221460_" gradientUnits="userSpaceOnUse" x1="-1389.1918" y1="73.3147" x2="-1366.1857" y2="73.3147" gradientTransform="matrix(10.6667 0 0 10.6667 14828.6924 -526.0257)">
	<stop  offset="0" style="stop-color:#06A1FF"/>
	<stop  offset="1" style="stop-color:#015ED2"/>
</linearGradient>
<path style="fill:url(#SVGID_00000152969304223642538080000009946605553410221460_);" d="M256,64v384c0,5.9-4.8,10.7-10.7,10.7h-64
	c-5.9,0-10.7-4.8-10.7-10.7v-18.9c0.2-4.9-3-9.3-7.7-10.7c-10.1-3.1-19.9-7.2-29.2-12.1c-4.1-2.3-9.3-1.6-12.7,1.7l-13.3,13.8
	c-4.1,4.2-10.9,4.2-15.1,0.1c0,0,0,0-0.1-0.1l-45.1-45.1c-4.2-4.1-4.2-10.9-0.1-15.1c0,0,0,0,0.1-0.1l13.3-13.3
	c3.3-3.4,4-8.6,1.7-12.7c-4.9-9.4-8.9-19.1-12.1-29.2c-1.4-4.7-5.8-7.9-10.7-7.7H21.3c-5.9,0-10.7-4.8-10.7-10.7v-64
	c0-5.9,4.8-10.7,10.7-10.7h18.9c4.9,0.2,9.3-3,10.7-7.7c3.1-10.1,7.2-19.9,12.1-29.2c2.3-4.1,1.6-9.3-1.7-12.7l-13.8-13.3
	c-4.2-4.1-4.2-10.9-0.1-15.1c0,0,0,0,0.1-0.1L92.6,90c4.1-4.2,10.9-4.2,15.1-0.1c0,0,0,0,0.1,0.1l13.3,13.3c3.4,3.3,8.6,4,12.7,1.7
	c9.4-4.9,19.1-8.9,29.2-12.1c4.7-1.4,7.9-5.8,7.7-10.7V64c0-5.9,4.8-10.7,10.7-10.7h64C251.2,53.3,256,58.1,256,64L256,64z"/>
<circle class="st6" cx="213.3" cy="256" r="128"/>
<g>
	
		<linearGradient id="SVGID_00000160884572035839966880000005886887434152186547_" gradientUnits="userSpaceOnUse" x1="202.7" y1="258" x2="266.7" y2="258" gradientTransform="matrix(1 0 0 -1 0 514)">
		<stop  offset="0" style="stop-color:#FFB850"/>
		<stop  offset="1" style="stop-color:#FF8901"/>
	</linearGradient>
	<path style="fill:url(#SVGID_00000160884572035839966880000005886887434152186547_);" d="M234.7,213.3h-21.3
		c-5.9,0-10.7,4.8-10.7,10.7v64c0,5.9,4.8,10.7,10.7,10.7s10.7-4.8,10.7-10.7v-10.7h10.7c17.7,0,32-14.3,32-32
		S252.3,213.3,234.7,213.3z M234.7,256H224v-21.3h10.7c5.9,0,10.7,4.8,10.7,10.7C245.3,251.2,240.6,256,234.7,256z"/>
	
		<linearGradient id="SVGID_00000157277231491501480290000014509712889937664674_" gradientUnits="userSpaceOnUse" x1="117.3" y1="258" x2="181.3" y2="258" gradientTransform="matrix(1 0 0 -1 0 514)">
		<stop  offset="0" style="stop-color:#FFB850"/>
		<stop  offset="1" style="stop-color:#FF8901"/>
	</linearGradient>
	<path style="fill:url(#SVGID_00000157277231491501480290000014509712889937664674_);" d="M149.3,213.3c-17.7,0-32,14.3-32,32V288
		c0,5.9,4.8,10.7,10.7,10.7s10.7-4.8,10.7-10.7v-10.7H160V288c0,5.9,4.8,10.7,10.7,10.7s10.7-4.8,10.7-10.7v-42.7
		C181.3,227.7,167,213.3,149.3,213.3z M138.7,256v-10.7c0-5.9,4.8-10.7,10.7-10.7s10.7,4.8,10.7,10.7V256H138.7z"/>
	
		<linearGradient id="SVGID_00000011711520705822818220000006993403532017472407_" gradientUnits="userSpaceOnUse" x1="288" y1="258" x2="309.3333" y2="258" gradientTransform="matrix(1 0 0 -1 0 514)">
		<stop  offset="0" style="stop-color:#FFB850"/>
		<stop  offset="1" style="stop-color:#FF8901"/>
	</linearGradient>
	<path style="fill:url(#SVGID_00000011711520705822818220000006993403532017472407_);" d="M298.7,298.7c-5.9,0-10.7-4.8-10.7-10.7
		v-64c0-5.9,4.8-10.7,10.7-10.7c5.9,0,10.7,4.8,10.7,10.7v64C309.3,293.9,304.6,298.7,298.7,298.7z"/>
</g>
</svg>
