<?xml version="1.0" encoding="utf-8"?>
<!-- Generator: Adobe Illustrator 26.1.0, SVG Export Plug-In . SVG Version: 6.00 Build 0)  -->
<svg version="1.1" id="_09_Protection" xmlns="http://www.w3.org/2000/svg" xmlns:xlink="http://www.w3.org/1999/xlink" x="0px"
	 y="0px" viewBox="0 0 512 512" style="enable-background:new 0 0 512 512;" xml:space="preserve">
<style type="text/css">
	.st0{fill:url(#SVGID_1_);}
	.st1{fill:url(#SVGID_00000129897214195236107450000013937244800499182464_);}
	.st2{fill:#FFFFFF;}
	.st3{fill:url(#SVGID_00000165234265677707897720000016506877364453186459_);}
	.st4{fill:url(#SVGID_00000165228475384670369670000011759994858342942087_);}
	.st5{fill:url(#SVGID_00000018942665255981771450000003848991647373138094_);}
	.st6{fill:url(#SVGID_00000171687483891811097040000016763900221097297851_);}
	.st7{fill:url(#SVGID_00000013879684424244594150000004892725309426651274_);}
	.st8{fill:url(#SVGID_00000105427896503142156490000016941054337872923831_);}
	.st9{fill:url(#SVGID_00000008133435142863412710000010668742889227906215_);}
	.st10{fill:url(#SVGID_00000163787151594580012240000012753192128681389720_);}
	.st11{fill:url(#SVGID_00000110431696065300113530000011776220376836675486_);}
	.st12{fill:url(#SVGID_00000113311404895172111930000008562417643530708118_);}
	.st13{fill:url(#SVGID_00000178200349645432371350000009600957221927706265_);}
	.st14{fill:url(#SVGID_00000065783419114353900850000011681877754408770698_);}
</style>
<linearGradient id="SVGID_1_" gradientUnits="userSpaceOnUse" x1="-667.125" y1="712.125" x2="-611.125" y2="712.125" gradientTransform="matrix(8 0 0 -8 5369 5953)">
	<stop  offset="0" style="stop-color:#016FF5"/>
	<stop  offset="1" style="stop-color:#0045A0"/>
</linearGradient>
<path class="st0" d="M456,96h-88c-4.4,0-8,3.6-8,8v81.1c0,66.8-41.7,126.9-104,150.4c-62.3-23.5-104-83.6-104-150.4V104
	c0-4.4-3.6-8-8-8H56c-13.2,0-24,10.8-24,24v288c0,4.4,3.6,8,8,8h432c4.4,0,8-3.6,8-8V120C480,106.8,469.2,96,456,96L456,96z"/>
<linearGradient id="SVGID_00000169520405348997553700000010709201591836629171_" gradientUnits="userSpaceOnUse" x1="-671.125" y1="690.125" x2="-607.125" y2="690.125" gradientTransform="matrix(8 0 0 -8 5369 5953)">
	<stop  offset="0" style="stop-color:#06A1FF"/>
	<stop  offset="1" style="stop-color:#015ED2"/>
</linearGradient>
<path style="fill:url(#SVGID_00000169520405348997553700000010709201591836629171_);" d="M504,400H8c-4.4,0-8,3.6-8,8v32
	c0,13.2,10.8,24,24,24h464c13.2,0,24-10.8,24-24v-32C512,403.6,508.4,400,504,400z"/>
<path class="st2" d="M440,128h-72c-4.4,0-8,3.6-8,8v49.1c0,66.8-41.7,126.9-104,150.4c-62.3-23.5-104-83.6-104-150.4V136
	c0-4.4-3.6-8-8-8H72c-4.4,0-8,3.6-8,8v240c0,4.4,3.6,8,8,8h368c4.4,0,8-3.6,8-8V136C448,131.6,444.4,128,440,128L440,128z"/>
<linearGradient id="SVGID_00000078046125474988260870000002516043828071773876_" gradientUnits="userSpaceOnUse" x1="-654.124" y1="719.6763" x2="-624.124" y2="719.6763" gradientTransform="matrix(8 0 0 -8 5369 5953)">
	<stop  offset="0" style="stop-color:#FFB850"/>
	<stop  offset="1" style="stop-color:#FF8901"/>
</linearGradient>
<path style="fill:url(#SVGID_00000078046125474988260870000002516043828071773876_);" d="M371.2,92.2l-112-48c-2-0.9-4.3-0.9-6.3,0
	l-112,48c-2.9,1.3-4.8,4.2-4.8,7.4v81.1c0,74.5,47.1,141.4,117.3,166.5c0.9,0.3,1.8,0.5,2.7,0.5c0.9,0,1.8-0.2,2.7-0.5
	c70.2-25.1,117.3-92,117.3-166.5V99.6C376,96.4,374.1,93.5,371.2,92.2L371.2,92.2z"/>
<linearGradient id="SVGID_00000079473382675236393920000000695359835481676220_" gradientUnits="userSpaceOnUse" x1="-659.125" y1="705.125" x2="-651.125" y2="705.125" gradientTransform="matrix(8 0 0 -8 5369 5953)">
	<stop  offset="0" style="stop-color:#C8E5F7"/>
	<stop  offset="1" style="stop-color:#7FC8F2"/>
</linearGradient>
<path style="fill:url(#SVGID_00000079473382675236393920000000695359835481676220_);" d="M152,320h-48c-4.4,0-8-3.6-8-8s3.6-8,8-8
	h48c4.4,0,8,3.6,8,8S156.4,320,152,320z"/>
<linearGradient id="SVGID_00000090975223155890935810000015854944858870330271_" gradientUnits="userSpaceOnUse" x1="-659.125" y1="701.125" x2="-649.125" y2="701.125" gradientTransform="matrix(8 0 0 -8 5369 5953)">
	<stop  offset="0" style="stop-color:#C8E5F7"/>
	<stop  offset="1" style="stop-color:#7FC8F2"/>
</linearGradient>
<path style="fill:url(#SVGID_00000090975223155890935810000015854944858870330271_);" d="M168,352h-64c-4.4,0-8-3.6-8-8s3.6-8,8-8
	h64c4.4,0,8,3.6,8,8S172.4,352,168,352z"/>
<linearGradient id="SVGID_00000137813989708379910590000006932680057264589499_" gradientUnits="userSpaceOnUse" x1="-627.125" y1="705.125" x2="-619.125" y2="705.125" gradientTransform="matrix(8 0 0 -8 5369 5953)">
	<stop  offset="0" style="stop-color:#C8E5F7"/>
	<stop  offset="1" style="stop-color:#7FC8F2"/>
</linearGradient>
<path style="fill:url(#SVGID_00000137813989708379910590000006932680057264589499_);" d="M408,320h-48c-4.4,0-8-3.6-8-8s3.6-8,8-8
	h48c4.4,0,8,3.6,8,8S412.4,320,408,320z"/>
<linearGradient id="SVGID_00000031171242050288971900000013926292477461097886_" gradientUnits="userSpaceOnUse" x1="-629.125" y1="701.125" x2="-619.125" y2="701.125" gradientTransform="matrix(8 0 0 -8 5369 5953)">
	<stop  offset="0" style="stop-color:#C8E5F7"/>
	<stop  offset="1" style="stop-color:#7FC8F2"/>
</linearGradient>
<path style="fill:url(#SVGID_00000031171242050288971900000013926292477461097886_);" d="M408,352h-64c-4.4,0-8-3.6-8-8s3.6-8,8-8
	h64c4.4,0,8,3.6,8,8S412.4,352,408,352z"/>
<g>
	
		<linearGradient id="SVGID_00000083066857584434746400000000204743773181015952_" gradientUnits="userSpaceOnUse" x1="-644.884" y1="719.6763" x2="-633.364" y2="719.6763" gradientTransform="matrix(8 0 0 -8 5369 5953)">
		<stop  offset="0" style="stop-color:#016FF5"/>
		<stop  offset="1" style="stop-color:#0045A0"/>
	</linearGradient>
	<path style="fill:url(#SVGID_00000083066857584434746400000000204743773181015952_);" d="M215.7,178.3h80.6c3.2,0,5.8,2.6,5.8,5.8
		v23c0,3.2-2.6,5.8-5.8,5.8h-80.6c-3.2,0-5.8-2.6-5.8-5.8v-23C209.9,180.9,212.5,178.3,215.7,178.3z"/>
	
		<linearGradient id="SVGID_00000163782104817020269150000003809108780223061901_" gradientUnits="userSpaceOnUse" x1="-646.324" y1="723.9962" x2="-631.924" y2="723.9962" gradientTransform="matrix(8 0 0 -8 5369 5953)">
		<stop  offset="0" style="stop-color:#06A1FF"/>
		<stop  offset="1" style="stop-color:#015ED2"/>
	</linearGradient>
	<path style="fill:url(#SVGID_00000163782104817020269150000003809108780223061901_);" d="M310.2,135.6c-2.2-2.2-5.1-3.4-8.1-3.4
		h-92.2c-3.1,0-6,1.2-8.1,3.4c-2.2,2.2-3.4,5.1-3.4,8.1v34.6c0,3.1,1.2,6,3.4,8.1s5.1,3.4,8.1,3.4h92.2c3.1,0,6-1.2,8.1-3.4
		c2.2-2.2,3.4-5.1,3.4-8.1v-34.6C313.6,140.7,312.4,137.8,310.2,135.6z"/>
	
		<linearGradient id="SVGID_00000039103206784191500780000007995682872041952180_" gradientUnits="userSpaceOnUse" x1="-643.444" y1="723.9962" x2="-641.284" y2="723.9962" gradientTransform="matrix(8 0 0 -8 5369 5953)">
		<stop  offset="0" style="stop-color:#C8E5F7"/>
		<stop  offset="1" style="stop-color:#7FC8F2"/>
	</linearGradient>
	<path style="fill:url(#SVGID_00000039103206784191500780000007995682872041952180_);" d="M233,166.8h-5.8c-3.2,0-5.8-2.6-5.8-5.8
		s2.6-5.8,5.8-5.8h5.8c3.2,0,5.8,2.6,5.8,5.8C238.7,164.2,236.1,166.8,233,166.8z"/>
	
		<linearGradient id="SVGID_00000073702347478159422000000011125762190432040066_" gradientUnits="userSpaceOnUse" x1="-640.564" y1="723.9962" x2="-634.804" y2="723.9962" gradientTransform="matrix(8 0 0 -8 5369 5953)">
		<stop  offset="0" style="stop-color:#C8E5F7"/>
		<stop  offset="1" style="stop-color:#7FC8F2"/>
	</linearGradient>
	<path style="fill:url(#SVGID_00000073702347478159422000000011125762190432040066_);" d="M284.8,166.8h-34.6
		c-3.2,0-5.8-2.6-5.8-5.8s2.6-5.8,5.8-5.8h34.6c3.2,0,5.8,2.6,5.8,5.8C290.6,164.2,288,166.8,284.8,166.8z"/>
	
		<linearGradient id="SVGID_00000180329016429139507490000004410957074696037532_" gradientUnits="userSpaceOnUse" x1="-646.324" y1="715.3563" x2="-631.924" y2="715.3563" gradientTransform="matrix(8 0 0 -8 5369 5953)">
		<stop  offset="0" style="stop-color:#06A1FF"/>
		<stop  offset="1" style="stop-color:#015ED2"/>
	</linearGradient>
	<path style="fill:url(#SVGID_00000180329016429139507490000004410957074696037532_);" d="M310.2,204.7c-2.2-2.2-5.1-3.4-8.1-3.4
		h-92.2c-3.1,0-6,1.2-8.1,3.4c-2.2,2.2-3.4,5.1-3.4,8.1v34.6c0,3.1,1.2,6,3.4,8.1c2.2,2.2,5.1,3.4,8.1,3.4h92.2c3.1,0,6-1.2,8.1-3.4
		c2.2-2.2,3.4-5.1,3.4-8.1v-34.6C313.6,209.8,312.4,206.9,310.2,204.7z"/>
	
		<linearGradient id="SVGID_00000134931972714065624590000014471635279047672247_" gradientUnits="userSpaceOnUse" x1="-643.444" y1="715.3563" x2="-641.284" y2="715.3563" gradientTransform="matrix(8 0 0 -8 5369 5953)">
		<stop  offset="0" style="stop-color:#C8E5F7"/>
		<stop  offset="1" style="stop-color:#7FC8F2"/>
	</linearGradient>
	<path style="fill:url(#SVGID_00000134931972714065624590000014471635279047672247_);" d="M233,235.9h-5.8c-3.2,0-5.8-2.6-5.8-5.8
		s2.6-5.8,5.8-5.8h5.8c3.2,0,5.8,2.6,5.8,5.8S236.1,235.9,233,235.9z"/>
	
		<linearGradient id="SVGID_00000128486241521476938860000005644006843372802951_" gradientUnits="userSpaceOnUse" x1="-640.564" y1="715.3563" x2="-634.804" y2="715.3563" gradientTransform="matrix(8 0 0 -8 5369 5953)">
		<stop  offset="0" style="stop-color:#C8E5F7"/>
		<stop  offset="1" style="stop-color:#7FC8F2"/>
	</linearGradient>
	<path style="fill:url(#SVGID_00000128486241521476938860000005644006843372802951_);" d="M284.8,235.9h-34.6
		c-3.2,0-5.8-2.6-5.8-5.8s2.6-5.8,5.8-5.8h34.6c3.2,0,5.8,2.6,5.8,5.8S288,235.9,284.8,235.9z"/>
</g>
</svg>
