<?xml version="1.0" encoding="utf-8"?>
<!-- Generator: Adobe Illustrator 26.1.0, SVG Export Plug-In . SVG Version: 6.00 Build 0)  -->
<svg version="1.1" id="_37_Email_marketing" xmlns="http://www.w3.org/2000/svg" xmlns:xlink="http://www.w3.org/1999/xlink"
	 x="0px" y="0px" viewBox="0 0 512 512" style="enable-background:new 0 0 512 512;" xml:space="preserve">
<style type="text/css">
	.st0{fill:#FF9900;}
	.st1{fill:url(#SVGID_1_);}
	.st2{fill:url(#SVGID_00000174566111223138070210000004536634921696269732_);}
	.st3{fill:url(#SVGID_00000145034628742220625350000001872159429766539649_);}
	.st4{fill:url(#SVGID_00000109741097265367696580000006747689890557061785_);}
	.st5{fill:url(#SVGID_00000031891758414013004860000002190227070904001213_);}
	.st6{fill:url(#SVGID_00000082369726819201842260000005428926408715817604_);}
</style>
<path class="st0" d="M453.5,242.2l-56-53.7c-2.3-2.2-5.7-2.8-8.7-1.6c-2.9,1.3-4.9,4.2-4.9,7.4v96.3c0,3,1.7,5.8,4.5,7.2
	c1.1,0.6,2.3,0.8,3.5,0.8c1.7,0,3.4-0.6,4.8-1.6l56-42.7c1.9-1.4,3-3.6,3.1-5.9S455.2,243.8,453.5,242.2L453.5,242.2z"/>
<path class="st0" d="M123.1,187c-3-1.2-6.4-0.6-8.7,1.6l-56,53.7c-1.7,1.6-2.6,3.9-2.5,6.2c0.1,2.3,1.3,4.5,3.1,5.9l56,42.7
	c1.4,1.1,3.1,1.6,4.8,1.6c1.2,0,2.4-0.3,3.5-0.8c2.7-1.4,4.5-4.1,4.5-7.2v-96.3C128,191.1,126.1,188.2,123.1,187L123.1,187z"/>
<linearGradient id="SVGID_1_" gradientUnits="userSpaceOnUse" x1="-657.125" y1="720.125" x2="-621.125" y2="720.125" gradientTransform="matrix(8 0 0 -8 5369 5953)">
	<stop  offset="0" style="stop-color:#C8E5F7"/>
	<stop  offset="1" style="stop-color:#7FC8F2"/>
</linearGradient>
<path class="st1" d="M400,72v218.6c0,2.6-1.2,4.9-3.1,6.4l-112,85.4c-1.4,1-3.1,1.6-4.9,1.6h-48c-1.8,0-3.4-0.6-4.9-1.6l-112-85.4
	c-1.9-1.5-3.1-3.8-3.1-6.4V16c0-8.8,7.2-16,16-16h200c2.2,0,4.2,0.9,5.7,2.3l64,64C399.1,67.8,400,69.8,400,72L400,72z"/>
<linearGradient id="SVGID_00000015334744043178788260000000019691842284139157_" gradientUnits="userSpaceOnUse" x1="-664.126" y1="697.1249" x2="-614.125" y2="697.1249" gradientTransform="matrix(8 0 0 -8 5369 5953)">
	<stop  offset="0" style="stop-color:#FFB850"/>
	<stop  offset="1" style="stop-color:#FF8901"/>
</linearGradient>
<path style="fill:url(#SVGID_00000015334744043178788260000000019691842284139157_);" d="M451.5,240.8c-2.7-1.3-6-1-8.4,0.8
	L277.3,368h-42.6L68.8,241.6c-2.4-1.8-5.7-2.1-8.4-0.8c-2.7,1.4-4.5,4.1-4.5,7.2v256c0,4.4,3.6,8,8,8h384c4.4,0,8-3.6,8-8V248
	C456,245,454.3,242.2,451.5,240.8z"/>
<path class="st0" d="M452.8,497.6l-168-128c-1.4-1.1-3.1-1.6-4.8-1.6h-48c-1.8,0-3.5,0.6-4.8,1.6l-168,128c-2.7,2.1-3.8,5.7-2.7,8.9
	c1.1,3.3,4.2,5.4,7.6,5.4h384c3.4,0,6.5-2.2,7.6-5.4C456.7,503.3,455.6,499.7,452.8,497.6z"/>
<linearGradient id="SVGID_00000073722625009568015380000003400681860775682740_" gradientUnits="userSpaceOnUse" x1="-631.125" y1="739.125" x2="-621.125" y2="739.125" gradientTransform="matrix(8 0 0 -8 5369 5953)">
	<stop  offset="0" style="stop-color:#A0D5F4"/>
	<stop  offset="1" style="stop-color:#00ACEA"/>
</linearGradient>
<path style="fill:url(#SVGID_00000073722625009568015380000003400681860775682740_);" d="M400,72v8h-72c-4.4,0-8-3.6-8-8V0h8
	c2.2,0,4.2,0.9,5.7,2.3l64,64C399.1,67.8,400,69.8,400,72z"/>
<g>
	
		<linearGradient id="SVGID_00000091693699524951566700000007107181004448230079_" gradientUnits="userSpaceOnUse" x1="-651.8463" y1="723.2211" x2="-626.4037" y2="723.2211" gradientTransform="matrix(8 0 0 -8 5369 5953)">
		<stop  offset="0" style="stop-color:#06A1FF"/>
		<stop  offset="1" style="stop-color:#015ED2"/>
	</linearGradient>
	<path style="fill:url(#SVGID_00000091693699524951566700000007107181004448230079_);" d="M328.4,144c-3.9-24.2-24.4-42.6-48.4-42.6
		c-14.6,0-28.2,6.7-37.5,18.1c-4.8-2.1-9.9-3.1-15.2-3.1c-19.8,0-36.4,15.3-39.1,35.3c-19.2,2.8-33.9,19.9-33.9,40.5
		c0,22.6,17.7,40.9,39.5,40.9h119.7c24.4,0,44.3-20.6,44.3-45.9C357.8,167.6,345.9,150.4,328.4,144L328.4,144z"/>
	
		<linearGradient id="SVGID_00000103224718319965828460000014116913666293640096_" gradientUnits="userSpaceOnUse" x1="-644.3631" y1="710.4995" x2="-639.8727" y2="710.4995" gradientTransform="matrix(8 0 0 -8 5369 5953)">
		<stop  offset="0" style="stop-color:#36CA8D"/>
		<stop  offset="1" style="stop-color:#008D4B"/>
	</linearGradient>
	<path style="fill:url(#SVGID_00000103224718319965828460000014116913666293640096_);" d="M248.3,258.8l-12-12
		c-2.3-2.3-6.1-2.3-8.5,0l-12,12c-2.3,2.3-2.3,6.1,0,8.5c2.3,2.3,6.1,2.3,8.5,0l1.8-1.8V287c0,3.3,2.7,6,6,6s6-2.7,6-6v-21.5
		l1.8,1.8c1.2,1.2,2.7,1.8,4.2,1.8s3.1-0.6,4.2-1.8C250.6,264.9,250.6,261.1,248.3,258.8z"/>
	
		<linearGradient id="SVGID_00000022523849800148856960000010588415484757813676_" gradientUnits="userSpaceOnUse" x1="-638.3765" y1="710.4995" x2="-633.8861" y2="710.4995" gradientTransform="matrix(8 0 0 -8 5369 5953)">
		<stop  offset="0" style="stop-color:#36CA8D"/>
		<stop  offset="1" style="stop-color:#008D4B"/>
	</linearGradient>
	<path style="fill:url(#SVGID_00000022523849800148856960000010588415484757813676_);" d="M296.2,270.8c-2.3-2.3-6.1-2.3-8.5,0
		l-1.8,1.8V251c0-3.3-2.7-6-6-6c-3.3,0-6,2.7-6,6v21.5l-1.8-1.8c-2.3-2.3-6.1-2.3-8.5,0c-2.3,2.3-2.3,6.1,0,8.5l12,12
		c1.2,1.2,2.7,1.8,4.2,1.8c1.5,0,3.1-0.6,4.2-1.8l12-12C298.5,276.9,298.5,273.1,296.2,270.8z"/>
</g>
</svg>
