<?xml version="1.0" encoding="utf-8"?>
<!-- Generator: Adobe Illustrator 26.1.0, SVG Export Plug-In . SVG Version: 6.00 Build 0)  -->
<svg version="1.1" id="_37_Email_marketing" xmlns="http://www.w3.org/2000/svg" xmlns:xlink="http://www.w3.org/1999/xlink"
	 x="0px" y="0px" viewBox="0 0 512 512" style="enable-background:new 0 0 512 512;" xml:space="preserve">
<style type="text/css">
	.st0{fill:url(#SVGID_1_);}
	.st1{fill:#FFFFFF;}
	.st2{fill:url(#SVGID_00000040532725440230983720000001501982807966560140_);}
	.st3{fill:url(#SVGID_00000031169678120928157330000004430785461336578710_);}
	.st4{fill:url(#SVGID_00000082356648441411216650000010797050668732727230_);}
	.st5{fill:url(#SVGID_00000132080467491659695370000002436186819250775938_);}
	.st6{fill:url(#SVGID_00000173146482259216711750000002201590351984754586_);}
	.st7{fill:url(#SVGID_00000121967800972045336600000012835458401577856434_);}
	.st8{fill:url(#SVGID_00000062169886258060672970000013777400169813429140_);}
</style>
<g>
	<g>
		
			<linearGradient id="SVGID_1_" gradientUnits="userSpaceOnUse" x1="-1338.25" y1="98.7453" x2="-1282.25" y2="98.7453" gradientTransform="matrix(8 0 0 8 10738 -526)">
			<stop  offset="0" style="stop-color:#016FF5"/>
			<stop  offset="1" style="stop-color:#0045A0"/>
		</linearGradient>
		<path class="st0" d="M456,104h-72c-4.4,0-8,3.6-8,8v224H136V112c0-4.4-3.6-8-8-8H56c-13.2,0-24,10.8-24,24v288c0,4.4,3.6,8,8,8
			h432c4.4,0,8-3.6,8-8V128C480,114.7,469.2,104,456,104z"/>
		<path class="st1" d="M440,136h-56c-4.4,0-8,3.6-8,8v192H136V144c0-4.4-3.6-8-8-8H72c-4.4,0-8,3.6-8,8v240c0,4.4,3.6,8,8,8h368
			c4.4,0,8-3.6,8-8V144C448,139.5,444.4,136,440,136z"/>
		
			<linearGradient id="SVGID_00000170988392281317128600000002569692328053547418_" gradientUnits="userSpaceOnUse" x1="-1342.25" y1="120.7453" x2="-1278.25" y2="120.7453" gradientTransform="matrix(8 0 0 8 10738 -526)">
			<stop  offset="0" style="stop-color:#06A1FF"/>
			<stop  offset="1" style="stop-color:#015ED2"/>
		</linearGradient>
		<path style="fill:url(#SVGID_00000170988392281317128600000002569692328053547418_);" d="M504,408H8c-4.4,0-8,3.6-8,8v32
			c0,13.2,10.8,24,24,24h464c13.2,0,24-10.8,24-24v-32C512,411.5,508.4,408,504,408z"/>
	</g>
	<g>
		<g>
			
				<linearGradient id="SVGID_00000060021875291575045440000008285882671420013236_" gradientUnits="userSpaceOnUse" x1="120" y1="319.6625" x2="392" y2="319.6625" gradientTransform="matrix(1 0 0 -1 0 514)">
				<stop  offset="0" style="stop-color:#C8E5F7"/>
				<stop  offset="1" style="stop-color:#7FC8F2"/>
			</linearGradient>
			<path style="fill:url(#SVGID_00000060021875291575045440000008285882671420013236_);" d="M331.6,40H132c-6.6,0-12,5.4-12,12
				v284.6c0,6.6,5.4,12,12,12h248c6.6,0,12-5.4,12-12V100.5L331.6,40z"/>
			
				<linearGradient id="SVGID_00000140725398047721362770000007694360061674986153_" gradientUnits="userSpaceOnUse" x1="-1328.25" y1="108.8922" x2="-1292.25" y2="108.8922" gradientTransform="matrix(8 0 0 8 10738 -526)">
				<stop  offset="0" style="stop-color:#06A1FF"/>
				<stop  offset="1" style="stop-color:#015ED2"/>
			</linearGradient>
			<path style="fill:url(#SVGID_00000140725398047721362770000007694360061674986153_);" d="M392,353.1H120c-4.4,0-8-3.6-8-8
				s3.6-8,8-8h272c4.4,0,8,3.6,8,8S396.4,353.1,392,353.1z"/>
			
				<linearGradient id="SVGID_00000059993631638886992050000013392268108983646370_" gradientUnits="userSpaceOnUse" x1="-1301.25" y1="74.7547" x2="-1293.25" y2="74.7547" gradientTransform="matrix(8 0 0 8 10738 -526)">
				<stop  offset="0" style="stop-color:#A0D5F4"/>
				<stop  offset="1" style="stop-color:#00ACEA"/>
			</linearGradient>
			<path style="fill:url(#SVGID_00000059993631638886992050000013392268108983646370_);" d="M392,96v8h-56c-4.4,0-8-3.6-8-8V40h8
				c2.2,0,4.2,0.8,5.7,2.3l48,48C391.1,91.9,392,93.9,392,96z"/>
		</g>
		<g>
			
				<linearGradient id="SVGID_00000048468418400481402060000000419582845997280934_" gradientUnits="userSpaceOnUse" x1="-1322.9688" y1="86.5797" x2="-1297.5312" y2="86.5797" gradientTransform="matrix(8 0 0 8 10738 -526)">
				<stop  offset="0" style="stop-color:#06A1FF"/>
				<stop  offset="1" style="stop-color:#015ED2"/>
			</linearGradient>
			<path style="fill:url(#SVGID_00000048468418400481402060000000419582845997280934_);" d="M328.3,143.4
				c-3.9-24.2-24.4-42.6-48.4-42.6c-14.6,0-28.2,6.7-37.5,18.1c-4.8-2.1-9.9-3.1-15.2-3.1c-19.8,0-36.4,15.3-39.1,35.3
				c-19.2,2.8-33.9,19.9-33.9,40.5c0,22.6,17.7,40.9,39.5,40.9h119.7c24.4,0,44.3-20.6,44.3-45.9C357.8,167,345.8,149.8,328.3,143.4
				L328.3,143.4z"/>
			
				<linearGradient id="SVGID_00000008147102655313663080000015350397865648280738_" gradientUnits="userSpaceOnUse" x1="-1315.4968" y1="99.3031" x2="-1311.0032" y2="99.3031" gradientTransform="matrix(8 0 0 8 10738 -526)">
				<stop  offset="0" style="stop-color:#36CA8D"/>
				<stop  offset="1" style="stop-color:#008D4B"/>
			</linearGradient>
			<path style="fill:url(#SVGID_00000008147102655313663080000015350397865648280738_);" d="M248.2,258.2l-12-12
				c-2.3-2.3-6.1-2.3-8.5,0l-12,12c-2.3,2.3-2.3,6.1,0,8.5c2.3,2.3,6.1,2.3,8.5,0l1.8-1.8v21.5c0,3.3,2.7,6,6,6s6-2.7,6-6v-21.5
				l1.8,1.8c1.2,1.2,2.7,1.8,4.2,1.8s3.1-0.6,4.2-1.8C250.6,264.3,250.6,260.5,248.2,258.2z"/>
			
				<linearGradient id="SVGID_00000116916775030134190750000006811321033335072412_" gradientUnits="userSpaceOnUse" x1="-1309.5078" y1="99.2984" x2="-1305.0173" y2="99.2984" gradientTransform="matrix(8 0 0 8 10738 -526)">
				<stop  offset="0" style="stop-color:#36CA8D"/>
				<stop  offset="1" style="stop-color:#008D4B"/>
			</linearGradient>
			<path style="fill:url(#SVGID_00000116916775030134190750000006811321033335072412_);" d="M296.2,270.2c-2.3-2.3-6.1-2.3-8.5,0
				l-1.8,1.8v-21.6c0-3.3-2.7-6-6-6s-6,2.7-6,6v21.5l-1.8-1.8c-2.3-2.3-6.1-2.3-8.5,0c-2.3,2.3-2.3,6.1,0,8.5l12,12
				c1.2,1.2,2.7,1.8,4.2,1.8s3.1-0.6,4.2-1.8l12-12C298.5,276.3,298.5,272.5,296.2,270.2z"/>
		</g>
	</g>
</g>
</svg>
