<?xml version="1.0" encoding="utf-8"?>
<!-- Generator: Adobe Illustrator 26.1.0, SVG Export Plug-In . SVG Version: 6.00 Build 0)  -->
<svg version="1.1" id="Layer_1" xmlns="http://www.w3.org/2000/svg" xmlns:xlink="http://www.w3.org/1999/xlink" x="0px" y="0px"
	 viewBox="0 0 512 512" style="enable-background:new 0 0 512 512;" xml:space="preserve">
<style type="text/css">
	.st0{fill:url(#SVGID_1_);}
	.st1{fill:#0668CB;}
	.st2{fill:url(#SVGID_00000179629758349650945890000017709041136674228356_);}
	.st3{fill:url(#SVGID_00000014627348593110559850000004271144997707584921_);}
	.st4{fill:url(#SVGID_00000006680924704217975170000016208702690609471151_);}
	.st5{fill:url(#SVGID_00000178889562060065569550000018256163837236742028_);}
	.st6{fill:url(#SVGID_00000003077711881679900850000009518911392100429219_);}
	.st7{fill:url(#SVGID_00000066503256839904116930000016013855710842714544_);}
	.st8{fill:url(#SVGID_00000091017002509967160770000002628680299707523214_);}
	.st9{fill:url(#SVGID_00000158024405967488258660000008739521241232819119_);}
	.st10{fill:url(#SVGID_00000049203524685093794310000012895941301300642192_);}
	.st11{fill:#B4CDE1;}
	.st12{fill:url(#SVGID_00000145746643849314765040000000821840647852613760_);}
	.st13{fill:url(#SVGID_00000018939478469436719600000014378006857637161091_);}
	.st14{fill:url(#SVGID_00000168087970771230498680000005637915479494840981_);}
	.st15{fill:url(#SVGID_00000075127059295877273420000006503813089042778802_);}
	.st16{fill:url(#SVGID_00000060720297651893215500000011019959294848340916_);}
	.st17{fill:url(#SVGID_00000011724575227931689330000004705785251399605917_);}
	.st18{fill:#F0F7FC;}
</style>
<g>
	
		<linearGradient id="SVGID_1_" gradientUnits="userSpaceOnUse" x1="-671.0938" y1="719.4855" x2="-671.0938" y2="731.281" gradientTransform="matrix(10.6667 0 0 -10.6667 7414.3335 8025.0005)">
		<stop  offset="0" style="stop-color:#06A1FF"/>
		<stop  offset="1" style="stop-color:#015ED2"/>
	</linearGradient>
	<path class="st0" d="M381.8,286.3v64.2H130.2v-64.2c0-18,11.6-34.1,28.7-39.7l65.6-21.9h62.9l65.6,21.9
		C370.2,252.3,381.8,268.3,381.8,286.3z"/>
	<path class="st1" d="M214.1,235.2h83.9v115.3h-83.9V235.2z"/>
	
		<linearGradient id="SVGID_00000098903665697871071010000017688354630373233826_" gradientUnits="userSpaceOnUse" x1="-671.0938" y1="727.3492" x2="-671.0938" y2="731.281" gradientTransform="matrix(10.6667 0 0 -10.6667 7414.3335 8025.0005)">
		<stop  offset="0" style="stop-color:#D3E6F5"/>
		<stop  offset="1" style="stop-color:#F0F7FC"/>
	</linearGradient>
	<path style="fill:url(#SVGID_00000098903665697871071010000017688354630373233826_);" d="M256,266.6c-17.4,0-31.5-14.1-31.5-31.5
		v-10.5h62.9v10.5C287.5,252.5,273.4,266.6,256,266.6z"/>
	
		<linearGradient id="SVGID_00000119832069294297946950000008159498679477090182_" gradientUnits="userSpaceOnUse" x1="224.5454" y1="256.1238" x2="256" y2="256.1238">
		<stop  offset="0" style="stop-color:#016FF5"/>
		<stop  offset="1" style="stop-color:#0045A0"/>
	</linearGradient>
	<path style="fill:url(#SVGID_00000119832069294297946950000008159498679477090182_);" d="M224.5,224.7l31.5,41.9l-31.5,21V224.7z"
		/>
	
		<linearGradient id="SVGID_00000055707476411276601240000008024799176444147365_" gradientUnits="userSpaceOnUse" x1="256" y1="256.1238" x2="287.4546" y2="256.1238">
		<stop  offset="0" style="stop-color:#016FF5"/>
		<stop  offset="1" style="stop-color:#0045A0"/>
	</linearGradient>
	<path style="fill:url(#SVGID_00000055707476411276601240000008024799176444147365_);" d="M287.5,224.7L256,266.6l31.5,21V224.7z"/>
	
		<linearGradient id="SVGID_00000123429931441589137820000016314655913268856710_" gradientUnits="userSpaceOnUse" x1="172.1212" y1="287.5784" x2="224.5454" y2="287.5784">
		<stop  offset="0" style="stop-color:#06A1FF"/>
		<stop  offset="1" style="stop-color:#015ED2"/>
	</linearGradient>
	<path style="fill:url(#SVGID_00000123429931441589137820000016314655913268856710_);" d="M210.6,229.4l-28,37.2l21,21L172.1,319
		l31.5,31.5h21V224.7L210.6,229.4z"/>
	
		<linearGradient id="SVGID_00000098927989873781376090000010583727646956881071_" gradientUnits="userSpaceOnUse" x1="287.4546" y1="287.5784" x2="339.8788" y2="287.5784">
		<stop  offset="0" style="stop-color:#06A1FF"/>
		<stop  offset="1" style="stop-color:#015ED2"/>
	</linearGradient>
	<path style="fill:url(#SVGID_00000098927989873781376090000010583727646956881071_);" d="M339.9,319l-31.5,31.5h-21V224.7l13.9,4.7
		l28,37.2l-21,21L339.9,319z"/>
	
		<linearGradient id="SVGID_00000033358323297612834870000016615927913621392810_" gradientUnits="userSpaceOnUse" x1="-671.0938" y1="739.1447" x2="-671.0938" y2="750.9401" gradientTransform="matrix(10.6667 0 0 -10.6667 7414.3335 8025.0005)">
		<stop  offset="0" style="stop-color:#FFB850"/>
		<stop  offset="1" style="stop-color:#FF8901"/>
	</linearGradient>
	<path style="fill:url(#SVGID_00000033358323297612834870000016615927913621392810_);" d="M224.5,15h125.8l0,0v83.9
		c0,23.2-18.8,41.9-41.9,41.9H161.6l0,0V77.9C161.6,43.1,189.8,15,224.5,15z"/>
	
		<linearGradient id="SVGID_00000088131582791947811090000017535207825101627043_" gradientUnits="userSpaceOnUse" x1="-671.0938" y1="730.298" x2="-671.0938" y2="744.1713" gradientTransform="matrix(10.6667 0 0 -10.6667 7414.3335 8025.0005)">
		<stop  offset="0" style="stop-color:#D3E6F5"/>
		<stop  offset="1" style="stop-color:#F0F7FC"/>
	</linearGradient>
	<path style="fill:url(#SVGID_00000088131582791947811090000017535207825101627043_);" d="M329.4,98.9v62.9
		c0,40.5-32.9,73.4-73.4,73.4s-73.4-32.9-73.4-73.4V98.9c19.6-13,44.5-15.3,66.2-6.1C274.2,103.7,302.6,105.8,329.4,98.9z"/>
	
		<linearGradient id="SVGID_00000165938561480984294770000009342180286745472428_" gradientUnits="userSpaceOnUse" x1="-677.9744" y1="739.6361" x2="-681.9062" y2="739.6361" gradientTransform="matrix(10.6667 0 0 -10.6667 7414.3335 8025.0005)">
		<stop  offset="0" style="stop-color:#D3E6F5"/>
		<stop  offset="1" style="stop-color:#F0F7FC"/>
	</linearGradient>
	<path style="fill:url(#SVGID_00000165938561480984294770000009342180286745472428_);" d="M166.9,161.8h15.7v-52.4h-15.7
		c-14.5,0-26.2,11.7-26.2,26.2C140.7,150,152.4,161.8,166.9,161.8z"/>
	
		<linearGradient id="SVGID_00000130630648619251619980000001610242232071899835_" gradientUnits="userSpaceOnUse" x1="-1013.7869" y1="739.6361" x2="-1017.7188" y2="739.6361" gradientTransform="matrix(-10.6667 0 0 -10.6667 -10484.334 8025.0005)">
		<stop  offset="0" style="stop-color:#D3E6F5"/>
		<stop  offset="1" style="stop-color:#F0F7FC"/>
	</linearGradient>
	<path style="fill:url(#SVGID_00000130630648619251619980000001610242232071899835_);" d="M345.1,161.8h-15.7v-52.4h15.7
		c14.5,0,26.2,11.7,26.2,26.2C371.3,150,359.6,161.8,345.1,161.8z"/>
	<path class="st11" d="M238.1,200.7c-4.1-4.1-4.1-10.8,0-14.9s10.8-4.1,14.9,0c1.7,1.7,4.4,1.7,6.1,0c0,0,0,0,0,0
		c4.1-4.1,10.7-4.1,14.8-0.1c0,0,0,0,0.1,0.1C287.5,199.1,256.5,219.1,238.1,200.7z"/>
</g>
<g>
	
		<linearGradient id="SVGID_00000129884127382764295560000010474367201158013875_" gradientUnits="userSpaceOnUse" x1="-671.0938" y1="713.4858" x2="-671.0938" y2="728.7851" gradientTransform="matrix(10.6667 0 0 -10.6667 7414.3335 8025.0005)">
		<stop  offset="0" style="stop-color:#D3E6F5"/>
		<stop  offset="1" style="stop-color:#F0F7FC"/>
	</linearGradient>
	<path style="fill:url(#SVGID_00000129884127382764295560000010474367201158013875_);" d="M174.4,251.3h163.2
		c11.3,0,20.4,9.1,20.4,20.4v122.4c0,11.3-9.1,20.4-20.4,20.4H174.4c-11.3,0-20.4-9.1-20.4-20.4V271.7
		C154,260.4,163.1,251.3,174.4,251.3z"/>
	<g>
		
			<linearGradient id="SVGID_00000000197715938524646910000010844876200886867646_" gradientUnits="userSpaceOnUse" x1="213.1639" y1="181.0416" x2="237.734" y2="181.0416" gradientTransform="matrix(1 0 0 -1 0 514)">
			<stop  offset="0" style="stop-color:#FFB850"/>
			<stop  offset="1" style="stop-color:#FF8901"/>
		</linearGradient>
		<path style="fill:url(#SVGID_00000000197715938524646910000010844876200886867646_);" d="M231.6,351.3c-3.3,0-3.5-0.9-16.6-14
			c-2.4-2.4-2.4-6.3-0.1-8.7c0,0,0,0,0.1-0.1l12.2-12.2c2.4-2.4,6.3-2.4,8.7,0c2.4,2.4,2.4,6.3,0,8.7l-7.9,7.9l8,7.9
			c2.4,2.4,2.4,6.3,0.1,8.7C234.8,350.7,233.2,351.3,231.6,351.3z"/>
		
			<linearGradient id="SVGID_00000012471817090904536200000007158114289589630360_" gradientUnits="userSpaceOnUse" x1="274.3619" y1="181.0416" x2="298.9121" y2="181.0416" gradientTransform="matrix(1 0 0 -1 0 514)">
			<stop  offset="0" style="stop-color:#FFB850"/>
			<stop  offset="1" style="stop-color:#FF8901"/>
		</linearGradient>
		<path style="fill:url(#SVGID_00000012471817090904536200000007158114289589630360_);" d="M280.5,351.3c-3.4,0-6.1-2.7-6.1-6.1
			c0-1.7,0.6-3.2,1.8-4.4l7.9-7.9l-8-7.9c-2.4-2.4-2.4-6.3,0-8.7c2.4-2.4,6.3-2.4,8.7,0l12.2,12.2c2.4,2.4,2.4,6.3,0.1,8.7
			c0,0,0,0-0.1,0.1C283.8,350.6,283.8,351.3,280.5,351.3z"/>
		
			<linearGradient id="SVGID_00000166671576797346624580000017535188983057061280_" gradientUnits="userSpaceOnUse" x1="243.6075" y1="181.1114" x2="268.4413" y2="181.1114" gradientTransform="matrix(1 0 0 -1 0 514)">
			<stop  offset="0" style="stop-color:#FFB850"/>
			<stop  offset="1" style="stop-color:#FF8901"/>
		</linearGradient>
		<path style="fill:url(#SVGID_00000166671576797346624580000017535188983057061280_);" d="M249.9,363.6c-3.4,0.1-6.2-2.6-6.3-5.9
			c0-0.6,0.1-1.1,0.2-1.7L256,307c0.8-3.4,4.2-5.5,7.6-4.6c3.4,0.8,5.5,4.2,4.6,7.6L256,358.9C255.4,361.7,252.8,363.7,249.9,363.6z
			"/>
	</g>
</g>
<g>
	
		<linearGradient id="SVGID_00000040551789986653771980000013447095181613511308_" gradientUnits="userSpaceOnUse" x1="-678.4287" y1="711.6572" x2="-658.1708" y2="711.6572" gradientTransform="matrix(10.6667 0 0 -10.6667 7414.3335 8025.0005)">
		<stop  offset="0" style="stop-color:#FFB850"/>
		<stop  offset="1" style="stop-color:#FF8901"/>
	</linearGradient>
	<path style="fill:url(#SVGID_00000040551789986653771980000013447095181613511308_);" d="M177.8,381.9c9.5-9.5,22.5-14.9,36-14.9
		c24.9,0,28.6-1.2,46,7.5H297c8.2,0,14.9,6.7,14.9,14.9c0,16.5-13.3,29.8-29.8,29.8h-22.4c-4.1,0-7.5,3.3-7.5,7.5s3.3,7.5,7.5,7.5
		h67.1l39.2-58.8c3.5-5.1,9.2-8.2,15.4-8.3c6.9,0,12.4,5.6,12.4,12.4c0,3.6,1.9-2.2-37.3,91.9L288,496.2c-8.9,3.2-18.3,4.9-27.7,4.9
		c-11,0-11.3-0.7-82.6-14.9V381.9z"/>
	
		<linearGradient id="SVGID_00000079473750991171447320000018138832584809598352_" gradientUnits="userSpaceOnUse" x1="-681.2227" y1="705.3681" x2="-681.2227" y2="717.9411" gradientTransform="matrix(10.6667 0 0 -10.6667 7414.3335 8025.0005)">
		<stop  offset="0" style="stop-color:#06A1FF"/>
		<stop  offset="1" style="stop-color:#015ED2"/>
	</linearGradient>
	<path style="fill:url(#SVGID_00000079473750991171447320000018138832584809598352_);" d="M133.1,367h29.8c8.2,0,14.9,6.7,14.9,14.9
		v104.3c0,8.2-6.7,14.9-14.9,14.9h-29.8c-8.2,0-14.9-6.7-14.9-14.9V381.9C118.2,373.6,124.8,367,133.1,367z"/>
	<circle class="st18" cx="148" cy="396.8" r="7.5"/>
</g>
</svg>
