<?xml version="1.0" encoding="utf-8"?>
<!-- Generator: Adobe Illustrator 26.1.0, SVG Export Plug-In . SVG Version: 6.00 Build 0)  -->
<svg version="1.1" id="Layer_1" xmlns="http://www.w3.org/2000/svg" xmlns:xlink="http://www.w3.org/1999/xlink" x="0px" y="0px"
	 viewBox="0 0 512 512" style="enable-background:new 0 0 512 512;" xml:space="preserve">
<style type="text/css">
	.st0{fill:#FFFFFF;}
	.st1{fill:url(#SVGID_1_);}
	.st2{fill:url(#SVGID_00000132780274045559438390000012566800995682041265_);}
	.st3{fill:url(#SVGID_00000075855059927441333900000001009885275674415750_);}
	.st4{fill:url(#SVGID_00000010283588017409300670000012614475299101112999_);}
	.st5{fill:url(#SVGID_00000054982039514607298930000007600371643385625220_);}
</style>
<circle class="st0" cx="255.9" cy="256" r="140.6"/>
<g>
	
		<linearGradient id="SVGID_1_" gradientUnits="userSpaceOnUse" x1="245.2" y1="782.25" x2="310.1076" y2="782.25" gradientTransform="matrix(1 0 0 1 0 -526)">
		<stop  offset="0" style="stop-color:#FFB850"/>
		<stop  offset="1" style="stop-color:#FF8901"/>
	</linearGradient>
	<path class="st1" d="M277.7,212.9h-21.6c-5.9,0-10.9,4.8-10.9,10.9v64.9c0,5.9,4.8,10.9,10.9,10.9c5.9,0,10.9-4.8,10.9-10.9v-10.9
		h10.9c17.9,0,32.4-14.6,32.4-32.4C310.1,227.2,295.5,212.9,277.7,212.9z M277.7,256h-10.9v-21.6h10.9c5.9,0,10.9,4.8,10.9,10.9
		C288.3,251.2,283.6,256,277.7,256z"/>
	
		<linearGradient id="SVGID_00000119819835021740835920000018003561534789928097_" gradientUnits="userSpaceOnUse" x1="158.6" y1="782.2" x2="223.5075" y2="782.2" gradientTransform="matrix(1 0 0 1 0 -526)">
		<stop  offset="0" style="stop-color:#FFB850"/>
		<stop  offset="1" style="stop-color:#FF8901"/>
	</linearGradient>
	<path style="fill:url(#SVGID_00000119819835021740835920000018003561534789928097_);" d="M191,212.9c-17.9,0-32.4,14.6-32.4,32.4
		v43.3c0,5.9,4.8,10.9,10.9,10.9c5.9,0,10.9-4.8,10.9-10.9v-10.9H202v10.9c0,5.9,4.8,10.9,10.9,10.9c5.9,0,10.9-4.8,10.9-10.9v-43.3
		C223.5,227.2,208.9,212.9,191,212.9z M180.2,256v-10.7c0-5.9,4.8-10.9,10.9-10.9c5.9,0,10.9,4.8,10.9,10.9v10.9h-21.7L180.2,256
		L180.2,256z"/>
	
		<linearGradient id="SVGID_00000158729042569955896740000014923026925849813416_" gradientUnits="userSpaceOnUse" x1="331.7031" y1="781.95" x2="353.3388" y2="781.95" gradientTransform="matrix(1 0 0 1 0 -526)">
		<stop  offset="0" style="stop-color:#FFB850"/>
		<stop  offset="1" style="stop-color:#FF8901"/>
	</linearGradient>
	<path style="fill:url(#SVGID_00000158729042569955896740000014923026925849813416_);" d="M342.5,299.3c-5.9,0-10.9-4.8-10.9-10.9
		v-64.9c0-5.9,4.8-10.9,10.9-10.9c5.9,0,10.9,4.8,10.9,10.9v64.9C353.4,294.5,348.4,299.3,342.5,299.3z"/>
</g>
<linearGradient id="SVGID_00000140710689736712715540000002503226299152179866_" gradientUnits="userSpaceOnUse" x1="-2059.2427" y1="665.8386" x2="-2059.2427" y2="701.3492" gradientTransform="matrix(10.6667 0 0 -10.6667 22243.0508 7499.0005)">
	<stop  offset="0" style="stop-color:#06A1FF"/>
	<stop  offset="1" style="stop-color:#015ED2"/>
</linearGradient>
<path style="fill:url(#SVGID_00000140710689736712715540000002503226299152179866_);" d="M490.3,115.4H260
	c-76.1-0.9-139.5,57.9-144.7,133.8c-3.7,77.6,56,143.6,133.6,147.3c2.4,0.2,4.6,0.2,7,0.2H106.3C68.7,357,48.6,303.9,50.4,249.4
	c3.7-111.7,98.8-198.9,210.7-198.9h124.8V32.6c0-7.9,6.5-14.6,14.6-14.6l0,0c3.9-0.4,7.7,0.7,10.9,2.9l88.1,68.4
	c6.3,5,7.6,14,2.6,20.3C499,113.4,494.8,115.4,490.3,115.4L490.3,115.4z"/>
<linearGradient id="SVGID_00000103954648602970239140000007694892604588704188_" gradientUnits="userSpaceOnUse" x1="-2486.6841" y1="1040.7749" x2="-2486.6841" y2="1076.2855" gradientTransform="matrix(-10.6667 0 0 10.6667 -26290.3848 -10986.334)">
	<stop  offset="0" style="stop-color:#FFB850"/>
	<stop  offset="1" style="stop-color:#FF8901"/>
</linearGradient>
<path style="fill:url(#SVGID_00000103954648602970239140000007694892604588704188_);" d="M21.7,396.6H252
	c76.1,0.9,139.5-57.9,144.7-133.8c3.7-77.6-56-143.6-133.6-147.3c-2.4-0.2-4.6-0.2-7-0.2h149.7c37.6,39.6,57.7,92.7,55.8,147.3
	c-3.7,112.2-98.8,198.9-210.7,198.9H126.2v17.9c0,7.9-6.5,14.6-14.6,14.6l0,0c-3.9,0.4-7.7-0.7-10.9-2.9l-88.1-68.4
	c-6.3-5-7.6-14-2.6-20.3C13,398.8,17.2,396.6,21.7,396.6z"/>
</svg>
