<?xml version="1.0" encoding="utf-8"?>
<!-- Generator: Adobe Illustrator 26.1.0, SVG Export Plug-In . SVG Version: 6.00 Build 0)  -->
<svg version="1.1" id="_49_Blogging" xmlns="http://www.w3.org/2000/svg" xmlns:xlink="http://www.w3.org/1999/xlink" x="0px"
	 y="0px" viewBox="0 0 512 512" style="enable-background:new 0 0 512 512;" xml:space="preserve">
<style type="text/css">
	.st0{fill:url(#SVGID_1_);}
	.st1{fill:#FFFFFF;}
	.st2{fill:url(#SVGID_00000075857191979463631420000000818379316576143239_);}
	.st3{fill:url(#SVGID_00000119830106499775929320000012638918865582940835_);}
	.st4{fill:url(#SVGID_00000124131991960884133360000005046399352165807496_);}
	.st5{fill:url(#SVGID_00000034049413180124040120000004313555393809502854_);}
	.st6{fill:url(#SVGID_00000074436129983823288940000011261604556103959946_);}
	.st7{fill:url(#SVGID_00000134251869065731466130000005332295483906435517_);}
	.st8{fill:url(#SVGID_00000053526441523178624700000010607418491629062545_);}
	.st9{fill:url(#SVGID_00000114759234578285630150000014852227824358294963_);}
	.st10{fill:url(#SVGID_00000040555750709879225120000001629734906068064689_);}
	.st11{fill:url(#SVGID_00000149345785867231148290000000653925198280409265_);}
	.st12{fill:url(#SVGID_00000042700617673412015430000012488170854611920054_);}
	.st13{fill:url(#SVGID_00000151541759204828695800000004562888063536000917_);}
	.st14{fill:url(#SVGID_00000176732645948302841870000006366065419719128989_);}
	.st15{fill:url(#SVGID_00000101787639142726642440000006290414371385091252_);}
	.st16{fill:url(#SVGID_00000142172966395509474750000013032069910052262530_);}
	.st17{fill:url(#SVGID_00000152262442265650798840000014702941007373794961_);}
</style>
<linearGradient id="SVGID_1_" gradientUnits="userSpaceOnUse" x1="-667.125" y1="707.068" x2="-611.125" y2="707.068" gradientTransform="matrix(8 0 0 -8 5369 5953)">
	<stop  offset="0" style="stop-color:#016FF5"/>
	<stop  offset="1" style="stop-color:#0045A0"/>
</linearGradient>
<path class="st0" d="M456,136.5h-72c-4.4,0-8,3.6-8,8v224H136v-224c0-4.4-3.6-8-8-8H56c-13.2,0-24,10.8-24,24v288c0,4.4,3.6,8,8,8
	h432c4.4,0,8-3.6,8-8v-288C480,147.2,469.2,136.5,456,136.5z"/>
<path class="st1" d="M440,168.5h-56c-4.4,0-8,3.6-8,8v192H136v-192c0-4.4-3.6-8-8-8H72c-4.4,0-8,3.6-8,8v240c0,4.4,3.6,8,8,8h368
	c4.4,0,8-3.6,8-8v-240C448,172,444.4,168.5,440,168.5z"/>
<linearGradient id="SVGID_00000147197988869712454670000009640212631631708809_" gradientUnits="userSpaceOnUse" x1="120" y1="225.7082" x2="392" y2="225.7082">
	<stop  offset="0" style="stop-color:#C8E5F7"/>
	<stop  offset="1" style="stop-color:#7FC8F2"/>
</linearGradient>
<path style="fill:url(#SVGID_00000147197988869712454670000009640212631631708809_);" d="M331.6,71.4H132c-6.6,0-12,5.4-12,12V368
	c0,6.6,5.4,12,12,12h248c6.6,0,12-5.4,12-12V131.9L331.6,71.4z"/>
<linearGradient id="SVGID_00000145746309480827889460000000183915201519658151_" gradientUnits="userSpaceOnUse" x1="-671.125" y1="685.068" x2="-607.125" y2="685.068" gradientTransform="matrix(8 0 0 -8 5369 5953)">
	<stop  offset="0" style="stop-color:#06A1FF"/>
	<stop  offset="1" style="stop-color:#015ED2"/>
</linearGradient>
<path style="fill:url(#SVGID_00000145746309480827889460000000183915201519658151_);" d="M504,440.5H8c-4.4,0-8,3.6-8,8v32
	c0,13.2,10.8,24,24,24h464c13.2,0,24-10.8,24-24v-32C512,444,508.4,440.5,504,440.5z"/>
<linearGradient id="SVGID_00000148658529118992583470000012102730676509305519_" gradientUnits="userSpaceOnUse" x1="-657.125" y1="697.068" x2="-621.125" y2="697.068" gradientTransform="matrix(8 0 0 -8 5369 5953)">
	<stop  offset="0" style="stop-color:#06A1FF"/>
	<stop  offset="1" style="stop-color:#015ED2"/>
</linearGradient>
<path style="fill:url(#SVGID_00000148658529118992583470000012102730676509305519_);" d="M392,384.5H120c-4.4,0-8-3.6-8-8s3.6-8,8-8
	h272c4.4,0,8,3.6,8,8S396.4,384.5,392,384.5z"/>
<linearGradient id="SVGID_00000115483066646971573230000016227089739399834296_" gradientUnits="userSpaceOnUse" x1="-630.125" y1="731.195" x2="-622.125" y2="731.195" gradientTransform="matrix(8 0 0 -8 5369 5953)">
	<stop  offset="0" style="stop-color:#A0D5F4"/>
	<stop  offset="1" style="stop-color:#00ACEA"/>
</linearGradient>
<path style="fill:url(#SVGID_00000115483066646971573230000016227089739399834296_);" d="M392,127.4v8h-56c-4.4,0-8-3.6-8-8v-56h8
	c2.2,0,4.2,0.8,5.7,2.3l48,48C391.1,123.3,392,125.3,392,127.4z"/>
<linearGradient id="SVGID_00000121244782063947966080000018168427517031711400_" gradientUnits="userSpaceOnUse" x1="-652.125" y1="724.068" x2="-646.125" y2="724.068" gradientTransform="matrix(8 0 0 -8 5369 5953)">
	<stop  offset="0" style="stop-color:#A0D5F4"/>
	<stop  offset="1" style="stop-color:#00ACEA"/>
</linearGradient>
<path style="fill:url(#SVGID_00000121244782063947966080000018168427517031711400_);" d="M192,168.5h-32c-4.4,0-8-3.6-8-8s3.6-8,8-8
	h32c4.4,0,8,3.6,8,8S196.4,168.5,192,168.5z"/>
<linearGradient id="SVGID_00000066502303955791155140000005256610154252732862_" gradientUnits="userSpaceOnUse" x1="-652.125" y1="720.068" x2="-646.125" y2="720.068" gradientTransform="matrix(8 0 0 -8 5369 5953)">
	<stop  offset="0" style="stop-color:#A0D5F4"/>
	<stop  offset="1" style="stop-color:#00ACEA"/>
</linearGradient>
<path style="fill:url(#SVGID_00000066502303955791155140000005256610154252732862_);" d="M192,200.5h-32c-4.4,0-8-3.6-8-8s3.6-8,8-8
	h32c4.4,0,8,3.6,8,8S196.4,200.5,192,200.5z"/>
<linearGradient id="SVGID_00000030448780888163417000000011008494673337420959_" gradientUnits="userSpaceOnUse" x1="-652.125" y1="716.068" x2="-646.125" y2="716.068" gradientTransform="matrix(8 0 0 -8 5369 5953)">
	<stop  offset="0" style="stop-color:#A0D5F4"/>
	<stop  offset="1" style="stop-color:#00ACEA"/>
</linearGradient>
<path style="fill:url(#SVGID_00000030448780888163417000000011008494673337420959_);" d="M192,232.5h-32c-4.4,0-8-3.6-8-8s3.6-8,8-8
	h32c4.4,0,8,3.6,8,8S196.4,232.5,192,232.5z"/>
<linearGradient id="SVGID_00000018932839038306408670000014473668583675751559_" gradientUnits="userSpaceOnUse" x1="-652.125" y1="712.068" x2="-645.125" y2="712.068" gradientTransform="matrix(8 0 0 -8 5369 5953)">
	<stop  offset="0" style="stop-color:#A0D5F4"/>
	<stop  offset="1" style="stop-color:#00ACEA"/>
</linearGradient>
<path style="fill:url(#SVGID_00000018932839038306408670000014473668583675751559_);" d="M200,264.5h-40c-4.4,0-8-3.6-8-8s3.6-8,8-8
	h40c4.4,0,8,3.6,8,8C208,260.9,204.4,264.5,200,264.5z"/>
<linearGradient id="SVGID_00000132064208938657232270000015983637195902052788_" gradientUnits="userSpaceOnUse" x1="-652.125" y1="708.068" x2="-644.125" y2="708.068" gradientTransform="matrix(8 0 0 -8 5369 5953)">
	<stop  offset="0" style="stop-color:#A0D5F4"/>
	<stop  offset="1" style="stop-color:#00ACEA"/>
</linearGradient>
<path style="fill:url(#SVGID_00000132064208938657232270000015983637195902052788_);" d="M208,296.5h-48c-4.4,0-8-3.6-8-8s3.6-8,8-8
	h48c4.4,0,8,3.6,8,8S212.4,296.5,208,296.5z"/>
<linearGradient id="SVGID_00000073689894195110118160000016861760803272593592_" gradientUnits="userSpaceOnUse" x1="-652.125" y1="704.068" x2="-641.125" y2="704.068" gradientTransform="matrix(8 0 0 -8 5369 5953)">
	<stop  offset="0" style="stop-color:#A0D5F4"/>
	<stop  offset="1" style="stop-color:#00ACEA"/>
</linearGradient>
<path style="fill:url(#SVGID_00000073689894195110118160000016861760803272593592_);" d="M232,328.5h-72c-4.4,0-8-3.6-8-8s3.6-8,8-8
	h72c4.4,0,8,3.6,8,8S236.4,328.5,232,328.5z"/>
<linearGradient id="SVGID_00000103243323822468899990000006089998476625962407_" gradientUnits="userSpaceOnUse" x1="152" y1="320.456" x2="360" y2="320.456">
	<stop  offset="0" style="stop-color:#A0D5F4"/>
	<stop  offset="1" style="stop-color:#00ACEA"/>
</linearGradient>
<path style="fill:url(#SVGID_00000103243323822468899990000006089998476625962407_);" d="M352,328.5H160c-4.4,0-8-3.6-8-8l0,0
	c0-4.4,3.6-8,8-8h192c4.4,0,8,3.6,8,8l0,0C360,324.9,356.4,328.5,352,328.5z"/>
<linearGradient id="SVGID_00000137814783214780324320000006204798255030540712_" gradientUnits="userSpaceOnUse" x1="152" y1="288.456" x2="360" y2="288.456">
	<stop  offset="0" style="stop-color:#A0D5F4"/>
	<stop  offset="1" style="stop-color:#00ACEA"/>
</linearGradient>
<path style="fill:url(#SVGID_00000137814783214780324320000006204798255030540712_);" d="M352,296.5H160c-4.4,0-8-3.6-8-8l0,0
	c0-4.4,3.6-8,8-8h192c4.4,0,8,3.6,8,8l0,0C360,292.9,356.4,296.5,352,296.5z"/>
<linearGradient id="SVGID_00000011739482136938946610000010317063642122787230_" gradientUnits="userSpaceOnUse" x1="152" y1="256.456" x2="360" y2="256.456">
	<stop  offset="0" style="stop-color:#A0D5F4"/>
	<stop  offset="1" style="stop-color:#00ACEA"/>
</linearGradient>
<path style="fill:url(#SVGID_00000011739482136938946610000010317063642122787230_);" d="M352,264.5H160c-4.4,0-8-3.6-8-8l0,0
	c0-4.4,3.6-8,8-8h192c4.4,0,8,3.6,8,8l0,0C360,260.9,356.4,264.5,352,264.5z"/>
<linearGradient id="SVGID_00000104692278840239200060000013060571426153179011_" gradientUnits="userSpaceOnUse" x1="152" y1="224.456" x2="360" y2="224.456">
	<stop  offset="0" style="stop-color:#A0D5F4"/>
	<stop  offset="1" style="stop-color:#00ACEA"/>
</linearGradient>
<path style="fill:url(#SVGID_00000104692278840239200060000013060571426153179011_);" d="M352,232.5H160c-4.4,0-8-3.6-8-8v0
	c0-4.4,3.6-8,8-8h192c4.4,0,8,3.6,8,8v0C360,228.9,356.4,232.5,352,232.5z"/>
<linearGradient id="SVGID_00000129908766597402713140000007445879560211457681_" gradientUnits="userSpaceOnUse" x1="152" y1="192.456" x2="360" y2="192.456">
	<stop  offset="0" style="stop-color:#A0D5F4"/>
	<stop  offset="1" style="stop-color:#00ACEA"/>
</linearGradient>
<path style="fill:url(#SVGID_00000129908766597402713140000007445879560211457681_);" d="M352,200.5H160c-4.4,0-8-3.6-8-8v0
	c0-4.4,3.6-8,8-8h192c4.4,0,8,3.6,8,8v0C360,196.9,356.4,200.5,352,200.5z"/>
<linearGradient id="SVGID_00000159459730493224205090000000526932714070642318_" gradientUnits="userSpaceOnUse" x1="152" y1="160.456" x2="360" y2="160.456">
	<stop  offset="0" style="stop-color:#A0D5F4"/>
	<stop  offset="1" style="stop-color:#00ACEA"/>
</linearGradient>
<path style="fill:url(#SVGID_00000159459730493224205090000000526932714070642318_);" d="M352,168.5H160c-4.4,0-8-3.6-8-8v0
	c0-4.4,3.6-8,8-8h192c4.4,0,8,3.6,8,8v0C360,164.9,356.4,168.5,352,168.5z"/>
</svg>
