<?xml version="1.0" encoding="utf-8"?>
<!-- Generator: Adobe Illustrator 26.1.0, SVG Export Plug-In . SVG Version: 6.00 Build 0)  -->
<svg version="1.1" id="Layer_1" xmlns="http://www.w3.org/2000/svg" xmlns:xlink="http://www.w3.org/1999/xlink" x="0px" y="0px"
	 viewBox="0 0 512 512" style="enable-background:new 0 0 512 512;" xml:space="preserve">
<style type="text/css">
	.st0{fill:url(#SVGID_1_);}
	.st1{fill:#D7E9F7;}
	.st2{fill:url(#SVGID_00000040544944855547849520000016704109253733539509_);}
	.st3{fill:url(#SVGID_00000096739267161913834290000013886785071595180674_);}
	.st4{fill:url(#SVGID_00000027566286758294020110000004747292665117561216_);}
	.st5{fill:url(#SVGID_00000144312229303223736260000018303752718865089153_);}
	.st6{fill:url(#SVGID_00000139274972455749047970000016109451534799584184_);}
	.st7{fill:url(#SVGID_00000037669036290601735650000013962914895353195150_);}
	.st8{fill:url(#SVGID_00000051378348724145656730000004515027135134913409_);}
	.st9{fill:url(#SVGID_00000096776969239255206580000008194243283710840761_);}
	.st10{fill:url(#SVGID_00000157275590059966179420000016574269116396615557_);}
	.st11{fill:url(#SVGID_00000147216681920694651840000003023580653424198580_);}
	.st12{fill:url(#SVGID_00000140016629820621706040000002393693685372929710_);}
	.st13{fill:url(#SVGID_00000153693629165084746660000008568421073432344192_);}
	.st14{fill:#FFFFFF;}
	.st15{fill:url(#SVGID_00000121259582218080551150000017749424507218635186_);}
	.st16{fill:url(#SVGID_00000095299637085130161700000007751532053584314018_);}
	.st17{fill:url(#SVGID_00000030465996815772492700000010904563321710944936_);}
	.st18{fill:url(#SVGID_00000178194312244560586360000004160198557626268042_);}
	.st19{fill:url(#SVGID_00000021820541991323925470000016863714442046578603_);}
</style>
<linearGradient id="SVGID_1_" gradientUnits="userSpaceOnUse" x1="-1370.1887" y1="96.3115" x2="-1370.1887" y2="50.3179" gradientTransform="matrix(10.6667 0 0 10.6667 14828.6924 -526.0257)">
	<stop  offset="0" style="stop-color:#D3E6F5"/>
	<stop  offset="1" style="stop-color:#F0F7FC"/>
</linearGradient>
<path class="st0" d="M394.6,74.7V480c0,11.8-9.6,21.3-21.3,21.3h-320c-11.8,0-21.3-9.6-21.3-21.3V32c0-11.8,9.6-21.3,21.3-21.3
	h277.3L394.6,74.7z"/>
<path class="st1" d="M394.6,74.7h-64v-64L394.6,74.7z"/>
<g>
	
		<linearGradient id="SVGID_00000051367149102155597770000017217844772481930174_" gradientUnits="userSpaceOnUse" x1="63.9" y1="332.7" x2="127.9" y2="332.7" gradientTransform="matrix(1 0 0 -1 0 514)">
		<stop  offset="0" style="stop-color:#A0D5F4"/>
		<stop  offset="1" style="stop-color:#00ACEA"/>
	</linearGradient>
	<path style="fill:url(#SVGID_00000051367149102155597770000017217844772481930174_);" d="M117.3,192H74.6
		c-5.9,0-10.7-4.8-10.7-10.7s4.8-10.7,10.7-10.7h42.7c5.9,0,10.7,4.8,10.7,10.7C127.9,187.2,123.2,192,117.3,192z"/>
	
		<linearGradient id="SVGID_00000006696413136949889820000005034794687800668830_" gradientUnits="userSpaceOnUse" x1="63.9" y1="247.4" x2="202.6" y2="247.4" gradientTransform="matrix(1 0 0 -1 0 514)">
		<stop  offset="0" style="stop-color:#A0D5F4"/>
		<stop  offset="1" style="stop-color:#00ACEA"/>
	</linearGradient>
	<path style="fill:url(#SVGID_00000006696413136949889820000005034794687800668830_);" d="M191.9,277.3H74.6
		c-5.9,0-10.7-4.8-10.7-10.7c0-5.9,4.8-10.7,10.7-10.7h117.3c5.9,0,10.7,4.8,10.7,10.7C202.6,272.6,197.8,277.3,191.9,277.3z"/>
	
		<linearGradient id="SVGID_00000120525210185048617540000014994135507229430163_" gradientUnits="userSpaceOnUse" x1="234.596" y1="290" x2="298.596" y2="290" gradientTransform="matrix(1 0 0 -1 0 514)">
		<stop  offset="0" style="stop-color:#A0D5F4"/>
		<stop  offset="1" style="stop-color:#00ACEA"/>
	</linearGradient>
	<path style="fill:url(#SVGID_00000120525210185048617540000014994135507229430163_);" d="M287.9,234.7h-42.7
		c-5.9,0-10.7-4.8-10.7-10.7s4.8-10.7,10.7-10.7h42.7c5.9,0,10.7,4.8,10.7,10.7S293.8,234.7,287.9,234.7z"/>
	
		<linearGradient id="SVGID_00000178886206336005741600000017734076203105728685_" gradientUnits="userSpaceOnUse" x1="63.9" y1="204.7" x2="138.6" y2="204.7" gradientTransform="matrix(1 0 0 -1 0 514)">
		<stop  offset="0" style="stop-color:#A0D5F4"/>
		<stop  offset="1" style="stop-color:#00ACEA"/>
	</linearGradient>
	<path style="fill:url(#SVGID_00000178886206336005741600000017734076203105728685_);" d="M127.9,320H74.6
		c-5.9,0-10.7-4.8-10.7-10.7c0-5.9,4.8-10.7,10.7-10.7h53.3c5.9,0,10.7,4.8,10.7,10.7C138.6,315.2,133.8,320,127.9,320z"/>
	
		<linearGradient id="SVGID_00000014636157147557396550000011892330218790014082_" gradientUnits="userSpaceOnUse" x1="63.9" y1="162" x2="202.6" y2="162" gradientTransform="matrix(1 0 0 -1 0 514)">
		<stop  offset="0" style="stop-color:#A0D5F4"/>
		<stop  offset="1" style="stop-color:#00ACEA"/>
	</linearGradient>
	<path style="fill:url(#SVGID_00000014636157147557396550000011892330218790014082_);" d="M191.9,362.7H74.6
		c-5.9,0-10.7-4.8-10.7-10.7s4.8-10.7,10.7-10.7h117.3c5.9,0,10.7,4.8,10.7,10.7S197.8,362.7,191.9,362.7z"/>
	
		<linearGradient id="SVGID_00000130635322361863386190000001924226886206349459_" gradientUnits="userSpaceOnUse" x1="63.9" y1="119.4" x2="138.6" y2="119.4" gradientTransform="matrix(1 0 0 -1 0 514)">
		<stop  offset="0" style="stop-color:#A0D5F4"/>
		<stop  offset="1" style="stop-color:#00ACEA"/>
	</linearGradient>
	<path style="fill:url(#SVGID_00000130635322361863386190000001924226886206349459_);" d="M127.9,405.3H74.6
		c-5.9,0-10.7-4.8-10.7-10.7c0-5.9,4.8-10.7,10.7-10.7h53.3c5.9,0,10.7,4.8,10.7,10.7C138.6,400.6,133.8,405.3,127.9,405.3z"/>
	
		<linearGradient id="SVGID_00000158030403071410127300000003549087299168370109_" gradientUnits="userSpaceOnUse" x1="63.9" y1="290" x2="213.3" y2="290" gradientTransform="matrix(1 0 0 -1 0 514)">
		<stop  offset="0" style="stop-color:#A0D5F4"/>
		<stop  offset="1" style="stop-color:#00ACEA"/>
	</linearGradient>
	<path style="fill:url(#SVGID_00000158030403071410127300000003549087299168370109_);" d="M202.6,234.7h-128
		c-5.9,0-10.7-4.8-10.7-10.7s4.8-10.7,10.7-10.7h128c5.9,0,10.7,4.8,10.7,10.7S208.5,234.7,202.6,234.7z"/>
	
		<linearGradient id="SVGID_00000028286436663305305440000004175193368927541140_" gradientUnits="userSpaceOnUse" x1="149.2" y1="332.7" x2="362.6" y2="332.7" gradientTransform="matrix(1 0 0 -1 0 514)">
		<stop  offset="0" style="stop-color:#A0D5F4"/>
		<stop  offset="1" style="stop-color:#00ACEA"/>
	</linearGradient>
	<path style="fill:url(#SVGID_00000028286436663305305440000004175193368927541140_);" d="M351.9,192h-192
		c-5.9,0-10.7-4.8-10.7-10.7s4.8-10.7,10.7-10.7h192c5.9,0,10.7,4.8,10.7,10.7S357.8,192,351.9,192z"/>
	
		<linearGradient id="SVGID_00000143613137199133098150000008976875811572711607_" gradientUnits="userSpaceOnUse" x1="159.9" y1="204.7" x2="202.6" y2="204.7" gradientTransform="matrix(1 0 0 -1 0 514)">
		<stop  offset="0" style="stop-color:#A0D5F4"/>
		<stop  offset="1" style="stop-color:#00ACEA"/>
	</linearGradient>
	<path style="fill:url(#SVGID_00000143613137199133098150000008976875811572711607_);" d="M191.9,320h-21.3
		c-5.9,0-10.7-4.8-10.7-10.7c0-5.9,4.8-10.7,10.7-10.7h21.3c5.9,0,10.7,4.8,10.7,10.7C202.6,315.2,197.8,320,191.9,320z"/>
</g>
<g>
	
		<linearGradient id="SVGID_00000072254934875616752150000014473086305189972883_" gradientUnits="userSpaceOnUse" x1="63.9374" y1="622.275" x2="106.7626" y2="622.275" gradientTransform="matrix(1 0 0 1 0 -526)">
		<stop  offset="0" style="stop-color:#FFB850"/>
		<stop  offset="1" style="stop-color:#FF8901"/>
	</linearGradient>
	<path style="fill:url(#SVGID_00000072254934875616752150000014473086305189972883_);" d="M96,128.3c-5.8,0-6.1-1.6-28.9-24.4
		C62.9,99.8,62.9,93,67,88.8c0,0,0,0,0.1-0.1l21.3-21.3c4.2-4.2,11-4.2,15.1,0c4.2,4.2,4.2,11,0,15.1L89.7,96.3l13.9,13.8
		c4.2,4.1,4.2,10.9,0.1,15.1C101.6,127.2,98.9,128.3,96,128.3z"/>
	
		<linearGradient id="SVGID_00000039119720673142324980000001015999368909428893_" gradientUnits="userSpaceOnUse" x1="170.5965" y1="622.275" x2="213.3871" y2="622.275" gradientTransform="matrix(1 0 0 1 0 -526)">
		<stop  offset="0" style="stop-color:#FFB850"/>
		<stop  offset="1" style="stop-color:#FF8901"/>
	</linearGradient>
	<path style="fill:url(#SVGID_00000039119720673142324980000001015999368909428893_);" d="M181.3,128.3c-5.9,0-10.7-4.7-10.7-10.6
		c0-2.9,1.1-5.6,3.2-7.6l13.8-13.8l-13.9-13.8c-4.2-4.2-4.2-11,0-15.1c4.2-4.2,11-4.2,15.1,0l21.3,21.3c4.2,4.1,4.2,10.9,0.1,15.1
		c0,0,0,0-0.1,0.1C187,127.1,187.1,128.3,181.3,128.3z"/>
	
		<linearGradient id="SVGID_00000127011597835010305950000013122798323868312736_" gradientUnits="userSpaceOnUse" x1="117" y1="622.1533" x2="160.285" y2="622.1533" gradientTransform="matrix(1 0 0 1 0 -526)">
		<stop  offset="0" style="stop-color:#FFB850"/>
		<stop  offset="1" style="stop-color:#FF8901"/>
	</linearGradient>
	<path style="fill:url(#SVGID_00000127011597835010305950000013122798323868312736_);" d="M128,149.6c-5.9,0.2-10.8-4.5-11-10.3
		c0-1,0.1-1.9,0.3-2.9l21.3-85.3c1.4-5.9,7.3-9.5,13.2-8.1s9.5,7.3,8.1,13.2l-21.3,85.3C137.5,146.4,133,149.8,128,149.6z"/>
</g>
<g>
	<circle class="st14" cx="341.1" cy="365.9" r="86.3"/>
	<g>
		
			<linearGradient id="SVGID_00000114783287020302557980000001865514049667939996_" gradientUnits="userSpaceOnUse" x1="334.5" y1="892" x2="374.3436" y2="892" gradientTransform="matrix(1 0 0 1 0 -526)">
			<stop  offset="0" style="stop-color:#FFB850"/>
			<stop  offset="1" style="stop-color:#FF8901"/>
		</linearGradient>
		<path style="fill:url(#SVGID_00000114783287020302557980000001865514049667939996_);" d="M354.4,339.4h-13.2
			c-3.6,0-6.7,2.9-6.7,6.7v39.8c0,3.6,2.9,6.7,6.7,6.7c3.6,0,6.7-2.9,6.7-6.7v-6.7h6.7c11,0,19.9-8.9,19.9-19.9
			C374.4,348.3,365.4,339.4,354.4,339.4z M354.4,365.9h-6.7v-13.2h6.7c3.6,0,6.7,2.9,6.7,6.7C361,363,358.1,365.9,354.4,365.9z"/>
		
			<linearGradient id="SVGID_00000093167881512216652180000006247011278349618064_" gradientUnits="userSpaceOnUse" x1="281.4" y1="892" x2="321.2435" y2="892" gradientTransform="matrix(1 0 0 1 0 -526)">
			<stop  offset="0" style="stop-color:#FFB850"/>
			<stop  offset="1" style="stop-color:#FF8901"/>
		</linearGradient>
		<path style="fill:url(#SVGID_00000093167881512216652180000006247011278349618064_);" d="M301.3,339.4c-11,0-19.9,8.9-19.9,19.9
			v26.6c0,3.6,2.9,6.7,6.7,6.7c3.6,0,6.7-2.9,6.7-6.7v-6.7H308v6.7c0,3.6,2.9,6.7,6.7,6.7c3.6,0,6.7-2.9,6.7-6.7v-26.6
			C321.2,348.3,312.2,339.4,301.3,339.4z M294.6,365.9v-6.6c0-3.6,2.9-6.7,6.7-6.7c3.6,0,6.7,2.9,6.7,6.7v6.7h-13.3v-0.1H294.6z"/>
		
			<linearGradient id="SVGID_00000088818574798945126270000014350369084735065791_" gradientUnits="userSpaceOnUse" x1="387.6216" y1="891.9" x2="400.9026" y2="891.9" gradientTransform="matrix(1 0 0 1 0 -526)">
			<stop  offset="0" style="stop-color:#FFB850"/>
			<stop  offset="1" style="stop-color:#FF8901"/>
		</linearGradient>
		<path style="fill:url(#SVGID_00000088818574798945126270000014350369084735065791_);" d="M394.3,392.5c-3.6,0-6.7-2.9-6.7-6.7V346
			c0-3.6,2.9-6.7,6.7-6.7c3.6,0,6.7,2.9,6.7,6.7v39.8C400.9,389.5,397.9,392.5,394.3,392.5z"/>
	</g>
	
		<linearGradient id="SVGID_00000173123235996334807810000008068604843353793678_" gradientUnits="userSpaceOnUse" x1="-2052.0564" y1="660.6354" x2="-2052.0564" y2="682.426" gradientTransform="matrix(10.6667 0 0 -10.6667 22243.0508 7499.0005)">
		<stop  offset="0" style="stop-color:#06A1FF"/>
		<stop  offset="1" style="stop-color:#015ED2"/>
	</linearGradient>
	<path style="fill:url(#SVGID_00000173123235996334807810000008068604843353793678_);" d="M485,279.6H343.6
		c-46.7-0.6-85.6,35.5-88.8,82.1c-2.3,47.6,34.4,88.1,82,90.4c1.5,0.1,2.8,0.1,4.3,0.1h-91.9c-23.1-24.3-35.4-56.9-34.3-90.4
		c2.3-68.6,60.6-122.1,129.3-122.1h76.6v-11c0-4.9,4-8.9,8.9-8.9l0,0c2.4-0.2,4.8,0.5,6.7,1.8l54.1,42c3.8,3.1,4.6,8.6,1.6,12.4
		C490.3,278.3,487.7,279.6,485,279.6L485,279.6z"/>
	
		<linearGradient id="SVGID_00000090985278258655186360000017766766827028568246_" gradientUnits="userSpaceOnUse" x1="-2495.4534" y1="1056.178" x2="-2495.4534" y2="1077.9592" gradientTransform="matrix(-10.6667 0 0 10.6667 -26290.3848 -10986.334)">
		<stop  offset="0" style="stop-color:#FFB850"/>
		<stop  offset="1" style="stop-color:#FF8901"/>
	</linearGradient>
	<path style="fill:url(#SVGID_00000090985278258655186360000017766766827028568246_);" d="M197.3,452.2h141.4
		c46.7,0.6,85.6-35.5,88.8-82.1c2.3-47.6-34.4-88.1-82-90.4c-1.5-0.1-2.8-0.1-4.3-0.1h91.9c23.1,24.3,35.4,56.9,34.3,90.4
		c-2.3,68.9-60.7,122-129.4,122h-76.6v11c0,4.9-4,8.9-8.9,8.9l0,0c-2.4,0.2-4.8-0.5-6.7-1.8l-54.1-42c-3.8-3.1-4.6-8.6-1.6-12.4
		C192,453.6,194.6,452.2,197.3,452.2z"/>
</g>
</svg>
