<?xml version="1.0" encoding="utf-8"?>
<!-- Generator: Adobe Illustrator 26.1.0, SVG Export Plug-In . SVG Version: 6.00 Build 0)  -->
<svg version="1.1" id="_34_Time_management" xmlns="http://www.w3.org/2000/svg" xmlns:xlink="http://www.w3.org/1999/xlink"
	 x="0px" y="0px" viewBox="0 0 512 512" style="enable-background:new 0 0 512 512;" xml:space="preserve">
<style type="text/css">
	.st0{fill:url(#SVGID_1_);}
	.st1{fill:url(#SVGID_00000042696691351384756360000000666892465392120460_);}
	.st2{fill:url(#SVGID_00000111872425770963323080000000030163123940086400_);}
	.st3{fill:url(#SVGID_00000058586854313667495890000015685775910203201181_);}
	.st4{fill:#80E170;}
	.st5{fill:url(#SVGID_00000172435418689223746260000003719206491594621081_);}
	.st6{fill:#FFFFFF;}
	.st7{font-family:'ArialRoundedMTBold';}
	.st8{font-size:100px;}
</style>
<linearGradient id="SVGID_1_" gradientUnits="userSpaceOnUse" x1="-670.2973" y1="718.0223" x2="-618.2979" y2="718.0223" gradientTransform="matrix(8 0 0 -8 5369 5953)">
	<stop  offset="0" style="stop-color:#06A1FF"/>
	<stop  offset="1" style="stop-color:#015ED2"/>
</linearGradient>
<path class="st0" d="M419.8,174.7c-0.4-2.3-1.8-4.3-3.8-5.5l-28.2-17c-2.9-8.8-6.4-17.4-10.6-25.7l7.9-32c0.6-2.3,0.1-4.7-1.3-6.6
	c-13.3-18.7-29.6-34.9-48.3-48.3c-1.9-1.4-4.3-1.8-6.6-1.3l-32,7.9c-8.3-4.2-16.9-7.7-25.6-10.6l-17-28.2c-1.2-2-3.2-3.4-5.5-3.8
	c-22.7-3.8-45.6-3.8-68.3,0c-2.3,0.4-4.3,1.8-5.5,3.8l-17,28.2c-8.8,2.9-17.4,6.4-25.6,10.6l-32-7.9c-2.3-0.6-4.7-0.1-6.6,1.3
	C75,53,58.8,69.2,45.4,87.9c-1.4,1.9-1.8,4.3-1.3,6.6l7.9,32c-4.2,8.2-7.7,16.8-10.6,25.7l-28.2,17c-2,1.2-3.4,3.2-3.8,5.5
	c-3.8,22.7-3.8,45.6,0,68.3c0.4,2.3,1.8,4.3,3.8,5.5l28.2,17c2.9,8.8,6.4,17.4,10.6,25.7l-7.9,32c-0.6,2.3-0.1,4.7,1.3,6.6
	C58.8,348.4,75,364.7,93.7,378c1.9,1.4,4.3,1.8,6.6,1.3l32-7.9c8.2,4.2,16.8,7.7,25.6,10.6l17,28.2c1.2,2,3.2,3.4,5.5,3.8
	c11.3,1.9,22.7,2.8,34.1,2.8s22.8-0.9,34.2-2.8c2.3-0.4,4.3-1.8,5.5-3.8l17-28.2c8.8-2.9,17.4-6.4,25.6-10.6l32,7.9
	c2.3,0.6,4.7,0.1,6.6-1.3c18.7-13.4,34.9-29.6,48.3-48.3c1.4-1.9,1.8-4.3,1.3-6.6l-7.9-32c4.2-8.2,7.7-16.9,10.6-25.7l28.2-17
	c2-1.2,3.4-3.2,3.8-5.5C423.6,220.3,423.6,197.3,419.8,174.7L419.8,174.7z M302.6,208.8c0,48.5-39.5,88-88,88s-88-39.5-88-88
	s39.5-88,88-88S302.6,160.3,302.6,208.8z"/>
<linearGradient id="SVGID_00000141455832531255842570000001585700685494860186_" gradientUnits="userSpaceOnUse" x1="-628.125" y1="690.124" x2="-608.125" y2="690.124" gradientTransform="matrix(8 0 0 -8 5369 5953)">
	<stop  offset="0" style="stop-color:#36CA8D"/>
	<stop  offset="1" style="stop-color:#008D4B"/>
</linearGradient>
<circle style="fill:url(#SVGID_00000141455832531255842570000001585700685494860186_);" cx="424" cy="432" r="80"/>
<linearGradient id="SVGID_00000111886602950768359920000003346760248372767639_" gradientUnits="userSpaceOnUse" x1="-623.1252" y1="689.6241" x2="-613.1248" y2="689.6241" gradientTransform="matrix(8 0 0 -8 5369 5953)">
	<stop  offset="0" style="stop-color:#C8E5F7"/>
	<stop  offset="1" style="stop-color:#7FC8F2"/>
</linearGradient>
<path style="fill:url(#SVGID_00000111886602950768359920000003346760248372767639_);" d="M416,464c-2,0-4.1-0.8-5.7-2.3l-24-24
	c-3.1-3.1-3.1-8.2,0-11.3s8.2-3.1,11.3,0l18.3,18.3l34.3-34.3c3.1-3.1,8.2-3.1,11.3,0s3.1,8.2,0,11.3l-40,40
	C420.1,463.2,418,464,416,464z"/>
<linearGradient id="SVGID_00000091703549242054436960000000235855623356216453_" gradientUnits="userSpaceOnUse" x1="-648.125" y1="689.624" x2="-633.125" y2="689.624" gradientTransform="matrix(8 0 0 -8 5369 5953)">
	<stop  offset="0" style="stop-color:#C8E5F7"/>
	<stop  offset="1" style="stop-color:#7FC8F2"/>
</linearGradient>
<path style="fill:url(#SVGID_00000091703549242054436960000000235855623356216453_);" d="M296,472H192c-4.4,0-8-3.6-8-8s3.6-8,8-8
	h96v-48c0-4.4,3.6-8,8-8s8,3.6,8,8v56C304,468.4,300.4,472,296,472z"/>
<circle class="st4" cx="176" cy="464" r="24"/>
<g>
	
		<linearGradient id="SVGID_00000077291927605555379910000008337950448461544324_" gradientUnits="userSpaceOnUse" x1="-659.2976" y1="718.0223" x2="-629.2976" y2="718.0223" gradientTransform="matrix(8 0 0 -8 5369 5953)">
		<stop  offset="0" style="stop-color:#FFB850"/>
		<stop  offset="1" style="stop-color:#FF8901"/>
	</linearGradient>
	<circle style="fill:url(#SVGID_00000077291927605555379910000008337950448461544324_);" cx="214.6" cy="208.8" r="120"/>
	<text transform="matrix(1 0 0 1 129.6584 241.4749)" class="st6 st7 st8">API</text>
</g>
</svg>
