<?xml version="1.0" encoding="utf-8"?>
<!-- Generator: Adobe Illustrator 26.1.0, SVG Export Plug-In . SVG Version: 6.00 Build 0)  -->
<svg version="1.1" id="_34_Time_management" xmlns="http://www.w3.org/2000/svg" xmlns:xlink="http://www.w3.org/1999/xlink"
	 x="0px" y="0px" viewBox="0 0 512 512" style="enable-background:new 0 0 512 512;" xml:space="preserve">
<style type="text/css">
	.st0{fill:url(#SVGID_1_);}
	.st1{fill:url(#SVGID_00000029768047099582007360000016754034466097229993_);}
	.st2{fill:url(#SVGID_00000093865164032603846780000000668308827582608519_);}
	.st3{fill:url(#SVGID_00000070831352739715384940000011883887298895261104_);}
	.st4{fill:#80E170;}
	.st5{fill:url(#SVGID_00000086658289111193393200000014098425810302766220_);}
	.st6{fill:#FFFFFF;}
</style>
<linearGradient id="SVGID_1_" gradientUnits="userSpaceOnUse" x1="-1341.4313" y1="91.8469" x2="-1289.4203" y2="91.8469" gradientTransform="matrix(8 0 0 8 10738 -526)">
	<stop  offset="0" style="stop-color:#06A1FF"/>
	<stop  offset="1" style="stop-color:#015ED2"/>
</linearGradient>
<path class="st0" d="M419.8,174.7c-0.4-2.3-1.8-4.3-3.8-5.5l-28.2-17c-2.9-8.8-6.4-17.4-10.6-25.7l7.9-32c0.6-2.3,0.1-4.7-1.3-6.6
	c-13.3-18.7-29.6-34.9-48.3-48.3c-1.9-1.4-4.3-1.8-6.6-1.3l-32,7.9c-8.3-4.2-16.9-7.7-25.6-10.6l-17-28.2c-1.2-2-3.2-3.4-5.5-3.8
	c-22.7-3.8-45.6-3.8-68.3,0c-2.3,0.4-4.3,1.8-5.5,3.8l-17,28.2c-8.8,2.9-17.4,6.4-25.6,10.6l-32-7.9c-2.3-0.6-4.7-0.1-6.6,1.3
	C75,53,58.8,69.2,45.4,87.9c-1.4,1.9-1.8,4.3-1.3,6.6l7.9,32c-4.2,8.2-7.7,16.8-10.6,25.7l-28.2,17c-2,1.2-3.4,3.2-3.8,5.5
	c-3.8,22.7-3.8,45.6,0,68.3c0.4,2.3,1.8,4.3,3.8,5.5l28.2,17c2.9,8.8,6.4,17.4,10.6,25.7l-7.9,32c-0.6,2.3-0.1,4.7,1.3,6.6
	C58.8,348.4,75,364.7,93.7,378c1.9,1.4,4.3,1.8,6.6,1.3l32-7.9c8.2,4.2,16.8,7.7,25.6,10.6l17,28.2c1.2,2,3.2,3.4,5.5,3.8
	c11.3,1.9,22.7,2.8,34.1,2.8s22.8-0.9,34.2-2.8c2.3-0.4,4.3-1.8,5.5-3.8l17-28.2c8.8-2.9,17.4-6.4,25.6-10.6l32,7.9
	c2.3,0.6,4.7,0.1,6.6-1.3c18.7-13.4,34.9-29.6,48.3-48.3c1.4-1.9,1.8-4.3,1.3-6.6l-7.9-32c4.2-8.2,7.7-16.9,10.6-25.7l28.2-17
	c2-1.2,3.4-3.2,3.8-5.5C423.6,220.3,423.6,197.3,419.8,174.7L419.8,174.7z M302.6,208.8c0,48.5-39.5,88-88,88s-88-39.5-88-88
	s39.5-88,88-88S302.6,160.3,302.6,208.8z"/>
<linearGradient id="SVGID_00000042000784336312167870000018416587600969508232_" gradientUnits="userSpaceOnUse" x1="-1299.25" y1="119.75" x2="-1279.25" y2="119.75" gradientTransform="matrix(8 0 0 8 10738 -526)">
	<stop  offset="0" style="stop-color:#36CA8D"/>
	<stop  offset="1" style="stop-color:#008D4B"/>
</linearGradient>
<circle style="fill:url(#SVGID_00000042000784336312167870000018416587600969508232_);" cx="424" cy="432" r="80"/>
<linearGradient id="SVGID_00000054977368099212538400000010684951557634654141_" gradientUnits="userSpaceOnUse" x1="-1294.2532" y1="120.2547" x2="-1284.2528" y2="120.2547" gradientTransform="matrix(8 0 0 8 10738 -526)">
	<stop  offset="0" style="stop-color:#C8E5F7"/>
	<stop  offset="1" style="stop-color:#7FC8F2"/>
</linearGradient>
<path style="fill:url(#SVGID_00000054977368099212538400000010684951557634654141_);" d="M416,464c-2,0-4.1-0.8-5.7-2.3l-24-24
	c-3.1-3.1-3.1-8.2,0-11.3s8.2-3.1,11.3,0l18.3,18.3l34.3-34.3c3.1-3.1,8.2-3.1,11.3,0s3.1,8.2,0,11.3l-40,40
	C420.1,463.2,418,464,416,464z"/>
<linearGradient id="SVGID_00000168827870993884849140000001497275990395502228_" gradientUnits="userSpaceOnUse" x1="-1319.25" y1="120.25" x2="-1304.25" y2="120.25" gradientTransform="matrix(8 0 0 8 10738 -526)">
	<stop  offset="0" style="stop-color:#C8E5F7"/>
	<stop  offset="1" style="stop-color:#7FC8F2"/>
</linearGradient>
<path style="fill:url(#SVGID_00000168827870993884849140000001497275990395502228_);" d="M296,472H192c-4.4,0-8-3.6-8-8s3.6-8,8-8
	h96v-48c0-4.4,3.6-8,8-8s8,3.6,8,8v56C304,468.4,300.4,472,296,472z"/>
<circle class="st4" cx="176" cy="464" r="24"/>
<linearGradient id="SVGID_00000138558666212195766960000006853658893201679245_" gradientUnits="userSpaceOnUse" x1="-1330.4313" y1="91.85" x2="-1300.4313" y2="91.85" gradientTransform="matrix(8 0 0 8 10738 -526)">
	<stop  offset="0" style="stop-color:#FFB850"/>
	<stop  offset="1" style="stop-color:#FF8901"/>
</linearGradient>
<circle style="fill:url(#SVGID_00000138558666212195766960000006853658893201679245_);" cx="214.6" cy="208.8" r="120"/>
<g>
	<path class="st6" d="M231.3,175.3h-16.7c-4.6,0-8.4,3.8-8.4,8.4V234c0,4.6,3.8,8.4,8.4,8.4s8.4-3.8,8.4-8.4v-8.4h8.3
		c13.9,0,25.1-11.2,25.1-25.1S245.2,175.3,231.3,175.3z M231.3,208.8h-8.4v-16.7h8.4c4.6,0,8.4,3.8,8.4,8.4
		C239.7,205,235.9,208.8,231.3,208.8z"/>
	<path class="st6" d="M164.3,175.3c-13.9,0-25.1,11.2-25.1,25.1v33.5c0,4.6,3.8,8.4,8.4,8.4s8.4-3.8,8.4-8.4v-8.4h16.7v8.4
		c0,4.6,3.8,8.4,8.4,8.4s8.4-3.8,8.4-8.4v-33.5C189.4,186.5,178.1,175.3,164.3,175.3z M155.8,208.8v-8.4c0-4.6,3.8-8.4,8.4-8.4
		s8.4,3.8,8.4,8.4v8.4H155.8z"/>
	<path class="st6" d="M281.5,242.3c-4.6,0-8.4-3.8-8.4-8.4v-50.3c0-4.6,3.8-8.4,8.4-8.4c4.6,0,8.4,3.8,8.4,8.4v50.3
		C290,238.6,286.2,242.3,281.5,242.3z"/>
</g>
</svg>
