<?xml version="1.0" encoding="utf-8"?>
<!-- Generator: Adobe Illustrator 26.1.0, SVG Export Plug-In . SVG Version: 6.00 Build 0)  -->
<svg version="1.1" id="Layer_1" xmlns="http://www.w3.org/2000/svg" xmlns:xlink="http://www.w3.org/1999/xlink" x="0px" y="0px"
	 viewBox="0 0 512 512" style="enable-background:new 0 0 512 512;" xml:space="preserve">
<style type="text/css">
	.st0{fill:url(#SVGID_1_);}
	.st1{fill:url(#SVGID_00000119820576275957893660000016727951054992827528_);}
	.st2{fill:url(#SVGID_00000162325195740073439950000000436520132916451766_);}
	.st3{fill:url(#SVGID_00000119806167387853348780000006038191633131412654_);}
	.st4{fill:url(#SVGID_00000004543059563385005710000006689664823727605382_);}
	.st5{fill:url(#SVGID_00000017486542293333969360000011432930045460392638_);}
	.st6{fill:url(#SVGID_00000150791894235722412420000002338042089360282285_);}
	.st7{fill:url(#SVGID_00000116915651935538480940000008724176871979981501_);}
	.st8{fill:url(#SVGID_00000156546735695564012840000016700401042477946517_);}
	.st9{fill:url(#SVGID_00000109026359889437180930000010489609178696451459_);}
	.st10{fill:url(#SVGID_00000070093973830837836440000009577402180238494868_);}
	.st11{fill:url(#SVGID_00000072278826064561790550000004011697110571278753_);}
	.st12{fill:url(#SVGID_00000145040487695769941760000007479027474215652757_);}
	.st13{fill:url(#SVGID_00000104698852581590992640000001853589939795030684_);}
	.st14{fill:url(#SVGID_00000051352038483101797790000007103759297980578180_);}
	.st15{fill:url(#SVGID_00000021822417801891548160000004626633177990525622_);}
	.st16{fill:url(#SVGID_00000131356886158102638670000014502466842455025556_);}
	.st17{fill:url(#SVGID_00000021799929346846743080000012392342902850652592_);}
	.st18{fill:url(#SVGID_00000124880613163298281990000015455932590424712377_);}
	.st19{fill:url(#SVGID_00000008134176323499837650000005275277266271053451_);}
</style>
<linearGradient id="SVGID_1_" gradientUnits="userSpaceOnUse" x1="-1327.4929" y1="122.9102" x2="-1285.0898" y2="80.507" gradientTransform="matrix(8 0 0 8 10738 -526)">
	<stop  offset="0" style="stop-color:#016FF5"/>
	<stop  offset="1" style="stop-color:#0045A0"/>
</linearGradient>
<path class="st0" d="M512,344v-24c0-13.2-10.8-24-24-24h-14.8c4.4-18.3,6.8-37.1,6.8-56C480,107.7,372.3,0,240,0S0,107.7,0,240
	s107.7,240,240,240c16.1,0,32.2-1.6,48-4.8V488c0,13.2,10.8,24,24,24h176c13.2,0,24-10.8,24-24v-24c0-13.2-10.8-24-24-24
	c13.2,0,24-10.8,24-24v-24c0-13.2-10.8-24-24-24C501.2,368,512,357.2,512,344z"/>
<g>
	
		<linearGradient id="SVGID_00000147900772419754449450000015213347367397917569_" gradientUnits="userSpaceOnUse" x1="-1300.6188" y1="133.6187" x2="-1283.8812" y2="116.8812" gradientTransform="matrix(8 0 0 8 10738 -526)">
		<stop  offset="0" style="stop-color:#A258CD"/>
		<stop  offset="0.2769" style="stop-color:#A45BCE"/>
		<stop  offset="0.4714" style="stop-color:#A964D1"/>
		<stop  offset="0.6405" style="stop-color:#B174D5"/>
		<stop  offset="0.7951" style="stop-color:#BD89DC"/>
		<stop  offset="0.9387" style="stop-color:#CDA6E4"/>
		<stop  offset="1" style="stop-color:#D5B4E8"/>
	</linearGradient>
	<path style="fill:url(#SVGID_00000147900772419754449450000015213347367397917569_);" d="M488,440H312c-13.2,0-24,10.8-24,24v24
		c0,13.2,10.8,24,24,24h176c13.2,0,24-10.8,24-24v-24C512,450.8,501.2,440,488,440z"/>
	
		<linearGradient id="SVGID_00000135680480834636611970000015219848251943947420_" gradientUnits="userSpaceOnUse" x1="-1300.6188" y1="124.6188" x2="-1283.8812" y2="107.8812" gradientTransform="matrix(8 0 0 8 10738 -526)">
		<stop  offset="0" style="stop-color:#A7ADF0"/>
		<stop  offset="1" style="stop-color:#E0E0E2"/>
	</linearGradient>
	<path style="fill:url(#SVGID_00000135680480834636611970000015219848251943947420_);" d="M488,368H312c-13.2,0-24,10.8-24,24v24
		c0,13.2,10.8,24,24,24h176c13.2,0,24-10.8,24-24v-24C512,378.8,501.2,368,488,368z"/>
	
		<linearGradient id="SVGID_00000183238974990253397320000007423128623459409847_" gradientUnits="userSpaceOnUse" x1="-1300.6188" y1="115.6188" x2="-1283.8812" y2="98.8812" gradientTransform="matrix(8 0 0 8 10738 -526)">
		<stop  offset="0" style="stop-color:#A258CD"/>
		<stop  offset="0.2769" style="stop-color:#A45BCE"/>
		<stop  offset="0.4714" style="stop-color:#A964D1"/>
		<stop  offset="0.6405" style="stop-color:#B174D5"/>
		<stop  offset="0.7951" style="stop-color:#BD89DC"/>
		<stop  offset="0.9387" style="stop-color:#CDA6E4"/>
		<stop  offset="1" style="stop-color:#D5B4E8"/>
	</linearGradient>
	<path style="fill:url(#SVGID_00000183238974990253397320000007423128623459409847_);" d="M488,296H312c-13.2,0-24,10.8-24,24v24
		c0,13.2,10.8,24,24,24h176c13.2,0,24-10.8,24-24v-24C512,306.8,501.2,296,488,296z"/>
	<g>
		
			<linearGradient id="SVGID_00000137838186602869618270000007683323074955155608_" gradientUnits="userSpaceOnUse" x1="-1284.7063" y1="107.7063" x2="-1282.7919" y2="105.7918" gradientTransform="matrix(8 0 0 8 10738 -526)">
			<stop  offset="0" style="stop-color:#A7ADF0"/>
			<stop  offset="1" style="stop-color:#E0E0E2"/>
		</linearGradient>
		<path style="fill:url(#SVGID_00000137838186602869618270000007683323074955155608_);" d="M472,336h-8c-4.4,0-8-3.6-8-8s3.6-8,8-8
			h8c4.4,0,8,3.6,8,8S476.4,336,472,336z"/>
	</g>
	<g>
		
			<linearGradient id="SVGID_00000028288402954482832960000001393351721295018431_" gradientUnits="userSpaceOnUse" x1="-1289.7063" y1="107.7063" x2="-1287.7919" y2="105.7918" gradientTransform="matrix(8 0 0 8 10738 -526)">
			<stop  offset="0" style="stop-color:#A7ADF0"/>
			<stop  offset="1" style="stop-color:#E0E0E2"/>
		</linearGradient>
		<path style="fill:url(#SVGID_00000028288402954482832960000001393351721295018431_);" d="M432,336h-8c-4.4,0-8-3.6-8-8s3.6-8,8-8
			h8c4.4,0,8,3.6,8,8S436.4,336,432,336z"/>
	</g>
	<g>
		
			<linearGradient id="SVGID_00000006672340264889947440000000771328945735717300_" gradientUnits="userSpaceOnUse" x1="-1284.7063" y1="116.7063" x2="-1282.7919" y2="114.7918" gradientTransform="matrix(8 0 0 8 10738 -526)">
			<stop  offset="0" style="stop-color:#006DF0"/>
			<stop  offset="1" style="stop-color:#57A4FF"/>
		</linearGradient>
		<path style="fill:url(#SVGID_00000006672340264889947440000000771328945735717300_);" d="M472,408h-8c-4.4,0-8-3.6-8-8s3.6-8,8-8
			h8c4.4,0,8,3.6,8,8S476.4,408,472,408z"/>
	</g>
	<g>
		
			<linearGradient id="SVGID_00000152237083444045344190000000458421988854212486_" gradientUnits="userSpaceOnUse" x1="-1289.7063" y1="116.7063" x2="-1287.7919" y2="114.7918" gradientTransform="matrix(8 0 0 8 10738 -526)">
			<stop  offset="0" style="stop-color:#006DF0"/>
			<stop  offset="1" style="stop-color:#57A4FF"/>
		</linearGradient>
		<path style="fill:url(#SVGID_00000152237083444045344190000000458421988854212486_);" d="M432,408h-8c-4.4,0-8-3.6-8-8s3.6-8,8-8
			h8c4.4,0,8,3.6,8,8S436.4,408,432,408z"/>
	</g>
	<g>
		
			<linearGradient id="SVGID_00000102535991329199476150000014240312918530281649_" gradientUnits="userSpaceOnUse" x1="-1284.7063" y1="125.7063" x2="-1282.7919" y2="123.7918" gradientTransform="matrix(8 0 0 8 10738 -526)">
			<stop  offset="0" style="stop-color:#A7ADF0"/>
			<stop  offset="1" style="stop-color:#E0E0E2"/>
		</linearGradient>
		<path style="fill:url(#SVGID_00000102535991329199476150000014240312918530281649_);" d="M472,480h-8c-4.4,0-8-3.6-8-8s3.6-8,8-8
			h8c4.4,0,8,3.6,8,8S476.4,480,472,480z"/>
	</g>
	<g>
		
			<linearGradient id="SVGID_00000000190498644363388350000003795912636061661616_" gradientUnits="userSpaceOnUse" x1="-1289.7063" y1="125.7063" x2="-1287.7919" y2="123.7918" gradientTransform="matrix(8 0 0 8 10738 -526)">
			<stop  offset="0" style="stop-color:#A7ADF0"/>
			<stop  offset="1" style="stop-color:#E0E0E2"/>
		</linearGradient>
		<path style="fill:url(#SVGID_00000000190498644363388350000003795912636061661616_);" d="M432,480h-8c-4.4,0-8-3.6-8-8s3.6-8,8-8
			h8c4.4,0,8,3.6,8,8S436.4,480,432,480z"/>
	</g>
</g>
<linearGradient id="SVGID_00000060725245440471524650000011268983042826374028_" gradientUnits="userSpaceOnUse" x1="-1326.0093" y1="108.9786" x2="-1291.3179" y2="74.2862" gradientTransform="matrix(8 0 0 8 10738 -526)">
	<stop  offset="0" style="stop-color:#06A1FF"/>
	<stop  offset="1" style="stop-color:#015ED2"/>
</linearGradient>
<path style="fill:url(#SVGID_00000060725245440471524650000011268983042826374028_);" d="M288,392c0-12.7,9.9-23,22.4-23.8l0.1-0.3
	C298,367.1,288,356.7,288,344v-24c0-13.2,10.8-24,24-24h39.9l0.1-0.1v-24l-56,16l-24-72h24l32,24l48-16l16-16v-32h16l24,40V256h47.5
	c0.4-5.3,0.5-10.6,0.5-16c0-105.9-69-195.9-164.3-227.7L288,40h-64l-48,24v24h-48l-8,23.9h48l48,24.2h56V168h-72l-40-24.1l-72,24
	l-32,40v48l40,48l32-8h40v40l24,24v24l32,56h16l48-34.2V392z"/>
<g>
	
		<linearGradient id="SVGID_00000085961048258964094440000018216982759034964611_" gradientUnits="userSpaceOnUse" x1="-1309.1875" y1="112.8125" x2="-1279.1875" y2="112.8125" gradientTransform="matrix(8 0 0 8 10738 -526)">
		<stop  offset="0" style="stop-color:#D3E6F5"/>
		<stop  offset="1" style="stop-color:#F0F7FC"/>
	</linearGradient>
	<path style="fill:url(#SVGID_00000085961048258964094440000018216982759034964611_);" d="M280.5,248.5h208c8.8,0,16,7.2,16,16v224
		c0,8.8-7.2,16-16,16h-208c-8.8,0-16-7.2-16-16v-224C264.5,255.7,271.7,248.5,280.5,248.5z"/>
	
		<linearGradient id="SVGID_00000112632956894662358220000010082091503984591489_" gradientUnits="userSpaceOnUse" x1="-1310.1875" y1="112.8125" x2="-1278.1875" y2="112.8125" gradientTransform="matrix(8 0 0 8 10738 -526)">
		<stop  offset="0" style="stop-color:#06A1FF"/>
		<stop  offset="1" style="stop-color:#015ED2"/>
	</linearGradient>
	<path style="fill:url(#SVGID_00000112632956894662358220000010082091503984591489_);" d="M488.5,512.5h-208c-13.2,0-24-10.8-24-24
		v-224c0-13.2,10.8-24,24-24h208c13.2,0,24,10.8,24,24v224C512.5,501.7,501.7,512.5,488.5,512.5z M280.5,256.5c-4.4,0-8,3.6-8,8v224
		c0,4.4,3.6,8,8,8h208c4.4,0,8-3.6,8-8v-224c0-4.4-3.6-8-8-8H280.5z"/>
	
		<linearGradient id="SVGID_00000137836684420447804540000018232621615433234842_" gradientUnits="userSpaceOnUse" x1="-1302.1875" y1="112.8125" x2="-1286.1875" y2="112.8125" gradientTransform="matrix(8 0 0 8 10738 -526)">
		<stop  offset="0" style="stop-color:#016FF5"/>
		<stop  offset="1" style="stop-color:#0045A0"/>
	</linearGradient>
	<path style="fill:url(#SVGID_00000137836684420447804540000018232621615433234842_);" d="M328.5,352.5h112c4.4,0,8,3.6,8,8v32
		c0,4.4-3.6,8-8,8h-112c-4.4,0-8-3.6-8-8v-32C320.5,356.1,324.1,352.5,328.5,352.5z"/>
	
		<linearGradient id="SVGID_00000136393296105262548520000004456470251594275474_" gradientUnits="userSpaceOnUse" x1="-1304.1875" y1="106.8125" x2="-1284.1875" y2="106.8125" gradientTransform="matrix(8 0 0 8 10738 -526)">
		<stop  offset="0" style="stop-color:#06A1FF"/>
		<stop  offset="1" style="stop-color:#015ED2"/>
	</linearGradient>
	<path style="fill:url(#SVGID_00000136393296105262548520000004456470251594275474_);" d="M459.8,293.2c-3-3-7-4.7-11.3-4.7h-128
		c-4.3,0-8.3,1.7-11.3,4.7s-4.7,7-4.7,11.3v48c0,4.3,1.7,8.3,4.7,11.3s7,4.7,11.3,4.7h128c4.3,0,8.3-1.7,11.3-4.7s4.7-7,4.7-11.3
		v-48C464.5,300.2,462.8,296.2,459.8,293.2z"/>
	
		<linearGradient id="SVGID_00000037681419726390125930000015985125654518840475_" gradientUnits="userSpaceOnUse" x1="-1300.1875" y1="106.8125" x2="-1297.1875" y2="106.8125" gradientTransform="matrix(8 0 0 8 10738 -526)">
		<stop  offset="0" style="stop-color:#C8E5F7"/>
		<stop  offset="1" style="stop-color:#7FC8F2"/>
	</linearGradient>
	<path style="fill:url(#SVGID_00000037681419726390125930000015985125654518840475_);" d="M352.5,336.5h-8c-4.4,0-8-3.6-8-8
		s3.6-8,8-8h8c4.4,0,8,3.6,8,8S356.9,336.5,352.5,336.5z"/>
	
		<linearGradient id="SVGID_00000140709052500427399740000003448586107617814927_" gradientUnits="userSpaceOnUse" x1="-1296.1875" y1="106.8125" x2="-1288.1875" y2="106.8125" gradientTransform="matrix(8 0 0 8 10738 -526)">
		<stop  offset="0" style="stop-color:#C8E5F7"/>
		<stop  offset="1" style="stop-color:#7FC8F2"/>
	</linearGradient>
	<path style="fill:url(#SVGID_00000140709052500427399740000003448586107617814927_);" d="M424.5,336.5h-48c-4.4,0-8-3.6-8-8
		s3.6-8,8-8h48c4.4,0,8,3.6,8,8S428.9,336.5,424.5,336.5z"/>
	
		<linearGradient id="SVGID_00000159450416914426893080000005551461736958235528_" gradientUnits="userSpaceOnUse" x1="-1304.1875" y1="118.8125" x2="-1284.1875" y2="118.8125" gradientTransform="matrix(8 0 0 8 10738 -526)">
		<stop  offset="0" style="stop-color:#06A1FF"/>
		<stop  offset="1" style="stop-color:#015ED2"/>
	</linearGradient>
	<path style="fill:url(#SVGID_00000159450416914426893080000005551461736958235528_);" d="M459.8,389.2c-3-3-7-4.7-11.3-4.7h-128
		c-4.3,0-8.3,1.7-11.3,4.7s-4.7,7-4.7,11.3v48c0,4.3,1.7,8.3,4.7,11.3s7,4.7,11.3,4.7h128c4.3,0,8.3-1.7,11.3-4.7s4.7-7,4.7-11.3
		v-48C464.5,396.2,462.8,392.2,459.8,389.2z"/>
	
		<linearGradient id="SVGID_00000176020469962716499550000016618080629142550402_" gradientUnits="userSpaceOnUse" x1="-1300.1875" y1="118.8125" x2="-1297.1875" y2="118.8125" gradientTransform="matrix(8 0 0 8 10738 -526)">
		<stop  offset="0" style="stop-color:#C8E5F7"/>
		<stop  offset="1" style="stop-color:#7FC8F2"/>
	</linearGradient>
	<path style="fill:url(#SVGID_00000176020469962716499550000016618080629142550402_);" d="M352.5,432.5h-8c-4.4,0-8-3.6-8-8
		s3.6-8,8-8h8c4.4,0,8,3.6,8,8S356.9,432.5,352.5,432.5z"/>
	
		<linearGradient id="SVGID_00000111878505291979190750000003372895695473052309_" gradientUnits="userSpaceOnUse" x1="-1296.1875" y1="118.8125" x2="-1288.1875" y2="118.8125" gradientTransform="matrix(8 0 0 8 10738 -526)">
		<stop  offset="0" style="stop-color:#C8E5F7"/>
		<stop  offset="1" style="stop-color:#7FC8F2"/>
	</linearGradient>
	<path style="fill:url(#SVGID_00000111878505291979190750000003372895695473052309_);" d="M424.5,432.5h-48c-4.4,0-8-3.6-8-8
		s3.6-8,8-8h48c4.4,0,8,3.6,8,8S428.9,432.5,424.5,432.5z"/>
</g>
</svg>
