<?xml version="1.0" encoding="utf-8"?>
<!-- Generator: Adobe Illustrator 26.1.0, SVG Export Plug-In . SVG Version: 6.00 Build 0)  -->
<svg version="1.1" id="Layer_1" xmlns="http://www.w3.org/2000/svg" xmlns:xlink="http://www.w3.org/1999/xlink" x="0px" y="0px"
	 viewBox="0 0 512 512" style="enable-background:new 0 0 512 512;" xml:space="preserve">
<style type="text/css">
	.st0{fill:url(#SVGID_1_);}
	.st1{fill:url(#SVGID_00000168076111255313314660000014286826209979301504_);}
	.st2{fill:url(#SVGID_00000098911283169381354190000016174338025426378917_);}
	.st3{fill:url(#SVGID_00000134972742709675770860000001349105123158017175_);}
	.st4{fill:#F0F7FC;}
	.st5{fill:url(#SVGID_00000109740415318346682850000003834314849006077118_);}
	.st6{fill:url(#SVGID_00000064337673352275334840000013957046712577133238_);}
	.st7{fill:#FFFFFF;}
</style>
<linearGradient id="SVGID_1_" gradientUnits="userSpaceOnUse" x1="42.7" y1="428.7" x2="405.3" y2="428.7" gradientTransform="matrix(1 0 0 -1 0 514)">
	<stop  offset="0" style="stop-color:#016FF5"/>
	<stop  offset="1" style="stop-color:#0045A0"/>
</linearGradient>
<ellipse class="st0" cx="224" cy="85.3" rx="181.3" ry="74.7"/>
<linearGradient id="SVGID_00000093881632241464357540000002655465693022187171_" gradientUnits="userSpaceOnUse" x1="-1369.1857" y1="72.3116" x2="-1369.1857" y2="57.3116" gradientTransform="matrix(10.6667 0 0 10.6667 14828.6924 -526.0257)">
	<stop  offset="0" style="stop-color:#06A1FF"/>
	<stop  offset="1" style="stop-color:#015ED2"/>
</linearGradient>
<path style="fill:url(#SVGID_00000093881632241464357540000002655465693022187171_);" d="M405.3,85.3v85.3
	c0,41.3-81.2,74.7-181.3,74.7S42.7,211.9,42.7,170.7V85.3c0,15.9,12.1,30.6,32.5,42.7c72,42.7,225.7,42.7,297.6,0
	C393.3,115.9,405.3,101.2,405.3,85.3z"/>
<linearGradient id="SVGID_00000124154170413248368140000016153633998947445123_" gradientUnits="userSpaceOnUse" x1="-1369.1857" y1="80.3178" x2="-1369.1857" y2="65.3178" gradientTransform="matrix(10.6667 0 0 10.6667 14828.6924 -526.0257)">
	<stop  offset="0" style="stop-color:#06A1FF"/>
	<stop  offset="1" style="stop-color:#015ED2"/>
</linearGradient>
<path style="fill:url(#SVGID_00000124154170413248368140000016153633998947445123_);" d="M405.3,170.7V256
	c0,41.3-81.2,74.7-181.3,74.7S42.7,297.3,42.7,256v-85.3c0,15.9,12.1,30.6,32.5,42.7c72,42.7,225.7,42.7,297.6,0
	C393.3,201.3,405.3,186.6,405.3,170.7z"/>
<linearGradient id="SVGID_00000065783436275473608060000013160888420312022922_" gradientUnits="userSpaceOnUse" x1="-1369.1857" y1="88.3146" x2="-1369.1857" y2="73.3147" gradientTransform="matrix(10.6667 0 0 10.6667 14828.6924 -526.0257)">
	<stop  offset="0" style="stop-color:#06A1FF"/>
	<stop  offset="1" style="stop-color:#015ED2"/>
</linearGradient>
<path style="fill:url(#SVGID_00000065783436275473608060000013160888420312022922_);" d="M405.3,256v85.3
	c0,41.3-81.2,74.7-181.3,74.7S42.7,382.6,42.7,341.3V256c0,15.9,12.1,30.6,32.5,42.7c72,42.7,225.7,42.7,297.6,0
	C393.3,286.6,405.3,271.9,405.3,256z"/>
<path class="st4" d="M136.4,374.9c-5.8-0.8-9.9-6.2-9.1-12c0.8-5.8,6.2-9.9,12-9.1c0.5,0.1,1,0.2,1.5,0.3
	c54.8,11.2,111.4,11.2,166.2,0c5.7-1.7,11.6,1.6,13.2,7.2c1.7,5.7-1.6,11.6-7.2,13.2c-0.5,0.1-1,0.3-1.5,0.3
	C253.8,387,194.2,387,136.4,374.9L136.4,374.9z"/>
<linearGradient id="SVGID_00000077325074955894256710000002497831830603729810_" gradientUnits="userSpaceOnUse" x1="-1369.1857" y1="96.3115" x2="-1369.1857" y2="81.3115" gradientTransform="matrix(10.6667 0 0 10.6667 14828.6924 -526.0257)">
	<stop  offset="0" style="stop-color:#06A1FF"/>
	<stop  offset="1" style="stop-color:#015ED2"/>
</linearGradient>
<path style="fill:url(#SVGID_00000077325074955894256710000002497831830603729810_);" d="M405.3,341.3v85.3
	c0,41.3-81.2,74.7-181.3,74.7S42.7,467.9,42.7,426.7v-85.3c0,15.9,12.1,30.6,32.5,42.7c72,42.7,225.7,42.7,297.6,0
	C393.3,371.9,405.3,357.2,405.3,341.3z"/>
<path class="st4" d="M96,448c-9.4-2.7-18.5-6.8-26.8-12.1c-4.8-3.5-5.8-10.1-2.4-14.9c3-4.1,8.4-5.5,13-3.4
	c6.5,3.5,13.2,6.6,20.2,9.1c5.9,1.1,9.8,6.8,8.6,12.7C107.6,445.3,101.9,449.1,96,448L96,448z"/>
<path class="st4" d="M136.4,460.3c-5.8-0.8-9.9-6.2-9.1-12c0.8-5.8,6.2-9.9,12-9.1c0.5,0.1,1,0.2,1.5,0.3
	c54.8,11.2,111.4,11.2,166.2,0c5.7-1.7,11.6,1.6,13.2,7.2c1.7,5.7-1.6,11.6-7.2,13.2c-0.5,0.1-1,0.3-1.5,0.3
	C253.8,472.3,194.2,472.3,136.4,460.3L136.4,460.3z"/>
<linearGradient id="SVGID_00000028298972193265321220000008438865253134460339_" gradientUnits="userSpaceOnUse" x1="-1356.1873" y1="96.3115" x2="-1356.1873" y2="82.3147" gradientTransform="matrix(10.6667 0 0 10.6667 14828.6924 -526.0257)">
	<stop  offset="0" style="stop-color:#FFB850"/>
	<stop  offset="1" style="stop-color:#FF8901"/>
</linearGradient>
<path style="fill:url(#SVGID_00000028298972193265321220000008438865253134460339_);" d="M256,352h213.3c11.8,0,21.3,9.6,21.3,21.3
	V480c0,11.8-9.6,21.3-21.3,21.3H256c-11.8,0-21.3-9.6-21.3-21.3V373.3C234.7,361.6,244.2,352,256,352z"/>
<g>
	<path class="st7" d="M384,384h-21.3c-5.9,0-10.7,4.8-10.7,10.7v64c0,5.9,4.8,10.7,10.7,10.7c5.9,0,10.7-4.8,10.7-10.7V448H384
		c17.7,0,32-14.3,32-32S401.7,384,384,384z M384,426.7h-10.7v-21.3H384c5.9,0,10.7,4.8,10.7,10.7C394.7,421.9,389.9,426.7,384,426.7
		z"/>
	<path class="st7" d="M298.7,384c-17.7,0-32,14.3-32,32v42.7c0,5.9,4.8,10.7,10.7,10.7s10.7-4.8,10.7-10.7V448h21.3v10.7
		c0,5.9,4.8,10.7,10.7,10.7c5.9,0,10.7-4.8,10.7-10.7V416C330.7,398.3,316.3,384,298.7,384z M288,426.7V416
		c0-5.9,4.8-10.7,10.7-10.7c5.9,0,10.7,4.8,10.7,10.7v10.7H288z"/>
	<path class="st7" d="M448,469.3c-5.9,0-10.7-4.8-10.7-10.7v-64c0-5.9,4.8-10.7,10.7-10.7c5.9,0,10.7,4.8,10.7,10.7v64
		C458.7,464.6,453.9,469.3,448,469.3z"/>
	<path class="st4" d="M96,192c-9.4-2.7-18.5-6.8-26.8-12.1c-5.1-3-6.7-9.5-3.7-14.6c3-5.1,9.5-6.7,14.6-3.7
		c6.4,3.5,13.1,6.6,19.9,9.1c5.9,1.1,9.8,6.8,8.6,12.7C107.6,189.3,101.9,193.1,96,192z"/>
	<path class="st4" d="M352,192c-5.9,1.1-11.6-2.7-12.7-8.6c-1.1-5.9,2.7-11.6,8.6-12.7c6.9-2.8,13.6-6,19.9-9.8
		c5.1-3,11.6-1.3,14.6,3.7c3,5.1,1.3,11.6-3.7,14.6C370.5,184.7,361.5,189,352,192L352,192z"/>
	<path class="st4" d="M136.4,204.3c-5.7-1.1-9.4-6.6-8.4-12.3c1.3-5.7,7-9.4,12.7-8.1c54.8,11.2,111.4,11.2,166.2,0
		c5.7-1.7,11.6,1.6,13.2,7.2c1.7,5.7-1.6,11.6-7.2,13.2c-0.5,0.1-1,0.3-1.5,0.3C253.6,216.6,194.1,216.4,136.4,204.3L136.4,204.3z"
		/>
	<path class="st4" d="M96,277.3c-9.4-2.7-18.5-6.8-26.8-12.1c-5.1-3-6.7-9.5-3.7-14.6c3-5.1,9.5-6.7,14.6-3.7
		c6.4,3.5,13.1,6.6,19.9,9.1c5.9,1.1,9.8,6.8,8.6,12.7C107.6,274.6,101.9,278.5,96,277.3z"/>
	<path class="st4" d="M352,277.3c-5.9,1.1-11.6-2.7-12.7-8.6s2.7-11.6,8.6-12.7l0,0c6.9-2.8,13.6-6,19.9-9.8
		c5.1-3,11.6-1.3,14.6,3.7c3,5.1,1.3,11.6-3.7,14.6C370.5,270.1,361.5,274.4,352,277.3L352,277.3z"/>
	<path class="st4" d="M136.4,289.6c-5.8-0.8-9.9-6.2-9.1-12c0.8-5.8,6.2-9.9,12-9.1c0.5,0.1,1,0.2,1.5,0.3
		c54.8,11.2,111.4,11.2,166.2,0c5.7-1.7,11.6,1.6,13.2,7.2s-1.6,11.6-7.2,13.2c-0.5,0.1-1,0.3-1.5,0.3
		C253.8,301.7,194.2,301.7,136.4,289.6L136.4,289.6z"/>
	<path class="st4" d="M96,362.7c-9.4-2.7-18.5-6.8-26.8-12.1c-4.8-3.5-5.8-10.1-2.4-14.9c3-4.1,8.4-5.5,13-3.4
		c6.5,3.5,13.2,6.6,20.2,9.1c5.9,1.1,9.8,6.8,8.6,12.7C107.6,359.9,101.9,363.8,96,362.7z"/>
</g>
</svg>
