<svg id="_01_Website_traffic" height="512" viewBox="0 0 64 64" width="512" xmlns="http://www.w3.org/2000/svg" xmlns:xlink="http://www.w3.org/1999/xlink" data-name="01 Website traffic"><linearGradient id="linear-gradient" gradientUnits="userSpaceOnUse" x1="23" x2="41" y1="53" y2="53"><stop offset="0" stop-color="#016ff5"/><stop offset="1" stop-color="#0045a0"/></linearGradient><linearGradient id="linear-gradient-2" gradientUnits="userSpaceOnUse" x1="20" x2="44" y1="57" y2="57"><stop offset="0" stop-color="#06a1ff"/><stop offset="1" stop-color="#015ed2"/></linearGradient><linearGradient id="linear-gradient-3" x1="0" x2="64" xlink:href="#linear-gradient-2" y1="24" y2="24"/><linearGradient id="linear-gradient-4" x1="0" x2="64" xlink:href="#linear-gradient-2" y1="47" y2="47"/><linearGradient id="linear-gradient-5" x1="54" x2="56" xlink:href="#linear-gradient" y1="47" y2="47"/><linearGradient id="linear-gradient-6" gradientUnits="userSpaceOnUse" x1="25.566" x2="38.514" y1="26.549" y2="26.549"><stop offset="0" stop-color="#c8e5f7"/><stop offset="1" stop-color="#7fc8f2"/></linearGradient><linearGradient id="linear-gradient-7" x1="39.877" x2="52.069" xlink:href="#linear-gradient-6" y1="18.367" y2="18.367"/><linearGradient id="linear-gradient-8" x1="12" x2="24" xlink:href="#linear-gradient-6" y1="32" y2="32"/><linearGradient id="linear-gradient-9" gradientUnits="userSpaceOnUse" x1="8" x2="14" y1="32" y2="32"><stop offset="0" stop-color="#ffb850"/><stop offset="1" stop-color="#ff8901"/></linearGradient><linearGradient id="linear-gradient-10" x1="22" x2="28" xlink:href="#linear-gradient-9"/><linearGradient id="linear-gradient-11" x1="36" x2="42" xlink:href="#linear-gradient-9" y1="21" y2="21"/><linearGradient id="linear-gradient-12" x1="50" x2="56" xlink:href="#linear-gradient-9" y1="16" y2="16"/><rect fill="url(#linear-gradient)" height="6" rx="1" width="18" x="23" y="50"/><path d="m60 4h-56c-2.206 0-4 1.794-4 4v35c0 .552.448 1 1 1h62c.552 0 1-.448 1-1v-35c0-2.206-1.794-4-4-4z" fill="#fff"/><path d="m41 54h-18c-1.654 0-3 1.346-3 3v2c0 .552.448 1 1 1h22c.552 0 1-.448 1-1v-2c0-1.654-1.346-3-3-3z" fill="url(#linear-gradient-2)"/><path d="m63 44h-62c-.552 0-1-.448-1-1v-35c0-2.206 1.794-4 4-4h56c2.206 0 4 1.794 4 4v35c0 .552-.448 1-1 1zm-61-2h60v-34c0-1.103-.897-2-2-2h-56c-1.103 0-2 .897-2 2z" fill="url(#linear-gradient-3)"/><path d="m64 42h-64v6c0 2.209 1.791 4 4 4h56c2.209 0 4-1.791 4-4z" fill="url(#linear-gradient-4)"/><circle cx="55" cy="47" fill="url(#linear-gradient-5)" r="1"/><path d="m26.566 31.77c-.299 0-.596-.134-.792-.39-.337-.437-.256-1.065.182-1.402l10.948-8.44c.436-.337 1.065-.257 1.402.182.337.437.256 1.065-.182 1.402l-10.948 8.44c-.182.14-.396.208-.61.208z" fill="url(#linear-gradient-6)"/><path d="m40.877 21.222c-.408 0-.792-.253-.94-.659-.189-.519.079-1.093.598-1.281l10.192-3.71c.517-.189 1.093.079 1.281.598.189.519-.079 1.093-.598 1.281l-10.192 3.71c-.113.041-.228.061-.342.061z" fill="url(#linear-gradient-7)"/><path d="m23 33h-10c-.552 0-1-.448-1-1s.448-1 1-1h10c.552 0 1 .448 1 1s-.448 1-1 1z" fill="url(#linear-gradient-8)"/><circle cx="11" cy="32" fill="url(#linear-gradient-9)" r="3"/><circle cx="25" cy="32" fill="url(#linear-gradient-10)" r="3"/><circle cx="39" cy="21" fill="url(#linear-gradient-11)" r="3"/><circle cx="53" cy="16" fill="url(#linear-gradient-12)" r="3"/></svg>