<svg id="Layer_1" enable-background="new 0 0 128 128" viewBox="0 0 128 128" xmlns="http://www.w3.org/2000/svg"><g><path d="m110.1 32.7c-29.7-11.9-62.5-11.9-92.2 0-1.5.6-2.3 2.4-1.7 3.9s2.4 2.3 3.9 1.7c28.3-11.3 59.5-11.3 87.8 0 .4.1.7.2 1.1.2 1.2 0 2.3-.7 2.8-1.9.6-1.6-.1-3.3-1.7-3.9z"/><path d="m104.9 45.7c-9.9-4-20.3-6.5-30.9-7.5-1.6-.1-2.9.9-3.2 2.4v.1l-6.8 41.5-6.8-41.5s0 0 0-.1c-.3-1.5-1.7-2.6-3.2-2.4-10.6 1-20.9 3.5-30.9 7.5-.8.3-1.5 1-1.7 1.9-.3.9-.2 1.8.3 2.5l5.3 8.3c.6.9 1.5 1.4 2.5 1.4.6 0 1.1-.2 1.6-.5 1.4-.9 1.8-2.7.9-4.1l-3.3-5.2c7.5-2.7 15.2-4.5 23-5.5l9.3 56.7c.2 1.5 1.5 2.5 3 2.5h.5c1.3-.2 2.2-1.2 2.5-2.4l9.3-56.7c7.8.9 15.5 2.8 23 5.5l-3.3 5.2c-.9 1.4-.5 3.3.9 4.1.5.3 1.1.5 1.6.5 1 0 2-.5 2.5-1.4l5.3-8.3c.5-.8.6-1.7.3-2.5-.2-1-.9-1.7-1.7-2z"/></g></svg>