<svg id="Layer_1" data-name="Layer 1" xmlns="http://www.w3.org/2000/svg" viewBox="0 0 130 40"><defs><style>.cls-1{fill:#75efb2;}.cls-2{fill:#eaf0fd;}.cls-3{fill:#fff;}</style></defs><path class="cls-1" d="M1,30.55v4.23a2.12,2.12,0,0,0,2.11,2.11H7.33A6.35,6.35,0,0,0,1,30.55Z"/><path class="cls-1" d="M1,20v6.33A10.57,10.57,0,0,1,11.55,36.89h6.34A16.91,16.91,0,0,0,1,20Z"/><path class="cls-2" d="M34.78,13.67V9.45a6.34,6.34,0,0,0-6.34-6.34H5.22A4.22,4.22,0,0,0,1,7.33v8.45A21.13,21.13,0,0,1,22.11,36.89h6.33a6.34,6.34,0,0,0,6.34-6.34V26.33A6.34,6.34,0,0,0,28.44,20,6.34,6.34,0,0,0,34.78,13.67Z"/><path class="cls-3" d="M47.36,14.08c.75,0,2.51-.09,3.84-.09,3.17,0,4.37,1.44,4.37,3.28a3.12,3.12,0,0,1-1.9,3v0A3,3,0,0,1,56,23.43c0,2.73-2.13,4-4.94,4-1.22,0-2.93,0-3.71-.1Zm2.34,2.15v3.36h1.58a1.74,1.74,0,0,0,2-1.77c0-1.08-.83-1.65-2.09-1.65C50.63,16.17,50.12,16.19,49.7,16.23Zm0,5.39v3.52c.32,0,.88.09,1.54.09,1.58,0,2.43-.66,2.43-1.92s-.85-1.69-2.32-1.69Z"/><path class="cls-3" d="M58.57,19.4a6.3,6.3,0,0,1,3-.82c2.53,0,3.42,1.29,3.42,3.56v5.2h-1.9v-1a3,3,0,0,1-2.52,1.1,2.48,2.48,0,0,1-2.68-2.62c0-1.88,1.39-2.77,3.11-2.77a3.6,3.6,0,0,1,1.94.55c.06-1.42-.32-2.2-1.59-2.2a4.88,4.88,0,0,0-2.25.59ZM63,24.83V24a2.38,2.38,0,0,0-1.5-.42c-.72,0-1.37.34-1.37,1.06s.53,1,1.22,1A1.86,1.86,0,0,0,63,24.83Z"/><path class="cls-3" d="M68.91,25.86a1.23,1.23,0,0,1-.15-.59,1,1,0,0,1,.19-.61,3,3,0,0,1-2-2.87,3.34,3.34,0,0,1,3.65-3.21,4,4,0,0,1,2.19.61l2.58-.57.08,1.75L74,20.69a3.12,3.12,0,0,1,.21,1.1c0,1.71-1.42,3.16-3.63,3.16h-.15a.91.91,0,0,0,0,.32.88.88,0,0,0,.12.44h.09c2.49,0,4.45.87,4.45,2.79s-2,2.79-4.45,2.79-4.44-.83-4.44-2.79C66.14,27.07,67.28,26.2,68.91,25.86Zm1.67,3.68c1.48,0,2.39-.36,2.39-1s-.81-1.05-2.39-1.05-2.41.42-2.41,1.05S69.1,29.54,70.58,29.54Zm0-6.36a1.42,1.42,0,0,0,1.6-1.39,1.44,1.44,0,0,0-1.6-1.44A1.46,1.46,0,0,0,69,21.79,1.42,1.42,0,0,0,70.56,23.18Z"/><path class="cls-3" d="M78.2,14.44a1.25,1.25,0,0,1,1.25,1.27,1.28,1.28,0,0,1-1.25,1.37,1.31,1.31,0,0,1-1.37-1.37A1.29,1.29,0,0,1,78.2,14.44Zm-1.14,4.35h2.18v8.55H77.06Z"/><path class="cls-3" d="M82.63,14H85v6.31L90.21,14H93l-5.47,6.2,5.81,7.1h-3L85,20.48v6.86H82.63Z"/><path class="cls-3" d="M102.5,27.34h-2.19v-1a3.45,3.45,0,0,1-2.73,1.25c-1.67,0-3-1.08-3-3.53V18.79h2.18v4.77c0,1.14.44,2,1.63,2a2.45,2.45,0,0,0,1.92-1.05V18.79h2.19Z"/><path class="cls-3" d="M109.05,18.58a4.37,4.37,0,0,1,4.66,4.49,4.66,4.66,0,0,1-9.31,0A4.36,4.36,0,0,1,109.05,18.58Zm0,6.94a2.29,2.29,0,0,0,2.34-2.45,2.33,2.33,0,1,0-4.66,0A2.32,2.32,0,0,0,109.05,25.52Z"/><path class="cls-3" d="M115.42,16.42h2.18v2.37h2.76v2.05H117.6V24c0,.93.31,1.54,1,1.54a2.12,2.12,0,0,0,1.31-.5l.66,1.69a4.07,4.07,0,0,1-2.52.84c-1.94,0-2.66-1.25-2.66-3.44Z"/><path class="cls-3" d="M122.56,19.4a6.3,6.3,0,0,1,3-.82c2.53,0,3.42,1.29,3.42,3.56v5.2h-1.9v-1a3,3,0,0,1-2.53,1.1,2.48,2.48,0,0,1-2.67-2.62c0-1.88,1.38-2.77,3.11-2.77a3.6,3.6,0,0,1,1.94.55c.06-1.42-.32-2.2-1.6-2.2a4.87,4.87,0,0,0-2.24.59ZM127,24.83V24a2.4,2.4,0,0,0-1.5-.42c-.72,0-1.37.34-1.37,1.06s.53,1,1.22,1A1.87,1.87,0,0,0,127,24.83Z"/></svg>