<svg id="Layer_1" data-name="Layer 1" xmlns="http://www.w3.org/2000/svg" viewBox="0 0 800 600"><defs><style>.cls-1{fill:#374151;}.cls-2{fill:#111827;}.cls-3{fill:#ef4444;}.cls-4{fill:#fbbf24;}.cls-5{fill:#10b981;}.cls-6{fill:#93c5fd;}.cls-7{fill:#f97126;}.cls-8{fill:#6ee7b7;}.cls-9{opacity:0.9;}.cls-10{fill:#fff;}.cls-11{opacity:0.5;}</style></defs><path class="cls-1" d="M219.36,124v222a55.06,55.06,0,0,1,52.43,54.93v36.71H691.85a8.36,8.36,0,0,0,8.36-8.36V124Z"/><path class="cls-2" d="M691.85,82.15H227.72a8.36,8.36,0,0,0-8.36,8.36V124H700.21V90.51A8.36,8.36,0,0,0,691.85,82.15Z"/><circle class="cls-3" cx="243.4" cy="103.05" r="6.53"/><circle class="cls-4" cx="266.6" cy="103.05" r="6.53"/><circle class="cls-5" cx="289.79" cy="103.05" r="6.53"/><path class="cls-6" d="M522.07,172.68H465.14a6.27,6.27,0,1,1,0-12.54h56.93a6.27,6.27,0,0,1,0,12.54Z"/><path class="cls-7" d="M659.5,172.68H552.57a6.27,6.27,0,0,1,0-12.54H659.5a6.27,6.27,0,1,1,0,12.54Z"/><path class="cls-4" d="M431.92,172.68h-74.6a6.27,6.27,0,1,1,0-12.54h74.6a6.27,6.27,0,0,1,0,12.54Z"/><path class="cls-8" d="M321.7,172.68H260.07a6.27,6.27,0,1,1,0-12.54H321.7a6.27,6.27,0,1,1,0,12.54Z"/><path class="cls-4" d="M639.5,218.42h-98a6.27,6.27,0,1,1,0-12.54h98a6.27,6.27,0,1,1,0,12.54Z"/><path class="cls-7" d="M501.49,218.42H419a6.27,6.27,0,1,1,0-12.54h82.54a6.27,6.27,0,0,1,0,12.54Z"/><path class="cls-6" d="M375.6,218.42H303.12a6.27,6.27,0,1,1,0-12.54H375.6a6.27,6.27,0,0,1,0,12.54Z"/><path class="cls-7" d="M559.09,264.16h-94a6.27,6.27,0,1,1,0-12.54h94a6.27,6.27,0,0,1,0,12.54Z"/><path class="cls-4" d="M426.92,264.16H303.12a6.27,6.27,0,1,1,0-12.54h123.8a6.27,6.27,0,0,1,0,12.54Z"/><path class="cls-4" d="M659.5,309.9H512.11a6.27,6.27,0,0,1,0-12.54H659.5a6.27,6.27,0,1,1,0,12.54Z"/><path class="cls-7" d="M476.91,309.9h-76.7a6.27,6.27,0,1,1,0-12.54h76.7a6.27,6.27,0,0,1,0,12.54Z"/><path class="cls-6" d="M368.49,309.9H303.12a6.27,6.27,0,0,1,0-12.54h65.37a6.27,6.27,0,0,1,0,12.54Z"/><path class="cls-6" d="M564.1,355.64H460.22a6.27,6.27,0,0,1,0-12.54H564.1a6.27,6.27,0,0,1,0,12.54Z"/><path class="cls-7" d="M419,355.64H303.12a6.27,6.27,0,0,1,0-12.54H419a6.27,6.27,0,1,1,0,12.54Z"/><path class="cls-7" d="M609.5,401.38H503.6a6.27,6.27,0,0,1,0-12.54H609.5a6.27,6.27,0,1,1,0,12.54Z"/><path class="cls-4" d="M460.22,401.38H357.32a6.27,6.27,0,1,1,0-12.54h102.9a6.27,6.27,0,0,1,0,12.54Z"/><path class="cls-8" d="M321.7,388.84H270.45a54.71,54.71,0,0,1,1.34,12v.53H321.7a6.27,6.27,0,0,0,0-12.54Z"/><rect class="cls-8" x="99.79" y="361.85" width="156" height="156" rx="39"/><g class="cls-9"><path class="cls-10" d="M154.39,461.3a5.84,5.84,0,0,1-4.14-1.71L134.65,444a5.85,5.85,0,0,1,0-8.27l15.6-15.6a5.85,5.85,0,0,1,8.27,8.27l-11.46,11.46,11.46,11.47a5.85,5.85,0,0,1-4.13,10Z"/></g><g class="cls-9"><path class="cls-10" d="M201.19,461.3a5.85,5.85,0,0,1-4.14-10l11.46-11.47-11.46-11.46a5.85,5.85,0,0,1,8.27-8.27l15.6,15.6a5.84,5.84,0,0,1,0,8.27l-15.6,15.6A5.83,5.83,0,0,1,201.19,461.3Z"/></g><g class="cls-11"><path class="cls-10" d="M170,473a6,6,0,0,1-1.61-.22,5.85,5.85,0,0,1-4-7.23L180,411a5.85,5.85,0,1,1,11.25,3.21l-15.6,54.6A5.84,5.84,0,0,1,170,473Z"/></g></svg>