<?xml version="1.0" encoding="UTF-8"?><svg id="a" xmlns="http://www.w3.org/2000/svg" width="128" height="128" viewBox="0 0 128 128"><circle cx="64" cy="64" r="64" fill="#92afff"/><path d="m77.65277,37.33331c3.70142,0,5.01392,2.3941,5.01392,4.44446s-1.3125,4.44446-5.01392,4.44446h9.25476c.69818-1.38892,1.09247-2.91083,1.09247-4.44446,0-4.85938-3.55383-9.77777-10.34723-9.77777-6.99829,0-11.26044,5.13196-13.65277,9.63367-2.39233-4.50171-6.65448-9.63367-13.65277-9.63367-6.7934,0-10.34723,4.9184-10.34723,9.77777,0,1.53363.39429,3.05554,1.09247,4.44446h9.25476c-3.70142,0-5.01392-2.3941-5.01392-4.44446s1.3125-4.44446,5.01392-4.44446c5.29755,0,9.4751,5.28064,10.98608,8.88892h5.33337c1.50018-3.60699,5.65686-8.88892,10.98608-8.88892Z" fill="#335eea"/><path d="m66.66669,72.88885h22.22223v16c0,3.92731-3.18384,7.11115-7.11115,7.11115h-15.11108v-23.11115Zm-27.55554,16c0,3.92731,3.18378,7.11115,7.11108,7.11115h15.11108v-23.11115h-22.22217v16Zm-.00006-42.66663c-3.92725,0-7.11108,3.18359-7.11108,7.11108v7.11115c0,3.92725,3.18384,7.11108,7.11115,7.11108h22.22217v-21.33331h-22.22223Zm49.77783,0h-22.22223v21.33331h22.22223c3.92725,0,7.11108-3.18384,7.11108-7.11108v-7.11115c0-3.92749-3.18384-7.11108-7.11108-7.11108Z" fill="#fff"/></svg>