<svg xmlns="http://www.w3.org/2000/svg" width="32" height="32" viewBox="0 0 32 32"><circle cx="13.109" cy="17.874" r="1.089" fill="#325eea"/><circle cx="18.878" cy="17.874" r="1.089" transform="translate(-2.619 3.255) rotate(-9.217)" fill="#325eea"/><path d="M25.5,11.557l-1.432-.5-5.975-8a2.617,2.617,0,0,0-4.2,0L9.23,9.285a14.614,14.614,0,0,1,3.879-.047l-6.62,2.319a.872.872,0,0,0-.525,1.11l1.152,3.292a.87.87,0,0,0,1.108.535h0L16,13.771l7.78,2.722a.869.869,0,0,0,1.109-.532v0l1.153-3.292A.873.873,0,0,0,25.5,11.557Z" fill="#325eea"/><path d="M24.393,19.624l-.546-.294V17.657L22.1,16.794v1.775L20.31,20.608a6.552,6.552,0,0,1-2.213-.6,2.209,2.209,0,0,0-2.1.584,2.191,2.191,0,0,0-2.1-.584,6.509,6.509,0,0,1-2.214.6L9.9,18.569V16.794l-1.745.863V19.33l-.553.294a.868.868,0,0,0-.294.882v.016C7.4,20.841,8.257,30,16,30c7.406,0,8.6-9.159,8.68-9.478v-.016A.869.869,0,0,0,24.393,19.624Zm-8.324,4.481a3.013,3.013,0,0,1-1.992-.87A2.115,2.115,0,0,0,16,22.229a2.115,2.115,0,0,0,1.917,1.006h.143A3.012,3.012,0,0,1,16.069,24.105Z" fill="#325eea"/></svg>