<?xml version="1.0" ?><svg viewBox="0 0 40 40" xmlns="http://www.w3.org/2000/svg"><g id="LinkedIn"><path d="M21.06,18.59v0h0Z"/><path d="M21.06,18.59v0h0Z"/><path d="M21,18.63l0,0v0Z"/><path d="M31.93,6H8.07A2,2,0,0,0,6,8V32a2,2,0,0,0,2.07,2H31.93A2,2,0,0,0,34,32V8A2,2,0,0,0,31.93,6ZM14.49,29.44H10.26V16.79h4.23ZM12.37,15.07h0A2.18,2.18,0,0,1,10,12.89,2.21,2.21,0,0,1,12.4,10.7a2.19,2.19,0,1,1,0,4.37ZM29.74,29.44H25.51V22.67c0-1.7-.61-2.85-2.14-2.85a2.31,2.31,0,0,0-2.17,1.53,2.92,2.92,0,0,0-.14,1v7.06H16.83s.05-11.46,0-12.65h4.23v1.8a4.19,4.19,0,0,1,3.81-2.09c2.78,0,4.87,1.81,4.87,5.69Z"/><path d="M21.06,18.59v0h0Z"/><path d="M21.06,18.59v0h0Z"/><path d="M21.06,18.59v0h0Z"/><path d="M21.06,18.59v0h0Z"/></g></svg>