<svg width="150" height="29" viewBox="0 0 150 29" fill="none" xmlns="http://www.w3.org/2000/svg"><path fill-rule="evenodd" clip-rule="evenodd" d="M148.4 13.1C149.3 14 149.7 15.3 149.7 16.9V25.3H146.4V17.9C146.4 17 146.1 16.2 145.6 15.7C145.1 15.2 144.3 14.9 143.4 14.9C142.3 14.9 141.5 15.3 140.8 16C140.2 16.7 139.9 17.6 139.9 18.8V25.4H136.7V6.7H139.9V14.4C140.8 12.6 142.4 11.8 144.7 11.7C146.3 11.7 147.5 12.2 148.4 13.1ZM129.5 14.6C128.4 14.6 127.5 15 126.9 15.7C126.2 16.4 125.9 17.4 125.9 18.6C125.9 19.8 126.2 20.8 126.9 21.5C127.6 22.2 128.4 22.6 129.5 22.6C131.1 22.6 132.3 22.1 133.1 21L135.1 22.7C134.5 23.6 133.7 24.3 132.7 24.7C131.7 25.2 130.6 25.4 129.3 25.4C128 25.4 126.8 25.1 125.8 24.5C124.8 23.9 124 23.1 123.4 22.1C122.8 21.1 122.6 19.9 122.6 18.6C122.6 17.2 122.9 16.1 123.5 15C124.1 14 124.9 13.2 125.9 12.6C126.9 12 128.1 11.7 129.4 11.7C130.6 11.7 131.7 11.9 132.7 12.3C133.7 12.7 134.4 13.3 135 14.1L133 16C132.1 15.1 131 14.6 129.5 14.6ZM120.6 11.9V25.3H117.4V23.2C116.9 23.9 116.3 24.5 115.5 24.9C114.7 25.3 113.9 25.5 112.9 25.5C111.6 25.5 110.5 25.2 109.6 24.6C108.6 24 107.9 23.2 107.4 22.2C106.9 21.2 106.6 20 106.6 18.6C106.6 17.3 106.9 16.1 107.4 15.1C107.9 14.1 108.7 13.3 109.6 12.7C110.6 12.1 111.7 11.8 112.9 11.8C113.9 11.8 114.8 12 115.5 12.4C116.3 12.8 116.9 13.4 117.4 14.1V11.9H120.6ZM116.2 21.7C116.9 21 117.3 20.2 117.4 19.1V18.1C117.3 17 116.9 16.1 116.2 15.5C115.5 14.8 114.7 14.5 113.6 14.5C112.5 14.5 111.6 14.9 110.9 15.6C110.2 16.4 109.8 17.3 109.8 18.5C109.8 19.7 110.2 20.7 110.9 21.4C111.6 22.2 112.5 22.5 113.6 22.5C114.6 22.7 115.5 22.3 116.2 21.7ZM103.3 13.6C104.4 14.8 104.9 16.5 104.9 18.7C104.9 19.1 104.9 19.5 104.9 19.7H95C95.2 20.7 95.7 21.4 96.3 21.9C97 22.4 97.8 22.7 98.8 22.7C99.5 22.7 100.1 22.6 100.8 22.3C101.4 22 102 21.7 102.4 21.2L104.1 23C103.4 23.7 102.6 24.3 101.7 24.7C100.7 25.1 99.7 25.3 98.5 25.3C97.1 25.3 95.9 25 94.9 24.4C93.9 23.9 93 23 92.5 22C91.9 21 91.7 19.8 91.7 18.5C91.7 17.2 92 16 92.6 14.9C93.2 13.9 94 13 95 12.5C96 11.9 97.2 11.6 98.5 11.6C100.6 11.8 102.2 12.4 103.3 13.6ZM101.9 17.5C101.9 16.5 101.5 15.7 100.9 15.1C100.3 14.5 99.5 14.2 98.5 14.2C97.6 14.2 96.8 14.5 96.1 15.1C95.5 15.7 95.1 16.5 94.9 17.5H101.9ZM88.2 12.4C89 11.9 89.9 11.7 90.9 11.7V14.9C89.5 14.8 88.4 15.1 87.6 15.9C86.8 16.6 86.4 17.6 86.4 18.8V25.3H83.2V11.9H86.4V14.5C86.8 13.6 87.4 12.9 88.2 12.4ZM80.7 24.4C79.6 25 78.5 25.4 77.4 25.4C76.3 25.4 75.3 25.1 74.6 24.4C73.9 23.7 73.5 22.7 73.5 21.4V8.7L76.7 8.3V12.4H80.5V14.8H76.7V20.8C76.7 21.4 76.8 21.9 77 22.1C77.2 22.4 77.6 22.5 78 22.5C78.5 22.5 79.1 22.3 79.9 21.9L80.7 24.4ZM67.4 11.9H70.6V19.4C70.6 23.8 67.6 25.4 64.5 25.4C61.4 25.4 58.4 23.8 58.4 19.4V11.9H61.6V19.5C61.6 21.2 62.8 22.5 64.5 22.5C66.2 22.5 67.4 21.1 67.4 19.5V11.9ZM51.7 8.7C53.1 9.5 54.2 10.6 55 11.9C55.8 13.3 56.2 14.8 56.2 16.5C56.2 18.2 55.8 19.7 55 21.1C54.2 22.5 53 23.6 51.7 24.4C50.3 25.2 48.7 25.6 47 25.6C45.3 25.6 43.7 25.2 42.3 24.4C40.9 23.6 39.8 22.5 38.9 21.1C38.1 19.7 37.7 18.2 37.7 16.5C37.7 14.8 38.1 13.3 38.9 11.9C39.7 10.5 40.9 9.4 42.3 8.7C43.7 7.9 45.3 7.5 47 7.5C48.7 7.5 50.3 7.9 51.7 8.7ZM44.1 11.3C43.2 11.8 42.5 12.6 41.9 13.4C41.4 14.3 41.1 15.3 41.1 16.4C41.1 17.5 41.4 18.5 41.9 19.4C42.4 20.3 43.2 21.1 44.1 21.6C45 22.1 46 22.4 47.1 22.4C48.1 22.4 49.1 22.1 50 21.6C50.9 21.1 51.6 20.3 52.1 19.4C52.6 18.5 52.9 17.4 52.9 16.4C52.9 15.3 52.6 14.3 52.1 13.4C51.6 12.5 50.9 11.8 50 11.2C49.1 10.7 48.1 10.4 47.1 10.4C46 10.5 45 10.8 44.1 11.3Z" fill="#5952FF"/><path d="M3.09999 3.2C1.69999 4.6 0.899994 6.1 0.399994 7.7L11.1 0.1C7.49999 0.4 4.79999 1.5 3.09999 3.2Z" fill="#F80000"/><path d="M13.3 0C12.5 0 11.8 0 11.1 0.1L0.4 7.7C0.1 8.8 0 10 0 11.2C0 11.3 0 11.3 0 11.4L15.7 0.1C14.9 0 14 0 13.3 0Z" fill="#FF6400"/><path d="M15.7 0.1L0 11.3C0 12.3 0.1 13.3 0.3 14.3L19.5 0.7C18.2 0.4 16.9 0.2 15.7 0.1Z" fill="#FFC801"/><path d="M10.3 9.1C11.2 8.1 12.6 7.5 14.7 7.4L22.8 1.6C21.7 1.2 20.6 0.9 19.5 0.7L0.300003 14.4C0.500003 15.3 0.700003 16.2 1.1 17.1L9 11.5C9.2 10.4 9.7 9.7 10.3 9.1Z" fill="#65DD0C"/><path d="M8.80001 12.8C8.80001 12.3 8.90001 11.9 9.00001 11.5L1.10001 17.1C1.40001 18 1.80001 18.8 2.20001 19.6L9.10001 14.7C8.90001 14.1 8.80001 13.4 8.80001 12.8Z" fill="#0042BD"/><path d="M15 7.4C16.2 7.4 17.3 7.6 18.3 8.1L25.6 2.9C24.7 2.4 23.8 2 22.7 1.6L14.6 7.4C14.8 7.4 14.9 7.4 15 7.4Z" fill="#0042BD"/><path d="M9.1 14.6L2.2 19.5C2.6 20.3 3.1 21.1 3.6 21.8L10.5 16.9C10 16.3 9.5 15.5 9.1 14.6Z" fill="#940EC2"/><path d="M19.8 9.3C20 9.5 20.2 9.7 20.3 9.9L27.9 4.5C27.3 3.9 26.5 3.3 25.6 2.9L18.3 8.1C18.8 8.4 19.3 8.8 19.8 9.3Z" fill="#940EC2"/><path d="M21 12.1C21 12.3 21 12.5 21 12.7L29.5 6.6C29.1 5.7 28.6 5 28.2 4.6C28.1 4.5 28.1 4.5 28 4.4L20.4 9.8C20.8 10.7 21 11.5 21 12.1Z" fill="#90DFEC"/><path d="M10.7 17.2C10.6 17.1 10.6 17 10.5 17L3.60001 21.9C4.10001 22.6 4.70001 23.4 5.30001 24L12.9 18.5C12 18.2 11.3 17.7 10.7 17.2Z" fill="#90DFEC"/><path d="M29.9 9.4C29.9 8.3 29.7 7.4 29.3 6.7L20.8 12.8C20.7 13.9 20.1 15.4 18.9 16.7C17.3 18.3 15.8 18.8 14.4 18.8C13.8 18.8 13.3 18.7 12.8 18.5L5.3 24C5.5 24.2 5.7 24.4 5.9 24.6C6.2 24.9 6.7 25.3 7.3 25.8L29.9 9.6C29.9 9.6 29.9 9.5 29.9 9.4Z" fill="#FFA0C0"/><path d="M29.9 9.6L7.3 25.8C8 26.3 8.8 26.9 9.8 27.3L29.2 13.4C29.6 12.1 29.9 10.8 29.9 9.6Z" fill="white"/><path d="M29.2 13.4L9.8 27.3C10.8 27.7 11.9 28.1 13.1 28.2L27 18.3C27.9 16.7 28.7 15 29.2 13.4Z" fill="#7D4D29"/><path d="M13.8 28.2C17.9 28.2 20.9 25.7 22.9 23.7C24.4 22.2 25.8 20.3 27 18.2L13.2 28.1C13.4 28.2 13.6 28.2 13.8 28.2Z" fill="#0F0F0F"/></svg>
