<svg xmlns="http://www.w3.org/2000/svg" width="32" height="32" viewBox="0 0 32 32"><path d="M23.734,4H8.266A4.268,4.268,0,0,0,4,8.268V23.732A4.268,4.268,0,0,0,8.266,28H23.734A4.266,4.266,0,0,0,28,23.734V8.268A4.266,4.266,0,0,0,23.736,4ZM24,13.728a5.113,5.113,0,0,1-5.114,5.113H15.35l.411-4.294a.285.285,0,0,1,.284-.243h1.589a1.74,1.74,0,1,0,0-1.145H15.27a.567.567,0,0,0-.565.513l-.93,9.66h0v.054H9.569A.57.57,0,0,1,9,22.816a.484.484,0,0,1,0-.053l1.31-13.635a.57.57,0,0,1,.567-.514h8.006A5.114,5.114,0,0,1,24,13.728Z" fill="#325eea"/></svg>