<?xml version="1.0" encoding="utf-8"?>
<!-- Generator: Adobe Illustrator 27.8.1, SVG Export Plug-In . SVG Version: 6.00 Build 0)  -->
<svg version="1.1" id="a" xmlns="http://www.w3.org/2000/svg" xmlns:xlink="http://www.w3.org/1999/xlink" x="0px" y="0px"
	 viewBox="0 0 24 24" style="enable-background:new 0 0 24 24;" xml:space="preserve">
<style type="text/css">
	.st0{fill:#325EEA;}
</style>
<path class="st0" d="M19,2H5C3.3,2,2,3.3,2,5v14c0,1.7,1.3,3,3,3h14c1.7,0,3-1.3,3-3V5C22,3.3,20.7,2,19,2z M11,20H5
	c-0.6,0-1-0.4-1-1v-3h7V20z M11,14H4v-4h7V14z M20,19c0,0.6-0.4,1-1,1h-6v-4h7V19z M20,14h-7v-4h7V14z M20,8H4V5c0-0.6,0.4-1,1-1h14
	c0.6,0,1,0.4,1,1V8z"/>
</svg>
