<svg id="Layer_1" data-name="Layer 1" xmlns="http://www.w3.org/2000/svg" viewBox="0 0 512 128"><defs><style>.cls-1{fill:#325eea;}.cls-2{fill:#939598;}</style></defs><path class="cls-1" d="M87.46,14.46H23.61A17.62,17.62,0,0,0,6,32.08V95.92a17.62,17.62,0,0,0,17.61,17.62H87.46a17.61,17.61,0,0,0,17.61-17.62V32.08A17.61,17.61,0,0,0,87.46,14.46Zm1.1,40.16A21.11,21.11,0,0,1,67.45,75.73H52.85L54.55,58A1.17,1.17,0,0,1,55.72,57h6.55a7,7,0,0,0,13.65-2.63,7,7,0,0,0-13.65-2.06H52.52a2.34,2.34,0,0,0-2.33,2.12L46.35,94.27h0l0,.22H29a2.35,2.35,0,0,1-2.34-2.57l5.41-56.29a2.35,2.35,0,0,1,2.34-2.12H67.45A21.11,21.11,0,0,1,88.56,54.62Z"/><path d="M179,27.34A17.92,17.92,0,0,0,172.4,24,33.18,33.18,0,0,0,163,22.77H138.1V70h9.57V57.44l15.37,0a30.1,30.1,0,0,0,9.43-1.32,18.27,18.27,0,0,0,6.59-3.65A14.42,14.42,0,0,0,182.94,47a18.71,18.71,0,0,0,1.27-7,19.19,19.19,0,0,0-1.28-7.22A13.72,13.72,0,0,0,179,27.34Zm-5.57,16.43a7.41,7.41,0,0,1-2.06,2.9A9.36,9.36,0,0,1,168,48.51a15.48,15.48,0,0,1-4.76.65H147.67V31.1h15.55q5.44,0,8.17,2.34A8.13,8.13,0,0,1,174.13,40,10.19,10.19,0,0,1,173.45,43.77Z"/><path d="M208.74,35.66a39.34,39.34,0,0,0-6.26,3.81V34.34h-8.93V70h8.93V48.77a16.41,16.41,0,0,1,6.36-5.06,28.25,28.25,0,0,1,9.08-2.31l-2.63-8.18A35.35,35.35,0,0,0,208.74,35.66Z"/><path d="M260.76,39.11a21.56,21.56,0,0,0-7-4,29.88,29.88,0,0,0-18.39,0,21.45,21.45,0,0,0-7,4A17.43,17.43,0,0,0,224,45a17.43,17.43,0,0,0,0,14.37,17.43,17.43,0,0,0,4.44,5.86,21.45,21.45,0,0,0,7,4,29.88,29.88,0,0,0,18.39,0,21.56,21.56,0,0,0,7-4,17.43,17.43,0,0,0,4.44-5.86,17.43,17.43,0,0,0,0-14.37A17.43,17.43,0,0,0,260.76,39.11ZM256.5,56.22A10.12,10.12,0,0,1,254,59.6a12.24,12.24,0,0,1-4,2.32,17.32,17.32,0,0,1-10.78,0,12.19,12.19,0,0,1-4-2.32,10,10,0,0,1-2.51-11.52,9.86,9.86,0,0,1,2.51-3.4,12.21,12.21,0,0,1,4-2.33,17.32,17.32,0,0,1,10.78,0,12.26,12.26,0,0,1,4,2.33,10,10,0,0,1,2.51,11.54Z"/><polygon points="310.27 34.3 299.13 34.3 290.64 45.18 281.7 34.3 270.29 34.3 285.02 52.15 270.83 69.97 281.97 69.97 290.52 58.83 299.73 69.97 311.15 69.97 296.41 52.12 310.27 34.3"/><path d="M347.63,57.29A12.7,12.7,0,0,1,343,60.65,15.76,15.76,0,0,1,336.39,62q-5.31,0-7.77-3.07t-2.46-9.53v-15h-8.91V51.85a23.56,23.56,0,0,0,1.17,7.73,15.44,15.44,0,0,0,3.4,5.7,14.34,14.34,0,0,0,5.44,3.5A21,21,0,0,0,334.55,70a27.61,27.61,0,0,0,3.76-.25,27,27,0,0,0,3.54-.74A22.41,22.41,0,0,0,345,67.81a18.38,18.38,0,0,0,2.64-1.49v1.21q0,5.28-3.34,7.92t-9.5,2.65a30.19,30.19,0,0,1-3.65-.23,28.74,28.74,0,0,1-3.61-.68,22.65,22.65,0,0,1-3.4-1.15,19.24,19.24,0,0,1-3-1.6L317.79,82a36.8,36.8,0,0,0,7.91,2.87,38.78,38.78,0,0,0,9.3,1.06,31.18,31.18,0,0,0,9.13-1.23,17.66,17.66,0,0,0,6.78-3.7,15.89,15.89,0,0,0,4.21-6.23,24.76,24.76,0,0,0,1.45-8.87V34.34h-8.94Z"/><path d="M395,61.85a20.72,20.72,0,0,1-6.27.93,17.48,17.48,0,0,1-5.48-.8,12.88,12.88,0,0,1-4.2-2.2,9.87,9.87,0,0,1-2.69-3.35,9.63,9.63,0,0,1-.95-4.25,10.13,10.13,0,0,1,.89-4.24,9.57,9.57,0,0,1,2.6-3.38A12.4,12.4,0,0,1,383,42.32a17.87,17.87,0,0,1,5.53-.8,22,22,0,0,1,5.3.64,29.61,29.61,0,0,1,5.54,2l4.14-6.73a18.38,18.38,0,0,0-3.2-1.5,34.45,34.45,0,0,0-3.94-1.18A39.37,39.37,0,0,0,392,34a38,38,0,0,0-4.5-.27,27.14,27.14,0,0,0-9.13,1.42A20,20,0,0,0,371.62,39a16.58,16.58,0,0,0-4.2,5.89A18.77,18.77,0,0,0,366,52.24a17.67,17.67,0,0,0,1.5,7.31,16.6,16.6,0,0,0,4.3,5.82,20.33,20.33,0,0,0,6.85,3.85,28.29,28.29,0,0,0,9.16,1.39,33.11,33.11,0,0,0,4.84-.35,35.65,35.65,0,0,0,4.47-1,29.83,29.83,0,0,0,4-1.44,31.45,31.45,0,0,0,3.48-1.79l-4.14-6.74A24.59,24.59,0,0,1,395,61.85Z"/><path d="M445.51,58.31a12.1,12.1,0,0,1-2.16,1.79,16.4,16.4,0,0,1-2.7,1.4,17.85,17.85,0,0,1-3,.92,15.33,15.33,0,0,1-3.12.33A15.9,15.9,0,0,1,429,62a8.55,8.55,0,0,1-3.5-2.25,8.31,8.31,0,0,1-1.86-3.48,17.67,17.67,0,0,1-.54-4.52V34.3h-8.91V53a24.75,24.75,0,0,0,1,7.47A13.37,13.37,0,0,0,418.49,66a14.38,14.38,0,0,0,5.71,3.43,26.5,26.5,0,0,0,8.38,1.18,25.71,25.71,0,0,0,6.31-.85,24.8,24.8,0,0,0,6.62-2.81v3h8.94V34.3h-8.94Z"/><path d="M481,35.66a39.7,39.7,0,0,0-6.25,3.81V34.34H465.8V70h8.94V48.77a16.33,16.33,0,0,1,6.36-5.06,28.26,28.26,0,0,1,9.07-2.31l-2.62-8.18A35.44,35.44,0,0,0,481,35.66Z"/><rect x="497.06" y="19.87" width="8.94" height="50.1"/><path class="cls-2" d="M143.87,94.79a4.33,4.33,0,0,1,2.51,4.09,4.79,4.79,0,0,1-5.09,4.62h-6.73V86.7h6.64c2.75,0,4.74,1.85,4.74,4.29a4.51,4.51,0,0,1-2.07,3.8Zm-2.71-6h-4.51v5h4.52a2.52,2.52,0,1,0,0-5Zm.11,12.65a2.78,2.78,0,1,0,0-5.56h-4.63v5.56Z"/><path class="cls-2" d="M161.45,90.54,155.28,104c-1.4,3.07-2.63,4.09-5.08,4.09H149v-1.84H150c1.73,0,2.34-.53,3.38-2.7l.47-1-5.77-12.08h2.22l4.61,9.81,4.34-9.81Z"/><path class="cls-2" d="M183.17,86.7v16.8h-1.78l-9.56-13.11V103.5h-2.06V86.7h1.91l9.43,13v-13Z"/><path class="cls-2" d="M187.17,98v-7.5h2v7.17c0,2.54,1.42,4.1,3.71,4.1s3.7-1.58,3.7-4.1V90.54h2V98a5.75,5.75,0,1,1-11.49,0Z"/><path class="cls-2" d="M216.08,97a6.52,6.52,0,0,1-6.68,6.77,6.67,6.67,0,0,1-5-2.13l-.27,1.84h-1.58V85.92h2v6.27a6.63,6.63,0,0,1,4.8-1.93A6.5,6.5,0,0,1,216.08,97ZM214,97a4.77,4.77,0,1,0-4.76,4.79A4.64,4.64,0,0,0,214,97Z"/><path class="cls-2" d="M231.24,97.82H220.19a4.4,4.4,0,0,0,4.56,4,4.48,4.48,0,0,0,4-2.24h2.15a6.67,6.67,0,1,1-6.19-9.29c3.93,0,6.53,3,6.53,6.82C231.28,97.32,231.26,97.57,231.24,97.82Zm-11-1.89h9a4.58,4.58,0,0,0-9,0Z"/><path class="cls-2" d="M234.33,85.92h2V103.5h-2Z"/><path class="cls-2" d="M253.15,90.54v13h-1.69l-.21-2a6.76,6.76,0,1,1,0-9l.26-2ZM251.07,97a4.77,4.77,0,1,0-4.76,4.79A4.64,4.64,0,0,0,251.07,97Z"/></svg>