<svg id="Layer_1" data-name="Layer 1" xmlns="http://www.w3.org/2000/svg" viewBox="0 0 460 102"><defs><style>.cls-1{fill:#325eea;}</style></defs><path class="cls-1" d="M83.18,1.46H19.33A17.62,17.62,0,0,0,1.72,19.08V82.92a17.62,17.62,0,0,0,17.61,17.62H83.18a17.61,17.61,0,0,0,17.61-17.62V19.08A17.61,17.61,0,0,0,83.18,1.46Zm1.1,40.16A21.11,21.11,0,0,1,63.17,62.73H48.57L50.27,45A1.17,1.17,0,0,1,51.44,44H58a7,7,0,0,0,13.65-2.63A7,7,0,0,0,58,39.27H48.24a2.34,2.34,0,0,0-2.33,2.12L42.07,81.27h0l0,.22H24.71a2.35,2.35,0,0,1-2.34-2.57l5.41-56.29a2.35,2.35,0,0,1,2.34-2.12H63.17A21.11,21.11,0,0,1,84.28,41.62Z"/><path d="M133.82,50.69a22.56,22.56,0,0,1,1.84-9.12A21,21,0,0,1,141,34.21a25.42,25.42,0,0,1,8.55-4.9A34,34,0,0,1,161,27.52a43.78,43.78,0,0,1,10.27,1.13A32.64,32.64,0,0,1,180,32.09l-4.28,7a14.63,14.63,0,0,0-2.77-1.41,25.64,25.64,0,0,0-3.34-1,34.87,34.87,0,0,0-3.66-.66,31.51,31.51,0,0,0-3.73-.23,26.45,26.45,0,0,0-7.94,1.1A17.09,17.09,0,0,0,148.36,40a13.08,13.08,0,0,0-3.63,4.71,14.41,14.41,0,0,0-1.24,6,14.88,14.88,0,0,0,1.28,6.24,13.86,13.86,0,0,0,3.74,4.91,17.55,17.55,0,0,0,6,3.22,25.57,25.57,0,0,0,8,1.16,28.25,28.25,0,0,0,4-.29,33.82,33.82,0,0,0,3.86-.81,29.58,29.58,0,0,0,3.58-1.23,28.51,28.51,0,0,0,3.23-1.57l4.27,7a31.41,31.41,0,0,1-8.67,3.77,38.93,38.93,0,0,1-10.46,1.36,38.21,38.21,0,0,1-12.39-1.83,25.68,25.68,0,0,1-8.91-5,20.71,20.71,0,0,1-5.37-7.56A24.24,24.24,0,0,1,133.82,50.69Z"/><path d="M188.49,56.58a16.44,16.44,0,0,1,1.5-7,17.11,17.11,0,0,1,4.31-5.69,20.65,20.65,0,0,1,6.77-3.83,28.92,28.92,0,0,1,17.84,0,20.65,20.65,0,0,1,6.77,3.83,17,17,0,0,1,4.3,5.69,16.84,16.84,0,0,1,0,13.94,16.85,16.85,0,0,1-4.3,5.69,20.84,20.84,0,0,1-6.77,3.84,29.12,29.12,0,0,1-17.84,0,20.84,20.84,0,0,1-6.77-3.84A17,17,0,0,1,190,63.55,16.41,16.41,0,0,1,188.49,56.58Zm9.11,0a9.44,9.44,0,0,0,.83,3.94,9.68,9.68,0,0,0,2.43,3.28,12,12,0,0,0,3.9,2.26,16.89,16.89,0,0,0,10.46,0,11.86,11.86,0,0,0,3.89-2.26,9.47,9.47,0,0,0,3.27-7.22,9.55,9.55,0,0,0-3.27-7.25,11.86,11.86,0,0,0-3.89-2.26,16.89,16.89,0,0,0-10.46,0,12,12,0,0,0-3.9,2.26,9.75,9.75,0,0,0-2.43,3.3A9.52,9.52,0,0,0,197.6,56.58Z"/><path d="M240.25,39.3h8.67v2.93a26.82,26.82,0,0,1,6.61-2.76,25.17,25.17,0,0,1,6.17-.79A22.42,22.42,0,0,1,269,39.84a16.15,16.15,0,0,1,5.83,3.44A15.61,15.61,0,0,1,278.7,49a20.73,20.73,0,0,1,1.4,7.89v17h-8.65V58.28a14.88,14.88,0,0,0-.8-5.08,10.18,10.18,0,0,0-2.32-3.78,9.82,9.82,0,0,0-3.66-2.35,13.8,13.8,0,0,0-4.82-.8,15.12,15.12,0,0,0-2.88.29,18.16,18.16,0,0,0-2.9.84,16.94,16.94,0,0,0-2.74,1.34,14.61,14.61,0,0,0-2.41,1.84V73.87h-8.67Z"/><path d="M290.73,39.3h8.67v2.93A26.82,26.82,0,0,1,306,39.47a25.11,25.11,0,0,1,6.17-.79,22.47,22.47,0,0,1,7.32,1.16,16.15,16.15,0,0,1,5.83,3.44,15.61,15.61,0,0,1,3.85,5.7,20.73,20.73,0,0,1,1.39,7.89v17h-8.64V58.28a15.13,15.13,0,0,0-.8-5.08,10.18,10.18,0,0,0-2.32-3.78,9.82,9.82,0,0,0-3.66-2.35,13.84,13.84,0,0,0-4.82-.8,15.12,15.12,0,0,0-2.88.29,18.58,18.58,0,0,0-2.91.84,16.84,16.84,0,0,0-2.73,1.34,14.61,14.61,0,0,0-2.41,1.84V73.87h-8.67Z"/><path d="M339.57,56.46A16.39,16.39,0,0,1,341,49.74a17.06,17.06,0,0,1,4.14-5.67,19.91,19.91,0,0,1,6.6-3.92,27.62,27.62,0,0,1,17.81,0,20,20,0,0,1,6.74,4.06,17.61,17.61,0,0,1,4.25,6.06A18.9,18.9,0,0,1,382,57.75c0,.34,0,.69,0,1.07a10.26,10.26,0,0,1-.08,1H349.24A7.86,7.86,0,0,0,351,62.7a11.22,11.22,0,0,0,3.12,2.23,17.47,17.47,0,0,0,4.33,1.45,27,27,0,0,0,5.45.51,28.44,28.44,0,0,0,5.95-.63,44.73,44.73,0,0,0,5.66-1.59l2.93,6.62A36,36,0,0,1,375,72.68a31.14,31.14,0,0,1-3.63,1,39.38,39.38,0,0,1-3.95.6c-1.38.13-2.83.2-4.36.2a33.85,33.85,0,0,1-10.22-1.4,22,22,0,0,1-7.35-3.84,15.82,15.82,0,0,1-4.46-5.72A16.9,16.9,0,0,1,339.57,56.46Zm33.25-3.37a8.55,8.55,0,0,0-1.45-2.68,9.35,9.35,0,0,0-2.45-2.16,12.17,12.17,0,0,0-3.39-1.45,15.8,15.8,0,0,0-4.25-.53,16.45,16.45,0,0,0-4.48.56,13.49,13.49,0,0,0-3.55,1.49,10,10,0,0,0-2.53,2.17,8.21,8.21,0,0,0-1.48,2.6Z"/><path d="M389.26,56.67a18.07,18.07,0,0,1,1.39-7.11,16,16,0,0,1,4.07-5.71,19.34,19.34,0,0,1,6.56-3.79,26.39,26.39,0,0,1,8.87-1.38,37.77,37.77,0,0,1,4.36.26,38.76,38.76,0,0,1,4.23.75,32.57,32.57,0,0,1,3.83,1.14,19.14,19.14,0,0,1,3.1,1.45l-4,6.54a29.4,29.4,0,0,0-5.38-1.94,21.7,21.7,0,0,0-5.14-.61,17.43,17.43,0,0,0-5.36.77,12.14,12.14,0,0,0-4,2.17,9.41,9.41,0,0,0-2.52,3.28,9.9,9.9,0,0,0-.86,4.12,9.35,9.35,0,0,0,.92,4.12A9.5,9.5,0,0,0,401.9,64,12.59,12.59,0,0,0,406,66.12a17.35,17.35,0,0,0,5.32.77,20.14,20.14,0,0,0,6.08-.9,23.75,23.75,0,0,0,5.31-2.44l4,6.54a32.18,32.18,0,0,1-3.37,1.74,29,29,0,0,1-3.88,1.39,34,34,0,0,1-4.34.92,31.22,31.22,0,0,1-4.7.34,27.24,27.24,0,0,1-8.88-1.35,19.51,19.51,0,0,1-6.65-3.73,16.14,16.14,0,0,1-4.17-5.64A17.16,17.16,0,0,1,389.26,56.67Z"/><path d="M441.26,45.8h-8.35V39.3h8.35V28.54h8.67V39.3h8.35v6.5h-8.35V73.87h-8.67Z"/></svg>