<svg id="Layer_1" data-name="Layer 1" xmlns="http://www.w3.org/2000/svg" xmlns:xlink="http://www.w3.org/1999/xlink" viewBox="0 0 48 48"><defs><style>.cls-1{fill:url(#linear-gradient);}.cls-2,.cls-3{fill:#fff;}.cls-2{opacity:0.9;}.cls-3{opacity:0.5;}</style><linearGradient id="linear-gradient" x1="8.61" y1="8.61" x2="40.62" y2="40.62" gradientUnits="userSpaceOnUse"><stop offset="0" stop-color="#3fd6ff"/><stop offset="0.17" stop-color="#50b5ff"/><stop offset="0.43" stop-color="#658cff"/><stop offset="0.66" stop-color="#756eff"/><stop offset="0.86" stop-color="#7f5cff"/><stop offset="1" stop-color="#8255ff"/></linearGradient></defs><rect class="cls-1" x="4" y="4" width="40" height="40" rx="10"/><path class="cls-2" d="M25,21a1,1,0,0,0-1-1H15a1,1,0,0,0-1,1V34H25ZM18,32H16V30h2Zm0-4H16V26h2Zm0-4H16V22h2Zm5,8H20V30h3Zm0-4H20V26h3Zm0-4H20V22h3Z"/><path class="cls-3" d="M26.5,18H18V15a1,1,0,0,1,1-1H29a1,1,0,0,1,1,1v7H27V18.5A.5.5,0,0,0,26.5,18Z"/><path class="cls-2" d="M34,25v9H31.5V30h-2v4H27V25a1,1,0,0,1,1-1h5A1,1,0,0,1,34,25Z"/></svg>