<?xml version="1.0" encoding="UTF-8"?><svg id="a" xmlns="http://www.w3.org/2000/svg" width="40" height="40" xmlns:xlink="http://www.w3.org/1999/xlink" viewBox="0 0 40 40"><defs><linearGradient id="b" x1="4.61" y1="37.39" x2="36.62" y2="5.38" gradientTransform="translate(0 42) scale(1 -1)" gradientUnits="userSpaceOnUse"><stop offset="0" stop-color="#9b8dff"/><stop offset=".25" stop-color="#7c78fc"/><stop offset=".55" stop-color="#5e64fa"/><stop offset=".81" stop-color="#4c58f9"/><stop offset="1" stop-color="#4654f9"/></linearGradient></defs><rect width="40" height="40" rx="10" ry="10" fill="url(#b)"/><path d="m21,17c0-.55-.45-1-1-1h-9c-.55,0-1,.45-1,1v13h11v-13Zm-7,11h-2v-2h2v2Zm0-4h-2v-2h2v2Zm0-4h-2v-2h2v2Zm5,8h-3v-2h3v2Zm0-4h-3v-2h3v2Zm0-4h-3v-2h3v2Z" fill="#fff" isolation="isolate" opacity=".9"/><path d="m22.5,14h-8.5v-3c0-.55.45-1,1-1h10c.55,0,1,.45,1,1v7h-3v-3.5c0-.28-.22-.5-.5-.5Z" fill="#fff" isolation="isolate" opacity=".5"/><path d="m30,21v9h-2.5v-4h-2v4h-2.5v-9c0-.55.45-1,1-1h5c.55,0,1,.45,1,1Z" fill="#fff" isolation="isolate" opacity=".9"/></svg>