<?xml version="1.0" encoding="utf-8"?>
<!-- Generator: Adobe Illustrator 27.4.1, SVG Export Plug-In . SVG Version: 6.00 Build 0)  -->
<svg version="1.1" id="Layer_1" xmlns="http://www.w3.org/2000/svg" xmlns:xlink="http://www.w3.org/1999/xlink" x="0px" y="0px"
	 viewBox="0 0 48 48" style="enable-background:new 0 0 48 48;" xml:space="preserve">
<style type="text/css">
	.st0{fill:url(#SVGID_1_);}
	.st1{fill:#FFFFFF;}
	.st2{fill:url(#SVGID_00000014635036251435513200000016408942993133935784_);}
	.st3{opacity:0.5;fill:#FFFFFF;enable-background:new    ;}
	.st4{opacity:0.9;fill:#FFFFFF;enable-background:new    ;}
	.st5{fill:url(#SVGID_00000088844646831115695880000009851063344587801477_);}
	.st6{opacity:0.5;}
	.st7{opacity:0.5;fill:#FFFFFF;}
</style>
<g id="Layer_1_00000167378665595504786750000011179382137756719761_">
	
		<linearGradient id="SVGID_1_" gradientUnits="userSpaceOnUse" x1="8.61" y1="760.7202" x2="40.62" y2="792.7302" gradientTransform="matrix(1 0 0 1 0 -752.1102)">
		<stop  offset="0" style="stop-color:#7F99FF"/>
		<stop  offset="0.25" style="stop-color:#618EFF"/>
		<stop  offset="0.55" style="stop-color:#4382FF"/>
		<stop  offset="0.81" style="stop-color:#317BFF"/>
		<stop  offset="1" style="stop-color:#2A79FF"/>
	</linearGradient>
	<path class="st0" d="M14,4h20c5.5,0,10,4.5,10,10v20c0,5.5-4.5,10-10,10H14C8.5,44,4,39.5,4,34V14C4,8.5,8.5,4,14,4z"/>
</g>
<path class="st1" d="M31.9,27.6c-0.4-0.2-0.9-0.3-1.5-0.3c-0.4,0-0.8,0.1-1.2,0.2c-0.8,0.3-1.4,0.8-1.8,1.5C27.2,29.4,27,30,27,30.6
	c0,0.4,0.1,0.9,0.2,1.3c0.1,0.3,0.2,0.5,0.4,0.8l-1.5,1.5c-0.2,0.2-0.2,0.5,0,0.7c0.2,0.2,0.5,0.2,0.7,0h0l1.5-1.5
	c0.6,0.4,1.3,0.7,2,0.7c1.9,0,3.4-1.5,3.4-3.4C33.8,29.3,33,28.1,31.9,27.6z M30.4,33c-0.9,0-1.6-0.5-2-1.2
	c-0.2-0.4-0.4-0.8-0.4-1.3c0-0.2,0-0.3,0-0.5c0.2-0.7,0.6-1.3,1.2-1.6c0.3-0.2,0.7-0.3,1.2-0.3c0.5,0,1.1,0.2,1.5,0.5
	c0.6,0.4,1,1.1,1,1.9C32.8,32,31.8,33,30.4,33z"/>
<path class="st1" d="M31.9,27.6c-0.4-0.2-0.9-0.3-1.5-0.3c-0.4,0-0.8,0.1-1.2,0.2c-0.8,0.3-1.4,0.8-1.8,1.5C27.2,29.4,27,30,27,30.6
	c0,0.4,0.1,0.9,0.2,1.3c0.1,0.3,0.2,0.5,0.4,0.8l-1.5,1.5c-0.2,0.2-0.2,0.5,0,0.7c0.2,0.2,0.5,0.2,0.7,0h0l1.5-1.5
	c0.6,0.4,1.3,0.7,2,0.7c1.9,0,3.4-1.5,3.4-3.4C33.8,29.3,33,28.1,31.9,27.6z M30.4,33c-0.9,0-1.6-0.5-2-1.2
	c-0.2-0.4-0.4-0.8-0.4-1.3c0-0.2,0-0.3,0-0.5c0.2-0.7,0.6-1.3,1.2-1.6c0.3-0.2,0.7-0.3,1.2-0.3c0.5,0,1.1,0.2,1.5,0.5
	c0.6,0.4,1,1.1,1,1.9C32.8,32,31.8,33,30.4,33z"/>
<g>
	<g id="Layer_1_00000086674996265433946490000006063618875286030000_">
		
			<linearGradient id="SVGID_00000134222706298305371250000000983290527502438048_" gradientUnits="userSpaceOnUse" x1="63.0649" y1="743.2404" x2="95.075" y2="775.2504" gradientTransform="matrix(1 0 0 1 0 -752.1102)">
			<stop  offset="0" style="stop-color:#7F99FF"/>
			<stop  offset="0.25" style="stop-color:#618EFF"/>
			<stop  offset="0.55" style="stop-color:#4382FF"/>
			<stop  offset="0.81" style="stop-color:#317BFF"/>
			<stop  offset="1" style="stop-color:#2A79FF"/>
		</linearGradient>
		<path style="fill:url(#SVGID_00000134222706298305371250000000983290527502438048_);" d="M68.5-13.5h20c5.5,0,10,4.5,10,10v20
			c0,5.5-4.5,10-10,10h-20c-5.5,0-10-4.5-10-10v-20C58.5-9,63-13.5,68.5-13.5z"/>
	</g>
	<path class="st3" d="M68.5,5.6v7.9c0,0.6,0.4,1,1,1h18c0.6,0,1-0.4,1-1V5.6l-10,4L68.5,5.6z"/>
	<path class="st4" d="M88.5-0.5v4l-10,4l-10-4v-4c0-0.6,0.4-1,1-1h18C88.1-1.5,88.5-1.1,88.5-0.5z"/>
	<path d="M65.8,4.9c0,6.1,4.9,11,11,11c2.4,0,4.7-0.8,6.6-2.2l4.9,4.9c0,0,0,0,0,0c0.6,0.6,1.6,0.6,2.2,0c0.6-0.6,0.6-1.6,0-2.2
		l-4.9-4.9c1.4-1.9,2.2-4.2,2.2-6.6c0-6.1-4.9-11-11-11C70.8-6.1,65.8-1.2,65.8,4.9z M69,4.9c0-4.4,3.5-7.9,7.9-7.9s7.9,3.5,7.9,7.9
		s-3.5,7.9-7.9,7.9C72.5,12.8,69,9.3,69,4.9z"/>
</g>
<g>
	<g id="Layer_1_00000150076131356363617690000007995662184939433631_">
		
			<linearGradient id="SVGID_00000066497596886469199990000011589600788178706819_" gradientUnits="userSpaceOnUse" x1="-65.7852" y1="729.2443" x2="-33.7752" y2="761.2543" gradientTransform="matrix(1 0 0 1 0 -752.1102)">
			<stop  offset="0" style="stop-color:#7F99FF"/>
			<stop  offset="0.25" style="stop-color:#618EFF"/>
			<stop  offset="0.55" style="stop-color:#4382FF"/>
			<stop  offset="0.81" style="stop-color:#317BFF"/>
			<stop  offset="1" style="stop-color:#2A79FF"/>
		</linearGradient>
		<path style="fill:url(#SVGID_00000066497596886469199990000011589600788178706819_);" d="M-60.4-27.5h20c5.5,0,10,4.5,10,10v20
			c0,5.5-4.5,10-10,10h-20c-5.5,0-10-4.5-10-10v-20C-70.4-23-65.9-27.5-60.4-27.5z"/>
	</g>
	<path class="st4" d="M-63.7-8.8c0,6.5,5.3,11.7,11.7,11.7c2.5,0,5-0.8,7-2.4l5.2,5.2c0,0,0,0,0,0c0.7,0.7,1.7,0.6,2.4,0
		c0.7-0.7,0.6-1.7,0-2.4l-5.2-5.2c1.5-2,2.4-4.5,2.4-7c0-6.5-5.3-11.7-11.7-11.7C-58.5-20.5-63.7-15.3-63.7-8.8z M-60.4-8.8
		c0-4.6,3.8-8.4,8.4-8.4s8.4,3.8,8.4,8.4s-3.8,8.4-8.4,8.4C-56.6-0.4-60.4-4.2-60.4-8.8z"/>
	<g>
		<path class="st4" d="M-56.2-3.9h8.2c0.6,0,1.2-0.5,1.2-1.2v-5.8c0-0.6-0.5-1.2-1.2-1.2h-1.2v-1.2c0-0.6-0.5-1.2-1.2-1.2h-3.5
			c-0.6,0-1.2,0.5-1.2,1.2v1.2h-1.2c-0.6,0-1.2,0.5-1.2,1.2v5.8C-57.3-4.4-56.8-3.9-56.2-3.9z M-49.7-10.9h1.2v5.8h-1.2V-10.9z
			 M-53.8-12.9c0-0.2,0.1-0.3,0.3-0.3h2.9c0.2,0,0.3,0.1,0.3,0.3v0.9h-3.5V-12.9z M-55.6-10.9h1.2v5.8h-1.2V-10.9z"/>
		<g class="st6">
			<rect x="-55.6" y="-10.9" class="st1" width="1.2" height="5.8"/>
			<rect x="-49.7" y="-10.9" class="st1" width="1.2" height="5.8"/>
		</g>
	</g>
</g>
<circle class="st7" cx="30.4" cy="30.6" r="2.4"/>
<g>
	<path class="st4" d="M24.8,21.6c0-0.4-0.4-0.8-0.8-0.8h-7.1c-0.4,0-0.8,0.4-0.8,0.8v10.3h8.7V21.6z M19.2,30.3h-1.6v-1.6h1.6V30.3z
		 M19.2,27.1h-1.6v-1.6h1.6V27.1z M19.2,24h-1.6v-1.6h1.6V24z M23.2,30.3h-2.4v-1.6h2.4V30.3z M23.2,27.1h-2.4v-1.6h2.4V27.1z
		 M23.2,24h-2.4v-1.6h2.4V24z"/>
	<path class="st3" d="M26,19.2h-6.7v-2.4c0-0.4,0.4-0.8,0.8-0.8H28c0.4,0,0.8,0.4,0.8,0.8v5.5h-2.4v-2.8
		C26.4,19.4,26.2,19.2,26,19.2z"/>
	<path class="st4" d="M31.9,24.8v1.9c-0.5-0.2-1-0.3-1.5-0.3c-1.9,0-3.5,1.2-4,2.9v-4.5c0-0.4,0.3-0.8,0.8-0.8h4
		C31.6,24,31.9,24.3,31.9,24.8z"/>
</g>
</svg>
