<?xml version="1.0" encoding="UTF-8"?><svg id="a" xmlns="http://www.w3.org/2000/svg" width="48" height="48" xmlns:xlink="http://www.w3.org/1999/xlink" viewBox="0 0 48 48"><defs><linearGradient id="b" x1="8.61" y1="41.39" x2="40.62" y2="9.38" gradientTransform="translate(0 50) scale(1 -1)" gradientUnits="userSpaceOnUse"><stop offset="0" stop-color="#7f99ff"/><stop offset=".25" stop-color="#618eff"/><stop offset=".55" stop-color="#4382ff"/><stop offset=".81" stop-color="#317bff"/><stop offset="1" stop-color="#2a79ff"/></linearGradient></defs><rect x="4" y="4" width="40" height="40" rx="10" ry="10" fill="url(#b)"/><path d="m16,19c0-2.76141,2.23859-5,5-5s5,2.23859,5,5-2.23859,5-5,5-5-2.23859-5-5Zm8,9h-6c-2.20917,0-4,1.79083-4,4v1c0,.55225.44769,1,1,1h12c.55231,0,1-.44775,1-1v-1c0-2.20917-1.79083-4-4-4Z" fill="#fff" isolation="isolate" opacity=".9"/><path d="m28,19c0-1.9046-.76697-3.6322-2.00562-4.89563.32513-.06641.66083-.10437,1.00562-.10437,2.76141,0,5,2.23859,5,5s-2.23859,5-5,5c-.34479,0-.68042-.03796-1.00555-.10443,1.23859-1.26343,2.00555-2.99097,2.00555-4.89557Zm2,9h-1.54047c.95428,1.06281,1.54047,2.46246,1.54047,4v2h3c.55231,0,1-.44775,1-1v-1c0-2.20917-1.79083-4-4-4Z" fill="#fff" isolation="isolate" opacity=".5"/></svg>