<?xml version="1.0" encoding="utf-8"?>
<!-- Generator: Adobe Illustrator 27.4.1, SVG Export Plug-In . SVG Version: 6.00 Build 0)  -->
<svg version="1.1" id="Layer_1" xmlns="http://www.w3.org/2000/svg" xmlns:xlink="http://www.w3.org/1999/xlink" x="0px" y="0px"
	 viewBox="0 0 48 48" style="enable-background:new 0 0 48 48;" xml:space="preserve">
<style type="text/css">
	.st0{fill:url(#SVGID_1_);}
	.st1{opacity:0.9;enable-background:new    ;}
	.st2{fill:#FFFFFF;}
	.st3{fill:url(#SVGID_00000047782832574415427300000015529913041895314346_);}
	.st4{opacity:0.5;fill:#FFFFFF;enable-background:new    ;}
	.st5{opacity:0.9;fill:#FFFFFF;enable-background:new    ;}
	.st6{opacity:0.5;}
	.st7{fill:url(#SVGID_00000081638358071672947650000006182334865699766408_);}
	.st8{opacity:0.5;fill:#FFFFFF;}
</style>
<g id="Layer_1_00000167378665595504786750000011179382137756719761_">
	
		<linearGradient id="SVGID_1_" gradientUnits="userSpaceOnUse" x1="8.61" y1="760.7202" x2="40.62" y2="792.7302" gradientTransform="matrix(1 0 0 1 0 -752.1102)">
		<stop  offset="0" style="stop-color:#9B8DFF"/>
		<stop  offset="0.2515" style="stop-color:#7C78FC"/>
		<stop  offset="0.5546" style="stop-color:#5E64FA"/>
		<stop  offset="0.8148" style="stop-color:#4C58F9"/>
		<stop  offset="1" style="stop-color:#4654F9"/>
	</linearGradient>
	<path class="st0" d="M14,4h20c5.5,0,10,4.5,10,10v20c0,5.5-4.5,10-10,10H14C8.5,44,4,39.5,4,34V14C4,8.5,8.5,4,14,4z"/>
</g>
<g class="st1">
	<path class="st2" d="M31.9,27.6c-0.4-0.2-0.9-0.3-1.5-0.3c-0.4,0-0.8,0.1-1.2,0.2c-0.8,0.3-1.4,0.8-1.8,1.5
		C27.2,29.4,27,30,27,30.6c0,0.4,0.1,0.9,0.2,1.3c0.1,0.3,0.2,0.5,0.4,0.8l-1.5,1.5c-0.2,0.2-0.2,0.5,0,0.7c0.2,0.2,0.5,0.2,0.7,0h0
		l1.5-1.5c0.6,0.4,1.3,0.7,2,0.7c1.9,0,3.4-1.5,3.4-3.4C33.8,29.3,33,28.1,31.9,27.6z M30.4,33c-0.9,0-1.6-0.5-2-1.2
		c-0.2-0.4-0.4-0.8-0.4-1.3c0-0.2,0-0.3,0-0.5c0.2-0.7,0.6-1.3,1.2-1.6c0.3-0.2,0.7-0.3,1.2-0.3c0.5,0,1.1,0.2,1.5,0.5
		c0.6,0.4,1,1.1,1,1.9C32.8,32,31.8,33,30.4,33z"/>
	<path class="st2" d="M31.9,27.6c-0.4-0.2-0.9-0.3-1.5-0.3c-0.4,0-0.8,0.1-1.2,0.2c-0.8,0.3-1.4,0.8-1.8,1.5
		C27.2,29.4,27,30,27,30.6c0,0.4,0.1,0.9,0.2,1.3c0.1,0.3,0.2,0.5,0.4,0.8l-1.5,1.5c-0.2,0.2-0.2,0.5,0,0.7c0.2,0.2,0.5,0.2,0.7,0h0
		l1.5-1.5c0.6,0.4,1.3,0.7,2,0.7c1.9,0,3.4-1.5,3.4-3.4C33.8,29.3,33,28.1,31.9,27.6z M30.4,33c-0.9,0-1.6-0.5-2-1.2
		c-0.2-0.4-0.4-0.8-0.4-1.3c0-0.2,0-0.3,0-0.5c0.2-0.7,0.6-1.3,1.2-1.6c0.3-0.2,0.7-0.3,1.2-0.3c0.5,0,1.1,0.2,1.5,0.5
		c0.6,0.4,1,1.1,1,1.9C32.8,32,31.8,33,30.4,33z"/>
</g>
<g>
	<g id="Layer_1_00000086674996265433946490000006063618875286030000_">
		
			<linearGradient id="SVGID_00000116208265941712809260000007111218086062113948_" gradientUnits="userSpaceOnUse" x1="63.0649" y1="743.2404" x2="95.075" y2="775.2504" gradientTransform="matrix(1 0 0 1 0 -752.1102)">
			<stop  offset="0" style="stop-color:#7F99FF"/>
			<stop  offset="0.25" style="stop-color:#618EFF"/>
			<stop  offset="0.55" style="stop-color:#4382FF"/>
			<stop  offset="0.81" style="stop-color:#317BFF"/>
			<stop  offset="1" style="stop-color:#2A79FF"/>
		</linearGradient>
		<path style="fill:url(#SVGID_00000116208265941712809260000007111218086062113948_);" d="M68.5-13.5h20c5.5,0,10,4.5,10,10v20
			c0,5.5-4.5,10-10,10h-20c-5.5,0-10-4.5-10-10v-20C58.5-9,63-13.5,68.5-13.5z"/>
	</g>
	<path class="st4" d="M68.5,5.6v7.9c0,0.6,0.4,1,1,1h18c0.6,0,1-0.4,1-1V5.6l-10,4L68.5,5.6z"/>
	<path class="st5" d="M88.5-0.5v4l-10,4l-10-4v-4c0-0.6,0.4-1,1-1h18C88.1-1.5,88.5-1.1,88.5-0.5z"/>
	<path d="M65.8,4.9c0,6.1,4.9,11,11,11c2.4,0,4.7-0.8,6.6-2.2l4.9,4.9c0,0,0,0,0,0c0.6,0.6,1.6,0.6,2.2,0c0.6-0.6,0.6-1.6,0-2.2
		l-4.9-4.9c1.4-1.9,2.2-4.2,2.2-6.6c0-6.1-4.9-11-11-11C70.8-6.1,65.8-1.2,65.8,4.9z M69,4.9c0-4.4,3.5-7.9,7.9-7.9s7.9,3.5,7.9,7.9
		s-3.5,7.9-7.9,7.9C72.5,12.8,69,9.3,69,4.9z"/>
</g>
<g>
	<path class="st5" d="M30.1,19.6h-1.8v-1.8c0-1-0.8-1.8-1.8-1.8h-5.3c-1,0-1.8,0.8-1.8,1.8v1.8h-1.8c-1,0-1.8,0.8-1.8,1.8v8.8
		c0,1,0.8,1.8,1.8,1.8h8.4C26.1,31.5,26,31,26,30.6c0-1.3,0.6-2.5,1.5-3.2v-6h1.8v5c0.4-0.1,0.8-0.2,1.2-0.2c0.5,0,1,0.1,1.5,0.3
		v-5.1C31.9,20.4,31.1,19.6,30.1,19.6z M20.5,30.1h-1.8v-8.8h1.8V30.1z M26.6,19.6h-5.3v-1.3c0-0.3,0.2-0.4,0.4-0.4h4.4
		c0.3,0,0.4,0.2,0.4,0.4V19.6z"/>
	<g class="st6">
		<rect x="18.7" y="21.4" class="st2" width="1.8" height="8.8"/>
		<path class="st2" d="M29.3,21.4v5c-0.7,0.2-1.3,0.5-1.8,1v-6H29.3z"/>
	</g>
</g>
<g>
	<g id="Layer_1_00000150076131356363617690000007995662184939433631_">
		
			<linearGradient id="SVGID_00000116956884624567128280000000200693046468909714_" gradientUnits="userSpaceOnUse" x1="-65.7852" y1="729.2443" x2="-33.7752" y2="761.2543" gradientTransform="matrix(1 0 0 1 0 -752.1102)">
			<stop  offset="0" style="stop-color:#7F99FF"/>
			<stop  offset="0.25" style="stop-color:#618EFF"/>
			<stop  offset="0.55" style="stop-color:#4382FF"/>
			<stop  offset="0.81" style="stop-color:#317BFF"/>
			<stop  offset="1" style="stop-color:#2A79FF"/>
		</linearGradient>
		<path style="fill:url(#SVGID_00000116956884624567128280000000200693046468909714_);" d="M-60.4-27.5h20c5.5,0,10,4.5,10,10v20
			c0,5.5-4.5,10-10,10h-20c-5.5,0-10-4.5-10-10v-20C-70.4-23-65.9-27.5-60.4-27.5z"/>
	</g>
	<path class="st5" d="M-63.7-8.8c0,6.5,5.3,11.7,11.7,11.7c2.5,0,5-0.8,7-2.4l5.2,5.2c0,0,0,0,0,0c0.7,0.7,1.7,0.6,2.4,0
		c0.7-0.7,0.6-1.7,0-2.4l-5.2-5.2c1.5-2,2.4-4.5,2.4-7c0-6.5-5.3-11.7-11.7-11.7C-58.5-20.5-63.7-15.3-63.7-8.8z M-60.4-8.8
		c0-4.6,3.8-8.4,8.4-8.4s8.4,3.8,8.4,8.4s-3.8,8.4-8.4,8.4C-56.6-0.4-60.4-4.2-60.4-8.8z"/>
	<g>
		<path class="st5" d="M-56.2-3.9h8.2c0.6,0,1.2-0.5,1.2-1.2v-5.8c0-0.6-0.5-1.2-1.2-1.2h-1.2v-1.2c0-0.6-0.5-1.2-1.2-1.2h-3.5
			c-0.6,0-1.2,0.5-1.2,1.2v1.2h-1.2c-0.6,0-1.2,0.5-1.2,1.2v5.8C-57.3-4.4-56.8-3.9-56.2-3.9z M-49.7-10.9h1.2v5.8h-1.2V-10.9z
			 M-53.8-12.9c0-0.2,0.1-0.3,0.3-0.3h2.9c0.2,0,0.3,0.1,0.3,0.3v0.9h-3.5V-12.9z M-55.6-10.9h1.2v5.8h-1.2V-10.9z"/>
		<g class="st6">
			<rect x="-55.6" y="-10.9" class="st2" width="1.2" height="5.8"/>
			<rect x="-49.7" y="-10.9" class="st2" width="1.2" height="5.8"/>
		</g>
	</g>
</g>
<circle class="st8" cx="30.4" cy="30.6" r="2.4"/>
</svg>
