<?xml version="1.0" encoding="UTF-8"?><svg id="a" xmlns="http://www.w3.org/2000/svg" width="48" height="48" xmlns:xlink="http://www.w3.org/1999/xlink" viewBox="0 0 48 48"><defs><linearGradient id="b" x1="8.61" y1="41.39" x2="40.62" y2="9.38" gradientTransform="translate(0 50) scale(1 -1)" gradientUnits="userSpaceOnUse"><stop offset="0" stop-color="#a5b4fc"/><stop offset="1" stop-color="#a855f7"/></linearGradient></defs><rect x="4" y="4" width="40" height="40" rx="10" ry="10" fill="url(#b)"/><path d="m32,31h-5c-1.10455,0-2,.89539-2,2v1h9v-1c0-1.10461-.89545-2-2-2Z" fill="#fff"/><circle cx="29.5" cy="26.5" r="2.5" fill="#fff"/><path d="m25,26.5c0-2.48145,2.01855-4.5,4.5-4.5.92474,0,1.7843.28162,2.5.76178v-6.76178c0-1.10461-.89545-2-2-2h-14c-1.10455,0-2,.89539-2,2v10c0,1.10455.89545,2,2,2h9.26312c-.16699-.47009-.26312-.97327-.26312-1.5Zm-2-3.68945c-.41553,0-.83105-.08545-1.21777-.25732l-5.78223-2.57013v-2.18848l6.59375,2.93097c.25781.11426.55469.11377.81348-.00049l6.59277-2.93048v2.18848l-5.78125,2.56964c-.3877.17188-.80322.25781-1.21875.25781Z" fill="#fff" opacity=".5"/></svg>