<?xml version="1.0" encoding="UTF-8"?><svg id="a" xmlns="http://www.w3.org/2000/svg" width="48" height="48" xmlns:xlink="http://www.w3.org/1999/xlink" viewBox="0 0 48 48"><defs><linearGradient id="b" x1="8.61" y1="41.39" x2="40.62" y2="9.38" gradientTransform="translate(0 50) scale(1 -1)" gradientUnits="userSpaceOnUse"><stop offset="0" stop-color="#ff9f69"/><stop offset="1" stop-color="#ff4351"/></linearGradient></defs><rect x="4" y="4" width="40" height="40" rx="10" ry="10" fill="url(#b)"/><path d="m18.14482,29.85517c-4.59924-4.5993-4.36993-10.17681-3.91821-12.8316.15906-.93433.8139-1.70154,1.7132-2.00348l2.83984-.95343c.66705-.22388,1.38635.13428,1.60669.80005l1.13867,3.44092c.15112.4566.03082.96082-.31073,1.30243l-2.19843,2.40576s-.85645,2.44293,1.83447,5.13391c2.69086,2.69086,5.13385,1.83441,5.13385,1.83441l2.40576-2.19843c.34155-.34155.84583-.46191,1.30243-.31073l3.44092,1.13861c.66577.2204,1.02393.93964.79999,1.60681l-.95337,2.83978c-.30194.89923-1.06915,1.55414-2.00348,1.7132-2.65479.45178-8.2323.68109-12.8316-3.91821Z" fill="#fff"/></svg>