<?xml version="1.0" encoding="utf-8"?>
<!-- Generator: Adobe Illustrator 25.2.1, SVG Export Plug-In . SVG Version: 6.00 Build 0)  -->
<svg version="1.1" id="Layer_1" xmlns="http://www.w3.org/2000/svg" xmlns:xlink="http://www.w3.org/1999/xlink" x="0px" y="0px"
	 viewBox="0 0 40 40" style="enable-background:new 0 0 40 40;" xml:space="preserve">
<style type="text/css">
	.st0{fill:url(#SVGID_1_);}
	.st1{opacity:0.9;fill:#FFFFFF;enable-background:new    ;}
	.st2{opacity:0.5;fill:#FFFFFF;enable-background:new    ;}
	.st3{fill:#FFFFFF;}
</style>
<linearGradient id="SVGID_1_" gradientUnits="userSpaceOnUse" x1="8.61" y1="1958.61" x2="40.62" y2="1990.62" gradientTransform="matrix(1 0 0 1 -4 -1954)">
	<stop  offset="0" style="stop-color:#3FD6FF"/>
	<stop  offset="0.17" style="stop-color:#50B5FF"/>
	<stop  offset="0.43" style="stop-color:#658CFF"/>
	<stop  offset="0.66" style="stop-color:#756EFF"/>
	<stop  offset="0.86" style="stop-color:#7F5CFF"/>
	<stop  offset="1" style="stop-color:#8255FF"/>
</linearGradient>
<path class="st0" d="M10,0h20c5.5,0,10,4.5,10,10v20c0,5.5-4.5,10-10,10H10C4.5,40,0,35.5,0,30V10C0,4.5,4.5,0,10,0z"/>
<path class="st1" d="M53.5,17c0-0.6-0.4-1-1-1h-9c-0.6,0-1,0.4-1,1v13h11V17z M46.5,28h-2v-2h2V28z M46.5,24h-2v-2h2V24z M46.5,20
	h-2v-2h2V20z M51.5,28h-3v-2h3V28z M51.5,24h-3v-2h3V24z M51.5,20h-3v-2h3V20z"/>
<path class="st2" d="M55,14h-8.5v-3c0-0.6,0.4-1,1-1h10c0.6,0,1,0.4,1,1v7h-3v-3.5C55.5,14.2,55.3,14,55,14z"/>
<path class="st1" d="M62.5,21v9H60v-4h-2v4h-2.5v-9c0-0.6,0.4-1,1-1h5C62.1,20,62.5,20.4,62.5,21z"/>
<g>
	<path class="st2" d="M-2.6,29.4C-2.6,29.4-2.7,29.4-2.6,29.4l-18.4,0c-0.1,0-0.2,0-0.3-0.1l7.4-6.3l1.1,0.7
		c0.3,0.2,0.6,0.3,0.9,0.3s0.7-0.1,0.9-0.3l0.9-0.6L-2.6,29.4z"/>
	<path class="st2" d="M-22.2,17.4l7.4,5.1l-7.4,6.2c-0.1-0.2-0.1-0.3-0.1-0.5V17.7C-22.2,17.6-22.2,17.5-22.2,17.4z"/>
	<path class="st2" d="M-1.2,17.6v10.7c0,0.2-0.1,0.5-0.2,0.7l-7.5-6.4l7.7-5.3C-1.2,17.4-1.2,17.5-1.2,17.6z"/>
	<path class="st2" d="M-21,16.5h2.8V19l-3.4-2.3C-21.4,16.5-21.2,16.5-21,16.5z"/>
	<path class="st2" d="M-1.8,16.5l-3.5,2.4v-2.5h2.9C-2.2,16.4-2,16.4-1.8,16.5z"/>
	<path class="st1" d="M-7.4,10.8H-16c-0.6,0-1.1,0.5-1.1,1.1v7.6l5,3.4c0.2,0.2,0.6,0.2,0.8,0l5-3.4V12C-6.3,11.3-6.8,10.8-7.4,10.8
		z M-9.9,17.7c-0.1,0.2-0.3,0.4-0.5,0.5c-0.2,0.1-0.5,0.2-0.8,0.2v0.5c0,0,0,0.1,0,0.1c0,0-0.1,0-0.1,0H-12c0,0-0.1,0-0.1,0
		c0,0,0-0.1,0-0.1v-0.5c-0.3,0-0.6-0.1-0.8-0.2c-0.2-0.1-0.4-0.3-0.5-0.5c-0.1-0.2-0.2-0.4-0.2-0.6c0,0,0-0.1,0-0.1c0,0,0.1,0,0.1,0
		h0.8c0.1,0,0.1,0,0.1,0c0,0,0.1,0,0.1,0.1c0,0.1,0.1,0.1,0.2,0.2c0.1,0.1,0.1,0.1,0.2,0.1c0.1,0,0.2,0,0.4,0c0.2,0,0.4,0,0.6-0.1
		c0.1-0.1,0.2-0.2,0.2-0.3c0-0.1,0-0.2-0.1-0.2c-0.1-0.1-0.2-0.1-0.3-0.2c-0.2,0-0.4-0.1-0.6-0.2c-0.3-0.1-0.6-0.2-0.8-0.3
		c-0.2-0.1-0.4-0.2-0.5-0.4c-0.1-0.2-0.2-0.4-0.2-0.7c0-0.3,0.1-0.6,0.4-0.9c0.2-0.2,0.6-0.4,1-0.4v-0.5c0,0,0-0.1,0-0.1
		c0,0,0.1,0,0.1,0h0.5c0,0,0.1,0,0.1,0c0,0,0,0.1,0,0.1v0.5c0.3,0.1,0.5,0.2,0.8,0.3s0.4,0.3,0.5,0.5c0.1,0.2,0.2,0.3,0.2,0.5
		c0,0,0,0.1,0,0.1c0,0-0.1,0-0.1,0h-0.8c0,0-0.1,0-0.1,0c0,0-0.1,0-0.1-0.1c0-0.1-0.1-0.2-0.2-0.2c-0.1-0.1-0.3-0.1-0.4-0.1
		c-0.2,0-0.3,0-0.4,0.1c-0.1,0.1-0.2,0.2-0.2,0.3c0,0.1,0,0.2,0.1,0.2c0.1,0.1,0.1,0.1,0.3,0.2c0.1,0.1,0.3,0.1,0.6,0.2
		c0.4,0.1,0.7,0.2,1,0.3c0.2,0.1,0.4,0.3,0.5,0.4c0.1,0.2,0.2,0.4,0.2,0.7C-9.7,17.2-9.8,17.5-9.9,17.7z"/>
</g>
<path class="st2" d="M20,8.6C13.7,8.6,8.6,13.7,8.6,20S13.7,31.4,20,31.4S31.4,26.3,31.4,20S26.3,8.6,20,8.6z M20,29.3
	c-5.2,0-9.3-4.2-9.3-9.3s4.2-9.3,9.3-9.3s9.3,4.2,9.3,9.3S25.2,29.3,20,29.3z"/>
<path class="st3" d="M20,10.7c-5.2,0-9.3,4.2-9.3,9.3s4.2,9.3,9.3,9.3s9.3-4.2,9.3-9.3S25.2,10.7,20,10.7z M23.8,22.8
	c-0.3,0.4-0.7,0.8-1.1,1c-0.5,0.3-1.1,0.4-1.7,0.5v1c0,0.1,0,0.2-0.1,0.2s-0.1,0.1-0.2,0.1h-1.2c-0.1,0-0.2,0-0.2-0.1
	c-0.1-0.1-0.1-0.2-0.1-0.2v-1c-0.7-0.1-1.3-0.3-1.8-0.5c-0.5-0.3-0.8-0.6-1.1-1c-0.2-0.4-0.4-0.8-0.4-1.2c0-0.1,0-0.1,0.1-0.2
	s0.1-0.1,0.2-0.1h1.8c0.1,0,0.2,0,0.3,0.1c0.1,0,0.1,0.1,0.2,0.2c0.1,0.1,0.2,0.3,0.3,0.4c0.1,0.1,0.3,0.2,0.5,0.3
	c0.2,0.1,0.5,0.1,0.8,0.1c0.5,0,1-0.1,1.2-0.2c0.3-0.2,0.4-0.4,0.4-0.7c0-0.2-0.1-0.4-0.2-0.5c-0.1-0.1-0.4-0.2-0.7-0.4
	c-0.3-0.1-0.8-0.2-1.3-0.3c-0.7-0.1-1.3-0.3-1.8-0.6c-0.5-0.2-0.9-0.6-1.1-0.9c-0.3-0.4-0.4-0.9-0.4-1.4c0-0.8,0.3-1.4,0.8-1.9
	c0.5-0.5,1.3-0.8,2.2-1v-1c0-0.1,0-0.2,0.1-0.2c0.1-0.1,0.1-0.1,0.2-0.1h1.2c0.1,0,0.2,0,0.2,0.1c0.1,0.1,0.1,0.2,0.1,0.2v1
	c0.6,0.1,1.2,0.3,1.6,0.6c0.4,0.3,0.8,0.6,1,1c0.2,0.4,0.3,0.7,0.4,1c0,0.1,0,0.1-0.1,0.2c0,0.1-0.1,0.1-0.2,0.1h-1.9
	c-0.1,0-0.2,0-0.3-0.1c-0.1,0-0.1-0.1-0.2-0.2c-0.1-0.2-0.2-0.4-0.4-0.5c-0.2-0.2-0.6-0.2-0.9-0.2c-0.4,0-0.7,0.1-1,0.2
	c-0.2,0.1-0.3,0.4-0.3,0.7c0,0.2,0.1,0.3,0.2,0.5c0.1,0.1,0.3,0.3,0.6,0.4c0.3,0.1,0.7,0.2,1.2,0.3c0.8,0.2,1.5,0.4,2,0.6
	c0.5,0.2,0.9,0.5,1.2,0.9c0.2,0.4,0.4,0.8,0.4,1.4C24.2,21.9,24.1,22.4,23.8,22.8z"/>
</svg>
