<?xml version="1.0" encoding="UTF-8"?><svg id="a" xmlns="http://www.w3.org/2000/svg" width="48" height="48" xmlns:xlink="http://www.w3.org/1999/xlink" viewBox="0 0 48 48"><defs><linearGradient id="b" x1="8.61" y1="41.39" x2="40.62" y2="9.38" gradientTransform="translate(0 50) scale(1 -1)" gradientUnits="userSpaceOnUse"><stop offset="0" stop-color="#5eead4"/><stop offset="1" stop-color="#0ea5e9"/></linearGradient></defs><rect x="4" y="4" width="40" height="40" rx="10" ry="10" fill="url(#b)"/><path d="m27.5,23h3c.5498,0,1.05896.15625,1.5.41656v-7.41656c0-1.10461-.89545-2-2-2h-14c-1.10455,0-2,.89539-2,2v10c0,1.10455.89545,2,2,2h6c0-1.54266,1.17462-2.80206,2.67401-2.96704.40485-1.17841,1.5119-2.03296,2.82599-2.03296Zm-4.5-.18945c-.41553,0-.83105-.08545-1.21777-.25732l-5.78223-2.57013v-2.18848l6.59375,2.93097c.25781.11426.55469.11377.81348-.00049l6.59277-2.93048v2.18848l-5.78125,2.56964c-.3877.17188-.80322.25781-1.21875.25781Z" fill="#fff" opacity=".5"/><path d="m33,27h-1v-1c0-.82715-.67285-1.5-1.5-1.5h-3c-.82715,0-1.5.67285-1.5,1.5v1h-1c-.55225,0-1,.44769-1,1v5c0,.55225.44775,1,1,1h8c.55231,0,1-.44775,1-1v-5c0-.55231-.44769-1-1-1Zm-2,0h-4v-1c0-.27539.22461-.5.5-.5h3c.27539,0,.5.22461.5.5v1Z" fill="#fff"/></svg>