<?xml version="1.0" encoding="utf-8"?>
<!-- Generator: Adobe Illustrator 25.2.1, SVG Export Plug-In . SVG Version: 6.00 Build 0)  -->
<svg version="1.1" id="Layer_1" xmlns="http://www.w3.org/2000/svg" xmlns:xlink="http://www.w3.org/1999/xlink" x="0px" y="0px"
	 viewBox="0 0 1000 400" style="enable-background:new 0 0 1000 400;" xml:space="preserve">
<style type="text/css">
	.st0{fill:#4BD2B2;}
	.st1{fill-rule:evenodd;clip-rule:evenodd;fill:#4BD2B2;}
</style>
<g>
	<path class="st0" d="M204.78,65.28c-45.85,1.17-90.07,9.83-131.01,31.82c-10.29,5.61-20.12,12.17-27.14,21.76
		c-6.32,8.66-11.23,18.01-5.38,29.01c1.17,2.11,1.4,4.68-0.47,6.55c-2.11,2.34-4.68,1.4-7.02,0.7c-3.74-1.17-6.32-3.74-8.66-6.55
		c-14.5-18.48-13.8-40.47,2.57-57.55c15.44-16.14,34.39-26.67,54.98-34.62c44.22-17.08,89.83-21.52,136.62-16.38
		c26.9,3.04,51.7,10.76,74.16,26.2c29.24,20.12,43.28,48.43,45.15,83.05c1.87,36.03-10.29,68.08-28.54,98.26
		c-27.14,44.92-63.16,80.48-111.82,101.77c-20.82,9.12-42.34,14.5-65.27,12.16c-12.87-1.4-23.39-6.32-27.84-19.42
		c-0.23-0.94-0.7-1.87-0.94-2.81c-0.23-3.28-1.87-7.02,1.4-9.12c3.28-2.11,6.08,0.94,8.19,2.81c8.66,7.25,18.72,7.02,28.77,5.15
		c28.07-4.91,51.94-18.25,74.16-35.33c40.47-31.12,70.65-70.18,87.49-118.84c6.08-17.78,8.66-36.03,6.08-54.74
		c-4.21-29.01-22.46-46.09-49.13-55.68C243.15,67.15,224.2,65.05,204.78,65.28z"/>
	<path class="st0" d="M70.73,325.43c0.94-20.59,4.91-36.03,9.36-51.23c13.8-47.49,30.65-93.58,52.87-137.79
		c6.78-13.57,14.74-26.44,23.86-38.83c2.81-3.51,5.85-7.02,9.59-9.12c6.32-3.74,12.87-3.04,17.31,1.4
		c4.68,4.91,5.38,9.83,0.94,16.38c-10.06,14.97-17.78,31.11-25.27,47.49c-22.46,49.36-41.41,99.89-55.68,152.06
		c-2.57,9.83-4.44,19.65-4.91,29.94s-7.49,14.04-16.38,8.66C73.77,339,70.26,331.04,70.73,325.43z"/>
	<path class="st1" d="M525.98,233.72c-3.32,0.38-6.3,1.33-9.23,2.26c-2.43,0.77-4.83,1.53-7.38,1.96
		c-7.49,1.17-14.97,2.11-22.69,0.7c-3.98-0.7-5.38,0.47-6.78,4.21c-7.95,20.82-18.72,40.24-34.39,56.61
		c-11.46,11.93-24.1,21.29-41.17,23.63c-29.48,4.21-55.21-15.21-59.42-44.68c-3.28-22.69,2.34-43.75,11.23-64.1
		c11.23-25.73,27.14-47.49,50.06-64.1c25.27-18.48,68.08-7.25,80.24,23.39c4.68,11.93,4.68,24.1,2.11,36.26
		c-1.17,5.38,0.94,7.02,5.38,7.02c14.74,0.47,27.61-4.44,38.83-13.33c1.98-1.44,2.58-3.86,3.17-6.28c0.18-0.72,0.36-1.44,0.57-2.14
		c3.28-10.76,7.25-21.29,11.7-31.82c2.34-5.61,5.85-10.53,11.46-13.33c6.08-2.81,12.16-2.11,16.84,2.34
		c4.21,3.98,5.15,9.36,2.81,15.67c-13.1,34.62-23.39,70.18-28.77,106.91c-0.7,4.68-0.7,9.36-0.47,14.04c0.47,7.49,4.68,9.59,11,6.08
		c5.61-3.04,10.29-7.25,14.5-11.7c20.59-21.99,36.26-47.26,51.23-72.99c2.25-3.94,2.98-8.48,3.71-13.05
		c0.48-3.02,0.97-6.05,1.9-8.94c3.28-11.23,7.02-22.22,13.8-32.05c4.91-6.78,11.23-11.23,20.12-10.76
		c9.12,0.7,15.44,8.19,13.57,17.31c-2.34,12.4-9.12,22.69-16.38,32.75c-6.55,9.12-11.7,18.25-11,29.94
		c0.47,5.38,1.4,10.53,3.28,15.21c3.98,9.83,12.4,13.57,21.76,8.89c11.93-6.08,21.76-14.04,26.2-28.07
		c8.42-26.67,22.69-50.06,45.85-66.67c12.4-8.89,25.97-13.1,41.41-9.36c15.67,3.74,27.61,18.95,28.77,35.09
		c0.94,14.5-3.74,27.37-11.46,39.07c-11.93,18.25-26.2,33.45-48.19,39.54c-8.89,2.57-17.78,2.81-26.2-1.17
		c-3.74-1.87-4.44-0.7-4.91,3.04l-0.01,0.14c-0.7,8.37-1.38,16.52,1.42,24.66c4.68,12.87,13.57,17.55,26.9,15.21
		c14.5-2.81,26.9-9.83,38.6-18.48c21.29-15.67,38.13-35.79,52.64-57.55c4.15-6.39,6.23-13.87,8.33-21.4c0.97-3.5,1.95-7,3.13-10.41
		c1.75-4.8,3.45-9.53,5.15-14.27v0c1.7-4.74,3.39-9.47,5.15-14.27c0.7-1.87,1.64-3.51,2.57-5.15c4.44-7.72,12.63-10.76,19.65-7.49
		c6.78,3.04,9.59,11.23,6.55,19.65c-2.46,6.9-4.91,13.74-7.37,20.59c-2.46,6.84-4.91,13.69-7.37,20.59c-0.47,0.94-0.47,2.11,0,3.51
		c1.4-1.87,2.75-3.74,4.09-5.61c1.35-1.87,2.69-3.74,4.09-5.61c10.29-14.27,21.52-27.61,34.86-39.3
		c8.42-7.25,17.55-13.57,29.01-15.21c7.49-1.17,13.33,1.17,18.25,6.78c8.42,10.29,10.06,22.46,10.53,35.09
		c0,3.04-1.4,5.85-4.91,6.32c-3.28,0.47-6.32-0.7-7.95-3.74c-0.78-1.56-1.35-3.33-1.92-5.09v0c-0.29-0.88-0.57-1.77-0.88-2.63
		c-2.57-7.49-7.95-10.53-15.44-8.42c-10.76,3.04-18.72,10.29-26.2,18.01c-20.12,21.29-36.03,45.38-50.3,70.88
		c-7.72,13.8-13.33,28.54-18.25,43.51c-2.34,7.25-7.72,10.76-14.04,9.36c-7.02-1.4-11.93-5.38-14.74-11.93
		c-1.4-3.51-1.64-7.25-0.7-11c0.66-3.61,1.42-7.21,2.23-10.98l0,0c0.34-1.61,0.69-3.25,1.04-4.93c-2.4,0.92-3.79,2.43-5.06,3.83h0
		c-0.34,0.37-0.67,0.74-1.02,1.08c-14.5,14.5-30.41,26.9-49.83,33.92c-25.03,9.12-51,3.51-66.67-14.27
		c-7.49-8.42-11.46-18.48-13.33-29.48l0-0.01c-0.47-2.8-0.93-5.61-1.4-8.65c-35.33,12.17-47.72,7.25-62.93-24.8
		c-3.05,3.22-5.36,6.92-7.65,10.58c-0.87,1.4-1.74,2.8-2.65,4.15c-2.62,3.8-5.17,7.63-7.72,11.46l0,0
		c-7.49,11.25-14.96,22.45-23.86,32.75l-0.49,0.55c-7.09,8.01-14.27,16.12-25.24,18.86c-24.56,6.32-46.09-9.83-46.79-35.56
		c-0.47-15.67,2.34-31.12,5.38-46.32C525.05,237.7,525.52,235.83,525.98,233.72z M373.45,275.13c1.17-22.23,9.12-42.34,19.42-61.76
		c7.49-14.04,16.61-26.67,28.54-37.43c8.19-7.25,17.08-12.87,28.77-12.4c6.78,0.23,10.76,3.74,12.17,10.29l0.03,0.19
		c0.22,1.54,0.39,2.67-0.96,4.02c-10.29,11.23-11,24.33-6.55,38.13c0.94,3.04,0.94,5.61-0.23,8.42
		c-9.12,22.46-21.52,43.05-38.37,60.83c-5.15,5.38-11,9.83-18.01,12.63c-13.1,5.38-20.82,1.17-24.1-12.63
		c-0.47-2.19-0.52-4.48-0.57-6.81C373.56,277.46,373.53,276.29,373.45,275.13z M796.42,187.87c1.64-3.51,2.34-7.02,2.34-9.36
		c0.23-11-5.38-14.97-14.74-11.7c-6.55,2.57-11.7,6.78-16.38,11.93c-14.74,16.14-23.63,35.56-31.35,55.68
		c-1.4,3.51,0.7,4.21,3.28,4.44c6.55,0.47,12.4-1.64,17.78-4.91C775.37,222.96,788,207.05,796.42,187.87z"/>
</g>
</svg>
