<?xml version="1.0" encoding="utf-8"?>
<!-- Generator: Adobe Illustrator 27.9.0, SVG Export Plug-In . SVG Version: 6.00 Build 0)  -->
<svg version="1.1" xmlns="http://www.w3.org/2000/svg" xmlns:xlink="http://www.w3.org/1999/xlink" x="0px" y="0px"
	 viewBox="0 0 256 256" style="enable-background:new 0 0 256 256;" xml:space="preserve">
<style type="text/css">
	.st0{display:none;}
	.st1{display:inline;fill:#3B4D75;}
	.st2{display:inline;fill:#4A9370;}
	.st3{display:inline;fill:#1B9E9A;}
	.st4{display:inline;fill:#FF4F4F;}
	.st5{display:inline;fill:#4399E6;}
	.st6{display:inline;fill:#FFC56F;}
	.st7{display:inline;fill:#444466;}
	.st8{display:inline;}
	.st9{fill:#E56E2C;}
	.st10{fill:#D17EE0;}
	.st11{fill:#FFAC9F;}
	.st12{fill:#F48A7F;}
	.st13{fill:#FC8383;}
	.st14{fill:none;stroke:#C95D55;stroke-width:2.5;stroke-linecap:round;stroke-linejoin:round;stroke-miterlimit:10;}
	.st15{fill:#4C2C22;}
	.st16{fill:#FFFFFF;}
	.st17{display:inline;fill:#5F9996;}
	.st18{display:inline;fill:#94A3B8;}
	.st19{display:inline;fill:#FF8BCF;}
	.st20{display:inline;fill:#4649D4;}
	.st21{display:inline;fill:#FE6B59;}
	.st22{display:inline;fill:#7DE2BB;}
	.st23{display:inline;fill:#9DD0C1;}
	.st24{display:inline;fill:#F9C7A2;}
	.st25{fill:#734866;}
	.st26{fill:#D37C5E;}
	.st27{fill:#9E5D46;}
	.st28{fill:none;stroke:#9E5D46;stroke-width:2.2206;stroke-linecap:round;stroke-miterlimit:10;}
	.st29{fill:#AF1E1E;}
	.st30{fill:#0276CE;}
	.st31{fill:#FFD6C0;}
	.st32{fill:none;stroke:#DD8762;stroke-width:2.4476;stroke-linecap:round;stroke-miterlimit:10;}
	.st33{fill:#E89477;}
	.st34{fill:#37355B;}
	.st35{fill:#FF4F4F;}
	.st36{clip-path:url(#SVGID_00000003792717817138503510000012077337647532894638_);}
	.st37{fill:#BC2B33;}
	.st38{fill:#ED4F4F;}
	.st39{fill:none;stroke:#9E5D46;stroke-width:2.3974;stroke-linecap:round;stroke-miterlimit:10;}
	.st40{fill:none;stroke:#4C2C22;stroke-width:2.6667;stroke-linejoin:round;stroke-miterlimit:10;}
	.st41{fill:#932525;}
	.st42{fill:none;stroke:#FFFFFF;stroke-width:3.3333;stroke-linecap:round;stroke-miterlimit:10;}
	.st43{fill:none;stroke:#FFFFFF;stroke-width:2;stroke-linecap:round;stroke-miterlimit:10;}
	.st44{fill:none;stroke:#FFFFFF;stroke-width:1.931;stroke-linecap:round;stroke-miterlimit:10;}
	.st45{fill:#173253;}
	.st46{fill:#997382;}
	.st47{fill:#7E5E6D;}
	.st48{fill:none;stroke:#FFFFFF;stroke-width:2.3333;stroke-linecap:round;stroke-miterlimit:10;}
	.st49{fill:#FFA657;}
	.st50{fill:none;stroke:#EF8B4F;stroke-width:4;stroke-miterlimit:10;}
	.st51{fill:#EF8B4F;}
	.st52{fill:#454570;}
	.st53{fill:#F28C81;}
	.st54{fill:#7E7CE1;}
	.st55{fill:none;stroke:#FFFFFF;stroke-width:3;stroke-linecap:round;stroke-miterlimit:10;}
	.st56{fill:#BF5882;}
	.st57{fill:#FF8BCF;}
	.st58{fill:#A6ADDD;}
	.st59{fill:#FFE9CA;}
	.st60{fill:none;stroke:#DB9753;stroke-width:2.4;stroke-linecap:round;stroke-linejoin:round;stroke-miterlimit:10;}
	.st61{fill:#F2BB7E;}
	.st62{fill:#202049;}
	.st63{display:inline;fill:#37355B;}
	.st64{fill:#541A30;}
	.st65{fill:#E07E68;}
	.st66{fill:#D65C50;}
	.st67{fill:none;stroke:#BC5146;stroke-width:2.5;stroke-linecap:round;stroke-linejoin:round;stroke-miterlimit:10;}
	.st68{fill:none;stroke:#C13838;stroke-width:2.5;stroke-linecap:round;stroke-miterlimit:10;}
	.st69{fill:#D33C3C;}
	.st70{fill:#FFC56F;}
	.st71{fill:none;stroke:#37355B;stroke-width:2.5;stroke-linecap:round;stroke-miterlimit:10;}
	.st72{fill:none;stroke:#E89F5D;stroke-width:2;stroke-linecap:round;stroke-linejoin:round;stroke-miterlimit:10;}
	.st73{fill:#9491B5;}
	.st74{fill:#5E434E;}
	.st75{fill:none;stroke:#F28C81;stroke-width:2;stroke-linecap:round;stroke-miterlimit:10;}
	.st76{fill:#4A6642;}
	.st77{fill:none;stroke:#3C5434;stroke-width:2;stroke-linecap:round;stroke-linejoin:round;stroke-miterlimit:10;}
	.st78{fill:#8483AA;}
	.st79{fill:#1F1F49;}
	.st80{fill:#313159;}
	.st81{fill:none;stroke:#FFFFFF;stroke-width:2.389;stroke-linecap:round;stroke-miterlimit:10;}
	.st82{fill:none;stroke:#FFFFFF;stroke-width:2.3066;stroke-linecap:round;stroke-miterlimit:10;}
	.st83{fill:#6161BC;}
	.st84{fill:#0B2759;}
	.st85{fill:#5656A5;}
	.st86{fill:none;stroke:#0B2759;stroke-width:3;stroke-linecap:round;stroke-miterlimit:10;}
	.st87{fill:#25253F;}
	.st88{fill:#5B5B84;}
	.st89{fill:#AF2323;}
	.st90{fill:#D11818;}
	.st91{fill:#47152A;}
	.st92{fill:#2A336F;}
	.st93{fill:#171E4D;}
	.st94{fill:none;stroke:#171E4D;stroke-width:2;stroke-miterlimit:10;}
	.st95{fill:#0B0F26;}
	.st96{fill:#007DA8;}
	.st97{fill:none;stroke:#DD8762;stroke-width:2.4476;stroke-linecap:round;stroke-linejoin:round;stroke-miterlimit:10;}
	.st98{fill:#3E3A39;}
	.st99{fill:#E8E9EB;}
	.st100{fill:none;stroke:#E8E9EB;stroke-width:2;stroke-linecap:round;stroke-linejoin:round;stroke-miterlimit:10;}
	.st101{fill:#D1D1D1;}
	.st102{display:inline;fill:#541A30;}
	.st103{fill:#4399E6;}
	.st104{fill:#58B9F4;}
	.st105{fill:#B4D1FB;}
	.st106{display:inline;fill:#171E4D;}
	.st107{display:inline;fill:#2A336F;}
	.st108{display:inline;fill:#B4D1FB;}
	.st109{fill:#CC966A;}
	.st110{fill:#D8E1EF;}
	.st111{fill:#8B483D;}
	.st112{fill:#A37C52;}
	.st113{fill:none;}
	.st114{fill:#FFDFC7;}
	.st115{fill:#863E39;}
	.st116{fill:#FF9D7D;}
	.st117{fill:#EF8265;}
	.st118{fill:#5F9996;}
	.st119{display:inline;fill:#D37C5E;}
	.st120{fill:none;stroke:#C65959;stroke-width:2.4476;stroke-linecap:round;stroke-miterlimit:10;}
	.st121{fill:#AE7A50;}
	.st122{fill:#7A4927;}
	.st123{fill:#94A3B8;}
	.st124{fill:#DA4040;}
	.st125{fill:none;stroke:#0B0F26;stroke-width:2;stroke-linecap:round;stroke-miterlimit:10;}
	.st126{fill:#EF8781;}
	.st127{fill:#FF9E10;}
	.st128{fill:#EF8800;}
	.st129{fill:#FFB40D;}
	.st130{fill:#FFC610;}
	.st131{fill:#8A8895;}
	.st132{fill:#E5E5E5;}
	.st133{fill:none;stroke:#CC7217;stroke-width:3;stroke-miterlimit:10;}
	.st134{fill:#F9C7A2;}
	.st135{fill:#751A1A;}
	.st136{fill:#C62C2C;}
	.st137{fill:#CC3636;}
	.st138{fill:#010101;}
	.st139{fill:#1F2644;}
	.st140{fill:none;stroke:#010101;stroke-width:4;stroke-miterlimit:10;}
	.st141{fill:#FD9556;}
	.st142{fill:#E4E6EF;}
	.st143{fill:#F2D83D;}
	.st144{fill:#2C314C;}
	.st145{fill:#735EDD;}
	.st146{fill:#F9A5CF;}
	.st147{fill:#EBCA5F;}
	.st148{fill:#F1502D;}
	.st149{fill:#D87B61;}
	.st150{fill:#005E8C;}
	.st151{fill:none;stroke:#FFFFFF;stroke-width:2;stroke-miterlimit:10;}
	.st152{fill:#9B1B1B;}
	.st153{fill:#D39089;}
	.st154{fill:#AD6F6A;}
	.st155{fill:none;stroke:#B26059;stroke-width:2.5;stroke-linecap:round;stroke-linejoin:round;stroke-miterlimit:10;}
	.st156{fill:#7E4F3D;}
	.st157{fill:none;stroke:#C95D55;stroke-linecap:round;stroke-linejoin:round;stroke-miterlimit:10;}
	.st158{fill:#FF1812;}
	.st159{fill:#1B9E9A;}
	.st160{fill:none;stroke:#C5C7C9;stroke-width:2;stroke-linecap:round;stroke-linejoin:round;stroke-miterlimit:10;}
	.st161{fill:#1E1F21;}
	.st162{fill:#C5C7C9;}
	.st163{fill:#3A362F;}
	.st164{fill:#3279AF;}
	.st165{fill:#EA847A;}
	.st166{fill:#1E2754;}
	.st167{fill:#C12525;}
	.st168{fill:none;stroke:#3A362F;stroke-width:2;stroke-linecap:round;stroke-miterlimit:10;}
	.st169{fill:#F95353;}
	.st170{fill:#FCF01D;}
	.st171{fill:#4B3E87;}
	.st172{fill:#312951;}
	.st173{fill:#6857A5;}
	.st174{fill:#FFB240;}
	.st175{fill:#372D66;}
	.st176{fill:#444466;}
	.st177{fill:#1A1711;}
	.st178{fill:#35312A;}
	.st179{fill:#FF6161;}
	.st180{fill:#4D2684;}
	.st181{fill:#593493;}
	.st182{fill:#845362;}
	.st183{fill:#6B4050;}
	.st184{fill:none;stroke:#0B0F26;stroke-width:2;stroke-linecap:round;stroke-linejoin:round;stroke-miterlimit:10;}
	.st185{fill:#461378;}
	.st186{fill:#5C2A96;}
	.st187{fill:#B22424;}
	.st188{fill:#FFCC00;}
	.st189{fill:#BC3131;}
	.st190{fill:#631010;}
	.st191{display:inline;fill:#007DA8;}
	.st192{fill:#B2B2B2;}
	.st193{fill:#705137;}
	.st194{display:inline;fill:#DA4040;}
	.st195{fill:#7DC6EE;}
	.st196{fill:#C0E7F9;}
	.st197{fill:#EBDBAF;}
	.st198{fill:#A8986F;}
	.st199{fill:#D6BA7C;}
	.st200{fill:#A8905A;}
	.st201{fill:#E6D19D;}
	.st202{fill:#A7603A;}
	.st203{fill:#A0827F;}
	.st204{fill:#FFC54D;}
	.st205{fill:#3B4D75;}
	.st206{fill:#4A9370;}
	.st207{fill:#C95D55;}
	.st208{fill:#4649D4;}
	.st209{fill:#FE6B59;}
	.st210{fill:#7DE2BB;}
	.st211{fill:#9DD0C1;}
	.st212{fill:#DD8762;}
	.st213{fill:#DB9753;}
	.st214{fill:#BC5146;}
	.st215{fill:#C13838;}
	.st216{fill:#E89F5D;}
	.st217{fill:#3C5434;}
	.st218{fill:#C65959;}
	.st219{fill:#CC7217;}
	.st220{fill:#B26059;}
</style>
<g id="Layer_1" class="st0">
	<rect y="0" class="st4" width="256" height="256"/>
	<g class="st8">
		<path class="st92" d="M12.6,256h226.2c-3.9-16.1-24.6-77.9-113.9-76.9C28.7,180.2,14.6,240.2,12.6,256z"/>
		<path class="st95" d="M91,126.3c0,0-1.3,12.7,1.3,18.1c2.6,5.4,11.5,2,11.5,2l-2.2-22.3L91,126.3z"/>
		<path class="st11" d="M164.2,148.6c0.5,23-18,25-18,25l0,9.6v3.7c0,15.8-3.3,27.9-20.5,29.2c-18.4,0-26.4-16.6-24.4-29.2l2.4-19.7
			l0.5-4.5l0,0c0,0-0.1,0-0.1,0c-1.2-0.6-8.2-12.2-8.3-35.5c-0.1-23.6-20.2-74,55.7-55.2c7.8,1.9,13.5,8.6,14.4,16.7
			C167.8,105.8,163.9,134.3,164.2,148.6z"/>
		<path class="st165" d="M146.2,173.6l0,13.2c-19.2-4.1-33.2-14.3-42.5-19.8l0.5-4.5C126.5,177.6,146.2,173.6,146.2,173.6z"/>
		<path class="st120" d="M138.7,102.8c0,0-1.4,20.4,0.9,20.4c2.4,0,8.4,3.3-1.8,13.8"/>
		<path class="st95" d="M125.6,119.2L125.6,119.2c-1.4,0-2.6-1.2-2.6-2.6v-7.1c0-1.4,1.2-2.6,2.6-2.6h0c1.4,0,2.6,1.2,2.6,2.6v7.1
			C128.3,118,127.1,119.2,125.6,119.2z"/>
		<path class="st95" d="M148.7,119.2L148.7,119.2c-1.4,0-2.6-1.2-2.6-2.6v-7.1c0-1.4,1.2-2.6,2.6-2.6l0,0c1.4,0,2.6,1.2,2.6,2.6v7.1
			C151.3,118,150.1,119.2,148.7,119.2z"/>
		<path class="st11" d="M93.6,100.6c0,0-8.2-1.7-10,2.8s-2.3,28,10.1,24.5S93.6,100.6,93.6,100.6z"/>
		<path class="st120" d="M113.4,104.4c0,0,7.5-10.4,18.3-3.2"/>
		<path class="st120" d="M160.1,104c0,0-7.4-9.8-17.3-1.9"/>
		<path class="st120" d="M86.5,109.1c0,0,3.8-2.3,4.6-0.5c0.8,1.8-1.1,5.2-1.1,5.2s5,5.7,2.7,6.7c-2.3,1-5.3-1-5.9-2.5"/>
		<path class="st120" d="M129.6,148c0,0,4.1,4.4,10.9,1.7"/>
		<path class="st95" d="M103.7,90.2c0,0-2.7,15.3-3.8,19.6c-1.2,4.4-4.1,4.3-4.2,3.2s-1.7-11.2-3.4-12c-2.6-1.2-7.2,0.5-7.2,0.5
			s-3.3-7.6-1.8-13C83.6,87.5,103.7,86.8,103.7,90.2z"/>
		<path class="st166" d="M38.6,57l85.3,28.6L217.1,57c2.3-0.7,2.4-3.9,0.2-4.7l-75.2-28.8c-1.9-0.7-4-0.8-5.9-0.2L38.6,53
			C36.6,53.6,36.6,56.4,38.6,57z"/>
		<path class="st92" d="M83.3,88.5c0,0,29.2,5.6,51.9,5.2c22.7-0.4,30.7-5.2,30.7-5.2s4-20.7-6-34.6c-2.8-9.3-58-9.6-67.3,0.5
			C86.2,61.4,83.3,88.5,83.3,88.5z"/>
		<path class="st92" d="M136.2,23.3L38.6,53c-2,0.6-2,3.4-0.1,4.1h0h0l102.3-29.2L217.1,57l0,0c2.3-0.7,2.4-3.9,0.2-4.7l-75.2-28.8
			C140.2,22.8,138.1,22.7,136.2,23.3z"/>
		<line class="st140" x1="199.5" y1="60" x2="199.5" y2="93.6"/>
		<path class="st138" d="M198.8,90.8c0,0-7.3,36.2-6.1,39.8c1.2,3.6,11.5,4.2,13.4,2.4c1.9-1.8-5.6-42.2-5.6-42.2H198.8z"/>
		<circle class="st70" cx="199.5" cy="94.4" r="4.2"/>
		<path class="st16" d="M146.8,210.3c2.6-4.5,4.8-9,8.3-13c1.3-1.5,2.8-2.3,4.4-2.6c-3-8.5-13.2-10.4-13.2-10.4l-14.8,25.6
			l-29.6-27.1c0,0-10.9,4.8-13,7.1c1.7,0.7,3.2,1.9,4.4,3.8c2.9,4.5,7.8,7.7,12,11c5,3.9,9.9,7.8,14.8,11.7
			c4.9,3.8,9.4,7.9,14.2,11.7c0.5,0.4,1,1,1.6,1.4c1.6-2.9,3.4-4.9,5.7-7.1C142.4,217.9,144.5,214.2,146.8,210.3z"/>
		<path class="st141" d="M102.9,173.6c-0.4,4.1-0.3,7.6-1.1,9.1l-6,2.8l40,43.8L74.4,186c0,0,5-2.1,13.4-3.9
			C94.6,180.7,102.5,176.8,102.9,173.6z"/>
		<path class="st141" d="M146.2,174.4c0,0-1,5.9,0,9.8l7.4,3.2l-17.7,41.9l39.7-42.5c0,0-8.9-3.1-13.7-4.1S148.4,180.3,146.2,174.4z
			"/>
	</g>
</g>
<g id="Layer_2">
	<g>
		<rect y="0" class="st35" width="256" height="256"/>
	</g>
	<g>
		<g>
			<path class="st92" d="M124.9,179.1C28.7,180.2,14.6,240.2,12.6,256h226.2C234.9,239.9,214.1,178.1,124.9,179.1z"/>
		</g>
		<g>
			<path class="st95" d="M92.3,144.4c2.6,5.4,11.5,2,11.5,2l-2.2-22.3L91,126.3C91,126.3,89.6,139,92.3,144.4z"/>
		</g>
		<g>
			<path class="st11" d="M165.9,88.5c-0.9-8.1-6.6-14.8-14.4-16.7C75.6,53,95.7,103.4,95.8,127c0.1,23.3,7.1,34.9,8.3,35.5
				c0,0,0.1,0,0.1,0l0,0l-0.5,4.5l-2.4,19.7c-2.1,12.6,6,29.2,24.4,29.2c17.2-1.3,20.5-13.4,20.5-29.2v-3.7l0-9.6
				c0,0,18.5-1.9,18-25C163.9,134.3,167.8,105.8,165.9,88.5z"/>
		</g>
		<g>
			<path class="st165" d="M103.7,167.1c9.2,5.5,23.3,15.7,42.5,19.8l0-13.2c0,0-19.7,4-41.9-11L103.7,167.1z"/>
		</g>
		<g>
			<path class="st218" d="M136.9,137.8c0.2,0.2,0.5,0.3,0.9,0.3c0.3,0,0.6-0.1,0.9-0.4c5.1-5.3,7-9.6,5.7-12.7
				c-0.8-1.9-2.7-2.9-4.3-3.1c-0.8-2-0.7-11.2-0.1-19.1c0-0.7-0.5-1.3-1.1-1.3c-0.7,0-1.3,0.5-1.3,1.1c-0.4,5.6-1.1,19,0.9,21.1
				c0.3,0.4,0.8,0.6,1.2,0.6c0.7,0,2,0.5,2.5,1.6c0.4,1,0.7,3.9-5.2,10.1C136.4,136.6,136.5,137.4,136.9,137.8z M140.2,122.2
				L140.2,122.2L140.2,122.2z"/>
		</g>
		<g>
			<path class="st95" d="M123,109.5v7.1c0,1.4,1.2,2.6,2.6,2.6c1.4,0,2.6-1.2,2.6-2.6v-7.1c0-1.4-1.2-2.6-2.6-2.6
				C124.2,106.9,123,108,123,109.5z"/>
		</g>
		<g>
			<path class="st95" d="M146.1,109.5v7.1c0,1.4,1.2,2.6,2.6,2.6c1.4,0,2.6-1.2,2.6-2.6v-7.1c0-1.4-1.2-2.6-2.6-2.6
				C147.3,106.9,146.1,108,146.1,109.5z"/>
		</g>
		<g>
			<path class="st11" d="M83.6,103.4c-1.7,4.4-2.3,28,10.1,24.5c12.4-3.5-0.2-27.2-0.2-27.2S85.3,98.9,83.6,103.4z"/>
		</g>
		<g>
			<path class="st218" d="M112.4,103.7c-0.4,0.5-0.3,1.3,0.3,1.7c0.2,0.2,0.5,0.2,0.7,0.2c0.4,0,0.8-0.2,1-0.5
				c0.3-0.4,6.9-9.3,16.7-2.9c0.6,0.4,1.3,0.2,1.7-0.3c0.4-0.6,0.2-1.3-0.3-1.7C120.7,92.4,112.5,103.6,112.4,103.7z"/>
		</g>
		<g>
			<path class="st218" d="M152,97.9c-3.4-0.4-6.7,0.7-9.9,3.3c-0.5,0.4-0.6,1.2-0.2,1.7s1.2,0.6,1.7,0.2c2.7-2.2,5.4-3.1,8.1-2.8
				c4.5,0.5,7.5,4.4,7.5,4.4c0.2,0.3,0.6,0.5,1,0.5c0.3,0,0.5-0.1,0.7-0.2c0.5-0.4,0.6-1.2,0.2-1.7C160.9,103.1,157.5,98.6,152,97.9
				z"/>
		</g>
		<g>
			<path class="st218" d="M90,119.1c-1-0.4-1.8-1.2-1.9-1.6c-0.2-0.6-0.9-1-1.6-0.7c-0.6,0.2-1,0.9-0.7,1.6c0.4,1.2,1.7,2.4,3.3,3
				c0.8,0.4,1.6,0.5,2.4,0.5c0.6,0,1.2-0.1,1.8-0.4c0.7-0.3,1.1-0.8,1.3-1.5c0.4-1.9-1.7-4.8-3-6.4c0.6-1.3,1.5-3.7,0.8-5.5
				c-0.3-0.6-0.8-1.1-1.5-1.3c-1.8-0.6-4.4,0.9-4.9,1.2c-0.6,0.4-0.8,1.1-0.4,1.7c0.4,0.6,1.1,0.8,1.7,0.4c1.1-0.7,2.5-1.1,2.8-1
				c0.4,0.9-0.4,3-1,4.1l-0.4,0.8l0.6,0.6c1.6,1.8,2.9,4,3,4.8C91.3,119.6,90.4,119.3,90,119.1z"/>
		</g>
		<g>
			<path class="st218" d="M140.1,148.5c-5.9,2.3-9.4-1.2-9.6-1.4c-0.5-0.5-1.2-0.5-1.7-0.1c-0.5,0.5-0.5,1.2-0.1,1.7
				c0.1,0.2,2.8,3,7.5,3c1.4,0,3.1-0.3,4.8-1c0.6-0.2,0.9-1,0.7-1.6C141.4,148.6,140.7,148.3,140.1,148.5z"/>
		</g>
		<g>
			<path class="st95" d="M83.3,88.5c-1.5,5.4,1.8,13,1.8,13s4.6-1.8,7.2-0.5c1.7,0.8,3.3,10.9,3.4,12c0.1,1.1,3,1.3,4.2-3.2
				c1.2-4.3,3.8-19.6,3.8-19.6C103.7,86.8,83.6,87.5,83.3,88.5z"/>
		</g>
		<g>
			<path class="st166" d="M142.1,23.5c-1.9-0.7-4-0.8-5.9-0.2L38.6,53c-2,0.6-2,3.4-0.1,4.1l85.3,28.6L217.1,57
				c2.3-0.7,2.4-3.9,0.2-4.7L142.1,23.5z"/>
		</g>
		<g>
			<path class="st92" d="M92.6,54.4c-6.4,7-9.3,34.2-9.3,34.2s29.2,5.6,51.9,5.2c22.7-0.4,30.7-5.2,30.7-5.2s4-20.7-6-34.6
				C157.1,44.6,101.9,44.2,92.6,54.4z"/>
		</g>
		<g>
			<path class="st92" d="M142.1,23.5c-1.9-0.7-4-0.8-5.9-0.2L38.6,53c-2,0.6-2,3.4-0.1,4.1h0l102.3-29.2L217.1,57
				c2.3-0.7,2.4-3.9,0.2-4.7L142.1,23.5z"/>
		</g>
		<g>
			<rect x="197.5" y="60" class="st138" width="4" height="33.6"/>
		</g>
		<g>
			<path class="st138" d="M192.7,130.7c1.2,3.6,11.5,4.2,13.4,2.4c1.9-1.8-5.6-42.2-5.6-42.2h-1.6
				C198.8,90.8,191.5,127.1,192.7,130.7z"/>
		</g>
		<g>
			<path class="st70" d="M195.2,94.4c0,2.3,1.9,4.2,4.2,4.2s4.2-1.9,4.2-4.2c0-2.3-1.9-4.2-4.2-4.2S195.2,92.1,195.2,94.4z"/>
		</g>
		<g>
			<path class="st16" d="M131.4,209.8l-29.6-27.1c0,0-10.9,4.8-13,7.1c1.7,0.7,3.2,1.9,4.4,3.8c2.9,4.5,7.8,7.7,12,11
				c5,3.9,9.9,7.8,14.8,11.7c4.9,3.8,9.4,7.9,14.2,11.7c0.5,0.4,1,1,1.6,1.4c1.6-2.9,3.4-4.9,5.7-7.1c0.9-4.3,3-8,5.2-12
				c2.6-4.5,4.8-9,8.3-13c1.3-1.5,2.8-2.3,4.4-2.6c-3-8.5-13.2-10.4-13.2-10.4L131.4,209.8z"/>
		</g>
		<g>
			<path class="st141" d="M102.9,173.6c-0.4,3.2-8.3,7.1-15.1,8.5c-8.5,1.8-13.4,3.9-13.4,3.9l61.4,43.3l-40-43.8l6-2.8
				C102.6,181.2,102.5,177.7,102.9,173.6z"/>
		</g>
		<g>
			<path class="st141" d="M175.5,186.8c0,0-8.9-3.1-13.7-4.1s-13.4-2.4-15.6-8.3c0,0-1,5.9,0,9.8l7.4,3.2l-17.7,41.9L175.5,186.8z"
				/>
		</g>
	</g>
</g>
</svg>
