<?xml version="1.0" encoding="utf-8"?>
<!-- Generator: Adobe Illustrator 27.9.0, SVG Export Plug-In . SVG Version: 6.00 Build 0)  -->
<svg version="1.1" xmlns="http://www.w3.org/2000/svg" xmlns:xlink="http://www.w3.org/1999/xlink" x="0px" y="0px"
	 viewBox="0 0 256 256" style="enable-background:new 0 0 256 256;" xml:space="preserve">
<style type="text/css">
	.st0{display:none;}
	.st1{display:inline;fill:#3B4D75;}
	.st2{display:inline;fill:#4A9370;}
	.st3{display:inline;fill:#1B9E9A;}
	.st4{display:inline;fill:#FF4F4F;}
	.st5{display:inline;fill:#4399E6;}
	.st6{display:inline;fill:#FFC56F;}
	.st7{display:inline;fill:#444466;}
	.st8{display:inline;}
	.st9{fill:#E56E2C;}
	.st10{fill:#D17EE0;}
	.st11{fill:#FFAC9F;}
	.st12{fill:#F48A7F;}
	.st13{fill:#FC8383;}
	.st14{fill:none;stroke:#C95D55;stroke-width:2.5;stroke-linecap:round;stroke-linejoin:round;stroke-miterlimit:10;}
	.st15{fill:#4C2C22;}
	.st16{fill:#FFFFFF;}
	.st17{display:inline;fill:#5F9996;}
	.st18{display:inline;fill:#94A3B8;}
	.st19{display:inline;fill:#FF8BCF;}
	.st20{display:inline;fill:#4649D4;}
	.st21{display:inline;fill:#FE6B59;}
	.st22{display:inline;fill:#7DE2BB;}
	.st23{display:inline;fill:#9DD0C1;}
	.st24{display:inline;fill:#F9C7A2;}
	.st25{fill:#734866;}
	.st26{fill:#D37C5E;}
	.st27{fill:#9E5D46;}
	.st28{fill:none;stroke:#9E5D46;stroke-width:2.2206;stroke-linecap:round;stroke-miterlimit:10;}
	.st29{fill:#AF1E1E;}
	.st30{fill:#0276CE;}
	.st31{fill:#FFD6C0;}
	.st32{fill:none;stroke:#DD8762;stroke-width:2.4476;stroke-linecap:round;stroke-miterlimit:10;}
	.st33{fill:#E89477;}
	.st34{fill:#37355B;}
	.st35{fill:#FF4F4F;}
	.st36{clip-path:url(#SVGID_00000176041629524222484640000011315822246627908246_);}
	.st37{fill:#BC2B33;}
	.st38{fill:#ED4F4F;}
	.st39{fill:none;stroke:#9E5D46;stroke-width:2.3974;stroke-linecap:round;stroke-miterlimit:10;}
	.st40{fill:none;stroke:#4C2C22;stroke-width:2.6667;stroke-linejoin:round;stroke-miterlimit:10;}
	.st41{fill:#932525;}
	.st42{fill:none;stroke:#FFFFFF;stroke-width:3.3333;stroke-linecap:round;stroke-miterlimit:10;}
	.st43{fill:none;stroke:#FFFFFF;stroke-width:2;stroke-linecap:round;stroke-miterlimit:10;}
	.st44{fill:none;stroke:#FFFFFF;stroke-width:1.931;stroke-linecap:round;stroke-miterlimit:10;}
	.st45{fill:#173253;}
	.st46{fill:#997382;}
	.st47{fill:#7E5E6D;}
	.st48{fill:none;stroke:#FFFFFF;stroke-width:2.3333;stroke-linecap:round;stroke-miterlimit:10;}
	.st49{fill:#FFA657;}
	.st50{fill:none;stroke:#EF8B4F;stroke-width:4;stroke-miterlimit:10;}
	.st51{fill:#EF8B4F;}
	.st52{fill:#454570;}
	.st53{fill:#F28C81;}
	.st54{fill:#7E7CE1;}
	.st55{fill:none;stroke:#FFFFFF;stroke-width:3;stroke-linecap:round;stroke-miterlimit:10;}
	.st56{fill:#BF5882;}
	.st57{fill:#FF8BCF;}
	.st58{fill:#A6ADDD;}
	.st59{fill:#FFE9CA;}
	.st60{fill:none;stroke:#DB9753;stroke-width:2.4;stroke-linecap:round;stroke-linejoin:round;stroke-miterlimit:10;}
	.st61{fill:#F2BB7E;}
	.st62{fill:#202049;}
	.st63{display:inline;fill:#37355B;}
	.st64{fill:#541A30;}
	.st65{fill:#E07E68;}
	.st66{fill:#D65C50;}
	.st67{fill:none;stroke:#BC5146;stroke-width:2.5;stroke-linecap:round;stroke-linejoin:round;stroke-miterlimit:10;}
	.st68{fill:none;stroke:#C13838;stroke-width:2.5;stroke-linecap:round;stroke-miterlimit:10;}
	.st69{fill:#D33C3C;}
	.st70{fill:#FFC56F;}
	.st71{fill:none;stroke:#37355B;stroke-width:2.5;stroke-linecap:round;stroke-miterlimit:10;}
	.st72{fill:none;stroke:#E89F5D;stroke-width:2;stroke-linecap:round;stroke-linejoin:round;stroke-miterlimit:10;}
	.st73{fill:#9491B5;}
	.st74{fill:#5E434E;}
	.st75{fill:none;stroke:#F28C81;stroke-width:2;stroke-linecap:round;stroke-miterlimit:10;}
	.st76{fill:#4A6642;}
	.st77{fill:none;stroke:#3C5434;stroke-width:2;stroke-linecap:round;stroke-linejoin:round;stroke-miterlimit:10;}
	.st78{fill:#8483AA;}
	.st79{fill:#1F1F49;}
	.st80{fill:#313159;}
	.st81{fill:none;stroke:#FFFFFF;stroke-width:2.389;stroke-linecap:round;stroke-miterlimit:10;}
	.st82{fill:none;stroke:#FFFFFF;stroke-width:2.3066;stroke-linecap:round;stroke-miterlimit:10;}
	.st83{fill:#6161BC;}
	.st84{fill:#0B2759;}
	.st85{fill:#5656A5;}
	.st86{fill:none;stroke:#0B2759;stroke-width:3;stroke-linecap:round;stroke-miterlimit:10;}
	.st87{fill:#25253F;}
	.st88{fill:#5B5B84;}
	.st89{fill:#AF2323;}
	.st90{fill:#D11818;}
	.st91{fill:#47152A;}
	.st92{fill:#2A336F;}
	.st93{fill:#171E4D;}
	.st94{fill:none;stroke:#171E4D;stroke-width:2;stroke-miterlimit:10;}
	.st95{fill:#0B0F26;}
	.st96{fill:#007DA8;}
	.st97{fill:none;stroke:#DD8762;stroke-width:2.4476;stroke-linecap:round;stroke-linejoin:round;stroke-miterlimit:10;}
	.st98{fill:#3E3A39;}
	.st99{fill:#E8E9EB;}
	.st100{fill:none;stroke:#E8E9EB;stroke-width:2;stroke-linecap:round;stroke-linejoin:round;stroke-miterlimit:10;}
	.st101{fill:#D1D1D1;}
	.st102{display:inline;fill:#541A30;}
	.st103{fill:#4399E6;}
	.st104{fill:#58B9F4;}
	.st105{fill:#B4D1FB;}
	.st106{display:inline;fill:#171E4D;}
	.st107{display:inline;fill:#2A336F;}
	.st108{display:inline;fill:#B4D1FB;}
	.st109{fill:#CC966A;}
	.st110{fill:#D8E1EF;}
	.st111{fill:#8B483D;}
	.st112{fill:#A37C52;}
	.st113{fill:none;}
	.st114{fill:#FFDFC7;}
	.st115{fill:#863E39;}
	.st116{fill:#FF9D7D;}
	.st117{fill:#EF8265;}
	.st118{fill:#5F9996;}
	.st119{display:inline;fill:#D37C5E;}
	.st120{fill:none;stroke:#C65959;stroke-width:2.4476;stroke-linecap:round;stroke-miterlimit:10;}
	.st121{fill:#AE7A50;}
	.st122{fill:#7A4927;}
	.st123{fill:#94A3B8;}
	.st124{fill:#DA4040;}
	.st125{fill:none;stroke:#0B0F26;stroke-width:2;stroke-linecap:round;stroke-miterlimit:10;}
	.st126{fill:#EF8781;}
	.st127{fill:#FF9E10;}
	.st128{fill:#EF8800;}
	.st129{fill:#FFB40D;}
	.st130{fill:#FFC610;}
	.st131{fill:#8A8895;}
	.st132{fill:#E5E5E5;}
	.st133{fill:none;stroke:#CC7217;stroke-width:3;stroke-miterlimit:10;}
	.st134{fill:#F9C7A2;}
	.st135{fill:#751A1A;}
	.st136{fill:#C62C2C;}
	.st137{fill:#CC3636;}
	.st138{fill:#010101;}
	.st139{fill:#1F2644;}
	.st140{fill:none;stroke:#010101;stroke-width:4;stroke-miterlimit:10;}
	.st141{fill:#FD9556;}
	.st142{fill:#E4E6EF;}
	.st143{fill:#F2D83D;}
	.st144{fill:#2C314C;}
	.st145{fill:#735EDD;}
	.st146{fill:#F9A5CF;}
	.st147{fill:#EBCA5F;}
	.st148{fill:#F1502D;}
	.st149{fill:#D87B61;}
	.st150{fill:#005E8C;}
	.st151{fill:none;stroke:#FFFFFF;stroke-width:2;stroke-miterlimit:10;}
	.st152{fill:#9B1B1B;}
	.st153{fill:#D39089;}
	.st154{fill:#AD6F6A;}
	.st155{fill:none;stroke:#B26059;stroke-width:2.5;stroke-linecap:round;stroke-linejoin:round;stroke-miterlimit:10;}
	.st156{fill:#7E4F3D;}
	.st157{fill:none;stroke:#C95D55;stroke-linecap:round;stroke-linejoin:round;stroke-miterlimit:10;}
	.st158{fill:#FF1812;}
	.st159{fill:#1B9E9A;}
	.st160{fill:none;stroke:#C5C7C9;stroke-width:2;stroke-linecap:round;stroke-linejoin:round;stroke-miterlimit:10;}
	.st161{fill:#1E1F21;}
	.st162{fill:#C5C7C9;}
	.st163{fill:#3A362F;}
	.st164{fill:#3279AF;}
	.st165{fill:#EA847A;}
	.st166{fill:#1E2754;}
	.st167{fill:#C12525;}
	.st168{fill:none;stroke:#3A362F;stroke-width:2;stroke-linecap:round;stroke-miterlimit:10;}
	.st169{fill:#F95353;}
	.st170{fill:#FCF01D;}
	.st171{fill:#4B3E87;}
	.st172{fill:#312951;}
	.st173{fill:#6857A5;}
	.st174{fill:#FFB240;}
	.st175{fill:#372D66;}
	.st176{fill:#444466;}
	.st177{fill:#1A1711;}
	.st178{fill:#35312A;}
	.st179{fill:#FF6161;}
	.st180{fill:#4D2684;}
	.st181{fill:#593493;}
	.st182{fill:#845362;}
	.st183{fill:#6B4050;}
	.st184{fill:none;stroke:#0B0F26;stroke-width:2;stroke-linecap:round;stroke-linejoin:round;stroke-miterlimit:10;}
	.st185{fill:#461378;}
	.st186{fill:#5C2A96;}
	.st187{fill:#B22424;}
	.st188{fill:#FFCC00;}
	.st189{fill:#BC3131;}
	.st190{fill:#631010;}
	.st191{display:inline;fill:#007DA8;}
	.st192{fill:#B2B2B2;}
	.st193{fill:#705137;}
	.st194{display:inline;fill:#DA4040;}
	.st195{fill:#7DC6EE;}
	.st196{fill:#C0E7F9;}
	.st197{fill:#EBDBAF;}
	.st198{fill:#A8986F;}
	.st199{fill:#D6BA7C;}
	.st200{fill:#A8905A;}
	.st201{fill:#E6D19D;}
	.st202{fill:#A7603A;}
	.st203{fill:#A0827F;}
	.st204{fill:#FFC54D;}
	.st205{fill:#3B4D75;}
	.st206{fill:#4A9370;}
	.st207{fill:#C95D55;}
	.st208{fill:#4649D4;}
	.st209{fill:#FE6B59;}
	.st210{fill:#7DE2BB;}
	.st211{fill:#9DD0C1;}
	.st212{fill:#DD8762;}
	.st213{fill:#DB9753;}
	.st214{fill:#BC5146;}
	.st215{fill:#C13838;}
	.st216{fill:#E89F5D;}
	.st217{fill:#3C5434;}
	.st218{fill:#C65959;}
	.st219{fill:#CC7217;}
	.st220{fill:#B26059;}
</style>
<g id="Layer_1" class="st0">
	<g class="st8">
		<rect y="0" class="st96" width="256" height="256"/>
		<g>
			<path class="st62" d="M91.4,134.1c0,0-7.3,4.6-6.4,12.3c0,0-5.6,4.2-5.9,8.8c-0.5,6.2,1.1,7,1.1,7s-5.4,2.5-5.5,6.6
				c-0.1,4.2,2.6,6.7,2.6,6.7s-8.8,11,3.4,17.2c0,0-2.8-2.9-0.8-6c0,0-0.4,0.6,3,3.1c0,0-0.5-4,1.2-6.5c1.7-2.6,0.8-6.6-0.4-7.8
				c0,0,5.7-7.9,1.9-12.7c0,0,8.8-7,5.2-15c0,0,6.8-7,6.8-11S91.4,134.1,91.4,134.1z"/>
			<path class="st62" d="M154.2,134.1c0,0,7.3,4.6,6.4,12.3c0,0,5.6,4.2,5.9,8.8c0.5,6.2-1.1,7-1.1,7s5.4,2.5,5.5,6.6
				c0.1,4.2-2.6,6.7-2.6,6.7s8.8,11-3.4,17.2c0,0,2.8-2.9,0.8-6c0,0,0.4,0.6-3,3.1c0,0,0.5-4-1.2-6.5c-1.7-2.6-0.8-6.6,0.4-7.8
				c0,0-5.7-7.9-1.9-12.7c0,0-8.8-7-5.2-15c0,0-6.8-7-6.8-11S154.2,134.1,154.2,134.1z"/>
			<g>
				<g>
					<path class="st62" d="M156.7,53.4c-8-6.3-17.6-9.8-27.3-10.7c-12.5-1.1-20.2,5.6-20.2,5.6C94.5,50.6,87,58.4,81,70.2
						c-12.9,25.1-7.3,61.7,22.3,68.8c0,0,3.7,34.8,9.8,29.8l2.7-99.7c2,39.2,18.8,104.6,18.8,104.6l11.4-23.9
						c0,0,14.3,5.5,17.8-15.5C168,108.3,180.5,72.1,156.7,53.4z"/>
					<path class="st124" d="M12.6,256h226.2c-3.9-16.1-24.6-77.9-113.9-76.9C28.7,180.2,14.6,240.2,12.6,256z"/>
					<path class="st31" d="M96,119.6c0,0,2.4-4.6-4.1-9.1c-6.7-4.5-11.3,10.3-7.5,21.3c3.8,11,11.3,7.2,14.2,1.9L96,119.6z"/>
					<path class="st31" d="M147.6,171.7c-3.1,1.8-6.2,3.1-9.3,3.3c-9.4,0.7-26.3-9-35.1-17.6c0.1,10-0.1,20.6-1.2,23.1
						c-1,2.3-2.8,5-4.8,6.6c-4.7,16.2,8.7,31.4,29.5,32.4c26.6,0,29.2-14.4,24.4-35.3C148.5,180.5,147.7,176.4,147.6,171.7z"/>
					<path class="st124" d="M101,182.7c0,0,2.2,28.8,25.2,28.6s25.1-27.1,25.1-27.1s12.3,3.3,11.5,20.4c-0.8,17,22.3,25.1-10.4,26
						s-46.5,3.6-55.4-5.4c-8.8-9-14.8-17.5-12.4-22.9c2.4-5.4,4.3-10,6.2-12.3C92.6,187.7,101,182.7,101,182.7z"/>
					<path class="st33" d="M149.2,180.5c-1.4-4.5-1.3-4.9-1.6-8.7c-3.1,1.8-7.2,3.5-10.2,3.3c-11.9-0.8-25.3-9.1-34.1-17.7
						c0,1,0,2,0,3C103.3,173.6,126.6,191.5,149.2,180.5z"/>
					<path class="st31" d="M138.5,175.5c-10.7,0.9-29.1-8.2-36.1-17.4c-7-9.2-8-41.6-8.1-48.5c-0.1-6.9,8-43,23.2-44.4
						c15.2-1.4,43.8-0.7,49.3,12c5.5,12.7,5.4,26.7-1.3,65C162.9,154,153.3,174.4,138.5,175.5z"/>
					<ellipse class="st13" cx="112.2" cy="139" rx="6.9" ry="3.8"/>
					<path class="st32" d="M126.9,149.8c0,0,6.3,5.3,11.5,2.4"/>
					<path class="st32" d="M133.4,104.8c0,0-8.9-8.3-17.7-0.5"/>
					<path class="st15" d="M128.4,111.5c-1.4,0-2.5,1.1-2.5,2.5v6.1c0,1.4,1.1,2.5,2.5,2.5c1.4,0,2.5-1.1,2.5-2.5V114
						C130.9,112.6,129.8,111.5,128.4,111.5z"/>
					<path class="st32" d="M137.9,140.7c0,0,9.7-2.2,10-3.5c0.3-1.3-4.3-1.1-6.8-3.6c-2.5-2.6-1.2-25.2-1.2-25.2"/>
					<path class="st32" d="M146,104.3c0,0,10.1-7.7,17.8-0.6"/>
					<path class="st32" d="M86.7,118.2c0,0-0.1-2.3,2.2-2.7c2.2-0.4,4.9,5.5,4.4,7.2c-0.5,1.7-3.3,1.8-2.2,2.3
						c1.1,0.5,3.2,3.2,2.3,5.6c-0.9,2.3-3.9,1.2-4.5,0"/>
					<path class="st15" d="M150.5,111.5c-1.4,0-2.5,1.1-2.5,2.5v6.1c0,1.4,1.1,2.5,2.5,2.5s2.5-1.1,2.5-2.5V114
						C153,112.6,151.9,111.5,150.5,111.5z"/>
					<path class="st62" d="M130.1,75.7c0,0,12.8,32.2,43.2,34c0,0,2.9-41.2-14.4-54.6s-35.2-5.1-35.2-5.1s-20.4-3.8-28.7,12.3
						s-11.8,37.6-8.4,48.7c0,0,1.4-1.8,4-0.2c2.6,1.6,3.9,3.3,3.9,3.3s30.9-8.5,35.7-37.5"/>
					<ellipse class="st13" cx="158.8" cy="139" rx="5.7" ry="3.8"/>
				</g>
				<path class="st16" d="M93.4,135.9c-0.6,0-1,0.5-0.9,1.1c0.1,1.7-0.8,3.3-2,3.4c-1.2,0.1-2.3-1.1-2.5-2.7
					c-0.7-0.5-1.3-1.2-1.9-2.2c-0.2,0.7-0.2,1.3-0.2,2c0.2,2.8,2.2,4.9,4.4,4.9c0.1,0,0.2,0,0.3,0c2.4-0.2,4.1-2.7,3.9-5.6
					C94.4,136.3,94,135.9,93.4,135.9z"/>
			</g>
			<g>
				<path class="st124" d="M80.3,173.8c0,0-7-5.4-9.7-3.6c-2.7,1.7,3,5.8,3,5.8s-5.4,3.4-2.5,4.3c2.9,1,8.7-3,8.7-3s7.2,5.2,9.8,3.6
					c2.6-1.6-1-3.8-1-3.8s4.4-4,2.5-5.6C89.2,169.9,80.3,173.8,80.3,173.8z"/>
				<path class="st169" d="M80.9,172.8c0,0-1.6-0.4-1.9,0.8c-0.3,1.2-0.6,5.3,0.6,5.3c1.2,0,1.8-0.4,2.1-1.6
					C81.9,176.2,81.9,172.8,80.9,172.8z"/>
			</g>
			<g>
				<path class="st124" d="M165.5,173.1c0,0,7-5.4,9.7-3.6c2.7,1.7-3,5.8-3,5.8s5.4,3.4,2.5,4.3c-2.9,1-8.7-3-8.7-3
					s-7.2,5.2-9.9,3.6s1-3.9,1-3.9s-4.4-4-2.5-5.6C156.5,169.2,165.5,173.1,165.5,173.1z"/>
				<path class="st169" d="M164.8,172.1c0,0,1.6-0.4,1.9,0.8c0.3,1.2,0.6,5.3-0.6,5.3c-1.2,0-1.8-0.4-2.1-1.6
					C163.8,175.5,163.8,172.1,164.8,172.1z"/>
			</g>
			<path class="st170" d="M97.6,181.2l5.5-7.5c-0.4,4.3-1.8,24.3,18.4,27.3c1.3,0.2,2.4,1.1,2.7,2.4l2,7.8c0,0-13.1,0.2-19.6-5.8
				C96.4,196.4,97.6,181.2,97.6,181.2z"/>
			<path class="st170" d="M127.5,210.3c0,0.1-0.1,0.3-0.2,0.4c-0.1,0.1-0.2,0.3-0.4,0.3c-0.1,0.1-0.3,0.1-0.5,0.2
				c-0.2,0-0.3,0-0.5,0c-0.1,0-0.2,0-0.3-0.1c-0.2-0.1-0.4-0.2-0.6-0.3l-0.2-0.3c-0.1-0.1-0.1-0.2-0.1-0.3c-0.1,1-1.1,10.6-7,21
				c-7,12.3-17.6,20.6-31.8,24.8h8.6c30.5-13.7,33.1-45.3,33.1-45.6L127.5,210.3z"/>
			<g>
				<g>
					<path class="st170" d="M133.2,228.7c-10.8-0.6-20.5-6.6-20.9-6.9l1.1-1.7c0.1,0.1,9.7,6,20,6.6L133.2,228.7z"/>
				</g>
				<g>
					<path class="st170" d="M123.9,243.8c-10.8-0.6-20.5-6.6-20.9-6.9l1.1-1.7c0.1,0.1,9.7,6,20,6.6L123.9,243.8z"/>
				</g>
				<g>
					<path class="st170" d="M112.8,254.2c-10.8-0.6-20.5-6.6-20.9-6.9l1.1-1.7c0.1,0.1,9.7,6,20,6.6L112.8,254.2z"/>
				</g>
				<g>
					<circle class="st170" cx="111.9" cy="220.5" r="3.3"/>
				</g>
				<g>
					<circle class="st170" cx="133" cy="227.7" r="3.3"/>
				</g>
				<g>
					<circle class="st170" cx="103.2" cy="235.8" r="3.3"/>
				</g>
				<g>
					<circle class="st170" cx="124.3" cy="243" r="3.3"/>
				</g>
				<g>
					<circle class="st170" cx="91.2" cy="246" r="3.3"/>
				</g>
				<g>
					<path class="st170" d="M115.1,254c0-1.8-1.5-3.3-3.3-3.3c-1.8,0-3.3,1.5-3.3,3.3c0,0.8,0.3,1.5,0.7,2h5
						C114.8,255.4,115.1,254.7,115.1,254z"/>
				</g>
			</g>
			<path class="st170" d="M128.8,203.3l-2.6,8c0,0,11.7,0.2,19.2-6.4c8.8-7.7,8.9-22.1,8.2-23.7c-0.9-2-5.7-5.2-5.7-5.2
				c-0.3,0.3,4.6,22-16.5,25.2C130.2,201.3,129.2,202.2,128.8,203.3z"/>
		</g>
	</g>
</g>
<g id="Layer_2">
	<g>
		<rect y="0" class="st96" width="256" height="256"/>
	</g>
	<g>
		<g>
			<path class="st62" d="M91.4,134.1c0,0-7.3,4.6-6.4,12.3c0,0-5.6,4.2-5.9,8.8c-0.5,6.2,1.1,7,1.1,7s-5.4,2.5-5.5,6.6
				c-0.1,4.2,2.6,6.7,2.6,6.7s-8.8,11,3.4,17.2c0,0-2.8-2.9-0.8-6c0,0-0.4,0.6,3,3.1c0,0-0.5-4,1.2-6.5c1.7-2.6,0.8-6.6-0.4-7.8
				c0,0,5.7-7.9,1.9-12.7c0,0,8.8-7,5.2-15c0,0,6.8-7,6.8-11S91.4,134.1,91.4,134.1z"/>
		</g>
		<g>
			<path class="st62" d="M164.9,192.7c12.2-6.2,3.4-17.2,3.4-17.2s2.7-2.6,2.6-6.7c-0.1-4.2-5.5-6.6-5.5-6.6s1.5-0.8,1.1-7
				c-0.3-4.6-5.9-8.8-5.9-8.8c1-7.6-6.4-12.3-6.4-12.3s-6.2-1.2-6.2,2.8s6.8,11,6.8,11c-3.6,8,5.2,15,5.2,15
				c-3.8,4.7,1.9,12.7,1.9,12.7c-1.2,1.2-2.1,5.2-0.4,7.8c1.7,2.6,1.2,6.5,1.2,6.5c3.4-2.5,3-3.1,3-3.1
				C167.7,189.8,164.9,192.7,164.9,192.7z"/>
		</g>
		<g>
			<g>
				<g>
					<path class="st62" d="M129.5,42.8c-12.5-1.1-20.2,5.6-20.2,5.6C94.5,50.6,87,58.4,81,70.2c-12.9,25.1-7.3,61.7,22.3,68.8
						c0,0,3.7,34.8,9.8,29.8l2.7-99.7c2,39.2,18.8,104.6,18.8,104.6l11.4-23.9c0,0,14.3,5.5,17.8-15.5c4.2-26,16.7-62.2-7-80.9
						C148.7,47.1,139.1,43.6,129.5,42.8z"/>
				</g>
				<g>
					<path class="st124" d="M124.9,179.1C28.7,180.2,14.6,240.2,12.6,256h226.2C234.9,239.9,214.1,178.1,124.9,179.1z"/>
				</g>
				<g>
					<path class="st31" d="M91.9,110.5c-6.7-4.5-11.3,10.3-7.5,21.3c3.8,11,11.3,7.2,14.2,1.9L96,119.6
						C96,119.6,98.4,114.9,91.9,110.5z"/>
				</g>
				<g>
					<path class="st31" d="M97.4,187.1c-4.7,16.2,8.7,31.4,29.5,32.4c26.6,0,29.2-14.4,24.4-35.3c-2.8-3.7-3.6-7.8-3.7-12.4
						c-3.1,1.8-6.2,3.1-9.3,3.3c-9.4,0.7-26.3-9-35.1-17.6c0.1,10-0.1,20.6-1.2,23.1C101.1,182.9,99.3,185.5,97.4,187.1z"/>
				</g>
				<g>
					<path class="st124" d="M151.3,184.2c0,0-2.1,26.9-25.1,27.1S101,182.7,101,182.7s-8.3,4.9-10.2,7.2c-1.9,2.2-3.8,6.9-6.2,12.3
						c-2.4,5.4,3.6,14,12.4,22.9s22.7,6.3,55.4,5.4s9.6-9,10.4-26C163.6,187.5,151.3,184.2,151.3,184.2z"/>
				</g>
				<g>
					<path class="st33" d="M103.3,157.4c0,1,0,2,0,3c0,13.2,23.3,31.1,45.9,20.1c-1.4-4.5-1.3-4.9-1.6-8.7
						c-3.1,1.8-7.2,3.5-10.2,3.3C125.5,174.3,112.1,166,103.3,157.4z"/>
				</g>
				<g>
					<path class="st31" d="M117.4,65.2c-15.2,1.4-23.3,37.5-23.2,44.4c0.1,6.9,1.1,39.3,8.1,48.5c7,9.2,25.4,18.2,36.1,17.4
						c14.8-1.2,24.4-21.5,27-33.3c6.7-38.3,6.8-52.2,1.3-65C161.2,64.5,132.6,63.9,117.4,65.2z"/>
				</g>
				<g>
					<path class="st13" d="M105.3,139c0,2.1,3.1,3.8,6.9,3.8s6.9-1.7,6.9-3.8c0-2.1-3.1-3.8-6.9-3.8S105.3,136.9,105.3,139z"/>
				</g>
				<g>
					<path class="st212" d="M137.8,151.1c-4.4,2.4-10.1-2.2-10.1-2.2c-0.5-0.4-1.3-0.4-1.7,0.2c-0.4,0.5-0.4,1.3,0.2,1.7
						c0.2,0.2,4.3,3.5,8.9,3.5c1.3,0,2.7-0.3,4-1c0.6-0.3,0.8-1.1,0.5-1.7C139.1,151,138.4,150.8,137.8,151.1z"/>
				</g>
				<g>
					<path class="st212" d="M114.9,103.4c-0.5,0.4-0.6,1.2-0.1,1.7c0.4,0.5,1.2,0.6,1.7,0.1c7.9-7,15.7,0.2,16.1,0.5
						c0.2,0.2,0.5,0.3,0.8,0.3c0.3,0,0.7-0.1,0.9-0.4c0.5-0.5,0.4-1.3-0.1-1.7C134.2,103.8,124.5,95,114.9,103.4z"/>
				</g>
				<g>
					<path class="st15" d="M125.9,114v6.1c0,1.4,1.1,2.5,2.5,2.5c1.4,0,2.5-1.1,2.5-2.5V114c0-1.4-1.1-2.5-2.5-2.5
						C127,111.5,125.9,112.6,125.9,114z"/>
				</g>
				<g>
					<path class="st212" d="M136.7,141c0.1,0.6,0.6,1,1.2,1c0.1,0,0.2,0,0.3,0c10.4-2.3,10.8-3.7,10.9-4.4c0.4-1.8-1.4-2.3-2.9-2.7
						c-1.4-0.4-3.1-0.9-4.2-2c-1.3-1.4-1.5-13.7-0.9-24.2c0-0.7-0.5-1.3-1.2-1.3c-0.7,0-1.3,0.5-1.3,1.2c-0.3,5.4-1.1,23.4,1.5,26.1
						c1.6,1.6,3.7,2.2,5.3,2.7c0.1,0,0.2,0,0.2,0.1c-1.8,0.7-5.1,1.7-8.1,2.3C137,139.7,136.6,140.3,136.7,141z"/>
				</g>
				<g>
					<path class="st212" d="M145.2,103.3c-0.5,0.4-0.6,1.2-0.2,1.7c0.2,0.3,0.6,0.5,1,0.5c0.3,0,0.5-0.1,0.7-0.2
						c0.4-0.3,9.4-7,16.2-0.7c0.5,0.5,1.3,0.4,1.7-0.1c0.5-0.5,0.4-1.3-0.1-1.7C156.2,95.1,145.3,103.2,145.2,103.3z"/>
				</g>
				<g>
					<path class="st212" d="M91.5,130.7c-0.7,0-1.5-0.4-1.6-0.7c-0.3-0.6-1.1-0.8-1.7-0.5c-0.6,0.3-0.8,1.1-0.5,1.7
						c0.6,1.1,2.2,2,3.7,2c0.1,0,0.2,0,0.2,0c1.3-0.1,2.3-0.9,2.8-2.1c0.9-2.2-0.2-4.7-1.6-6.1c0.6-0.4,1.2-1,1.5-1.9
						c0.6-1.8-0.9-5.4-2.5-7.2c-1.3-1.5-2.5-1.6-3.2-1.5c-2.6,0.5-3.2,2.8-3.2,4c0,0.7,0.6,1.2,1.2,1.2c0.7,0,1.2-0.6,1.2-1.2
						c0-0.3,0.1-1.3,1.2-1.5c0.1,0,0.4,0.1,0.9,0.6c1.4,1.5,2.3,4.3,2.1,4.9c-0.1,0.4-0.8,0.7-1.2,0.9c-0.5,0.2-1.3,0.6-1.3,1.5
						c0,0.3,0.1,0.9,0.9,1.3c0.7,0.3,2.3,2.4,1.7,4C92,130.6,91.8,130.7,91.5,130.7z"/>
				</g>
				<g>
					<path class="st15" d="M148,114v6.1c0,1.4,1.1,2.5,2.5,2.5c1.4,0,2.5-1.1,2.5-2.5V114c0-1.4-1.1-2.5-2.5-2.5
						C149.1,111.5,148,112.6,148,114z"/>
				</g>
				<g>
					<path class="st62" d="M173.3,109.7c0,0,2.9-41.2-14.4-54.6s-35.2-5.1-35.2-5.1s-20.4-3.8-28.7,12.3c-8.3,16-11.8,37.6-8.4,48.7
						c0,0,1.4-1.8,4-0.2c2.6,1.6,3.9,3.3,3.9,3.3s30.9-8.5,35.7-37.5l-0.3-0.8C130.1,75.7,142.9,107.9,173.3,109.7z"/>
				</g>
				<g>
					<path class="st13" d="M153,139c0,2.1,2.6,3.8,5.7,3.8s5.7-1.7,5.7-3.8c0-2.1-2.6-3.8-5.7-3.8S153,136.9,153,139z"/>
				</g>
			</g>
			<g>
				<path class="st16" d="M90.5,140.4c-1.2,0.1-2.3-1.1-2.5-2.7c-0.7-0.5-1.3-1.2-1.9-2.2c-0.2,0.7-0.2,1.3-0.2,2
					c0.2,2.8,2.2,4.9,4.4,4.9c0.1,0,0.2,0,0.3,0c2.4-0.2,4.1-2.7,3.9-5.6c0-0.5-0.5-0.9-1.1-0.9c-0.6,0-1,0.5-0.9,1.1
					C92.6,138.8,91.7,140.3,90.5,140.4z"/>
			</g>
		</g>
		<g>
			<g>
				<path class="st124" d="M91.1,171.5c-1.9-1.6-10.8,2.3-10.8,2.3s-7-5.4-9.7-3.6c-2.7,1.7,3,5.8,3,5.8s-5.4,3.4-2.5,4.3
					c2.9,1,8.7-3,8.7-3s7.2,5.2,9.8,3.6c2.6-1.6-1-3.8-1-3.8S92.9,173.2,91.1,171.5z"/>
			</g>
			<g>
				<path class="st169" d="M79,173.6c-0.3,1.2-0.6,5.3,0.6,5.3c1.2,0,1.8-0.4,2.1-1.6s0.3-4.5-0.8-4.5
					C80.9,172.8,79.3,172.4,79,173.6z"/>
			</g>
		</g>
		<g>
			<g>
				<path class="st124" d="M175.2,169.5c-2.7-1.7-9.7,3.6-9.7,3.6s-9-3.9-10.9-2.3c-1.9,1.6,2.5,5.6,2.5,5.6s-3.7,2.2-1,3.9
					c2.6,1.6,9.9-3.6,9.9-3.6s5.8,3.9,8.7,3s-2.5-4.3-2.5-4.3S177.9,171.2,175.2,169.5z"/>
			</g>
			<g>
				<path class="st169" d="M164.8,172.1c-1.1,0-1.1,3.4-0.8,4.5c0.3,1.2,0.9,1.6,2.1,1.6s0.9-4.1,0.6-5.3
					C166.4,171.7,164.8,172.1,164.8,172.1z"/>
			</g>
		</g>
		<g>
			<path class="st170" d="M97.6,181.2c0,0-1.1,15.1,9,24.3c6.6,5.9,19.6,5.8,19.6,5.8l-2-7.8c-0.3-1.3-1.4-2.2-2.7-2.4
				c-20.2-3.1-18.8-23-18.4-27.3L97.6,181.2z"/>
		</g>
		<g>
			<path class="st170" d="M126.9,211.1c-0.1,0.1-0.3,0.1-0.5,0.2c-0.2,0-0.3,0-0.5,0c-0.1,0-0.2,0-0.3-0.1c-0.2-0.1-0.4-0.2-0.6-0.3
				l-0.2-0.3c-0.1-0.1-0.1-0.2-0.1-0.3c-0.1,1-1.1,10.6-7,21c-7,12.3-17.6,20.6-31.8,24.8h8.6c30.5-13.7,33.1-45.3,33.1-45.6l-0.2,0
				c0,0.1-0.1,0.3-0.2,0.4C127.2,210.9,127,211,126.9,211.1z"/>
		</g>
		<g>
			<g>
				<g>
					<path class="st170" d="M133.2,228.7l0.1-2c-10.3-0.6-19.9-6.5-20-6.6l-1.1,1.7C112.7,222.1,122.5,228.1,133.2,228.7z"/>
				</g>
			</g>
			<g>
				<g>
					<path class="st170" d="M123.9,243.8l0.1-2c-10.3-0.6-19.9-6.5-20-6.6l-1.1,1.7C103.4,237.2,113.1,243.2,123.9,243.8z"/>
				</g>
			</g>
			<g>
				<g>
					<path class="st170" d="M112.8,254.2l0.1-2c-10.3-0.6-19.9-6.5-20-6.6l-1.1,1.7C92.2,247.6,102,253.6,112.8,254.2z"/>
				</g>
			</g>
			<g>
				<g>
					<path class="st170" d="M108.6,220.5c0,1.8,1.5,3.3,3.3,3.3c1.8,0,3.3-1.5,3.3-3.3c0-1.8-1.5-3.3-3.3-3.3
						C110.1,217.2,108.6,218.7,108.6,220.5z"/>
				</g>
			</g>
			<g>
				<g>
					<circle class="st170" cx="133" cy="227.7" r="3.3"/>
				</g>
			</g>
			<g>
				<g>
					<path class="st170" d="M99.9,235.8c0,1.8,1.5,3.3,3.3,3.3c1.8,0,3.3-1.5,3.3-3.3s-1.5-3.3-3.3-3.3
						C101.4,232.6,99.9,234,99.9,235.8z"/>
				</g>
			</g>
			<g>
				<g>
					<path class="st170" d="M121.1,243c0,1.8,1.5,3.3,3.3,3.3c1.8,0,3.3-1.5,3.3-3.3s-1.5-3.3-3.3-3.3
						C122.5,239.8,121.1,241.2,121.1,243z"/>
				</g>
			</g>
			<g>
				<g>
					<circle class="st170" cx="91.2" cy="246" r="3.3"/>
				</g>
			</g>
			<g>
				<g>
					<path class="st170" d="M108.6,254c0,0.8,0.3,1.5,0.7,2h5c0.5-0.6,0.7-1.3,0.7-2c0-1.8-1.5-3.3-3.3-3.3
						C110.1,250.7,108.6,252.2,108.6,254z"/>
				</g>
			</g>
		</g>
		<g>
			<path class="st170" d="M131.5,201.1c-1.2,0.2-2.3,1-2.6,2.2l-2.6,8c0,0,11.7,0.2,19.2-6.4c8.8-7.7,8.9-22.1,8.2-23.7
				c-0.9-2-5.7-5.2-5.7-5.2C147.7,176.3,152.6,198,131.5,201.1z"/>
		</g>
	</g>
</g>
</svg>
