<?xml version="1.0" encoding="utf-8"?>
<!-- Generator: Adobe Illustrator 27.9.0, SVG Export Plug-In . SVG Version: 6.00 Build 0)  -->
<svg version="1.1" xmlns="http://www.w3.org/2000/svg" xmlns:xlink="http://www.w3.org/1999/xlink" x="0px" y="0px"
	 viewBox="0 0 256 256" style="enable-background:new 0 0 256 256;" xml:space="preserve">
<style type="text/css">
	.st0{display:none;}
	.st1{display:inline;fill:#3B4D75;}
	.st2{display:inline;fill:#4A9370;}
	.st3{display:inline;fill:#1B9E9A;}
	.st4{display:inline;fill:#FF4F4F;}
	.st5{display:inline;fill:#4399E6;}
	.st6{display:inline;fill:#FFC56F;}
	.st7{display:inline;fill:#444466;}
	.st8{display:inline;}
	.st9{fill:#E56E2C;}
	.st10{fill:#D17EE0;}
	.st11{fill:#FFAC9F;}
	.st12{fill:#F48A7F;}
	.st13{fill:#FC8383;}
	.st14{fill:none;stroke:#C95D55;stroke-width:2.5;stroke-linecap:round;stroke-linejoin:round;stroke-miterlimit:10;}
	.st15{fill:#4C2C22;}
	.st16{fill:#FFFFFF;}
	.st17{display:inline;fill:#5F9996;}
	.st18{display:inline;fill:#94A3B8;}
	.st19{display:inline;fill:#FF8BCF;}
	.st20{display:inline;fill:#4649D4;}
	.st21{display:inline;fill:#FE6B59;}
	.st22{display:inline;fill:#7DE2BB;}
	.st23{display:inline;fill:#9DD0C1;}
	.st24{display:inline;fill:#F9C7A2;}
	.st25{fill:#734866;}
	.st26{fill:#D37C5E;}
	.st27{fill:#9E5D46;}
	.st28{fill:none;stroke:#9E5D46;stroke-width:2.2206;stroke-linecap:round;stroke-miterlimit:10;}
	.st29{fill:#AF1E1E;}
	.st30{fill:#0276CE;}
	.st31{fill:#FFD6C0;}
	.st32{fill:none;stroke:#DD8762;stroke-width:2.4476;stroke-linecap:round;stroke-miterlimit:10;}
	.st33{fill:#E89477;}
	.st34{fill:#37355B;}
	.st35{fill:#FF4F4F;}
	.st36{clip-path:url(#SVGID_00000038382710938453690570000010746245990899911052_);}
	.st37{fill:#BC2B33;}
	.st38{fill:#ED4F4F;}
	.st39{fill:none;stroke:#9E5D46;stroke-width:2.3974;stroke-linecap:round;stroke-miterlimit:10;}
	.st40{fill:none;stroke:#4C2C22;stroke-width:2.6667;stroke-linejoin:round;stroke-miterlimit:10;}
	.st41{fill:#932525;}
	.st42{fill:none;stroke:#FFFFFF;stroke-width:3.3333;stroke-linecap:round;stroke-miterlimit:10;}
	.st43{fill:none;stroke:#FFFFFF;stroke-width:2;stroke-linecap:round;stroke-miterlimit:10;}
	.st44{fill:none;stroke:#FFFFFF;stroke-width:1.931;stroke-linecap:round;stroke-miterlimit:10;}
	.st45{fill:#173253;}
	.st46{fill:#997382;}
	.st47{fill:#7E5E6D;}
	.st48{fill:none;stroke:#FFFFFF;stroke-width:2.3333;stroke-linecap:round;stroke-miterlimit:10;}
	.st49{fill:#FFA657;}
	.st50{fill:none;stroke:#EF8B4F;stroke-width:4;stroke-miterlimit:10;}
	.st51{fill:#EF8B4F;}
	.st52{fill:#454570;}
	.st53{fill:#F28C81;}
	.st54{fill:#7E7CE1;}
	.st55{fill:none;stroke:#FFFFFF;stroke-width:3;stroke-linecap:round;stroke-miterlimit:10;}
	.st56{fill:#BF5882;}
	.st57{fill:#FF8BCF;}
	.st58{fill:#A6ADDD;}
	.st59{fill:#FFE9CA;}
	.st60{fill:none;stroke:#DB9753;stroke-width:2.4;stroke-linecap:round;stroke-linejoin:round;stroke-miterlimit:10;}
	.st61{fill:#F2BB7E;}
	.st62{fill:#202049;}
	.st63{display:inline;fill:#37355B;}
	.st64{fill:#541A30;}
	.st65{fill:#E07E68;}
	.st66{fill:#D65C50;}
	.st67{fill:none;stroke:#BC5146;stroke-width:2.5;stroke-linecap:round;stroke-linejoin:round;stroke-miterlimit:10;}
	.st68{fill:none;stroke:#C13838;stroke-width:2.5;stroke-linecap:round;stroke-miterlimit:10;}
	.st69{fill:#D33C3C;}
	.st70{fill:#FFC56F;}
	.st71{fill:none;stroke:#37355B;stroke-width:2.5;stroke-linecap:round;stroke-miterlimit:10;}
	.st72{fill:none;stroke:#E89F5D;stroke-width:2;stroke-linecap:round;stroke-linejoin:round;stroke-miterlimit:10;}
	.st73{fill:#9491B5;}
	.st74{fill:#5E434E;}
	.st75{fill:none;stroke:#F28C81;stroke-width:2;stroke-linecap:round;stroke-miterlimit:10;}
	.st76{fill:#4A6642;}
	.st77{fill:none;stroke:#3C5434;stroke-width:2;stroke-linecap:round;stroke-linejoin:round;stroke-miterlimit:10;}
	.st78{fill:#8483AA;}
	.st79{fill:#1F1F49;}
	.st80{fill:#313159;}
	.st81{fill:none;stroke:#FFFFFF;stroke-width:2.389;stroke-linecap:round;stroke-miterlimit:10;}
	.st82{fill:none;stroke:#FFFFFF;stroke-width:2.3066;stroke-linecap:round;stroke-miterlimit:10;}
	.st83{fill:#6161BC;}
	.st84{fill:#0B2759;}
	.st85{fill:#5656A5;}
	.st86{fill:none;stroke:#0B2759;stroke-width:3;stroke-linecap:round;stroke-miterlimit:10;}
	.st87{fill:#25253F;}
	.st88{fill:#5B5B84;}
	.st89{fill:#AF2323;}
	.st90{fill:#D11818;}
	.st91{fill:#47152A;}
	.st92{fill:#2A336F;}
	.st93{fill:#171E4D;}
	.st94{fill:none;stroke:#171E4D;stroke-width:2;stroke-miterlimit:10;}
	.st95{fill:#0B0F26;}
	.st96{fill:#007DA8;}
	.st97{fill:none;stroke:#DD8762;stroke-width:2.4476;stroke-linecap:round;stroke-linejoin:round;stroke-miterlimit:10;}
	.st98{fill:#3E3A39;}
	.st99{fill:#E8E9EB;}
	.st100{fill:none;stroke:#E8E9EB;stroke-width:2;stroke-linecap:round;stroke-linejoin:round;stroke-miterlimit:10;}
	.st101{fill:#D1D1D1;}
	.st102{display:inline;fill:#541A30;}
	.st103{fill:#4399E6;}
	.st104{fill:#58B9F4;}
	.st105{fill:#B4D1FB;}
	.st106{display:inline;fill:#171E4D;}
	.st107{display:inline;fill:#2A336F;}
	.st108{display:inline;fill:#B4D1FB;}
	.st109{fill:#CC966A;}
	.st110{fill:#D8E1EF;}
	.st111{fill:#8B483D;}
	.st112{fill:#A37C52;}
	.st113{fill:none;}
	.st114{fill:#FFDFC7;}
	.st115{fill:#863E39;}
	.st116{fill:#FF9D7D;}
	.st117{fill:#EF8265;}
	.st118{fill:#5F9996;}
	.st119{display:inline;fill:#D37C5E;}
	.st120{fill:none;stroke:#C65959;stroke-width:2.4476;stroke-linecap:round;stroke-miterlimit:10;}
	.st121{fill:#AE7A50;}
	.st122{fill:#7A4927;}
	.st123{fill:#94A3B8;}
	.st124{fill:#DA4040;}
	.st125{fill:none;stroke:#0B0F26;stroke-width:2;stroke-linecap:round;stroke-miterlimit:10;}
	.st126{fill:#EF8781;}
	.st127{fill:#FF9E10;}
	.st128{fill:#EF8800;}
	.st129{fill:#FFB40D;}
	.st130{fill:#FFC610;}
	.st131{fill:#8A8895;}
	.st132{fill:#E5E5E5;}
	.st133{fill:none;stroke:#CC7217;stroke-width:3;stroke-miterlimit:10;}
	.st134{fill:#F9C7A2;}
	.st135{fill:#751A1A;}
	.st136{fill:#C62C2C;}
	.st137{fill:#CC3636;}
	.st138{fill:#010101;}
	.st139{fill:#1F2644;}
	.st140{fill:none;stroke:#010101;stroke-width:4;stroke-miterlimit:10;}
	.st141{fill:#FD9556;}
	.st142{fill:#E4E6EF;}
	.st143{fill:#F2D83D;}
	.st144{fill:#2C314C;}
	.st145{fill:#735EDD;}
	.st146{fill:#F9A5CF;}
	.st147{fill:#EBCA5F;}
	.st148{fill:#F1502D;}
	.st149{fill:#D87B61;}
	.st150{fill:#005E8C;}
	.st151{fill:none;stroke:#FFFFFF;stroke-width:2;stroke-miterlimit:10;}
	.st152{fill:#9B1B1B;}
	.st153{fill:#D39089;}
	.st154{fill:#AD6F6A;}
	.st155{fill:none;stroke:#B26059;stroke-width:2.5;stroke-linecap:round;stroke-linejoin:round;stroke-miterlimit:10;}
	.st156{fill:#7E4F3D;}
	.st157{fill:none;stroke:#C95D55;stroke-linecap:round;stroke-linejoin:round;stroke-miterlimit:10;}
	.st158{fill:#FF1812;}
	.st159{fill:#1B9E9A;}
	.st160{fill:none;stroke:#C5C7C9;stroke-width:2;stroke-linecap:round;stroke-linejoin:round;stroke-miterlimit:10;}
	.st161{fill:#1E1F21;}
	.st162{fill:#C5C7C9;}
	.st163{fill:#3A362F;}
	.st164{fill:#3279AF;}
	.st165{fill:#EA847A;}
	.st166{fill:#1E2754;}
	.st167{fill:#C12525;}
	.st168{fill:none;stroke:#3A362F;stroke-width:2;stroke-linecap:round;stroke-miterlimit:10;}
	.st169{fill:#F95353;}
	.st170{fill:#FCF01D;}
	.st171{fill:#4B3E87;}
	.st172{fill:#312951;}
	.st173{fill:#6857A5;}
	.st174{fill:#FFB240;}
	.st175{fill:#372D66;}
	.st176{fill:#444466;}
	.st177{fill:#1A1711;}
	.st178{fill:#35312A;}
	.st179{fill:#FF6161;}
	.st180{fill:#4D2684;}
	.st181{fill:#593493;}
	.st182{fill:#845362;}
	.st183{fill:#6B4050;}
	.st184{fill:none;stroke:#0B0F26;stroke-width:2;stroke-linecap:round;stroke-linejoin:round;stroke-miterlimit:10;}
	.st185{fill:#461378;}
	.st186{fill:#5C2A96;}
	.st187{fill:#B22424;}
	.st188{fill:#FFCC00;}
	.st189{fill:#BC3131;}
	.st190{fill:#631010;}
	.st191{display:inline;fill:#007DA8;}
	.st192{fill:#B2B2B2;}
	.st193{fill:#705137;}
	.st194{display:inline;fill:#DA4040;}
	.st195{fill:#7DC6EE;}
	.st196{fill:#C0E7F9;}
	.st197{fill:#EBDBAF;}
	.st198{fill:#A8986F;}
	.st199{fill:#D6BA7C;}
	.st200{fill:#A8905A;}
	.st201{fill:#E6D19D;}
	.st202{fill:#A7603A;}
	.st203{fill:#A0827F;}
	.st204{fill:#FFC54D;}
	.st205{fill:#3B4D75;}
	.st206{fill:#4A9370;}
	.st207{fill:#C95D55;}
	.st208{fill:#4649D4;}
	.st209{fill:#FE6B59;}
	.st210{fill:#7DE2BB;}
	.st211{fill:#9DD0C1;}
	.st212{fill:#DD8762;}
	.st213{fill:#DB9753;}
	.st214{fill:#BC5146;}
	.st215{fill:#C13838;}
	.st216{fill:#E89F5D;}
	.st217{fill:#3C5434;}
	.st218{fill:#C65959;}
	.st219{fill:#CC7217;}
	.st220{fill:#B26059;}
</style>
<g id="Layer_1" class="st0">
	<g class="st8">
		<rect y="0" class="st176" width="256" height="256"/>
		<g>
			<g>
				<g>
					<path class="st124" d="M12.6,256h226.2c-3.9-16.1-24.6-77.9-113.9-76.9C28.7,180.2,14.6,240.2,12.6,256z"/>
					<g>
						<path class="st95" d="M93.3,126.3c0,0-1.3,12.7,1.3,18.1c2.6,5.4,11.5,2,11.5,2l-2.2-22.3L93.3,126.3z"/>
						<path class="st31" d="M166.5,148.6c0.5,23-18,25-18,25l0,9.6v3.7c0,15.8-5.1,23.1-22.3,24.4c-18.4,0-24.6-11.9-22.6-24.4
							l2.4-19.7l0.5-4.5l0,0c0,0-0.1,0-0.1,0c-1.2-0.6-8.2-12.2-8.3-35.5c-0.1-23.6-20.2-74,55.7-55.2c7.8,1.9,13.5,8.6,14.4,16.7
							C170.2,105.8,166.2,134.3,166.5,148.6z"/>
						<path class="st95" d="M162.5,94.9c0,0,1,7.4,6.3,9.5c0,0,1.4-9.4,0.1-11.3L162.5,94.9z"/>
						<path class="st33" d="M148.5,173.6l0,13.2c-19.2-4.1-33.2-14.3-42.5-19.8l0.5-4.5C128.9,177.6,148.5,173.6,148.5,173.6z"/>
						<path class="st32" d="M141.1,102.8c0,0-1.4,20.4,0.9,20.4c2.4,0,8.4,3.3-1.8,13.8"/>
						<path class="st34" d="M128,119.2L128,119.2c-1.4,0-2.6-1.2-2.6-2.6v-7.1c0-1.4,1.2-2.6,2.6-2.6h0c1.4,0,2.6,1.2,2.6,2.6v7.1
							C130.6,118,129.4,119.2,128,119.2z"/>
						<path class="st34" d="M151,119.2L151,119.2c-1.4,0-2.6-1.2-2.6-2.6v-7.1c0-1.4,1.2-2.6,2.6-2.6l0,0c1.4,0,2.6,1.2,2.6,2.6v7.1
							C153.7,118,152.5,119.2,151,119.2z"/>
						<path class="st31" d="M95.9,100.6c0,0-8.2-1.7-10,2.8s-2.3,28,10.1,24.5S95.9,100.6,95.9,100.6z"/>
						<path class="st32" d="M115.7,104.4c0,0,7.5-10.4,18.3-3.2"/>
						<path class="st32" d="M162.5,104c0,0-7.4-9.8-17.3-1.9"/>
						<path class="st32" d="M88.9,109.1c0,0,3.8-2.3,4.6-0.5c0.8,1.8-1.1,5.2-1.1,5.2s5,5.7,2.7,6.7c-2.3,1-5.3-1-5.9-2.5"/>
						<path class="st32" d="M131.9,148c0,0,4.1,4.4,10.9,1.7"/>
						<path class="st95" d="M112.4,95c0,0-0.1,3.4-4.6,9.1c-4,5-12.1,4-12.2,2.8s0-5.3-1-5.9c-2.5-1.3-7.2,0.5-7.2,0.5
							s-1.8-11.8-0.9-12.2C87.5,89,112.4,91.5,112.4,95z"/>
					</g>
				</g>
				<path class="st124" d="M103.4,182.1c-0.1,1.1-0.5,29.2,22.8,29.2s22.3-24.4,22.3-24.4s7.4-8.7,8.2,3.5
					c0.8,12.1,1.6,26.6-12.1,31.6c-13.7,5-22.2,9-33.5,1.8S87.6,211.9,92.4,204C97.1,196.1,103.4,182.1,103.4,182.1z"/>
				<path class="st187" d="M126.2,211.3c-0.3,0-0.5-0.1-0.7-0.2v45h1.3l0.2-44.9C126.7,211.2,126.5,211.3,126.2,211.3z"/>
			</g>
			<path class="st188" d="M123.6,47c0,0,1.3-3.6,5.7-3.6c4.4,0,5.9,4,5.9,4L123.6,47z"/>
			<path class="st189" d="M85.1,90c0,0,0.5-24.5,14.1-34.5s26.8-9.3,35-9c10.4,0.5,25.3,6.8,30.9,15.6c5.3,8.5,4.5,29.4,4.5,29.4
				S107,98,85.1,90z"/>
			<path class="st124" d="M165.9,91.9c0,0,0-40.2-35.1-45.5c-0.1,0-0.2,0-0.2,0c-1.3,0.5-24.4,9.9-24.5,46.7L165.9,91.9
				C165.9,91.9,165.9,91.9,165.9,91.9z"/>
			<g>
				<path class="st188" d="M132.6,96.5c-26.6,0-43-3.6-47.6-4.8c-0.7-0.2-1.2-0.9-1.1-1.6l0.4-4.4c0.1-0.9,1-1.6,1.9-1.3
					c7.3,2,37.6,9,82.6,2.6c0.9-0.1,1.7,0.6,1.7,1.5l0.1,4c0,0.8-0.5,1.4-1.3,1.5C155,96.1,143.9,96.5,132.6,96.5z"/>
			</g>
			<path class="st187" d="M101.7,180.7l2.9-8.2c1.6,0-2.3,29.4,18.7,32.2c0.9,0.1,1.7,0.8,1.9,1.7l1.1,4.9c0,0-9.3,3-17.9-4.4
				C99.8,199.5,101.7,180.7,101.7,180.7z"/>
			<path class="st187" d="M127.6,206.3l-1.4,5c0,0,11.4,2.9,19.7-5.3c8.3-8.2,6.7-23.5,6.1-25.1c-0.9-2-3.4-4.1-3.4-4.1
				c-0.3,0.3,2.7,25-19.1,27.9C128.5,204.8,127.8,205.5,127.6,206.3z"/>
			<path class="st190" d="M134.6,225.6h-16.9c-0.6,0-1.1-0.5-1.1-1.1l0,0c0-0.6,0.5-1.1,1.1-1.1h16.9c0.6,0,1.1,0.5,1.1,1.1l0,0
				C135.7,225.2,135.2,225.6,134.6,225.6z"/>
			<path class="st190" d="M134.6,245.3h-16.9c-0.6,0-1.1-0.5-1.1-1.1l0,0c0-0.6,0.5-1.1,1.1-1.1h16.9c0.6,0,1.1,0.5,1.1,1.1l0,0
				C135.7,244.8,135.2,245.3,134.6,245.3z"/>
			<circle class="st188" cx="115.5" cy="224.6" r="3.6"/>
			<circle class="st188" cx="115.5" cy="244.2" r="3.6"/>
		</g>
	</g>
</g>
<g id="Layer_2">
	<g>
		<rect class="st176" width="256" height="256"/>
	</g>
	<g>
		<g>
			<g>
				<g>
					<path class="st124" d="M124.9,179.1C28.7,180.2,14.6,240.2,12.6,256h226.2C234.9,239.9,214.1,178.1,124.9,179.1z"/>
				</g>
				<g>
					<g>
						<path class="st95" d="M94.6,144.4c2.6,5.4,11.5,2,11.5,2l-2.2-22.3l-10.5,2.2C93.3,126.3,92,139,94.6,144.4z"/>
					</g>
					<g>
						<path class="st31" d="M168.3,88.5c-0.9-8.1-6.6-14.8-14.4-16.7C78,53,98.1,103.4,98.2,127c0.1,23.3,7.1,34.9,8.3,35.5
							c0,0,0.1,0,0.1,0l0,0l-0.5,4.5l-2.4,19.7c-2.1,12.6,4.2,24.4,22.6,24.4c17.2-1.3,22.3-8.7,22.3-24.4v-3.7l0-9.6
							c0,0,18.5-1.9,18-25C166.2,134.3,170.2,105.8,168.3,88.5z"/>
					</g>
					<g>
						<path class="st95" d="M168.7,104.4c0,0,1.4-9.4,0.1-11.3l-6.3,1.8C162.5,94.9,163.4,102.2,168.7,104.4z"/>
					</g>
					<g>
						<path class="st33" d="M106.1,167.1c9.2,5.5,23.3,15.7,42.5,19.8l0-13.2c0,0-19.7,4.1-41.9-11L106.1,167.1z"/>
					</g>
					<g>
						<path class="st212" d="M139.3,137.8c0.2,0.2,0.5,0.3,0.9,0.3c0.3,0,0.6-0.1,0.9-0.4c5.1-5.3,7-9.6,5.7-12.7
							c-0.8-1.9-2.7-2.9-4.3-3.1c-0.8-2-0.7-11.2-0.1-19.1c0-0.7-0.5-1.3-1.1-1.3c-0.7,0-1.3,0.5-1.3,1.1c-0.4,5.6-1.1,19,0.9,21.1
							c0.3,0.4,0.8,0.6,1.2,0.6c0.7,0,2,0.5,2.5,1.6c0.4,1,0.7,3.9-5.2,10.1C138.8,136.6,138.8,137.4,139.3,137.8z M142.5,122.2
							L142.5,122.2L142.5,122.2z"/>
					</g>
					<g>
						<path class="st34" d="M125.4,109.5v7.1c0,1.4,1.2,2.6,2.6,2.6c1.4,0,2.6-1.2,2.6-2.6v-7.1c0-1.4-1.2-2.6-2.6-2.6
							C126.5,106.9,125.4,108,125.4,109.5z"/>
					</g>
					<g>
						<path class="st34" d="M148.4,109.5v7.1c0,1.4,1.2,2.6,2.6,2.6c1.4,0,2.6-1.2,2.6-2.6v-7.1c0-1.4-1.2-2.6-2.6-2.6
							C149.6,106.9,148.4,108,148.4,109.5z"/>
					</g>
					<g>
						<path class="st31" d="M86,103.4c-1.7,4.4-2.3,28,10.1,24.5c12.4-3.5-0.2-27.2-0.2-27.2S87.7,98.9,86,103.4z"/>
					</g>
					<g>
						<path class="st212" d="M114.7,103.7c-0.4,0.5-0.3,1.3,0.3,1.7c0.2,0.2,0.5,0.2,0.7,0.2c0.4,0,0.8-0.2,1-0.5
							c0.3-0.4,6.9-9.4,16.7-2.9c0.6,0.4,1.3,0.2,1.7-0.3c0.4-0.6,0.2-1.3-0.3-1.7C123,92.4,114.8,103.6,114.7,103.7z"/>
					</g>
					<g>
						<path class="st212" d="M154.3,97.9c-3.4-0.4-6.7,0.7-9.9,3.3c-0.5,0.4-0.6,1.2-0.2,1.7c0.4,0.5,1.2,0.6,1.7,0.2
							c2.7-2.2,5.4-3.1,8.1-2.8c4.5,0.5,7.5,4.4,7.5,4.4c0.2,0.3,0.6,0.5,1,0.5c0.3,0,0.5-0.1,0.7-0.2c0.5-0.4,0.6-1.2,0.2-1.7
							C163.3,103.1,159.8,98.6,154.3,97.9z"/>
					</g>
					<g>
						<path class="st212" d="M92.3,119.1c-1-0.4-1.8-1.2-1.9-1.6c-0.2-0.6-0.9-1-1.6-0.7c-0.6,0.2-1,0.9-0.7,1.6
							c0.4,1.2,1.7,2.4,3.3,3c0.8,0.4,1.6,0.5,2.4,0.5c0.6,0,1.2-0.1,1.8-0.4c0.7-0.3,1.1-0.8,1.3-1.5c0.4-1.9-1.7-4.8-3-6.4
							c0.6-1.3,1.5-3.7,0.8-5.5c-0.3-0.6-0.8-1.1-1.5-1.3c-1.8-0.6-4.4,0.9-4.9,1.2c-0.6,0.4-0.8,1.1-0.4,1.7
							c0.4,0.6,1.1,0.8,1.7,0.4c1.1-0.6,2.5-1.1,2.8-1c0.4,0.9-0.4,3-1,4.1l-0.4,0.8l0.6,0.6c1.6,1.8,2.9,4,3,4.8
							C93.7,119.6,92.8,119.3,92.3,119.1z"/>
					</g>
					<g>
						<path class="st212" d="M142.4,148.5c-5.9,2.3-9.4-1.2-9.6-1.4c-0.5-0.5-1.2-0.5-1.7-0.1c-0.5,0.5-0.5,1.2-0.1,1.7
							c0.1,0.2,2.8,3,7.5,3c1.4,0,3.1-0.3,4.8-1c0.6-0.2,0.9-1,0.7-1.6C143.8,148.6,143,148.3,142.4,148.5z"/>
					</g>
					<g>
						<path class="st95" d="M86.6,89.4c-0.9,0.4,0.9,12.2,0.9,12.2s4.6-1.9,7.2-0.5c1,0.5,0.9,4.7,1,5.9s8.2,2.2,12.2-2.8
							c4.5-5.7,4.6-9.1,4.6-9.1C112.4,91.5,87.5,89,86.6,89.4z"/>
					</g>
				</g>
			</g>
			<g>
				<path class="st124" d="M92.4,204c-4.7,7.9,7.4,12.7,18.7,19.8c11.3,7.1,19.8,3.2,33.5-1.8c13.7-5,12.9-19.5,12.1-31.6
					s-8.2-3.5-8.2-3.5s1,24.4-22.3,24.4s-22.9-28.1-22.8-29.2C103.4,182.1,97.1,196.1,92.4,204z"/>
			</g>
			<g>
				<path class="st187" d="M125.5,256h1.3l0.2-44.9c-0.2,0.1-0.4,0.2-0.7,0.2c-0.3,0-0.5-0.1-0.7-0.2V256z"/>
			</g>
		</g>
		<g>
			<path class="st188" d="M123.6,47l11.5,0.5c0,0-1.5-4-5.9-4S123.6,47,123.6,47z"/>
		</g>
		<g>
			<path class="st189" d="M134.3,46.5c-8.2-0.4-21.4-1-35,9S85.1,90,85.1,90c21.9,8,84.6,1.5,84.6,1.5s0.8-20.9-4.5-29.4
				C159.6,53.4,144.6,47,134.3,46.5z"/>
		</g>
		<g>
			<path class="st124" d="M130.5,46.4c-1.3,0.5-24.4,9.9-24.5,46.7l59.9-1.2c0,0,0,0,0,0c0,0,0-40.2-35.1-45.5
				C130.7,46.4,130.6,46.4,130.5,46.4z"/>
		</g>
		<g>
			<g>
				<path class="st188" d="M168.8,87c-45.1,6.4-75.3-0.6-82.6-2.6c-0.9-0.2-1.8,0.4-1.9,1.3l-0.4,4.4c-0.1,0.7,0.4,1.4,1.1,1.6
					c4.5,1.2,20.9,4.8,47.6,4.8c11.3,0,22.3-0.5,36.8-2.6c0.8-0.1,1.3-0.8,1.3-1.5l-0.1-4C170.6,87.5,169.7,86.9,168.8,87z"/>
			</g>
		</g>
		<g>
			<path class="st187" d="M123.3,204.7c-20.9-2.9-17.1-32.2-18.7-32.2l-2.9,8.2c0,0-1.9,18.8,6.6,26.3c8.6,7.5,17.9,4.4,17.9,4.4
				l-1.1-4.9C124.9,205.5,124.2,204.8,123.3,204.7z"/>
		</g>
		<g>
			<path class="st187" d="M129.4,204.7c-0.9,0.1-1.6,0.8-1.8,1.6l-1.4,5c0,0,11.4,2.9,19.7-5.3s6.7-23.5,6.1-25.1
				c-0.9-2-3.4-4.1-3.4-4.1C148.2,177.1,151.3,201.8,129.4,204.7z"/>
		</g>
		<g>
			<path class="st190" d="M117.8,223.5c-0.6,0-1.1,0.5-1.1,1.1c0,0.6,0.5,1.1,1.1,1.1h16.9c0.6,0,1.1-0.5,1.1-1.1
				c0-0.6-0.5-1.1-1.1-1.1H117.8z"/>
		</g>
		<g>
			<path class="st190" d="M117.8,243.2c-0.6,0-1.1,0.5-1.1,1.1s0.5,1.1,1.1,1.1h16.9c0.6,0,1.1-0.5,1.1-1.1s-0.5-1.1-1.1-1.1H117.8z
				"/>
		</g>
		<g>
			<path class="st188" d="M111.9,224.6c0,2,1.6,3.6,3.6,3.6c2,0,3.6-1.6,3.6-3.6s-1.6-3.6-3.6-3.6
				C113.5,221,111.9,222.6,111.9,224.6z"/>
		</g>
		<g>
			<path class="st188" d="M111.9,244.2c0,2,1.6,3.6,3.6,3.6c2,0,3.6-1.6,3.6-3.6s-1.6-3.6-3.6-3.6
				C113.5,240.6,111.9,242.2,111.9,244.2z"/>
		</g>
	</g>
</g>
</svg>
