<?xml version="1.0" encoding="utf-8"?>
<!-- Generator: Adobe Illustrator 28.0.0, SVG Export Plug-In . SVG Version: 6.00 Build 0)  -->
<svg version="1.1" id="Layer_1" xmlns="http://www.w3.org/2000/svg" xmlns:xlink="http://www.w3.org/1999/xlink" x="0px" y="0px"
	 viewBox="0 0 48 48" style="enable-background:new 0 0 48 48;" xml:space="preserve">
<style type="text/css">
	.st0{fill:url(#SVGID_1_);}
	.st1{fill:#FFFFFF;}
	.st2{opacity:0.5;fill:#FFFFFF;enable-background:new    ;}
	.st3{opacity:0.9;fill:#FFFFFF;enable-background:new    ;}
</style>
<g id="Layer_1_00000167378665595504786750000011179382137756719761_">
	
		<linearGradient id="SVGID_1_" gradientUnits="userSpaceOnUse" x1="8.61" y1="-710.7202" x2="40.62" y2="-742.7302" gradientTransform="matrix(1 0 0 -1 0 -702.1102)">
		<stop  offset="0" style="stop-color:#7F99FF"/>
		<stop  offset="0.25" style="stop-color:#618EFF"/>
		<stop  offset="0.55" style="stop-color:#4382FF"/>
		<stop  offset="0.81" style="stop-color:#317BFF"/>
		<stop  offset="1" style="stop-color:#2A79FF"/>
	</linearGradient>
	<path class="st0" d="M14,4h20c5.5,0,10,4.5,10,10v20c0,5.5-4.5,10-10,10H14C8.5,44,4,39.5,4,34V14C4,8.5,8.5,4,14,4z"/>
</g>
<path class="st1" d="M31.9,27.6c-0.4-0.2-0.9-0.3-1.5-0.3c-0.4,0-0.8,0.1-1.2,0.2c-0.8,0.3-1.4,0.8-1.8,1.5c-0.2,0.4-0.4,1-0.4,1.6
	c0,0.4,0.1,0.9,0.2,1.3c0.1,0.3,0.2,0.5,0.4,0.8l-1.5,1.5c-0.2,0.2-0.2,0.5,0,0.7s0.5,0.2,0.7,0l0,0l1.5-1.5c0.6,0.4,1.3,0.7,2,0.7
	c1.9,0,3.4-1.5,3.4-3.4C33.8,29.3,33,28.1,31.9,27.6z M30.4,33c-0.9,0-1.6-0.5-2-1.2C28.2,31.4,28,31,28,30.5c0-0.2,0-0.3,0-0.5
	c0.2-0.7,0.6-1.3,1.2-1.6c0.3-0.2,0.7-0.3,1.2-0.3s1.1,0.2,1.5,0.5c0.6,0.4,1,1.1,1,1.9C32.8,32,31.8,33,30.4,33z"/>
<path class="st1" d="M31.9,27.6c-0.4-0.2-0.9-0.3-1.5-0.3c-0.4,0-0.8,0.1-1.2,0.2c-0.8,0.3-1.4,0.8-1.8,1.5c-0.2,0.4-0.4,1-0.4,1.6
	c0,0.4,0.1,0.9,0.2,1.3c0.1,0.3,0.2,0.5,0.4,0.8l-1.5,1.5c-0.2,0.2-0.2,0.5,0,0.7s0.5,0.2,0.7,0l0,0l1.5-1.5c0.6,0.4,1.3,0.7,2,0.7
	c1.9,0,3.4-1.5,3.4-3.4C33.8,29.3,33,28.1,31.9,27.6z M30.4,33c-0.9,0-1.6-0.5-2-1.2C28.2,31.4,28,31,28,30.5c0-0.2,0-0.3,0-0.5
	c0.2-0.7,0.6-1.3,1.2-1.6c0.3-0.2,0.7-0.3,1.2-0.3s1.1,0.2,1.5,0.5c0.6,0.4,1,1.1,1,1.9C32.8,32,31.8,33,30.4,33z"/>
<circle class="st2" cx="30.4" cy="30.6" r="2.4"/>
<g>
	<path class="st3" d="M24.8,21.6c0-0.4-0.4-0.8-0.8-0.8h-7.1c-0.4,0-0.8,0.4-0.8,0.8v10.3h8.7V21.6z M19.2,30.3h-1.6v-1.6h1.6V30.3z
		 M19.2,27.1h-1.6v-1.6h1.6V27.1z M19.2,24h-1.6v-1.6h1.6V24z M23.2,30.3h-2.4v-1.6h2.4V30.3z M23.2,27.1h-2.4v-1.6h2.4V27.1z
		 M23.2,24h-2.4v-1.6h2.4V24z"/>
	<path class="st2" d="M26,19.2h-6.7v-2.4c0-0.4,0.4-0.8,0.8-0.8H28c0.4,0,0.8,0.4,0.8,0.8v5.5h-2.4v-2.8
		C26.4,19.4,26.2,19.2,26,19.2z"/>
	<path class="st3" d="M31.9,24.8v1.9c-0.5-0.2-1-0.3-1.5-0.3c-1.9,0-3.5,1.2-4,2.9v-4.5c0-0.4,0.3-0.8,0.8-0.8h4
		C31.6,24,31.9,24.3,31.9,24.8z"/>
</g>
</svg>
