<?xml version="1.0" encoding="UTF-8"?>
<svg id="a" data-name="Layer 1" xmlns="http://www.w3.org/2000/svg" width="40" height="40" xmlns:xlink="http://www.w3.org/1999/xlink" viewBox="0 0 40 40">
  <defs>
    <linearGradient id="b" x1="4.61" y1="1754.61" x2="36.62" y2="1786.62" gradientTransform="translate(0 -1750)" gradientUnits="userSpaceOnUse">
      <stop offset="0" stop-color="#53dbba"/>
      <stop offset=".24" stop-color="#4eccaa"/>
      <stop offset=".55" stop-color="#47c49a"/>
      <stop offset=".81" stop-color="#47c49a"/>
      <stop offset="1" stop-color="#42ba96"/>
    </linearGradient>
  </defs>
  <path d="m10,0h20c5.5,0,10,4.5,10,10v20c0,5.5-4.5,10-10,10H10c-5.5,0-10-4.5-10-10V10C0,4.5,4.5,0,10,0Z" fill="url(#b)" stroke-width="0"/>
  <g id="c" data-name="Layer 1">
    <path d="m28,19.82v1.18c-2.61.7-5.3,1.01-8,.92-2.7.09-5.39-.22-8-.92v-6.3c2.16,1.08,5.6,1.3,8,1.3,1,0,2.18-.04,3.37-.16.08.07.17.12.27.17l1.58.79c.19.1.34.25.43.43l.79,1.59c.3.6.89.98,1.56,1Z" fill="#fff" isolation="isolate" opacity=".9" stroke-width="0"/>
    <path d="m26.08,10.7l-.43.86c-.09.18-.24.33-.43.42l-1.58.8c-.46.23-.79.63-.92,1.1-.85.08-1.76.12-2.72.12-4.42,0-8-.9-8-2s3.58-2,8-2c2.44,0,4.62.27,6.08.7Z" fill="#fff" isolation="isolate" opacity=".5" stroke-width="0"/>
    <path d="m12,28c0,1.1,3.58,2,8,2s8-.9,8-2v-4.88c-2.63.56-5.31.83-8,.8-2.69.03-5.37-.24-8-.79v4.87Z" fill="#fff" isolation="isolate" opacity=".9" stroke-width="0"/>
  </g>
  <path d="m31.81,14.67l-1.59.79c-.48.24-.86.62-1.1,1.1l-.79,1.59c-.11.23-.44.23-.55,0l-.79-1.59c-.24-.48-.62-.86-1.1-1.1l-1.59-.79c-.23-.11-.23-.44,0-.55l1.59-.79c.48-.24.86-.62,1.1-1.1l.79-1.59c.11-.23.44-.23.55,0l.79,1.59c.24.48.62.86,1.1,1.1l1.59.79c.23.11.23.44,0,.55Zm.27-3.83l.34.68c.05.1.19.1.24,0l.34-.68c.1-.2.27-.37.47-.47l.68-.34c.1-.05.1-.19,0-.24l-.68-.34c-.2-.1-.37-.27-.47-.47l-.34-.68c-.05-.1-.19-.1-.24,0l-.34.68c-.1.2-.27.37-.47.47l-.68.34c-.1.05-.1.19,0,.24l.68.34c.2.1.37.27.47.47Z" fill="#ffe000" stroke-width="0"/>
</svg>