<?xml version="1.0" encoding="UTF-8"?>
<svg id="a" data-name="Layer 1" xmlns="http://www.w3.org/2000/svg" width="40" height="40" xmlns:xlink="http://www.w3.org/1999/xlink" viewBox="0 0 40 40">
  <defs>
    <linearGradient id="c" x1="4.61" y1="-714.72" x2="36.62" y2="-746.73" gradientTransform="translate(0 -710.11) scale(1 -1)" gradientUnits="userSpaceOnUse">
      <stop offset="0" stop-color="#7f99ff"/>
      <stop offset=".25" stop-color="#618eff"/>
      <stop offset=".55" stop-color="#4382ff"/>
      <stop offset=".81" stop-color="#317bff"/>
      <stop offset="1" stop-color="#2a79ff"/>
    </linearGradient>
  </defs>
  <g id="b" data-name="Layer 1">
    <path d="m10,0h20c5.5,0,10,4.5,10,10v20c0,5.5-4.5,10-10,10H10c-5.5,0-10-4.5-10-10V10C0,4.5,4.5,0,10,0Z" fill="url(#c)" stroke-width="0"/>
  </g>
  <path d="m27.9,23.6c-.4-.2-.9-.3-1.5-.3-.4,0-.8.1-1.2.2-.8.3-1.4.8-1.8,1.5-.2.4-.4,1-.4,1.6,0,.4.1.9.2,1.3.1.3.2.5.4.8l-1.5,1.5c-.2.2-.2.5,0,.7s.5.2.7,0h0l1.5-1.5c.6.4,1.3.7,2,.7,1.9,0,3.4-1.5,3.4-3.4.1-1.4-.7-2.6-1.8-3.1Zm-1.5,5.4c-.9,0-1.6-.5-2-1.2-.2-.4-.4-.8-.4-1.3v-.5c.2-.7.6-1.3,1.2-1.6.3-.2.7-.3,1.2-.3s1.1.2,1.5.5c.6.4,1,1.1,1,1.9-.1,1.5-1.1,2.5-2.5,2.5Z" fill="#fff" stroke-width="0"/>
  <path d="m27.9,23.6c-.4-.2-.9-.3-1.5-.3-.4,0-.8.1-1.2.2-.8.3-1.4.8-1.8,1.5-.2.4-.4,1-.4,1.6,0,.4.1.9.2,1.3.1.3.2.5.4.8l-1.5,1.5c-.2.2-.2.5,0,.7s.5.2.7,0h0l1.5-1.5c.6.4,1.3.7,2,.7,1.9,0,3.4-1.5,3.4-3.4.1-1.4-.7-2.6-1.8-3.1Zm-1.5,5.4c-.9,0-1.6-.5-2-1.2-.2-.4-.4-.8-.4-1.3v-.5c.2-.7.6-1.3,1.2-1.6.3-.2.7-.3,1.2-.3s1.1.2,1.5.5c.6.4,1,1.1,1,1.9-.1,1.5-1.1,2.5-2.5,2.5Z" fill="#fff" stroke-width="0"/>
  <circle cx="26.4" cy="26.6" r="2.4" fill="#fff" isolation="isolate" opacity=".5" stroke-width="0"/>
  <g>
    <path d="m20.8,17.6c0-.4-.4-.8-.8-.8h-7.1c-.4,0-.8.4-.8.8v10.3h8.7v-10.3Zm-5.6,8.7h-1.6v-1.6h1.6v1.6Zm0-3.2h-1.6v-1.6h1.6v1.6Zm0-3.1h-1.6v-1.6h1.6v1.6Zm4,6.3h-2.4v-1.6h2.4v1.6Zm0-3.2h-2.4v-1.6h2.4v1.6Zm0-3.1h-2.4v-1.6h2.4v1.6Z" fill="#fff" isolation="isolate" opacity=".9" stroke-width="0"/>
    <path d="m22,15.2h-6.7v-2.4c0-.4.4-.8.8-.8h7.9c.4,0,.8.4.8.8v5.5h-2.4v-2.8c0-.1-.2-.3-.4-.3Z" fill="#fff" isolation="isolate" opacity=".5" stroke-width="0"/>
    <path d="m27.9,20.8v1.9c-.5-.2-1-.3-1.5-.3-1.9,0-3.5,1.2-4,2.9v-4.5c0-.4.3-.8.8-.8h4c.4,0,.7.3.7.8Z" fill="#fff" isolation="isolate" opacity=".9" stroke-width="0"/>
  </g>
</svg>