<?xml version="1.0" encoding="utf-8"?>
<!-- Generator: Adobe Illustrator 27.4.1, SVG Export Plug-In . SVG Version: 6.00 Build 0)  -->
<svg version="1.1" id="Layer_1" xmlns="http://www.w3.org/2000/svg" xmlns:xlink="http://www.w3.org/1999/xlink" x="0px" y="0px"
	 viewBox="0 0 48 48" style="enable-background:new 0 0 48 48;" xml:space="preserve">
<style type="text/css">
	.st0{fill:url(#SVGID_1_);}
	.st1{opacity:0.5;fill:#FFFFFF;enable-background:new    ;}
	.st2{opacity:0.9;fill:#FFFFFF;enable-background:new    ;}
	.st3{fill:#FFFFFF;}
</style>
<linearGradient id="SVGID_1_" gradientUnits="userSpaceOnUse" x1="8.61" y1="41.39" x2="40.62" y2="9.38" gradientTransform="matrix(1 0 0 -1 0 50)">
	<stop  offset="0" style="stop-color:#8CC63F"/>
	<stop  offset="0.24" style="stop-color:#70C043"/>
	<stop  offset="0.55" style="stop-color:#52BA47"/>
	<stop  offset="0.81" style="stop-color:#40B649"/>
	<stop  offset="1" style="stop-color:#39B54A"/>
</linearGradient>
<path class="st0" d="M14,4h20c5.5,0,10,4.5,10,10v20c0,5.5-4.5,10-10,10H14C8.5,44,4,39.5,4,34V14C4,8.5,8.5,4,14,4z"/>
<g>
	<path class="st1" d="M26.1,30.6c0,0.6,0.1,1.2,0.3,1.8h-8.3c-0.5,0-0.8-0.4-0.8-0.8V29c0-1.9,1.5-3.4,3.3-3.4h6.7
		c0.7,0,1.4,0.2,1.9,0.6C27.4,26.9,26.1,28.6,26.1,30.6z"/>
	<circle class="st2" cx="24" cy="19" r="3.3"/>
</g>
<path class="st3" d="M31.9,27.6c-0.4-0.2-0.9-0.3-1.5-0.3c-0.4,0-0.8,0.1-1.2,0.2c-0.8,0.3-1.4,0.8-1.8,1.5c-0.2,0.4-0.4,1-0.4,1.6
	c0,0.4,0.1,0.9,0.2,1.3c0.1,0.3,0.2,0.5,0.4,0.8l-1.5,1.5c-0.2,0.2-0.2,0.5,0,0.7s0.5,0.2,0.7,0l0,0l1.5-1.5c0.6,0.4,1.3,0.7,2,0.7
	c1.9,0,3.4-1.5,3.4-3.4C33.8,29.3,33,28.1,31.9,27.6z M30.4,33c-0.9,0-1.6-0.5-2-1.2C28.2,31.4,28,31,28,30.5c0-0.2,0-0.3,0-0.5
	c0.2-0.7,0.6-1.3,1.2-1.6c0.3-0.2,0.7-0.3,1.2-0.3s1.1,0.2,1.5,0.5c0.6,0.4,1,1.1,1,1.9C32.8,32,31.8,33,30.4,33z"/>
<circle class="st1" cx="30.4" cy="30.6" r="2.4"/>
</svg>
